<svg xmlns="http://www.w3.org/2000/svg" width="32" height="38" fill="none" viewBox="0 0 32 38"><path fill="#FCFCFC" d="M28.4938 27.6479c-.97 0-1.6403.6869-1.6403 1.4908 0 .8992.6847 1.5187 1.6405 1.5187.9923 0 1.6405-.6252 1.6405-1.5187 0-.8092-.6743-1.4908-1.6407-1.4908"/><path fill="#FCFCFC" d="M28.0749 20.8026c.39-.3773.9152-.519 1.3648-.503.9783.0346 1.3943.5675 1.5735.8801.5348.9337.5122 2.6541.1531 3.7187-.2542.754-.6705 1.9071-1.6742 2.7341-.4702.3874-1.1924.6245-1.841.407-.4541 1.5768-1.2857 3.4927-2.7603 5.2699-1.7395 2.0963-3.6835 3.2792-5.9482 3.7782-1.042.2294-2.0499.2794-3.0079.3071-.9579-.0279-1.873-.1317-2.7721-.2989-2.2794-.4245-4.44396-1.6901-6.18366-3.7864-1.46392-1.7641-2.29414-3.6649-2.75078-5.2362-.61614.1546-1.27998-.0767-1.72143-.4404-1.00371-.8269-1.42025-1.9802-1.6742-2.7341-.35886-1.0644-.3814-2.7851.15308-3.7187.1792-.3129.59525-.8455 1.57357-.8802.44952-.016.97476.1257 1.36471.503 0 0-2.01289-12.85016 12.07541-12.85016S28.0747 20.8028 28.0747 20.8028z"/><path fill="#FFBA4A" d="M.67227 14.7182c-.22191-2.6911.55633-5.53495 1.92768-7.77391C5.44732 2.29573 10.7229-.00633 16.1718.69937c1.4914.19309 2.9724.65933 4.1736 1.54091l3.1327.95615c2.8782.76114 5.2336 2.612 6.5492 5.32749 1.8256 3.76838 1.3224 8.25208.4891 12.10058-.2475-.1731-.5929-.3107-1.0742-.3277-.5962-.0212-1.3255.2349-1.6953.9504-.834-.3864-1.5995-.9138-2.2733-1.5402-1.1017-1.0245-1.9481-2.3054-2.5089-3.7031-.641-1.5981-.8321-3.0986-1.0462-5.0006l-2.4332-1.83749c-.2677 1.24789-.6762 2.48109-1.2081 3.63909-.506 1.1017-.9742 2.2192-1.7437 3.1689-.7775.9594-1.8762 1.7225-3.1028 1.8159 0 0-2.3216-1.0995-4.15365-1.9672a9.9 9.9 0 0 1-.23877.3004c-1.09295 1.3215-2.60789 2.4055-4.31176 2.7205l-.79984 1.9565c-.37333-.3614-.8708-.5067-1.30679-.5026-.54826-1.1499-1.04644-2.1945-1.04644-2.1945-.51503-1.0565-.8041-2.206-.90118-3.3849z"/><path fill="#4C4C4C" d="M23.3276 3.74915c2.0241.54391 3.8507 1.67618 5.1513 3.34327 1.4596 1.87118 2.0964 4.25688 2.203 6.60268.0645 1.4214-.0401 2.8488-.2469 4.2552-.0451.3061.0757.6163.3978.7055.2685.0743.6553-.0923.7006-.4006.3964-2.6951.4975-5.4943-.2817-8.134-.6963-2.35941-2.0993-4.42989-4.1034-5.8518-1.0599-.75206-2.2668-1.28999-3.5178-1.62623-.7092-.19046-1.0116.91575-.3029 1.10622zM20.6313 1.74479C18.7411.37928 16.3003-.03224 14.0171.00194 11.9408.033 9.88951.4959 8.00432 1.37199 4.15988 3.15857 1.31962 6.75014.39328 10.9047c-.55775 2.5014-.43267 5.1583.68687 7.4874.13409.2789.52855.3534.77942.2058.28291-.1666.33892-.505.20435-.7848-1.78195-3.707-.67499-8.36157 1.67681-11.54497 2.24263-3.03547 5.84428-4.8548 9.56837-5.09162 2.3141-.14721 4.8209.16704 6.7474 1.5586.2501.18066.6341.04397.7794-.20576.1676-.28868.0463-.60365-.2044-.7848zM18.9363 9.01323c-.3987 1.83107-1.1017 3.58077-1.9716 5.23527-.7217 1.3727-1.8776 2.8187-3.5338 2.9678-.3064.0275-.5696.2438-.5696.5736 0 .2889.2613.6012.5696.5735 1.965-.1768 3.4403-1.6004 4.37-3.2635 1.0022-1.7935 1.7962-3.771 2.234-5.7815.1567-.71955-.9412-1.02712-1.0986-.30517"/><path fill="#4C4C4C" d="M11.132 10.5838c-1.0049 3.2883-2.86355 6.9917-6.55775 7.7062-.30238.0586-.47469.4238-.39779.7055.08687.3186.39755.4593.70063.4005 1.86716-.3611 3.51976-1.5488 4.69222-3.0273 1.27789-1.6114 2.06319-3.5235 2.66109-5.48.216-.7071-.8829-1.00941-1.0984-.3049M21.3483 11.0034c.2383 2.1113.5328 4.1935 1.4943 6.1134.9484 1.8939 2.4605 3.5187 4.3412 4.4921.651.3369 1.228-.6527.5751-.9906-1.7236-.8921-3.0636-2.3455-3.9325-4.0805-.8644-1.7259-1.1248-3.637-1.3389-5.5344-.0346-.3078-.2368-.5736-.5696-.5736-.281 0-.6045.2638-.5696.5736M15.8608 25.3625c.1033.3967.2025.7996.2618 1.2056l-.0204-.1525c.0071.0557.0102.1104.0045.1663l.0204-.1524c-.0038.0258-.0095.0502-.0183.0748l.0575-.137a.285.285 0 0 1-.0264.0481l.089-.1162a.247.247 0 0 1-.0391.0388l.1153-.0897c-.0303.0196-.0622.0354-.0949.0505l.136-.0579c-.0522.022-.104.038-.16.0469l.1514-.0206c-.0503.006-.0996.0058-.15-.0002l.1515.0205c-.0565-.0079-.1121-.0217-.1688-.0294-.159-.0215-.294-.0274-.4388.0579-.1182.0695-.231.206-.2618.3427-.0332.1467-.0261.3116.0574.4418.0741.1157.1982.2443.3404.2636.1248.017.2459.049.3728.0547.1928.0086.3724-.0504.5445-.1297.2117-.0975.3769-.2868.4331-.5164.0477-.1943.0269-.3669-.0057-.5614-.0652-.3883-.1542-.7733-.2534-1.1543-.0755-.2901-.4104-.4951-.7007-.4005-.2966.0966-.4789.3946-.3977.7055zM9.48645 21.9601c-.20007.6543-.06954 2.1594 1.16135 2.2875 1.6272-.0098 1.7136-1.8296 1.166-2.6852-.4483-.7004-1.767-.9917-2.32735.3977M22.5173 21.9601c.2001.6543.0698 2.1594-1.1613 2.2875-1.6272-.0098-1.7138-1.8296-1.1661-2.6852.4484-.7004 1.767-.9917 2.3274.3977M16.0028 29.0607c-.8889-.0098-1.736-.3637-2.621-.3601-.9024.0036-1.5831.5324-1.902 1.3655-.319.8331-.2466 1.9383.4236 2.5852.3273.316.7574.484 1.2076.5043.338.0153.675-.0913 1.0054-.1513.604-.1099 1.175-.2268 1.7836-.2359.5091-.0076.984.072 1.4717.1487.7135.1123 1.4651.3893 2.1672.0987.8917-.369 1.2565-1.3581 1.1447-2.2732-.1306-1.0667-.7669-1.9041-1.8655-2.0253-.9579-.1056-1.8674.3289-2.8156.3434-.7324.0113-.7346 1.1583 0 1.1471.7203-.011 1.407-.2454 2.1169-.3338.5779-.0722 1.0893-.0335 1.3224.535.1946.4749.2362 1.329-.342 1.5582-.1849.0731-.3859.0368-.5941-.0077-.275-.0588-.5532-.1044-.8309-.1482-.5276-.0829-1.0675-.1797-1.6027-.1897-.4351-.0081-.8735.064-1.3038.1245-.2867.0402-.5729.0848-.8579.135-.2376.0418-.4864.1238-.727.1291-.5995.0133-.8091-.6474-.7334-1.1827.0947-.6684.4562-1.0111 1.0763-.9753.3563.0206.708.1214 1.0574.1907.468.0927.9413.1599 1.4188.1652.7334.0081.7339-1.1392 0-1.1474zM24.1192 26.2818c.6705-.3154 1.2465-.8918 1.5667-1.5634.0671-.141.0999-.2863.0574-.4418-.0363-.1331-.1386-.2772-.2618-.3427-.1322-.0703-.2924-.1056-.4388-.0579-.1346.044-.277.1303-.3404.2636-.0859.1805-.1901.3506-.3109.5095l.089-.1161c-.1526.1976-.3285.3745-.5252.5274l.1153-.0896c-.1637.1255-.3394.233-.5259.3209-.1225.0576-.2271.2163-.2618.3427-.0375.1372-.0206.32.0574.4419.0784.1224.1951.2304.3404.2636l.1514.0205c.1028-.0002.1987-.0265.2874-.0783zM27.2891 26.9606c-.0525.2313-.108.4619-.1709.6906-.0257.0827-.0295.1652-.0109.2479.0038.0826.0282.1596.0733.2311.0387.0724.0918.1304.159.1742.0596.0549.1296.092.2098.1111l.164.0222c.1113-.0002.2153-.0287.3114-.0848.1353-.088.24-.212.2836-.3714.0629-.2287.1185-.4593.1709-.6906.0257-.0827.0295-.1652.0109-.2479-.0038-.0826-.0282-.1596-.0733-.231-.0387-.0724-.0918-.1305-.159-.1743-.0596-.0549-.1296-.092-.2098-.1111l-.164-.0222c-.1113.0002-.2153.0287-.3114.0848-.1317.0856-.2476.213-.2836.3714"/><path fill="#4C4C4C" d="M3.39655 27.291c.88931 3.9795 3.40939 7.874 7.17525 9.6093 2.0295.9351 4.3502 1.2183 6.5623 1.0569 2.0864-.1519 4.1045-.7446 5.8193-1.9787 2.0281-1.4596 3.6012-3.5418 4.5906-5.836.1327-.3076.0902-.6665-.2214-.85-.2608-.1537-.7108-.0866-.8442.2229-.8205 1.9027-2.0312 3.6384-3.6159 4.9745-1.4058 1.1856-3.1315 1.9107-4.9459 2.1484-2.0504.2686-4.2558.1363-6.2055-.5962-1.79505-.6742-3.31948-1.9367-4.50168-3.436-1.29445-1.6415-2.16763-3.6066-2.62308-5.6453-.17421-.7798-1.36424-.4498-1.18979.3302"/><path fill="#4C4C4C" d="M4.32973 20.3942c-.78156-.7145-1.92768-.8656-2.87965-.4086-.7068.3393-1.1136 1.0412-1.29208 1.7841-.41843 1.7431.01994 3.7264 1.01131 5.2033.71866 1.0708 1.75822 1.8621 3.09634 1.6759.30498-.0425.4716-.4349.39778-.7055-.09019-.3307-.39469-.4432-.70063-.4005-.74975.1045-1.39864-.5472-1.7848-1.1115-.36716-.5365-.62183-1.1394-.81621-1.7586-.20981-.6684-.25633-1.3856-.19248-2.0812.02871-.3121.09232-.6419.2136-.932.04344-.104.10158-.201.16116-.2964.02112-.0337.08283-.1065.02302-.0353.04035-.0481.08331-.0932.12793-.1374.06882-.0681.18251-.1542.3299-.2144.13552-.0552.29145-.0879.43813-.1004.38687-.0327.7697.0634 1.06115.3298.54185.4952 1.34975-.3135.80553-.8111zM28.4798 21.2055c.5034-.4609 1.4349-.4349 1.8498.0048.0162.017.1567.1828.0786.0789.0346.0461.0659.0951.0959.1448.0709.1185.125.2402.1678.3714.1295.3974.1789.8089.1863 1.2257.0137.7927-.1477 1.5199-.4327 2.2545-.295.7599-.7626 1.5832-1.4682 2.0236-.6221.3881-.0505 1.3808.5751.9906.7656-.4777 1.3393-1.262 1.7212-2.0719.3173-.6732.5717-1.3813.6733-2.1214.1911-1.3925.0904-3.3825-1.3407-4.1051-.9522-.4811-2.1254-.327-2.9117.3933-.5435.4978.2639 1.3072.8055.8111z"/><path fill="#4C4C4C" d="M28.4951 27.0744c-.9353.0114-1.7841.5305-2.1068 1.4329-.3038.8488.0522 1.8116.7632 2.324.7073.5095 1.7454.5193 2.5033.1228.7958-.4163 1.1558-1.3284 1.012-2.1942-.1733-1.0417-1.1794-1.6736-2.1717-1.6855-.2981-.0036-.5834.2664-.5696.5735.014.3138.2502.5697.5696.5735.0494.0008.0983.0039.1477.0055.1082.0036.0144-.0012-.0088-.0045.0762.0112.1516.0275.2257.0485.0432.0122.0852.0273.1277.0416.0987.033.0033.0017-.0147-.0074.0766.0385.1516.0772.2231.1252.0085.0058.1077.0906.0429.0296-.0667-.0628.0311.0309.0363.0357.0499.0468.094.0975.1386.1491-.0996-.1154.0276.0494.0468.0836.0157.0277.0273.0638.046.0892.0181.0387.0124.0238-.0175-.045.0097.0251.0187.0502.027.0758.0109.0334.0667.1723.0489.1964 0 0-.0104-.1484-.0045-.0306.0021.0416.0052.0827.0055.1245 0 .029-.0007.0581-.0022.087-.0019.0414.0162.1628.0038.016.0057.0669-.0296.1556-.0486.2187-.0052.0172-.0173.0865-.0316.0942.0387-.0206.0499-.0968.0033-.0113-.0308.0569-.0629.1116-.0963.1671-.0556.0913.0133.0162.0088-.0086.0011.0059-.0425.049-.0506.0576-.0261.0282-.0536.0552-.0819.0812a.88.88 0 0 1-.0439.038c-.0323.0268-.0195.017.0387-.0296-.0154.038-.1294.0846-.1676.1054-.0358.0193-.0724.0365-.1094.0535.0176-.0081.1168-.0409.0204-.0117-.0688.0208-.136.0435-.2062.0592-.0435.0098-.0874.0175-.1315.0247.1006-.0165.0259-.0046-.0323-.0008-.0793.0051-.159.006-.2385.0024-.0309-.0014-.0617-.0047-.0928-.0062-.1512-.0062.1172.0268-.028-.0036-.0715-.0148-.1422-.0298-.212-.0516-.027-.0083-.0536-.0189-.0807-.027-.0593-.0229-.0526-.0196.0197.0105a1.37 1.37 0 0 1-.0742-.0358c-.0603-.0311-.1161-.0684-.1735-.1042-.0508-.0316-.0456-.001.0199.0174-.0268-.0076-.0686-.0597-.0883-.0791a1.17 1.17 0 0 1-.0548-.0564c-.0062-.0069-.094-.103-.0311-.0322.0612.0686-.0176-.0275-.0242-.0378a1.4 1.4 0 0 1-.0603-.1023c-.0242-.0454-.0911-.1058-.0097-.0081-.0119-.0141-.0212-.0564-.0278-.0762-.0221-.066-.0354-.1331-.0515-.2005-.0328-.1367.0012.1257-.0019-.0177-.0007-.0294-.0038-.0588-.0045-.088a1.42 1.42 0 0 1 .0019-.1273c.0012-.0206.0028-.0409.005-.0614.0045-.0445.0023-.0273-.0067.0513-.0209-.0301.0522-.2036.0617-.2337.0333-.107-.0125.022-.0121.0256-.004-.0327.0579-.114.0748-.142.0138-.0229.0297-.0449.0432-.0678.0558-.0937-.0772.0748.0223-.0278.0524-.0542.1054-.1061.1607-.1577-.1037.097-.01.0079.0178-.011.0351-.0236.0712-.0461.1082-.0669.0297-.0167.0686-.0291.0954-.0497.0377-.0177.0259-.0131-.0363.0136.0275-.011.0551-.0212.0831-.0308.0871-.0296.1756-.0492.2653-.0681.0321-.0067.1014-.0014-.0102.0012.0655-.0014.1305-.0089.1963-.0096.2979-.0036.5836-.2612.5696-.5735-.0138-.3076-.2504-.5774-.5696-.5736z"/></svg>