<svg xmlns="http://www.w3.org/2000/svg" width="50" height="55" fill="none" viewBox="0 0 50 55"><path fill="#FCFCFC" d="M35.2497 33.5311c-4.5007 3.5771-10.5336 4.5731-15.9397 2.6315l-1.6294-.5852a9.51 9.51 0 0 0-3.3192-.559c-3.8725.0425-7.3795-2.2647-8.8648-5.8319l-.6727-1.6159a8.27 8.27 0 0 0-.8761-1.5869l-.1823-.2584c-2.3607-3.3467-1.7796-7.941 1.3414-10.6062a7.957 7.957 0 0 0 2.305-3.3142l.2084-.569c1.4144-3.8617 5.0022-6.5103 9.114-6.728l4.0149-.2126a16.4 16.4 0 0 0 3.3829-.5377l3.8838-1.043c3.9775-1.0681 8.2055.338 10.7403 3.572l.3735.4765a7.93 7.93 0 0 0 3.2132 2.4371c3.7893 1.5667 5.7573 5.7558 4.5432 9.6708l-.0573.1846a8.15 8.15 0 0 0-.3563 2.0234l-.0526 1.0999c-.1963 4.1044-2.9614 7.6447-6.9027 8.8377a9.75 9.75 0 0 0-3.2405 1.6983z"/><path fill="#3C3C3C" d="M35.2498 33.5308c-4.5006 3.577-10.5333 4.5732-15.9394 2.6318l-1.6293-.5855a9.52 9.52 0 0 0-3.3199-.5589c-3.8724.0424-7.3794-2.265-8.8646-5.8321l-.6729-1.6152a8.27 8.27 0 0 0-.876-1.5877l-.182-.2578c-2.3606-3.3467-1.7793-7.9411 1.3417-10.6063a7.96 7.96 0 0 0 2.3042-3.3139l.209-.5697.1383-.3582c1.4517-3.5481 4.7688-5.996 8.5913-6.3415l.3842-.028 4.0152-.2126a16.4 16.4 0 0 0 3.3824-.5377l3.8841-1.043.3731-.0924c3.7418-.8572 7.6504.4424 10.1242 3.3665l.2428.2977.3733.4771a7.934 7.934 0 0 0 2.9781 2.3353l.2351.1016c3.7894 1.5667 5.7576 5.7558 4.5435 9.6708l-.0577.1841a8.15 8.15 0 0 0-.3395 1.7664l-.0168.2573-.0524 1.0997c-.1901 3.9762-2.791 7.4235-6.5366 8.7196l-.3661.1184a9.75 9.75 0 0 0-2.873 1.4198l-.3671.278zm-15.5712 1.6141c5.0526 1.8145 10.6908.8838 14.8972-2.4594l1.0272-.8164a10.83 10.83 0 0 1 3.6017-1.8874c3.5018-1.0601 5.9586-4.2059 6.133-7.8527l.0523-1.0997a9.23 9.23 0 0 1 .4037-2.2917l.0575-.185c1.0487-3.3816-.6512-6.9999-3.9244-8.3532a9.014 9.014 0 0 1-3.6512-2.7686l-.3734-.4771c-2.2672-2.8925-6.0487-4.1506-9.6063-3.1953l-3.8841 1.043a17.47 17.47 0 0 1-3.6067.5734l-4.0152.2126c-3.6778.1947-6.8874 2.564-8.1524 6.0181l-.2082.5695a9.04 9.04 0 0 1-2.6185 3.7653c-2.696 2.3021-3.198 6.2704-1.1589 9.1612l.1821.2587c.395.5599.727 1.1616.9904 1.7941l.673 1.6161c1.316 3.1603 4.423 5.2043 7.8538 5.1668a10.6 10.6 0 0 1 3.698.6221z"/><path fill="#FCFCFC" d="M39.0054 42.9463c-.2829 2.5807-2.6043 4.4435-5.185 4.1606-2.5808-.2828-4.4436-2.6043-4.1607-5.185.2829-2.5808 2.6043-4.4436 5.185-4.1607 2.5808.2829 4.4436 2.6043 4.1607 5.1851"/><path fill="#3C3C3C" d="M37.9298 42.8284c.2178-1.9866-1.2164-3.7739-3.203-3.9916s-3.7738 1.2165-3.9915 3.203c-.2178 1.9865 1.2164 3.7738 3.203 3.9916l-.1179 1.0755-.2401-.0321c-2.3759-.3831-4.0819-2.5091-3.9413-4.9116l.0207-.2413c.2829-2.5808 2.6043-4.4436 5.185-4.1607l.2401.0321c2.4552.3959 4.1946 2.6529 3.9206 5.153l-.0321.24c-.3959 2.4552-2.6529 4.1946-5.1529 3.9206l.1179-1.0755c1.9865.2177 3.7738-1.2165 3.9915-3.203"/><path fill="#FCFCFC" d="M41.6528 51.8392c-.1914 1.7456-1.7616 3.0056-3.5072 2.8143s-3.0056-1.7615-2.8143-3.5072 1.7615-3.0056 3.5072-2.8143 3.0056 1.7616 2.8143 3.5072"/><path fill="#3C3C3C" d="M40.5772 51.7213c.1262-1.1513-.7053-2.1875-1.8566-2.3137s-2.1876.7052-2.3138 1.8566.7053 2.1876 1.8567 2.3138l-.1179 1.0755-.162-.0216c-1.6074-.2589-2.7616-1.6974-2.6663-3.3228l.014-.1628c.1913-1.7456 1.7616-3.0056 3.5072-2.8143l.1619.0217c1.6609.2676 2.8377 1.7944 2.6524 3.4855l-.0217.162c-.2675 1.6608-1.7944 2.8376-3.4855 2.6523l.1179-1.0755c1.1513.1261 2.1875-.7053 2.3137-1.8567M20.9163 12.3978c.7138-.2059 1.3779-.1443 1.9685.1228.5781.2616 1.0547.7051 1.4432 1.218.3243.4281.5981.9246.8322 1.4453.5902-.4389 1.1414-.8167 1.6192-1.0989.4742-.28.9476-.51 1.3383-.5624.4975-.0666.9287.1657 1.2585.4578.333.295.6348.7117.9063 1.1805.5456.9422 1.0374 2.2207 1.4268 3.5443.3908 1.3285.6877 2.7334.8322 3.9417.0722.6038.1077 1.1689.0953 1.6565-.0122.4742-.0703.9289-.2204 1.2784-.1476.3439-.3727.6175-.6696.8062-.2924.1859-.6224.2692-.9535.2879-.6448.0364-1.3745-.1671-2.0829-.453-.5596-.2258-1.147-.5217-1.727-.8445-.1737.1587-.3457.3105-.5176.451-.4359.3564-.8731.6589-1.2893.8744-.4073.2109-.8398.3627-1.2545.3628-.8078 0-1.5901-.5368-2.2466-1.1949-.327-.3279-.6476-.7122-.9553-1.1335a16 16 0 0 1-.6774.1699c-.8713.1967-1.7272.3113-2.3995.3186-.3319.0036-.6506-.0181-.913-.0854-.2131-.0547-.6152-.1957-.7505-.6037-.0563-.1702-.0315-.3258-.0096-.4155.024-.0981.0631-.19.102-.2678.0782-.1565.1917-.3291.3223-.5058.2645-.3577.6504-.804 1.1132-1.3005.2026-.2173.422-.4463.6552-.6843-.1622.0837-.308.1568-.432.2217-.1653.0866-.2942.1557-.382.2026-.0438.0233-.0777.0407-.1.0527l-.0251.0135-.0067.0038-.001.001a.568.568 0 0 1-.7687-.2265.565.565 0 0 1 .2271-.7669h.0009l.002-.0009.0067-.0039.0269-.0144c.0235-.0126.058-.0316.103-.0556.0902-.0482.2224-.1183.3906-.2064a82 82 0 0 1 1.194-.6113c-.2826-1.0034-.4242-1.9993-.306-2.8294.2163-1.5177.5134-2.5884.965-3.338.4753-.7886 1.1012-1.1893 1.8588-1.4079m2.9017 10.9824c-.355.2625-.769.4924-1.1978.6871-.2416.1098-.4957.2107-.7562.3062.2041.2593.4098.4951.6148.7006.6116.6132 1.1118.8619 1.4432.8619.1546-.0001.3987-.062.7331-.2352.3257-.1686.696-.4211 1.092-.7447.0696-.0569.1384-.1179.2088-.1785-.5326-.3249-1.039-.6516-1.4884-.9435a13 13 0 0 1-.6495-.4539m7.0571-3.4282c-.3977 1.0346-1.0672 2.1453-1.8386 3.1614a18.1 18.1 0 0 1-1.2132 1.4348c.4478.2404.89.4576 1.3114.6277.6611.2667 1.2034.3935 1.5951.3714.1872-.0106.3168-.0544.408-.1123.0866-.0551.1698-.1428.2367-.2985.0644-.15.1179-.4318.1289-.8618.0106-.4167-.0195-.9243-.0876-1.4934-.1033-.8645-.2917-1.8473-.5407-2.8293m-11.7368 2.0337a39 39 0 0 0-.8004.8321c-.4518.4846-.8044.8947-1.0314 1.2016-.0165.0223-.0315.0447-.0462.0652a3.8 3.8 0 0 0 .3704.0125c.5693-.0062 1.3422-.1067 2.1619-.2918.0882-.0199.176-.0445.2646-.0662a16 16 0 0 1-.2791-.4779 16.6 16.6 0 0 1-.6398-1.2755m10.2792-4.7201c-.3807-.0429-.9028.0022-1.5461.1344-.5696.1171-1.2035.2969-1.8722.5183.1105.7335.0787 1.4284-.1136 2.1335-.225.825-.6594 1.6331-1.2719 2.5107.156.1127.3131.2215.4714.3244.5317.3452 1.121.7226 1.7242 1.0835.455-.4682.9071-.9905 1.3238-1.5394.7448-.9811 1.3619-2.017 1.7058-2.933.3573-.9516.3622-1.6166.1434-1.9896-.0482-.082-.1793-.1993-.5648-.2428m-9.4142 3.8668c.223.536.4811 1.0705.7649 1.5788.1352.2422.2752.4771.4185.7026.3379-.1142.6637-.2389.964-.3753.2848-.1294.5347-.2635.7476-.3973a15.5 15.5 0 0 1-1.3566-1.3389 12 12 0 0 1-.7476-.9242 69 69 0 0 0-.7908.7543m4.9039-2.8283a43 43 0 0 0-1.5144.5998c-.586.2448-1.1652.5028-1.7222.7563.2012.2816.4428.5834.7178.8916.3934.4409.848.8879 1.3354 1.3072.549-.795.8948-1.4655 1.0689-2.1038.1291-.4734.1664-.944.1145-1.4511m-2.4909-4.7546c-.3412-.1542-.7266-.1982-1.1844-.0662-.5235.151-.8949.3937-1.2026.904-.3314.5498-.6041 1.4363-.8149 2.9158-.0805.5652-.0015 1.3126.2184 2.1584.2077-.1009.4241-.2033.6465-.309-.0513-.1261-.0958-.2484-.1251-.3676-.3074-1.2504-.1723-2.1511.38-2.8965a.567.567 0 0 1 .7919-.119.5646.5646 0 0 1 .1183.7908c-.2937.3966-.4435.9231-.1895 1.956.0051.0209.0131.0423.0202.0652 1.0483-.9462 2.1462-1.8833 3.1615-2.6873-.2272-.5488-.4984-1.0588-.813-1.4741-.3153-.4161-.6538-.7106-1.0073-.8705m2.2138 3.4791q-.1952.1568-.3935.3196a36 36 0 0 1 .4387-.1651c-.0143-.0516-.0302-.1029-.0452-.1545m3.6387-2.386c-.1422.0191-.4422.1372-.9121.4146-.4476.2643-.9876.635-1.5875 1.0836-.0612.0458-.1225.0929-.1847.1401.0584.1775.1129.3544.1626.5298.6664-.2174 1.3081-.3974 1.8963-.5183.6823-.1401 1.331-.2098 1.88-.1516a8.5 8.5 0 0 0-.2223-.4146c-.2425-.4187-.4729-.7191-.6773-.9003-.2075-.1837-.3194-.188-.355-.1833"/></svg>