<svg xmlns="http://www.w3.org/2000/svg" width="34" height="40" fill="none" viewBox="0 0 34 40"><path fill="#FCFCFC" d="M29.3616 21.222c.4077-.3896.957-.5359 1.4271-.5194 1.023.0358 1.4581.586 1.6455.9087.5592.964.5356 2.7401.1601 3.8393-.2658.7784-.7012 1.9689-1.7508 2.8228-.4916.4-1.2469.6447-1.9252.4202-.4748 1.6279-1.3445 3.6059-2.8865 5.4408-1.819 2.1643-3.8519 3.3856-6.2202 3.9007-1.0896.2369-2.1436.2885-3.1454.3171-1.0017-.0289-1.9587-.136-2.8988-.3087-2.3837-.4382-4.6472-1.7448-6.4665-3.9091-1.5308-1.8213-2.399-3.7838-2.8763-5.406-.6443.1594-1.3385-.0795-1.8001-.455-1.0496-.8537-1.4852-2.0444-1.7508-2.8228-.3752-1.0989-.3988-2.8753.1601-3.8393.1874-.323.6225-.8729 1.6455-.9087.4701-.0165 1.0194.1298 1.4271.5194 0 0-1.7125-11.1286 12.6276-11.1286 15.0072 0 12.6276 11.1286 12.6276 11.1286"/><path fill="#FF6464" d="M32.7968 31.1361c.173-1.0081-.2896-2.4495-1.5082-3.2832a4.3 4.3 0 0 1-.4453.4207c-.4917.3999-1.2469.6447-1.9252.4201-.4748 1.6279-1.3445 3.606-2.8865 5.4409a13.9 13.9 0 0 1-1.1722 1.2348c.3045.6647.7383 1.2783 1.2466 1.7967.8233.8416 1.66 1.598 2.8237 1.9331.9134.2724 3.5678.7162 4.473-.5322-1.9163-1.4929-1.0104-5.0083-.6059-7.4309M12.5593 1.1783C8.3589 2.2861 4.593 4.9394 2.6346 8.8527c-.3614.722-.655 1.4732-.871 2.2467a12 12 0 0 0-.1844.754c-.4457 2.0979-.7545 6.5247.3753 8.9841.2005-.075.44-.1249.7252-.135.3358-.0118.7118.0595 1.0474.2443 5.9658-1.9028 14.1736-5.9279 18.1201-9.4605.6758 1.5573 1.6246 3.4912 2.3806 4.6656 1.4065 2.185 3.505 3.7816 5.4047 4.8593.3616-.2325.7838-.3218 1.1563-.3087.174.0062.3309.0271.4726.0592 2.5412-7.198-.2631-15.06-7.1832-18.5501C20.5697.4423 16.3844.1696 12.5593 1.1783"/><path fill="#4C4C4C" d="M30.9895 28.3632c.6209.4363 1.0381 1.1056 1.1958 1.8406.1392.6492-.044 1.2376-.1648 1.9119-.2803 1.5635-.584 3.2173-.2465 4.7959.17.7949.5634 1.5585 1.207 2.0742l-.0931-.7175c-.104.1372-.3778.3035-.5954.376-.3445.1148-.6208.1503-.9742.1636-.6915.0259-1.2648-.0422-1.9175-.1964-.8263-.1951-1.5286-.6101-2.1576-1.1717-.7684-.6859-1.4313-1.4313-1.8694-2.3691-.1355-.2901-.5559-.3629-.815-.2124-.2993.174-.3497.5191-.2137.8103.3993.8546.9858 1.578 1.6582 2.2355.6311.6171 1.3275 1.1873 2.1461 1.5389 1.1715.5028 2.5814.6679 3.8398.4843.7701-.1125 1.4539-.4357 1.9272-1.0609.1432-.1893.0938-.5677-.0931-.7175-1.1208-.8986-1.0749-2.5008-.9384-3.84.0782-.7666.2207-1.5248.3574-2.2825.141-.7821.2614-1.5063.0549-2.2914-.2589-.9834-.8774-1.8114-1.7064-2.3939-.2628-.1846-.6624-.0467-.815.2124-.1745.2963-.0499.6249.2137.8102zM31.857 20.8589c1.3335-3.8583 1.2179-8.1205-.453-11.8572-1.6522-3.6952-4.8286-6.5824-8.6269-7.9976C19.2312-.317 15.204-.2942 11.6104.8358 7.9927 1.9735 4.7154 4.265 2.7084 7.501 1.5542 9.3624.9514 11.4218.7173 13.5822c-.2204 2.035-.2462 4.1822.2455 6.1817.1124.4572.2673.8961.4566 1.3271.1289.2931.5605.3605.8151.2125.3043-.1769.343-.5159.2137-.8103-.7389-1.6807-.7394-3.7544-.6463-5.5679.1025-1.9942.4363-3.954 1.347-5.7736 1.5663-3.1305 4.3935-5.4985 7.6445-6.7741 3.2787-1.2864 6.9691-1.5778 10.3795-.646 3.6109.9867 6.7476 3.3945 8.5842 6.643 1.8391 3.2525 2.2777 7.1567 1.372 10.7631a17 17 0 0 1-.4209 1.4063c-.2497.7225.9007 1.0326 1.1489.3149"/><path fill="#4C4C4C" d="M3.5513 27.9241c1.0312 4.5728 4.1756 8.9468 8.7912 10.4232 1.2335.3945 2.5574.5566 3.847.6264 1.3732.0743 2.8237-.0698 4.1562-.4051 2.278-.5732 4.2702-1.8806 5.8261-3.6158 1.7835-1.9886 3.0255-4.4309 3.6115-7.029.1814-.8043-1.0625-1.1477-1.2445-.341-.918 4.071-3.6558 8.1672-7.7848 9.5303-2.3042.7609-4.9125.7637-7.2653.2179-2.136-.4954-3.9992-1.7108-5.4508-3.3283-1.6235-1.8088-2.7106-4.0624-3.2422-6.4201-.1817-.8053-1.4261-.4646-1.2444.341z"/><path fill="#4C4C4C" d="M4.5277 20.8033c-.8173-.7377-2.0158-.8936-3.0113-.4219-.7391.3504-1.1645 1.075-1.3512 1.8421-.4375 1.7996.0209 3.8472 1.0576 5.372.7515 1.1055 1.8386 1.9225 3.2379 1.7303.319-.044.4932-.4491.416-.7284-.0943-.3415-.4128-.4577-.7327-.4135-.784.1078-1.4626-.565-1.8664-1.1475-.384-.5539-.6503-1.1764-.8535-1.8157-.2194-.6901-.268-1.4305-.2013-2.1487.03-.3222.0965-.6627.2233-.9622.0455-.1074.1063-.2075.1686-.306.022-.0348.0866-.11.024-.0365a2.1 2.1 0 0 1 .1338-.1419c.072-.0703.1909-.1591.345-.2213.1417-.057.3048-.0908.4582-.1036.4045-.0338.8049.0654 1.1096.3405.5667.5112 1.4115-.324.8424-.8377M29.7836 21.6407c.4827-.4357 1.2824-.4631 1.814-.0986.0521.0357.1117.0964.1973.1845.0792.0814-.0255-.0471.033.039.0323.0474.0638.095.0926.1446.1628.28.2423.6054.2951.9225.2249 1.3476-.1472 2.7761-.8498 3.934-.4107.6768-1.1427 1.5406-2.0409 1.417-.3182-.0437-.6396.0767-.7326.4135-.0765.2766.0953.6844.4159.7283 2.2834.3141 3.6197-1.9582 4.197-3.8274.2899-.9391.3226-1.9719.1665-2.9371-.1286-.7937-.4658-1.5543-1.1456-2.0229-.9916-.6837-2.412-.5225-3.2846.265-.5689.5135.2755 1.3489.8423.8374zM16.5866 25.9327c.108.4096.2117.8256.2737 1.2448l-.0213-.1574c.0074.0574.0107.1139.0047.1717l.0214-.1574a.4.4 0 0 1-.0191.0772l.06-.1414a.3.3 0 0 1-.0275.0496l.093-.1199a.26.26 0 0 1-.0409.04l.1206-.0925a.8.8 0 0 1-.0993.052l.1422-.0597a.72.72 0 0 1-.1672.0484l.1583-.0213a.66.66 0 0 1-.1568-.0002l.1583.0212c-.0591-.0081-.1171-.0224-.1765-.0303-.1663-.0222-.3075-.0284-.4589.0597-.1236.0718-.2415.2127-.2737.3538-.0348.1515-.0273.3217.06.4562.0775.1194.2073.2521.3559.2721.1306.0175.2572.0506.39.0565.2015.0089.3894-.052.5693-.134.2214-.1006.3941-.296.453-.5331.0498-.2006.028-.3788-.006-.5796-.0683-.4009-.1613-.7984-.2651-1.1917-.0789-.2995-.4291-.5112-.7326-.4135-.3103.0997-.5009.4074-.416.7283zM9.9196 22.4199c-.2092.6756-.0727 2.2295 1.2144 2.3617 1.7017-.0101 1.792-1.8889 1.2194-2.7722-.4688-.7232-1.8478-1.0239-2.4338.4105M23.5477 22.4199c.2093.6756.073 2.2295-1.2144 2.3617-1.7016-.0101-1.7922-1.8889-1.2193-2.7722.4688-.7232 1.8478-1.0239 2.4337.4105M10.284 31.5345c-.0539-.0008-.1075-.0045-.1614-.0069-.1702-.0079.0604.0229-.0367-.0042-.0854-.0242-.1727-.0415-.2584-.0669-.0856-.0254-.068-.0323.0035.0052-.0434-.0227-.0886-.042-.1315-.0664-.042-.0239-.081-.056-.1236-.0782-.0921-.0481.0744.0891.0054.0027-.052-.0654-.123-.1219-.1787-.1858.114.131.0062.0005-.0153-.0348-.0274-.0446-.0504-.0908-.0743-.1369-.0533-.1024.0288.1157-.0024-.0071-.0137-.0541-.036-.1064-.0502-.1604-.0111-.0425-.0193-.0854-.029-.1281-.037-.1631-.0102.0319-.0102-.0703 0-.1169-.0114-.2319-.006-.3493a3 3 0 0 1 .0177-.2157c-.0144.1244.0109-.0617.0124-.0698.0586-.3264.1576-.6467.2807-.9546.3229-.8068.8255-1.5541 1.3437-2.2506H9.8409c.5265.7162 1.039 1.4835 1.3525 2.3194.1139.3038.2055.6174.2551.9381-.0181-.1179.0042.04.006.0651.0049.0703.0101.1404.0114.211.0012.0663 0 .133-.0038.1993-.0009.0173-.0215.2001-.0081.1088.0134-.0912-.0174.0817-.0211.098a1.8 1.8 0 0 1-.0457.1648c-.0057.0173-.0695.1717-.0285.0822.0409-.0896-.0313.0565-.0398.0715-.025.0447-.0568.0859-.0814.1303-.0446.0812.0899-.0812-.0235.0269-.0437.0417-.2438.204-.0976.1053-.0717.0484-.1457.0906-.2189.1357-.1353.0837.063-.0084-.0283.0161-.0484.0128-.0953.0338-.1437.0478-.0874.0252-.176.0417-.2656.0565.1832-.0306 0-.0039-.0404-.0017a2.5 2.5 0 0 1-.136.0032c-.7667-.0022-.7677 1.1821 0 1.1843.8217.0025 1.6363-.3627 2.0543-1.09.5274-.9179.3256-2.073-.0494-3.0057-.3564-.8862-.8536-1.6957-1.4189-2.4648-.2793-.3797-.7491-.3757-1.0288 0-.8515 1.1439-1.6515 2.4557-1.8026 3.9001-.0921.8795.1956 1.7796.951 2.2913.3768.2551.8434.3619 1.2941.3689.7669.0116.7672-1.1727 0-1.1843zM14.9988 31.9953c.0595-.0597.1201-.1186.1858-.1717-.0918.0743.0911-.0498.1338-.0728.1167-.0631-.0789.0072.0596-.0197.0484-.0094.0955-.0257.1442-.0348.1018-.0192-.1313-.001.0705-.0074.0623-.002.1243-.0044.1869-.0037.0759.001-.0318-.0205.065.0089.099.0301-.0067-.0104.0442.0182.0809.0454.1591.095.24.1402.2397.134.4648.1927.7376.1927.2609 0 .483-.0533.7143-.1791a3.7 3.7 0 0 0 .2383-.1404c.1337-.0866-.044.0088.0412-.0222.0295-.0109.131-.0247.0536-.0176.0739-.0069.1521.0005.2261.003.0196.0007.1055.0118.0402.0015.0596.0096.1156.0293.1747.0407.103.02-.0146-.0151.0358.0086q.0584.0274.1139.0607c.0126.0077.1266.0856.064.0393-.0625-.0464.0444.0392.0556.0495.0377.0341.074.0701.11.1061.54.5426 1.3824-.2948.8423-.8373-.3909-.3928-.8471-.6063-1.402-.6507-.3212-.0256-.6193.0242-.9067.1693a2.7 2.7 0 0 0-.2886.1668q-.0831.0404-.0246.0165.0587-.0214-.0273.0074.0934-.004.0253-.0022a.4.4 0 0 1-.0861-.0045l-.0583.0052q-.11-.003-.0028.0015l-.0501-.016q.092.0381-.002-.0082c-.0829-.0557-.1749-.1073-.2633-.1534-.2837-.1483-.5771-.2058-.8972-.1853-.5674.0362-1.0377.2529-1.4366.6533-.5398.5423.3021 1.3802.8424.8374zM21.8189 19.8305c.4172.6148 1.0769.9287 1.8059 1.0019.6693.0674 1.4283-.1542 1.877-.6708.2036-.2341.249-.6104 0-.8374-.2233-.2038-.6249-.2504-.8423 0a1.4 1.4 0 0 1-.1298.1323c-.0124.0108-.0837.0732-.0196.0177.0623-.054-.0082.0022-.0239.0121-.0315.02-.1484.0585-.1623.0888.0082-.0175.1132-.0417.0278-.0116-.0263.0092-.0521.0188-.0787.0274a1.8 1.8 0 0 1-.1821.0476c-.0276.0057-.0554.0097-.0827.0153-.0799.0168.1149-.0081.033-.0049-.1263.0049-.2489.0133-.3755.003-.0186-.0015-.1132-.0139-.0226-.0005.0911.0133-.0039-.0015-.0221-.0047a2.2 2.2 0 0 1-.1804-.0402c-.0529-.0143-.1045-.0324-.1564-.0494-.0744-.0244.0008-.0052.0283.0143-.025-.0177-.064-.0291-.0921-.0432a1.7 1.7 0 0 1-.1409-.0794c-.0134-.0084-.0802-.0387-.0837-.056.0028.0138.0926.0782.0256.0187a2 2 0 0 1-.1167-.1097c-.0076-.0082-.0853-.1066-.032-.0314.0554.078-.0206-.0313-.0248-.0377-.174-.2564-.5326-.3936-.8151-.2125-.2568.1646-.4003.5357-.2139.8103"/><path fill="#4C4C4C" d="M21.3427 11.8075c.6011 1.9003 1.684 3.7251 2.8944 5.299.6344.8248 1.3162 1.6118 2.0801 2.3212.4018.3733.8253.7214 1.2638 1.051.4286.3225.8982.5742 1.3556.8527.6555.3992 1.2549-.6247.6014-1.0227-.4259-.2593-.8677-.4915-1.2692-.7883-.3882-.2867-.7558-.6025-1.109-.9304-.714-.6632-1.3675-1.3935-1.959-2.1665-.6326-.827-1.2-1.7007-1.6812-2.6234-.3904-.7486-.7726-1.5011-1.0278-2.3076-.2293-.7247-1.3797-.4153-1.1489.3148z"/><path fill="#4C4C4C" d="M21.3294 11.153c-1.7448 1.5729-3.7733 2.8317-5.8167 3.981-2.3717 1.334-4.8358 2.5151-7.3532 3.5518-1.354.5577-2.7252 1.0738-4.1153 1.5354-.7235.2403-.4135 1.3844.3167 1.1421 2.5968-.8623 5.1351-1.9072 7.6079-3.0742 2.434-1.1487 4.8228-2.4209 7.0655-3.9094 1.095-.7268 2.161-1.5089 3.1374-2.389.5691-.5132-.2752-1.3489-.8423-.8377"/></svg>