<svg xmlns="http://www.w3.org/2000/svg" width="48" height="55" fill="none" viewBox="0 0 48 55"><path fill="#FCFCFC" d="M33.0878 4.141C28.2068.961 22.0144.5313 16.7428 3.0067l-1.5842.744a9.67 9.67 0 0 1-3.3048.8828c-3.9102.3267-7.2263 2.9784-8.3812 6.702l-.5357 1.7272a8.38 8.38 0 0 1-.734 1.6856l-.1716.2995C-.0295 18.6433.9946 23.2086 4.3988 25.6015a8.075 8.075 0 0 1 2.6469 3.1303l.2613.5481c1.7948 3.7648 5.6835 6.099 9.8715 5.9254l4.0397-.1674a16.64 16.64 0 0 1 3.4719.2202l3.9866.6764c4.1329.7012 8.2835-1.1233 10.5364-4.6314l.328-.5108a8.066 8.066 0 0 1 3.0187-2.771c3.6774-1.9438 5.2662-6.3435 3.6728-10.1707l-.0847-.2035a8.25 8.25 0 0 1-.5516-2.0083l-.1626-1.1415c-.5844-4.103-3.7078-7.3984-7.7963-8.2257a9.9 9.9 0 0 1-3.4401-1.4077z"/><path fill="#3C3C3C" d="M33.0879 4.1412C28.2069.961 22.0137.531 16.7421 3.0064l-1.5837.7439a9.67 9.67 0 0 1-3.3044.8834c-3.9101.3267-7.2263 2.978-8.3813 6.7015l-.5363 1.7274a8.4 8.4 0 0 1-.7342 1.6857l-.1715.299C-.03 18.6429.9944 23.2087 4.3985 25.6016l.2105.1533a8.07 8.07 0 0 1 2.4362 2.9767l.2619.548c1.7386 3.6471 5.442 5.952 9.4792 5.9348l.3919-.0092 4.04-.1674a16.64 16.64 0 0 1 3.4717.2202l3.9869.6764c4.1327.701 8.2833-1.1236 10.5361-4.6316l.3276-.5106a8.06 8.06 0 0 1 2.7903-2.6454l.229-.1254c3.5623-1.8831 5.1649-6.0712 3.813-9.8105l-.1407-.3606-.084-.2036a8.25 8.25 0 0 1-.511-1.75l-.0414-.2582-.162-1.1411c-.5661-3.9747-3.5152-7.192-7.416-8.1414l-.3811-.0844a9.9 9.9 0 0 1-3.0416-1.1615l-.3983-.2458zM17.214 3.9944c4.9253-2.3128 10.7111-1.9115 15.2715 1.0597l1.1088.7232a11 11 0 0 0 3.8242 1.5647c3.6319.735 6.4065 3.6622 6.9257 7.3069l.1629 1.1412a9.35 9.35 0 0 0 .6247 2.2731l.0841.2035c1.377 3.3078.0037 7.1102-3.1745 8.7902a9.16 9.16 0 0 0-3.4275 3.147l-.3286.5116c-2.0153 3.1379-5.7284 4.7696-9.4253 4.1424l-3.9859-.6763a17.75 17.75 0 0 0-3.7036-.2349l-4.04.1674c-3.7462.1551-7.225-1.9334-8.8304-5.301l-.261-.5479a9.173 9.173 0 0 0-3.0063-3.5551c-2.942-2.0681-3.8272-6.0138-2.0462-9.1212l.1714-.299a9.48 9.48 0 0 0 .8292-1.9041l.5363-1.7274c1.023-3.2982 3.9599-5.647 7.4233-5.9364a10.78 10.78 0 0 0 3.6825-.9839z"/><path fill="#FCFCFC" d="M11.965 42.777c.2868 2.6168 2.6407 4.5056 5.2574 4.2188 2.6168-.2868 4.5056-2.6407 4.2188-5.2575-.2868-2.6167-2.6406-4.5055-5.2574-4.2187s-4.5056 2.6406-4.2188 5.2574"/><path fill="#3C3C3C" d="M13.054 42.6576c-.2208-2.0151 1.234-3.8281 3.2491-4.049 2.0152-.2209 3.8282 1.234 4.0491 3.2491s-1.234 3.8282-3.2491 4.0491l.1193 1.089c2.6168-.2868 4.5056-2.6407 4.2188-5.2575-.2868-2.6167-2.6406-4.5055-5.2574-4.2187s-4.5056 2.6406-4.2188 5.2574 2.6407 4.5056 5.2574 4.2188l-.1193-1.089c-2.0151.2208-3.8282-1.234-4.0491-3.2492"/><path fill="#FCFCFC" d="M9.2788 51.7948c.194 1.7702 1.7863 3.0479 3.5565 2.8539s3.0479-1.7864 2.8539-3.5565-1.7863-3.0479-3.5565-2.8539-3.048 1.7863-2.8539 3.5565"/><path fill="#3C3C3C" d="M10.3684 51.6762c-.1281-1.1684.7151-2.2201 1.8834-2.3483 1.1684-.128 2.2202.716 2.3483 1.8844.1279 1.1684-.7161 2.2193-1.8845 2.3474l.1194 1.0891.165-.022c1.6297-.2628 2.8001-1.721 2.7034-3.369l-.0142-.1649c-.194-1.7701-1.7866-3.0481-3.5568-2.8541l-.164.0219c-1.6843.2714-2.8772 1.8199-2.6892 3.5348l.022.164c.2713 1.6842 1.819 2.8771 3.5338 2.6893l-.1194-1.0891c-1.1682.1279-2.219-.7153-2.3472-1.8835M22.0508 10.0283c-.3028.0595-.4655.1258-.6237.2091-.1157.0609-.1797.1025-.3701.1676-.3004.1026-.4611.4283-.3591.7267.1022.2982.4282.4571.7284.3546.2914-.0995.437-.1876.5348-.2392.0554-.0291.1113-.0586.3079-.0972 1.3876-.2725 2.5787.1088 3.9263.8764.5383.3066 1.3191.8172 1.941 1.4905.6232.6749 1.034 1.4538.9757 2.3178-.0448.6639-.1208 1.1415-.2892 1.5283a1.96 1.96 0 0 1-.2422.4125 4.5 4.5 0 0 0-.427-.8912c-.5578-.8983-1.4175-1.6005-2.458-2.1413-1.0404-.5406-2.3584-.8679-3.5075-.8114-1.1284.0555-2.3209.5145-2.6439 1.78-.234.9165.2661 1.7265.8851 2.3276.6347.6162 1.5209 1.1463 2.4017 1.5508.5199.2388 1.4096.5052 2.4268.5514.7492.034 1.5898-.0522 2.4101-.375-.0053.0565-.0082.1139-.0156.1716-.0552.4303-.1261.7438-.2363 1.0242-.1093.2781-.2677.5497-.5235.8816-.3787.4913-.7056.7408-1.2179 1.0042q-.0112-.0333-.0236-.0665c-.2734-.7234-.8622-1.2948-1.6264-1.6912-.6492-.3367-1.4419-.5028-2.1387-.3712-.3545.067-.705.216-.9869.4831-.2873.2724-.4701.6364-.53 1.0691-.1115.8064.3597 1.3576.8084 1.6819.4436.3205.969.5024 1.2365.5923.632.2121 1.1822.2393 1.7344.1289a3.8 3.8 0 0 0 .2551-.0626c-.4526.8471-1.1525 1.1983-2.2555 1.5751-.6718.2294-1.0524.308-1.7598.3635-.3163.0248-.5542.3001-.5305.6146s.2995.549.6158.5244c.8042-.063 1.28-.1613 2.0437-.4221 1.1591-.396 2.2425-.8705 2.9136-2.1457.1855-.3525.3052-.7076.3559-1.0579.8307-.385 1.3971-.7243 2.0162-1.5276.303-.3932.5238-.7576.6824-1.161.1576-.4007.2444-.8153.306-1.2961a5.6 5.6 0 0 0 .0423-.9644c.489-.3726.8239-.797 1.0433-1.3008.2508-.576.3356-1.2179.3822-1.9061.0877-1.2982-.5413-2.3702-1.2752-3.165-.7355-.7963-1.6304-1.3753-2.2148-1.7083-1.4612-.8323-2.9442-1.3543-4.7182-1.006m.0454 11.8128c.388-.0732.9183.0168 1.3943.2636.587.3046.9361.6883 1.0849 1.0821q.0263.0696.0453.1432c-.2567.1046-.4784.1804-.6944.2236-.3471.0694-.6934.0595-1.1416-.091-.2645-.0888-.6401-.226-.9293-.4349-.2842-.2054-.3776-.3941-.3484-.6054.0275-.1982.1004-.3165.1822-.3941.0872-.0827.2195-.1516.407-.1871m-1.439-5.8525c.1349-.528.6433-.8698 1.5827-.9161.9187-.0453 2.0357.2244 2.9203.6841.9157.4759 1.5948 1.0537 2.0152 1.7308.1986.3199.3432.6711.4282 1.0573-.7364.3791-1.5411.4898-2.2889.4559-.8619-.0391-1.6063-.2688-1.9982-.4488-.8192-.3761-1.5771-.8406-2.0827-1.3315-.5212-.506-.6571-.9162-.5766-1.2317"/></svg>