<svg xmlns="http://www.w3.org/2000/svg" width="36" height="41" fill="none" viewBox="0 0 36 41"><path fill="#FCFCFC" d="M31.0799 22.7602c.4297-.3874 1.0085-.5329 1.5039-.5165 1.078.0356 1.5365.5827 1.734.9037.5892.9586.5643 2.7249.1686 3.818-.2801.7741-.7388 1.958-1.8448 2.8072-.5181.3977-1.314.6411-2.0282.4166-.5006 1.6201-1.4171 3.5872-3.0422 5.4117-1.9168 2.1523-4.0591 3.3668-6.5547 3.8791-1.1481.2355-2.2589.2868-3.3144.3153-1.0556-.0287-2.0641-.1352-3.0548-.307-2.5118-.4357-4.897-1.7351-6.814-3.8874-1.6132-1.8113-2.528-3.7629-3.0313-5.3761-.679.1587-1.4104-.0788-1.8969-.4522-1.106-.849-1.565-2.0331-1.8449-2.8072-.3954-1.0928-.4203-2.8594.1687-3.818.1975-.3212.656-.8681 1.734-.9037.4954-.0164 1.0741.1291 1.5039.5165 0 0-1.7437-10.8216 13.3064-10.8216 14.2626 0 13.3065 10.8216 13.3065 10.8216z"/><path fill="#4C4C4C" d="M4.0186 28.9397c1.06 4.9825 4.292 9.7483 9.0362 11.3569 1.2678.4299 2.6286.6065 3.9541.6826 1.4116.0809 2.9024-.0761 4.2721-.4414 2.3414-.6245 4.3891-2.049 5.9884-3.9397 1.8332-2.1668 3.1098-4.8279 3.7121-7.6587.1865-.8763-1.0921-1.2506-1.2791-.3715-.9437 4.4357-3.7578 8.8988-8.0018 10.3841-2.3684.829-5.0493.832-7.4678.2373-2.1954-.5398-4.1105-1.864-5.6026-3.6265-1.6687-1.9707-2.786-4.4262-3.3325-6.9952-.1868-.8774-1.4659-.5062-1.2791.3716z"/><path fill="#6593F0" d="M32.6518 10.7298c-.7912-1.9825-1.9818-3.7006-3.6197-4.8571l-1.8769-1.7451C24.9887 1.6026 21.6651.384 17.0451.5004 11.039.7128 6.8037 3.7533 5.0211 6.4337l.431.3946C1.6353 10.705.5983 17.2357 2.9876 23.179c.1752-.0654.3776-.1149.6115-.1395.4885-.0518 1.0711.0642 1.5246.4501l1.9785-1.9449c1.4542-1.9008 4.0531-4.7943 5.935-5.9748.2207-.1385.5263.0067.6461.3902.1158.3704.135.6565.1242.9293-.0161.4142.3963.686.7162.4743 1.3406-.8867 3.7167-2.6492 5.4268-3.5286l2.6356.1443c.867.3135 1.5314.6271 2.513 1.3737 1.682 1.2796 3.3342 3.0803 4.1264 4.7597l2.2019 1.5376c.3959-.4455.9575-.6413 1.4484-.6582.2691-.009.5018.0191.7027.0723.5832-3.309.3402-7.1609-.9267-10.3348"/><path fill="#4C4C4C" d="M6.5832 6.1814c1.7244-2.009 4.4878-3.2816 7.1569-3.875 3.3728-.7496 7.2239-.5875 10.4384.715 1.4699.5958 2.738 1.5234 3.7091 2.7093.564.689 1.6188-.2195 1.0586-.9033-2.1046-2.5706-5.4114-3.7487-8.7565-4.1393-3.7987-.4437-7.776.116-11.1146 1.8843-1.4114.7472-2.6912 1.697-3.7061 2.8796-.2422.2821-.085.7447.2191.9272.3565.2142.7526.085.9951-.1982z"/><path fill="#4C4C4C" d="M3.8524 22.8556C1.8552 17.5049 2.2149 10.9083 6.1234 6.672c.6376-.691-.3915-1.7282-1.0277-1.0383-3.181 3.448-4.3432 8.5642-3.6822 13.3057.2087 1.497.5704 2.9537 1.0952 4.36.3352.8976 1.683.4643 1.344-.4434zM29.1034 7.4237c1.8785 1.4286 2.9792 3.7657 3.5598 6.106.6214 2.5055.702 5.1874.3011 7.7356-.1399.8885 1.1266 1.2279 1.267.3351.6709-4.2633.2113-9.1858-2.1324-12.8278-.6514-1.0123-1.4434-1.874-2.376-2.5832-.2886-.2195-.729-.0266-.8827.2797-.1835.3656-.0258.7348.2635.9546z"/><path fill="#4C4C4C" d="M3.7844 22.5753c-.7446-.643-1.7425-.7541-2.573-.2445-.5912.3626-.9219 1.0453-1.039 1.7673-.2792 1.7244.2243 3.6422 1.2012 5.0151.7016.9861 1.6502 1.6732 2.8096 1.418.2976-.0655.4522-.4817.3684-.7811-.098-.3503-.4059-.4814-.7043-.4156-.791.1742-1.4594-.7068-1.8307-1.3685-.351-.6258-.6283-1.3342-.7344-2.0638-.0997-.686-.1424-1.5468.1852-2.1661.0534-.1009-.0233.0176.0458-.0743.0407-.0545.0851-.1109.1346-.1559.0888-.0807.202-.1364.3132-.178.3446-.1289.7603-.1003 1.0566.1556.2403.2076.5732.2375.7942-.0244.192-.2274.2143-.6753-.0274-.8841zM31.6169 22.8857c.5887-.5666 1.6312-.5492 2.1474.0189-.0763-.0839.0109.0195.0334.0518.0582.0837.1153.1702.1611.2606.0899.1773.1489.3712.2011.5611.1297.4687.1657.958.1566 1.4415-.0156.8127-.2518 1.6507-.6119 2.3906-.4328.8892-1.1474 1.8635-2.3058 1.8004-.9509-.0518-.9019 1.3377.0431 1.389 2.422.1317 3.715-2.3803 4.1852-4.2477.4116-1.6348.2699-4.1987-1.4793-5.1349-1.1556-.6183-2.6925-.3612-3.6079.5191-.6679.6427.4102 1.5919 1.077.9499zM16.1109 34.9372a6 6 0 0 1 .2969-.1549c.0152-.0074.1804-.0804.1804-.0801.0026.0063-.1711.0646-.0085.006a4 4 0 0 1 .1162-.0397c.193-.0625.3907-.111.5906-.1475a6 6 0 0 1 .2022-.033c-.1096.0168.0129-.0015.0601-.0064a7 7 0 0 1 .4482-.0305c.2704-.0099.5422-.0049.8115.0214.0679.0067.1428.0207.0325.0025.0601.0098.1202.0186.18.0302q.1357.0256.2685.0607c.0852.0229.1686.0503.252.078.1376.0457-.0144-.0249-.038-.0176.0121-.0038.0926.0408.1051.0468.1.0474.1959.1015.2866.1636.3143.2154.8352.0619 1.0093-.2522.2014-.3631.0708-.7313-.2649-.961-.7374-.5051-1.7643-.6091-2.643-.5774-.9325.0333-1.8208.2321-2.6305.6779-.3342.184-.4799.6431-.2648.961.2172.3211.6522.4489 1.0096.2522M17.4426 27.8607c.0561.2135.1085.4286.1588.6448.0524.2257.1098.4559.1412.6884l-.0249-.1885a.9.9 0 0 1 .0065.1396l.0132-.1897a.53.53 0 0 1-.013.084l.049-.1716a.3.3 0 0 1-.0223.0537l.0797-.1465a.18.18 0 0 1-.0217.0302l.1054-.1146a.6.6 0 0 1-.0945.0744l.1262-.0757a.45.45 0 0 1-.1251.0525l.1422-.0296a.42.42 0 0 1-.1341.0027l.1437.0209c-.0854-.0127-.1704-.03-.2561-.0384-.1298-.0124-.2887.0999-.3735.2199-.0894.1262-.1532.3306-.1418.5075.0119.1835.0635.373.173.4977.1149.131.2367.1824.3864.1966.0078.0005.0156.0017.0237.0025l-.1437-.0208c.1059.0159.2125.0468.3188.0396.1758-.0118.3289-.0784.4805-.1919.1742-.1302.3085-.3606.3439-.625.0308-.2308.0052-.4395-.0381-.6663-.0777-.4071-.1741-.809-.2784-1.2064-.0454-.1729-.1376-.3281-.2601-.4172-.118-.0857-.2889-.1181-.4162-.0591-.2674.1246-.4476.5076-.3482.8859zM10.9749 24.396c-.1729.7516.0745 2.4307 1.4284 2.4694 1.777-.15 1.7446-2.2007 1.0867-3.1145-.5387-.7482-1.9999-.963-2.5151.6451M24.5268 24.0543c.265.7186.2276 2.4224-1.1139 2.672-1.7856.1281-2.0079-1.9107-1.4669-2.9198.4431-.8263 1.8691-1.2664 2.5809.2482zM22.8341 14.8534c1.2414.4298 2.3415 1.2444 3.3597 2.1965 1.0858 1.0152 2.0942 2.1914 2.8011 3.5965.183.3638.6617.409.9258.188.3103-.26.316-.708.1325-1.073-.7765-1.5436-1.9231-2.8601-3.1215-3.9655-.6291-.5804-1.2958-1.1207-1.9969-1.5732-.6033-.3891-1.2408-.6564-1.8972-.8835-.3453-.1194-.7049.2368-.7553.6148-.0596.4456.2054.7797.5518.8994M6.803 22.1011c1.608-1.9324 3.4063-3.8628 5.472-5.3736.217-.1586.4381-.3125.6663-.4573.1513-.0958.483-.1798.0755-.178-.3619.0014-.2053.0122-.1578.293.0465.2756-.0114.5522.0754.824.1087.3407.3672.6288.7072.7848.6598.3033 1.2288-.0619 1.7654-.4012.5215-.3299 1.0392-.6657 1.559-.9982 1.2744-.814 2.558-1.6342 3.93-2.2967.9063-.4378.0653-1.6963-.8378-1.2604-1.2134.5857-2.3556 1.2985-3.4858 2.0142-.5634.3569-1.1226.7189-1.6843 1.078-.2211.1412-.4423.282-.6651.4203-.0229.0145-.1849.1085-.184.1136 0-.0015.434.088.4055.1023.0406-.0206.006-.3309-.0046-.4192-.0786-.6574-.3263-1.4232-1.0808-1.6313-.6433-.1776-1.1732.2248-1.6619.5653-1.0936.7619-2.0899 1.6497-3.037 2.5665-1.0616 1.0275-2.069 2.1078-3.008 3.2362-.6243.7505.5215 1.7747 1.1508 1.0177M26.1392 22.1752c-.603.135-1.2526.2577-1.8641.1023-.3734-.0947-.7144-.2521-1.0119-.501-.2756-.2304-.5108-.5098-.7289-.7936-.2215-.2881-.1679-.7611.1406-.9703.3145-.2134.7384-.1684.9753.1398.0888.1155.1787.2299.275.3395.0133.0152.1577.1624.0859.0952-.0725-.0678.0809.0716.0952.084a2.2 2.2 0 0 0 .1702.132q.0443.0307.09.0586-.1255-.0733-.0189-.0169c.0487.0187.0951.0431.1442.0612q.0476.0174.0963.032-.149-.0387-.0333-.0119c.1178.0171.2327.0341.3518.0401q.1155.0023-.0273.0005a3.5795 3.5795 0 0 0 .3098-.0233c.2597-.0306.5152-.0859.7701-.1429.3568-.0798.7506.2486.7808.5981.0351.4031-.2204.6917-.6012.7768zM8.772 27.9317c-.1898.3531-.2705.7327-.22 1.1423.0495.4008.264.7567.568 1.0142.2961.2509.689.3557 1.0593.3234.3806-.0333.7108-.2793.9255-.5853.2068-.2949.3124-.6575.3936-1.0098.0323-.1406.0381-.2723-.0275-.4096-.0572-.1197-.1764-.2383-.302-.2799-.2513-.0833-.5957.0244-.6621.3132-.0345.1501-.0719.2996-.1213.4448-.026.0764-.067.1499-.0901.2268q.0556-.1136.0183-.0411a1.3462 1.3462 0 0 1-.0755.1252 1 1 0 0 1-.0336.0466q-.051.0642.0342-.0361c-.0286.0227-.0522.0548-.0801.079a1 1 0 0 1-.0436.0354q-.0678.0487.046-.0289c-.0256.0073-.0511.0288-.0762.0401a.6.6 0 0 1-.0523.0218q.1347-.0392.0543-.0176a3 3 0 0 1-.1075.0172q-.081.0052.0534-.0011a.7.7 0 0 1-.0549-.003c-.0323-.0029-.0638-.0089-.0957-.0141q-.059-.0121.0635.0151a1 1 0 0 1-.0536-.017c-.0333-.0116-.0704-.0366-.1041-.0434q.1169.0644.0451.0235a1 1 0 0 1-.0481-.0306c-.0278-.0188-.0532-.0401-.08-.0603q-.0478-.0402.0493.0463a1 1 0 0 1-.0402-.041c-.0261-.0283-.0488-.0588-.0725-.089q-.0488-.0707.0307.0476a1 1 0 0 1-.0293-.0539c-.0163-.0322-.0288-.0653-.0433-.098q-.0228-.0607.0204.0653a1.187 1.187 0 0 1-.0457-.2394q.0067.132.0042.0472c.0013-.0355.001-.0713.0037-.1068.0023-.0303.0183-.0772.0126-.1062q-.0262.1249-.008.0436a1.2193 1.2193 0 0 1 .0785-.2289q-.056.1132-.0178.0406c.0659-.1227.1034-.2485.076-.3933-.025-.1312-.1132-.2802-.2268-.3534-.2265-.146-.5851-.1305-.7241.128z"/></svg>