<svg xmlns="http://www.w3.org/2000/svg" width="33" height="39" fill="none" viewBox="0 0 33 39"><path fill="#FCFCFC" d="M28.9561 21.259c.4021-.389.9438-.5351 1.4073-.5185 1.0089.0357 1.438.585 1.6228.9073.5515.9625.5282 2.736.1579 3.8335-.2622.7773-.6915 1.9659-1.7266 2.8186-.4848.3993-1.2296.6437-1.8986.4195-.4682 1.6255-1.3258 3.6005-2.8466 5.4327-1.7938 2.161-3.7986 3.3805-6.1341 3.8949-1.0745.2365-2.114.2879-3.1019.3165-.9879-.0288-1.9317-.1357-2.8588-.3082-2.3507-.4375-4.583-1.7422-6.377-3.9032-1.5097-1.8186-2.3659-3.7782-2.8365-5.3979-.6355.1591-1.32-.0794-1.7753-.4543-1.0351-.8524-1.4647-2.0413-1.7265-2.8186-.3701-1.0972-.3934-2.871.1578-3.8335.1848-.3225.6139-.8716 1.6228-.9073.4636-.0166 1.0052.1295 1.4074.5185 0 0-3.8039-10.5883 12.0241-10.5883S28.9561 21.259 28.9561 21.259"/><path fill="#A9DB5F" d="M16.8629 12.9847c-1.1606-.2155-5.2161-.4205-6.2419-.3116-.6625.0702-1.458.069-2.3507.9024-.8273.7726-.7169 1.6141-1.1163 2.4281-.6934 1.4131-2.0428 1.8112-2.3015 3.394-.186 1.1382-.1867 1.5799-.2869 2.7868-.267-1.0955-1.1912-1.473-1.9213-1.4471-.2761.0099-.5086.0579-.7047.1296C.693 16.4116 1.0218 11.329 3.5476 7.404 7.2052 1.7206 14.222-.6309 20.622 1.2198c2.0288.5865 3.8851 1.6998 5.2844 3.2893l.2467.2801c.7027.6388 1.4054 1.2779 1.4054 1.2779 3.9243 3.5684 5.1539 9.8204 3.5013 14.7961-.1941-.0695-.4234-.1163-.6949-.1259-.4636-.0165-1.0052.1296-1.4074.5186l-.5622.5439-.0142-.198c-.1532-2.1416-.5894-3.5362-1.4279-4.9195-.9267-1.5284-2.5798-2.4219-4.3335-2.8649 0 0-1.974-.452-3.0989-.5705-.8542-.09-2.6574-.2622-2.6574-.2622z"/><path fill="#4C4C4C" d="M2.4679 20.5788C1.0987 15.495 1.8574 9.7808 5.5046 5.8241c3.18-3.45 7.9112-5.0609 12.5286-4.5315 2.829.3242 5.5353 1.4742 7.4557 3.6348.5052.5683 1.3337-.2703.8307-.8362C22.7542.0801 16.6364-.7999 11.6819.6625 6.6415 2.1502 2.5824 6.152 1.2157 11.2856c-.8342 3.1329-.7206 6.49.1192 9.6081.1975.7336 1.3312.4222 1.133-.3144zM31.6847 20.8335c1.2691-4.0666.7524-8.7624-1.4543-12.412-.6188-1.0233-1.3785-1.9659-2.2587-2.7727-.558-.5114-1.3912.3225-.8307.8362 2.9432 2.6978 4.2569 6.8238 4.016 10.7642-.068 1.1118-.2736 2.2071-.605 3.2697-.2271.7277.9068 1.0391 1.133.3143z"/><path fill="#4C4C4C" d="M17.0178 12.4147c-1.0167-.1843-2.0663-.2311-3.096-.2866-1.0233-.0551-2.0614-.1182-3.0862-.0625-.5387.0293-1.1087.0739-1.62.2527-.772.27-1.4965.8103-1.9094 1.5289-.3635.6329-.3946 1.3872-.7453 2.0196-.3104.5595-.7852.9756-1.2175 1.436-.5191.5531-.923 1.1791-1.059 1.9376-.1591.8877-.2169 1.7874-.2869 2.6848-.025.3188.2878.5913.5874.5913.3385 0 .5625-.2715.5874-.5913.0559-.7142.099-1.4288.208-2.1376.0931-.6041.2796-1.08.6896-1.5355.4078-.4533.8586-.8579 1.2218-1.3515.4225-.5743.6024-1.2106.8-1.8847.202-.69.664-1.2357 1.3326-1.5185.4342-.1835.8716-.2124 1.3325-.2444.9463-.0663 1.9104-.0044 2.8561.0419a55 55 0 0 1 1.8264.1177c.2607.0217.5211.0454.7811.0744.047.0052.3488.0436.2009.023a7 7 0 0 1 .2842.045c.3118.0565.6332-.0854.7225-.4129.0781-.2865-.0964-.6703-.4102-.7272zM21.2116 13.2082c-.1922-.8231-.8337-1.5242-1.4774-2.0285-1.0679-.8364-2.337-1.2722-3.6683-1.4481-.315-.0416-.5874.3015-.5874.5913 0 .354.2715.5493.5874.5912.5799.0766 1.1693.2372 1.7129.4636-.07-.029.0817.0368.0952.0429a6.4 6.4 0 0 1 .5424.2811 5.9 5.9 0 0 1 .476.3094c.0194.0141.1452.1089.0529.0372.1713.1331.3339.2794.4854.4348q.0963.0987.1862.2035c.0333.039.0654.0786.0977.1183q.0405.0514-.0269-.0357a4 4 0 0 1 .0489.0667c.0925.1355.1811.2723.2534.4201.0146.0303.0266.0625.0425.0921-.0788-.1446-.0257-.0685-.0115-.0222.0199.0658.0424.1294.058.1964.0725.3109.4252.4952.7226.4129.3162-.0875.4831-.4154.4102-.7273zM22.4609 14.3875c1.5765.4055 3.1339 1.187 4.0043 2.6296.8466 1.403 1.2052 2.96 1.3258 4.5847.0238.3186.2531.5913.5875.5913.2996 0 .6111-.271.5874-.5913-.138-1.8587-.5412-3.6613-1.5329-5.258-1.0322-1.6614-2.818-2.6227-4.6598-3.0967-.7328-.1884-1.0456.9517-.3123 1.1404M3.5002 27.9479c1.017 4.566 4.1179 8.9333 8.6697 10.4075 1.2165.394 2.522.5558 3.7938.6255 1.3543.0742 2.7847-.0697 4.0988-.4045 2.2464-.5723 4.2111-1.8777 5.7455-3.6103 1.7589-1.9857 2.9836-4.4243 3.5615-7.0185.1789-.8031-1.0478-1.146-1.2272-.3404-.9054 4.0649-3.6053 8.1549-7.6772 9.516-2.2723.7597-4.8445.7624-7.1649.2175-2.1064-.4947-3.9438-1.7082-5.3754-3.3233-1.601-1.8061-2.673-4.0563-3.1973-6.4105-.1792-.8041-1.4064-.4639-1.2273.3405z"/><path fill="#4C4C4C" d="M4.4651 20.8377c-.806-.7366-1.988-.8923-2.9697-.4213C.7665 20.7663.347 21.4898.163 22.2557c-.4315 1.7969.0206 3.8415 1.043 5.3639.7411 1.104 1.8132 1.9196 3.1931 1.7277.3145-.0438.4864-.4483.4102-.7272-.093-.341-.407-.457-.7225-.4129-.7732.1076-1.4424-.5642-1.8406-1.1458-.3787-.5531-.6413-1.1746-.8417-1.8129-.2164-.6891-.2644-1.4284-.1985-2.1456.0296-.3217.0952-.6617.2203-.9607.0447-.1072.1047-.2072.1661-.3055.0218-.0348.0855-.1099.0238-.0365a2.1 2.1 0 0 1 .132-.1416c.0709-.0703.1881-.1589.3401-.221.1398-.0569.3006-.0907.4519-.1035.399-.0337.7937.0653 1.0943.34.5588.5104 1.392-.3232.8307-.8362zM29.3704 21.674c.476-.4351 1.2647-.4624 1.7889-.0986.0514.0357.1102.0963.1946.1843.0781.0813-.0252-.0471.0326.0389.0318.0473.0629.0949.0913.1444.1605.2796.2389.6045.291.9211.2217 1.3456-.1452 2.772-.8381 3.9282-.4051.6757-1.1269 1.5382-2.0126 1.4148-.3138-.0436-.6308.0766-.7226.4129-.0754.2761.094.6834.4102.7272 2.2518.3136 3.5696-1.9553 4.139-3.8217.2858-.9376.3181-1.9689.1642-2.9326-.1268-.7926-.4594-1.5521-1.1298-2.0199-.9779-.6826-2.3786-.5218-3.2392.2646-.561.5127.2717 1.3468.8307.8361zM16.358 25.9596c.1065.4089.2088.8243.27 1.2428l-.0211-.1571a.74.74 0 0 1 .0047.1714l.021-.1572a.4.4 0 0 1-.0188.0772l.0592-.1412a.3.3 0 0 1-.0271.0495l.0917-.1197a.26.26 0 0 1-.0404.0399l.119-.0924a.8.8 0 0 1-.0979.052l.1402-.0596a.7.7 0 0 1-.1649.0483l.1561-.0212a.65.65 0 0 1-.1547-.0003l.1562.0212c-.0583-.0081-.1155-.0224-.174-.0303-.164-.0222-.3033-.0283-.4526.0596-.1219.0717-.2381.2124-.27.3533-.0342.1513-.0269.3212.0593.4555.0763.1192.2044.2518.351.2717.1287.0175.2535.0505.3845.0565.1987.0088.384-.052.5615-.1338.2183-.1005.3886-.2956.4467-.5324.0492-.2003.0276-.3781-.0059-.5787-.0673-.4003-.1591-.7972-.2614-1.1899-.0779-.2991-.4232-.5104-.7226-.4129-.3059.0996-.4939.4068-.4102.7273zM9.7838 22.4521c-.2064.6745-.0717 2.2261 1.1976 2.3581 1.6781-.0101 1.7672-1.8861 1.2025-2.768-.4624-.7221-1.8223-1.0224-2.4001.4099M23.2206 22.4521c.2064.6745.072 2.2261-1.1976 2.3581-1.6781-.0101-1.7674-1.8861-1.2025-2.768.4624-.7221 1.8223-1.0224 2.4001.4099M14.8318 32.1878a6.3 6.3 0 0 1 .2771-.1392c.0296-.0138.0972-.0697.0218-.0103-.0671.0529-.0086.0037.0311-.0106.0675-.0242.1351-.0486.2038-.0697.1858-.0572.3755-.0971.5674-.1284-.0952.0155.0068-.001.0492-.0054a5.5 5.5 0 0 1 .574-.0311 6 6 0 0 1 .3788.0097q.0874.005.1743.013c.0034.0003.2125.0264.0886.0081.1895.0279.3777.0693.5605.1269.0184.0059.233.0707.2313.0835-.0005.0042-.1309-.0653-.0428-.0165.0318.0175.0658.0318.0979.0486q.071.0373.139.0803c.0522.033.2117.1557.0184.0039.2709.2124.6359.2658.9 0 .2198-.2212.2726-.692 0-.9058-.7035-.5516-1.5885-.7268-2.4672-.7327-.8618-.0057-1.6825.1646-2.4447.5696-.3038.1613-.3965.587-.2284.8763.1799.3096.5657.3919.8707.2298zM9.4475 19.8347c.515.2329 1.0738.4631 1.6496.4346.3516-.0172.6856-.0973.9975-.268.289-.1581.5506-.368.7978-.5849.2511-.2203.2897-.6584.052-.9045-.2425-.2509-.6301-.2879-.8986-.0523-.1007.0883-.2021.1754-.3083.257-.0147.0113-.1709.1181-.0943.0704.0773-.0481-.0856.05-.1006.0586a2 2 0 0 1-.1766.0883 1.6 1.6 0 0 1-.0913.0366q.1258-.0433.0201-.0118c-.0471.008-.0931.0216-.1403.0289a1.7 1.7 0 0 1-.0921.0114q.1404-.0078.032-.0048c-.1086-.0061-.2146-.0117-.3222-.0281q-.1038-.0192.0243.0053a3 3 0 0 1-.0912-.0229 3.3 3.3 0 0 1-.1818-.0549c-.2268-.0754-.4454-.1723-.6631-.2707-.3047-.1378-.7173.0874-.8084.3983-.1053.3586.0705.6668.3957.8137z"/></svg>