<svg xmlns="http://www.w3.org/2000/svg" width="29" height="29" fill="none" viewBox="0 0 29 29"><path fill="#4C4C4C" d="M8.4948.1014c-1.5428.0728-2.5964.319-3.5175.681-.9532.3714-1.7611.87-2.565 1.6767-.804.8068-1.299 1.6153-1.6678 2.57-.357.923-.5989 1.9775-.667 3.5212s-.0833 2.0399-.0757 5.9775.0249 4.4312.0997 5.9781c.0737 1.5425.319 2.5958.681 3.5171.372.9532.87 1.7609 1.677 2.5651.8071.8041 1.615 1.298 2.572 1.6675.9223.3564 1.977.5994 3.5204.667s2.0402.0832 5.9767.0757c3.9365-.0076 4.4321-.025 5.9787-.0983 1.5466-.0734 2.5944-.3205 3.516-.6807.9532-.3729 1.7615-.87 2.5651-1.6773s1.2983-1.6165 1.6669-2.5718c.3573-.9222.6-1.9769.667-3.5191.0676-1.5478.0835-2.0419.076-5.979-.0076-3.937-.0252-4.4306-.0986-5.9769s-.319-2.5964-.6807-3.5183c-.3726-.9532-.87-1.7603-1.6767-2.565s-1.6165-1.2993-2.5715-1.667c-.9228-.357-1.977-.6003-3.5204-.667s-2.0401-.0838-5.9781-.0763c-3.9379.0076-4.4309.0244-5.9775.0998M8.664 26.314c-1.4137-.0615-2.1813-.2964-2.693-.493-.6774-.261-1.16-.5765-1.6697-1.0814-.5099-.5049-.823-.9892-1.0876-1.6652-.1986-.5115-.4379-1.2783-.504-2.6921-.072-1.528-.087-1.9868-.0954-5.858s.0064-4.3294.0734-5.858c.0603-1.4126.2966-2.1811.493-2.6924.261-.6783.5753-1.16 1.0814-1.6695s.989-.8233 1.6655-1.0878c.511-.1995 1.2777-.4367 2.691-.504 1.5291-.0725 1.9873-.087 5.858-.0954s4.33.006 5.8598.0733c1.4126.0615 2.1814.2956 2.6921.493.6777.261 1.16.5745 1.6695 1.0815s.8236.988 1.0881 1.666c.1998.5095.437 1.276.5037 2.69.0728 1.5292.0894 1.9877.0963 5.8581.007 3.8703-.0066 4.33-.0736 5.858-.0618 1.4138-.2961 2.1817-.493 2.6938-.261.6772-.5757 1.16-1.082 1.6693-.5064.5092-.9887.823-1.6655 1.0875-.5104.1992-1.2781.437-2.6901.5043-1.5292.0719-1.9874.087-5.8595.0954s-4.3289-.0073-5.858-.0734M20.485 6.7503a1.739 1.739 0 0 0 1.0769 1.6058 1.7401 1.7401 0 1 0-1.0769-1.6058m-13.43 7.7642c.008 4.1122 3.3477 7.4382 7.4591 7.4304s7.4397-3.3472 7.4319-7.4594c-.0078-4.1123-3.3484-7.4391-7.4603-7.431s-7.4386 3.3483-7.4308 7.46m2.6117-.0053a4.8333 4.8333 0 0 1 5.767-4.752 4.833 4.833 0 0 1 3.8052 3.7901 4.834 4.834 0 0 1-2.0454 4.9659 4.8338 4.8338 0 0 1-7.1554-2.1549 4.83 4.83 0 0 1-.3714-1.8491"/></svg>