<svg xmlns="http://www.w3.org/2000/svg" width="30" height="30" fill="none" viewBox="0 0 30 30"><path fill="#FCFCFC" d="M0 12.4772c0-1.1046.8954-2 2-2h26c1.1046 0 2 .8954 2 2v15.5177c0 1.1046-.8954 2-2 2H2c-1.1046 0-2-.8954-2-2z"/><path fill="#4C4C4C" d="M28 28.9949v1H2v-1zm1-1V12.4772c0-.5523-.4477-1-1-1H2c-.5523 0-1 .4477-1 1v15.5177c0 .5523.4477 1 1 1v1l-.2041-.0097C.7872 29.8829 0 29.0306 0 27.9949V12.4772c0-1.1046.8954-2 2-2h26c1.1046 0 2 .8954 2 2v15.5177c0 1.0357-.7872 1.888-1.7959 1.9903L28 29.9949v-1c.5523 0 1-.4477 1-1"/><path fill="#4C4C4C" d="M8.8957 15.4231c-1.4343-.0062-2.7246.6097-3.6138 1.5919l7.2137.0314c-.8805-.9897-2.1656-1.617-3.6-1.6233M4.6212 17.9464a4.75 4.75 0 0 0-.553 1.7906l9.6176.0419a4.75 4.75 0 0 0-.5371-1.7953zM4.6015 22.4663l8.5276.0372a4.75 4.75 0 0 0 .553-1.7905l-9.6177-.042a4.75 4.75 0 0 0 .537 1.7953M8.8554 25.0265c1.4343.0063 2.725-.6097 3.6142-1.5917l-7.2137-.0315c.8804.9898 2.1651 1.617 3.5995 1.6232M19.1897 22.3432c-.7489-.0033-1.3584.597-1.3617 1.3405-.0033.744.6009 1.3495 1.3497 1.3528.749.0033 1.358-.597 1.3613-1.341.0033-.7435-.6003-1.349-1.3493-1.3523M24.4412 22.366c-.7489-.0033-1.3579.5969-1.3612 1.3405-.0033.744.6003 1.3495 1.3492 1.3528.7489.0032 1.3585-.597 1.3618-1.341.0033-.7435-.6008-1.3491-1.3498-1.3523M25.4459 15.4397l-6.8873-.03a.5.5 0 0 0-.5022.4978l-.0107 2.3969a.5.5 0 0 0 .4978.5022l6.8873.03a.5.5 0 0 0 .5022-.4978l.0106-2.3969a.5.5 0 0 0-.4977-.5022M3.248 9.7907l15.4198-8.7108a.1514.1514 0 0 1 .195.0405l.2606.3444a.1486.1486 0 0 1-.04.2161L6.0605 9.7918z"/></svg>