<svg xmlns="http://www.w3.org/2000/svg" width="53" height="51" fill="none" viewBox="0 0 53 51"><path fill="#FCFCFC" d="M21.5 0C9.6262.0002.0172 9.6809.0378 21.5547.0586 33.4286 9.7017 43.11 21.5756 43.1103h2.599c.6215 0 1.0935.5609.987 1.173l-.8147 4.6839c-.147.8451.7689 1.4725 1.503 1.0295l16.1631-9.7536c.195-.1129.3874-.2299.5785-.3486l1.2591-.7601c.0163-.0098.0093-.0349-.0097-.0349a.0189.0189 0 0 1-.0111-.0341c5.4258-3.918 8.9531-10.3115 8.9404-17.5107C52.7492 9.6807 43.1064 0 31.2324 0z"/><path fill="#333333" d="m21.573 41.6102.0026 1.5h2.5986l-.0026-1.5zM1.5378 21.5546C1.519 10.6769 10.1851 1.7822 20.987 1.5068l.5156-.0068h9.7325c11.0405 0 20.0155 9.0042 20.0351 20.0546.0118 6.6969-3.268 12.6457-8.32 16.2939a1.6 1.6 0 0 0-.2545.2295l-.8809.5322-.0088.0049-.0078.0049-.5385.3242-.0117.0069-.0117.0078-15.2231 9.1855.6264-3.6015c.2662-1.5303-.9143-2.9327-2.468-2.9327l.0026 1.5.1153.0069c.5634.0639.9718.5923.8722 1.166l-.8151 4.6845c-.1374.7922.6594 1.393 1.3643 1.0997l.1385-.0704 16.1636-9.7538c.195-.1129.3874-.2299.5785-.3487l1.2496-.7539.0098-.0058c.0162-.0099.009-.0351-.0099-.0352-.0182 0-.0256-.0235-.0108-.0342 5.4256-3.918 8.9527-10.3116 8.94-17.5107C52.7492 9.6807 43.1064 0 31.2324 0H21.5C9.6262.0002.0172 9.6809.0378 21.5546.0586 33.4286 9.7017 43.11 21.5756 43.1102l-.0026-1.5C10.5325 41.61 1.5572 32.6052 1.5378 21.5546m42.3006 16.0449"/><path fill="#3D8DCC" d="m17.7778 30.945 7.9744-21h3.06l8.0456 21h-3.93l-1.6279-4.62h-8.07l-1.6121 4.62zm6.5867-7.8299h5.82l-2.8939-8.19z"/></svg>