<svg xmlns="http://www.w3.org/2000/svg" width="53" height="50" fill="none" viewBox="0 0 53 50"><path fill="#FCFCFC" d="M31.3047 0c11.8526 0 21.4534 9.6084 21.4445 21.4609-.009 11.8528-9.6246 21.4619-21.4773 21.4619h-2.6351c-.6218 0-1.0933.5616-.9857 1.1739l.8179 4.6512c.1484.8445-.7653 1.4727-1.5002 1.0314l-15.7652-9.4668a21.4 21.4 0 0 1-1.4945-.8975l-.7633-.4578c-.0129-.0078-.0074-.0275.0076-.0275a.0149.0149 0 0 0 .0087-.0269C3.5426 35.0077.0152 28.6469.0207 21.4609.03 9.6085 9.6456.0002 21.498 0z"/><path fill="#333333" d="m31.273 41.4229-.0011 1.5h-2.6348l.0012-1.5zM51.2492 21.461C51.2575 10.4368 42.3277 1.5 31.3035 1.5h-9.8066c-11.024.0002-19.9676 8.9369-19.9762 19.961-.005 6.6825 3.2734 12.5981 8.3177 16.2236a1.6 1.6 0 0 1 .2186.1895l.4246.2548.0264.0157.0253.0166c.3391.2226.6843.4352 1.0357.6367l.3543.1982.0264.0147.0263.0156 14.8253 8.9024-.6272-3.5713c-.2691-1.5309.9096-2.9346 2.4642-2.9346l-.0012 1.5-.1152.0068c-.5636.0641-.9719.5931-.871 1.167l.8177 4.6514c.1392.7917-.6548 1.3931-1.3602 1.1016l-.1396-.0703-15.7652-9.4669a21.4 21.4 0 0 1-1.4945-.8974l-.7555-.4541-.0078-.0039a.0145.0145 0 0 1-.0068-.0166l.0147-.0108a.014.014 0 0 0 .0136-.0107l-.0048-.0166C3.543 35.0073.0152 28.647.0207 21.461.03 9.6085 9.6456.0002 21.498 0h9.8067c11.8526 0 21.4534 9.6084 21.4445 21.461-.009 11.8527-9.6246 21.4619-21.4773 21.4619l.0011-1.5c11.0243 0 19.9678-8.9375 19.9762-19.9619M8.9548 37.4297"/><path fill="#FF6464" d="M25.3548 32.1921q-2.85 0-5.0991-1.35-2.2191-1.35-3.4775-3.81-1.2583-2.49-1.2562-5.82.0023-3.36 1.2639-5.82 1.2616-2.49 3.4825-3.84 2.2509-1.38 5.1009-1.38t5.0391 1.38q2.2191 1.35 3.4775 3.84 1.2884 2.46 1.2861 5.82-.001 1.62-.332 3.06-.301 1.41-.9017 2.61l3.2084 2.46-2.2219 2.82-3.0884-2.4q-1.2607 1.17-2.9112 1.8-1.6203.63-3.5704.63m.0022-3.36q1.05 0 1.9802-.33.9303-.36 1.6507-.96l-2.8186-2.22 2.1318-2.73 2.6687 2.07q.2705-.75.421-1.62.1506-.87.1512-1.83.0016-2.31-.7773-4.02-.749-1.74-2.1283-2.67-1.3793-.96-3.2693-.96-1.86 0-3.2707.96-1.4106.93-2.1917 2.67-.7511 1.71-.7527 4.02-.0014 2.28.7474 4.02.7789 1.71 2.1882 2.67 1.4094.93 3.2694.93"/></svg>