<svg xmlns="http://www.w3.org/2000/svg" width="182" height="175" fill="none" viewBox="0 0 182 175"><path fill="#93C9F5" d="m7.0547 14.0642 174.9403-.0171-.03 62.0698-174.9398.0171z"/><path fill="#4C4C4C" d="m181.995 14.0471-.029 62.0701-174.9408.0171.0295-62.0701zM8.272 74.8812l172.448-.0168.029-59.5642-172.4488.0168z"/><path fill="#F5F5F5" d="m2.8594 9.8455 5.5957-.0006-.0784 165.1541L2.781 175z"/><path fill="#4C4C4C" d="m8.4556 9.845-.0784 165.154L2.781 175 2.8594 9.8455zM4.0278 173.747h3.1038l.0772-162.649-3.1038.0003z"/><path fill="#F5F5F5" d="M11.2557 5.626c-.0011 3.1071-2.5074 5.626-5.5978 5.626S.063 8.7331.0643 5.626 2.5717 0 5.662 0s5.5948 2.5188 5.5936 5.626"/><path fill="#4C4C4C" d="M10.0095 5.6265c.001-2.415-1.9454-4.3733-4.3473-4.3736-2.4022 0-4.3508 1.9584-4.3517 4.3736-.0007 2.415 1.9463 4.3725 4.3483 4.3725l-.0004 1.253-.2882-.0069C2.5088 11.0994.2148 8.7921.071 5.9152l-.0067-.2887C.0655 2.5193 2.5722 0 5.6626 0l.2872.0069c2.9567.1505 5.3071 2.6094 5.3059 5.6196l-.0069.2887c-.1508 2.9726-2.5967 5.3365-5.5904 5.3368l.0004-1.253c2.4018-.0002 4.3496-1.9578 4.3507-4.3725"/></svg>