<svg xmlns="http://www.w3.org/2000/svg" width="32" height="32" fill="none" viewBox="0 0 32 32"><path fill="#FFEC72" d="M0 13.1778c0-1.1047.8954-2.0003 2-2.0003h28c1.1046 0 2 .8956 2 2.0003v16.8215c0 1.1047-.8954 2.0003-2 2.0003H2c-1.1046 0-2-.8956-2-2.0003z"/><path fill="#4C4C4C" d="M30 30.7491v1.2503H2v-1.2503zm.75-.7501V13.1778a.75.75 0 0 0-.75-.7501H2a.75.75 0 0 0-.75.7501V29.999a.75.75 0 0 0 .75.7501v1.2503l-.2041-.0098C.7872 31.8873 0 31.0349 0 29.999V13.1778c0-1.0358.7872-1.8873 1.7959-1.9896L2 11.1775h28c1.1046 0 2 .8956 2 2.0003V29.999c0 1.1048-.8954 2.0004-2 2.0004v-1.2503a.75.75 0 0 0 .75-.7501"/><path fill="#4C4C4C" d="M9.4857 16.4536c-1.53-.0067-2.9062.6503-3.8546 1.6979l7.6945.0336c-.9391-1.0558-2.31-1.7249-3.8399-1.7315M4.9251 19.1456a5.07 5.07 0 0 0-.5898 1.9099l10.2587.0448a5.07 5.07 0 0 0-.5728-1.915zM4.9068 23.9675l9.0961.0397a5.07 5.07 0 0 0 .5899-1.9099L4.334 22.0525a5.065 5.065 0 0 0 .5728 1.915M9.441 26.6985c1.53.0067 2.9068-.6503 3.8552-1.6979l-7.6946-.0336c.9391 1.0558 2.3095 1.7248 3.8395 1.7315M20.4695 23.8364c-.7988-.0035-1.4489.6367-1.4524 1.4299-.0036.7935.6409 1.4394 1.4397 1.4429.7989.0035 1.4485-.6367 1.452-1.4303.0035-.7931-.6404-1.439-1.4393-1.4425M26.0725 23.8608c-.7988-.0035-1.4484.6368-1.4519 1.4299-.0035.7935.6404 1.4394 1.4392 1.4429s1.449-.6367 1.4525-1.4303c.0036-.7931-.6408-1.439-1.4398-1.4425M27.1748 16.4721l-7.4131-.0326a.5.5 0 0 0-.5022.4978l-.0115 2.6232a.5.5 0 0 0 .4978.5022l7.4131.0327a.5.5 0 0 0 .5022-.4978l.0115-2.6233a.5.5 0 0 0-.4978-.5022M3.4648 10.4448 19.9193 1.148a.1515.1515 0 0 1 .1951.0404l.2898.3831a.1487.1487 0 0 1-.04.2162L6.4646 10.4459z"/></svg>