<svg xmlns="http://www.w3.org/2000/svg" width="103" height="88" fill="none" viewBox="0 0 103 88"><path fill="#FCFCFC" d="M52.7402 74.2769c.6319 3.6506 1.305 7.524 2.0428 11.7498l.1781.8435c2.4302-1.3463 10.6-6.0999 14.7158-8.6282 0 0 1.8215-1.2244 3.447-2.3127-.0294-.345-.1066-.9607-.2365-1.7182z"/><path fill="#FCFCFC" d="M94.0599 67.1337c-1.1478-7.6791-1.9332-12.4556-3.8664-19.4695-.1063-.3852-.239-.7942-.3934-1.2154a21.04 21.04 0 0 0-2.8087-5.2542 12.85 12.85 0 0 0-2.4546-2.3988c-2.2157-1.7324-5.2313-2.797-7.7724-3.7317-.0786.0447-.6484.3614-.6835.3788-2.5493 1.4557-4.9338 2.0679-7.8245 2.7467a15.85 15.85 0 0 1-5.8854.2318c-1.7655-.2775-3.4945-1.0712-4.6592-2.4139a3.6 3.6 0 0 1-.1653-.1984l-4.7609 1.7904a8.86 8.86 0 0 0-2.368 1.5073 7.585 7.585 0 0 0-2.2673 3.4229c-.8048 2.2692-1.2316 4.8567-1.6639 7.2266-.5608 3.0798-1.0534 5.7525-1.8302 8.8157 1.6984.0544 3.1086.0976 4.0818.127a1.63 1.63 0 0 1 1.0203.4002c.2837.2473.4732.5852.5362.9564a5199 5199 0 0 0 1.3623 7.948 58.9 58.9 0 0 0 4.171-8.6548s.0383-.0817.1008-.2144c.5212 3.0046.9733 5.5777 1.0954 6.4229.1767 1.205.4918 3.0846.6929 4.358a28.7 28.7 0 0 1 3.472-2.0888c1.1065-.5633 2.3462-1.0639 3.556-.8027 1.5442.3347 2.2927 1.0173 3.826 1.3928 1.0796.2661 1.6842.0207 2.5936-.0043 1.3577 2.6188 1.9455 6.9695 1.9718 7.7106 1.3694-.0201 10.3916-.1208 12.4561-.3311 1.6288-.166 3.2994-.2027 4.8259-.7947s2.9201-1.7624 3.3586-3.3413a14.38 14.38 0 0 0 .283-4.5221"/><path fill="#FCFCFC" d="M55.8564 75.1207c0-.0318-.0017-.0629 0-.0933a1.314 1.314 0 0 1 .3338-.8435l.2409-.3058-.3132.0661a1.1798 1.1798 0 0 1-1.2343-.4598c-.2283-.3374-.0842-.9061.0163-1.1101a3.24 3.24 0 0 1 .6063-.7401c.2746-.2721 1.4654-1.1836 1.7753-1.4094a28.76 28.76 0 0 1 3.9067-2.3998c1.1065-.5633 2.3462-1.0639 3.556-.8027 1.5442.3347 2.2926 1.0173 3.826 1.3928 1.0798.2661 1.6855.0207 2.5936-.0033.8911 1.7183 1.4506 4.1837 1.7375 5.8842l-.1884.0563c-.388.1633-1.3689.7717-2.4979 1.2402a4.122 4.122 0 0 1-3.1743-.0136 23.2 23.2 0 0 1-2.8951 2.713c-.1936.1553-.8355.6277-1.3594.1834-.3439-.292-.2634-.9597-.0938-1.2198.817-1.2535 1.1642-2.183 2.0678-3.3385-1.4982.9316-2.9394 2.0224-4.4314 2.9685-.4852.3074-.8901.5746-1.4558.4753a1.04 1.04 0 0 1-.6457-.3741 1.042 1.042 0 0 1-.2294-.7104 1.615 1.615 0 0 1 .29-.7619l-.4494.2087a2.98 2.98 0 0 1-.8724.2895 1.08 1.08 0 0 1-.8751-.2582 1.06 1.06 0 0 1-.2346-.6337"/><path fill="#D9D9D9" d="M14.3659 58.9408c1.3098 7.6759 2.6928 15.6769 4.4564 25.8083a1.126 1.126 0 0 0 1.0059.9298c6.0841.542 26.66 1.4339 33.8144 1.6651a1.12 1.12 0 0 0 .8843-.3866 1.124 1.124 0 0 0 .2575-.9308c-1.7609-10.0895-3.1601-18.1893-4.4882-25.9718a1.63 1.63 0 0 0-1.5564-1.3567c-5.868-.1776-27.5536-.8834-33.234-1.0666a1.12 1.12 0 0 0-.4837.0923 1.12 1.12 0 0 0-.6311.7249 1.12 1.12 0 0 0-.0251.4921"/><path fill="#FCFCFC" d="M75.1526 19.7816c.7476-.7309 2.033-.7328 2.8859-.1279.4139.3219.743.7401.9588 1.2183a3.225 3.225 0 0 1 .2792 1.5254 5.32 5.32 0 0 1-1.1146 2.8842 7.667 7.667 0 0 1-3.2181 2.467 14.9 14.9 0 0 1-2.9533 3.7004 12.03 12.03 0 0 1-4.6489 2.8169 11.095 11.095 0 0 1-6.1757.1235 10.95 10.95 0 0 1-3.0894-1.3414 10.6 10.6 0 0 1-2.8068-2.7554 14.4 14.4 0 0 1-2.1477-4.2601 19.96 19.96 0 0 1-.8868-4.2682 24.7 24.7 0 0 1-.1482-1.9759s-1.2979-8.4347 9.8981-9.0031c12.8299-.65 13.1675 8.9963 13.1675 8.9963"/><path fill="#FCFCFC" d="M77.9959 22.4587a3.314 3.314 0 0 1 .4349 1.9757 3.067 3.067 0 0 1-.5915 1.7685 1.672 1.672 0 0 1-1.8161.5211 1.944 1.944 0 0 1-.7998-.6394 3.163 3.163 0 0 1-.5438-2.7688 2.2389 2.2389 0 0 1 1.1223-1.4984c.6226-.3072 1.7788-.1823 2.194.6421M74.3003 33.1139a17.3 17.3 0 0 1-1.1244-2.8732 14.8 14.8 0 0 1-1.1832 1.2083 12.026 12.026 0 0 1-4.6489 2.8169 11.094 11.094 0 0 1-6.1754.1236c-.0272-.0074-.0544-.0156-.0815-.0232a1.68 1.68 0 0 1-.3913.2522c-1.446.6411-1.9653.8707-3.0315 1.3311a1.5 1.5 0 0 0 .0505.058 7.01 7.01 0 0 0 2.6026 1.8355 8.9 8.9 0 0 0 2.0567.5784 15.85 15.85 0 0 0 5.8853-.2318c2.8908-.6775 5.2742-1.2911 7.8246-2.7467.0215-.0106.2428-.1331.429-.2367-.8741-.6531-1.9643-1.5945-2.2125-2.0924"/><path fill="#4EB7B9" d="M75.0175 19.8967a.646.646 0 0 1-.5487.2384.6476.6476 0 0 1-.5092-.314c-1.194-2.4458-2.1077-4.0756-3.7721-5.4047a7.22 7.22 0 0 0-1.8664-1.1608l-2.4889-.6418c-1.9688.8239-4.4879 2.5704-5.334 2.9029-.4893.1918-.2362-.7284-.4236-1.3626-.0927-.3135-.3632-.4392-.5684-.3336-1.7514.9011-4.2213 3.1668-5.6151 4.6625l-2.4145 1.4271c-1.4093-5.7748-.1419-10.3937 2.3653-12.607l.1299-1.846a14.93 14.93 0 0 1 2.7796-2.3574C60.5936.5611 64.316.5394 66.8281.7053c3.1087.2047 6.0231 2.0105 7.4159 3.5682l1.5442 1.442c2.9122 2.3444 3.8779 6.1639 3.9203 9.4048.0161 1.2347-.3507 3.9591-.9268 5.3364a2.72 2.72 0 0 0-.7424-.8043c-.8529-.6048-2.1383-.6029-2.8859.1279z"/><path fill="#4C4C4C" d="M72.5467 30.4184c.163.5761.3608 1.1418.5924 1.694a8.07 8.07 0 0 0 .6976 1.4965c.5965.8655 1.5129 1.537 2.3429 2.1606a.656.656 0 0 0 .8926-.2343.669.669 0 0 0-.2341-.8935 16.8 16.8 0 0 1-1.0932-.8979c-.181-.1632-.3586-.3295-.5269-.5053a5 5 0 0 1-.1903-.2092 3 3 0 0 1-.09-.1088c.0498.0645.0346.0487 0-.0093a8.6 8.6 0 0 1-.5894-1.2676 14.5 14.5 0 0 1-.5437-1.5713c-.224-.8087-1.4836-.4653-1.2582.3472zM57.9772 36.5199a241 241 0 0 0 1.5553-.6803q.435-.1904.8686-.3841a4.6 4.6 0 0 0 1.1473-.628.6565.6565 0 0 0 0-.9238.67.67 0 0 0-.9227 0c-.0894.0746.0302-.007-.0315.0224-.0427.0204-.0832.0527-.1251.0751-.0834.0443-.1713.0799-.2574.1183l-.5201.2307q-.4282.1905-.8569.3791-.7569.3335-1.516.6614a.655.655 0 0 0-.234.8935.6724.6724 0 0 0 .8925.2343z"/><path fill="#FCFCFC" d="M76.7637 35.0644c.0131-.0072.0146-.0081 0 0"/><path fill="#4C4C4C" d="M45.3924 58.3293c.8844-3.5761 1.4743-7.2068 2.1681-10.8221.3341-1.7391.6998-3.5099 1.3534-5.162a7.53 7.53 0 0 1 2.9614-3.5252c.833-.5577 1.7813-.853 2.7129-1.2034l3.1322-1.1776-.6348-.1682c1.9096 2.3751 5.0896 3.0433 7.9904 2.9718a21.36 21.36 0 0 0 4.5888-.7186 31.4 31.4 0 0 0 4.0709-1.2429 26.4 26.4 0 0 0 3.3665-1.6578.661.661 0 0 0 .2991-.7374.662.662 0 0 0-.3855-.4258.661.661 0 0 0-.5731.0357l-.012.0065c-.5306.2862-.3406 1.0116.1558 1.1936 2.3038.8435 4.6527 1.6712 6.7197 3.0218a13.37 13.37 0 0 1 2.8497 2.4812 15.48 15.48 0 0 1 1.9186 2.96 19.8 19.8 0 0 1 1.38 3.304c.3738 1.2184.6756 2.4646.9828 3.7004a116.4 116.4 0 0 1 1.5115 6.9926c.4568 2.4657.8461 4.9436 1.2218 7.4226a16.76 16.76 0 0 1 .2991 3.3279c-.0335.9547-.0816 2.0044-.4304 2.9059-.8727 2.2529-3.5174 2.9486-5.6679 3.1624-1.5028.1494-2.9992.2531-4.5083.3034-3.0786.1026-6.1594.1423-9.2394.1834l-.4872.0065.6525.653a18.9 18.9 0 0 0-.4078-2.8163 22.3 22.3 0 0 0-1.1834-4.1847 8.64 8.64 0 0 0-1.097-2.0353.674.674 0 0 0-.8928-.2342.658.658 0 0 0-.2341.8935c1.0413 1.3501 1.5132 3.1081 1.8987 4.7444a31.3 31.3 0 0 1 .4622 2.3655q.0372.2376.0699.4762c-.0231-.1679.0071.0569.0109.0873q.0116.0934.0225.1867c.0196.1717.0384.3442.0454.5169a.6636.6636 0 0 0 .6525.6531c2.9514-.043 5.9027-.0784 8.853-.1633 1.4091-.0405 2.8114-.1015 4.2139-.2256 1.3945-.1235 2.8247-.2111 4.1572-.6761a6.897 6.897 0 0 0 2.9834-1.9514 5.59 5.59 0 0 0 1.262-2.9658 15 15 0 0 0 .1463-3.2922c-.111-1.3439-.3864-2.691-.5935-4.0228-.2009-1.2905-.4078-2.58-.6307-3.8669-.4122-2.3852-.8803-4.7616-1.4298-7.1176-.5845-2.5075-1.1418-5.0717-2.1632-7.4435-1.0149-2.3595-2.3862-4.6059-4.3738-6.2675-2.0341-1.7003-4.4273-2.7715-6.888-3.7004-.5785-.2177-1.1598-.4302-1.7399-.6429l.1558 1.1936.0122-.0065-.9586-.3905.299-.7373a26.7 26.7 0 0 1-2.5827 1.3313 25.8 25.8 0 0 1-3.8061 1.2516c-2.7418.7121-5.6187 1.2606-8.4229.5219a6.8 6.8 0 0 1-3.624-2.2532.631.631 0 0 0-.6348-.1679l-2.8818 1.0835a22.1 22.1 0 0 0-2.6754 1.066 8.907 8.907 0 0 0-3.6591 3.5644c-.8463 1.5887-1.2652 3.4106-1.6333 5.1598-.3896 1.8519-.6963 3.7208-1.0432 5.5811-.3964 2.1266-.8273 4.2462-1.3468 6.3467-.2017.8163 1.0565 1.164 1.2585.3472z"/><path fill="#4C4C4C" d="M53.3328 46.9185c.264 2.868.8271 5.7247 1.3091 8.5615.5214 3.0675 1.0725 6.1301 1.5855 9.1992.3007 1.8007.5758 3.6065.8613 5.4097a.6577.6577 0 0 0 .8028.456.669.669 0 0 0 .4556-.8032c-.4621-2.926-.9317-5.8499-1.4387-8.768-.588-3.3851-1.1834-6.7693-1.7233-10.1628-.1254-.789-.2474-1.5759-.3597-2.3655l-.034-.2421c-.0052-.0387-.0345-.2528-.0234-.1696.0106.0789-.0155-.1186-.0204-.1564a43 43 0 0 1-.0291-.2288 26 26 0 0 1-.0815-.73.67.67 0 0 0-.1961-.4568.67.67 0 0 0-.4564-.1963.657.657 0 0 0-.6525.6531z"/><path fill="#4C4C4C" d="M52.9491 67.0193c1.4425-2.3399 2.5431-4.9297 3.5071-7.4979a.659.659 0 0 0-.454-.8032.666.666 0 0 0-.493.0665.668.668 0 0 0-.3098.3895 41.4 41.4 0 0 1-3.3758 7.1859c-.4423.7172.6859 1.374 1.1266.6592zM78.5498 52.2271a287.6 287.6 0 0 1 3.1809 13.2779c.1761.8211 1.4346.4737 1.2584-.3472a287 287 0 0 0-3.1808-13.2779c-.2148-.8116-1.4738-.4674-1.2582.3472z"/><path fill="#4C4C4C" d="M73.0763 66.2546c3.519.3151 7.0957-.0677 10.6128-.262.8352-.0463.8406-1.3525 0-1.306-3.5157.1942-7.0938.5771-10.6128.262a.657.657 0 0 0-.46.1926.658.658 0 0 0-.1925.4604.667.667 0 0 0 .1951.4578.666.666 0 0 0 .4574.1952M55.9468 73.3165a.648.648 0 0 1-.4059-.0745c-.1811-.1241-.1313-.329-.0761-.517.0399-.136.016-.0517 0-.0196a1.16 1.16 0 0 1 .0995-.1687 2.7 2.7 0 0 1 .2784-.3123 5.3 5.3 0 0 1 .4227-.3861 28 28 0 0 1 2.5721-1.8948c1.2316-.8049 2.5689-1.6538 3.9758-2.1111a3.563 3.563 0 0 1 2.1105-.0934 12.36 12.36 0 0 1 1.7726.6936 8.29 8.29 0 0 0 2.27.7164c.7341.0966 1.4436-.0528 2.1771-.0816.8368-.0335.8412-1.3395 0-1.3061-.6951.0272-1.3952.2003-2.0909.0904a8.59 8.59 0 0 1-2.151-.751 8.6 8.6 0 0 0-2.217-.7474 5.07 5.07 0 0 0-2.5616.342 22.16 22.16 0 0 0-4.6641 2.6069 17.3 17.3 0 0 0-2.5392 1.999c-.5644.5809-1.0027 1.3648-.74 2.2017.2811.8957 1.2679 1.2244 2.1132 1.0729a.6586.6586 0 0 0 .4556-.8032.668.668 0 0 0-.3097-.3894.666.666 0 0 0-.4928-.0667z"/><path fill="#4C4C4C" d="M60.5853 69.9726a32.9 32.9 0 0 0-3.4611 2.4518c-.9516.7558-2.2628 1.7639-1.8452 3.1635.0749.2648.2227.5031.4264.6878.2038.1848.4554.3084.7261.3568.6204.1162 1.1793-.0898 1.7366-.3453a.6583.6583 0 0 0 .2341-.8935.6677.6677 0 0 0-.8928-.2343 2.8 2.8 0 0 1-.4894.1793.635.635 0 0 1-.3161.0193c-.0288-.0065-.1653-.062-.1207-.0394.0367.0185-.0237-.0272-.0354-.0501a.55.55 0 0 1-.0334-.3213c-.0079.0595.0253-.092.0329-.1138-.0155.0438.0579-.1088.0815-.1434.0362-.0563.112-.2193.1773-.2544-.0386.0207-.1071.1249-.0272.04.0272-.0299.0544-.0612.0829-.0911a4.7 4.7 0 0 1 .1941-.1929 22.15 22.15 0 0 1 2.6428-2.0679c.5054-.3556 1.0174-.7039 1.547-1.0222.719-.4324.0636-1.5621-.6588-1.1278z"/><path fill="#4C4C4C" d="M62.718 71.3226c-.9858.6206-1.9346 1.2951-2.8834 1.9702-.8645.6152-1.8041 1.1896-2.2733 2.1881-.4456.9485-.1074 2.0788.9243 2.4507 1.1089.3994 2.1341-.4429 2.9992-1.0219 1.1342-.7594 2.2397-1.561 3.3913-2.294.7068-.4498.0527-1.5803-.6588-1.1275-1.0817.6883-2.123 1.4374-3.1854 2.1552a10.2 10.2 0 0 1-1.5926 1.0067c-.249.1064-.6139.1216-.743-.1205-.1455-.2721.0576-.5755.2702-.8593a5.54 5.54 0 0 1 1.3248-1.1077c1.0165-.7218 2.0292-1.4488 3.0846-2.1135.709-.4465.0544-1.5782-.6584-1.1276z"/><path fill="#4C4C4C" d="M64.0058 73.8449a20.8 20.8 0 0 0-1.2476 2.042c-.3714.6547-.92 1.2767-.8567 2.0763a1.426 1.426 0 0 0 .6158 1.1224 1.47 1.47 0 0 0 1.2748.1439 2.85 2.85 0 0 0 .8819-.5284q.5065-.4081.9948-.838a22.3 22.3 0 0 0 1.9574-1.959.669.669 0 0 0 0-.9235.658.658 0 0 0-.9227 0 22.4 22.4 0 0 1-1.4681 1.5158q-.3999.3742-.8172.7297a30 30 0 0 1-.6324.5252.7.7 0 0 1-.0989.0797c.0413-.021.1291-.0917.035-.0272a3 3 0 0 1-.2737.1665c-.0971.052.0543-.0016-.0571.019-.0386.0074-.0759.0218-.1148.0273.0914-.0153.0237.0117-.0051-.0079.0065.0043.1435.0525-.0087-.0019-.0036 0-.0925-.0408-.0432-.0147.0744.0392-.0414-.0762.0312.0397-.0402-.0642-.0356-.123-.0236-.0316a.7.7 0 0 1-.0207-.0772q-.0147-.0721.0019.0402l-.0038-.0544c0-.0544 0-.1088.0022-.1632.0021-.1236.0035-.0088-.003.0168.0062-.0245.009-.0495.0166-.0734a.8.8 0 0 0 .0193-.07c.0233-.1088-.0036.0106-.0174.0332.044-.071.0867-.1428.1316-.2136.193-.3031.3746-.613.5516-.9251.3703-.693.7806-1.364 1.2288-2.0093a.6584.6584 0 0 0-.2341-.8936.6668.6668 0 0 0-.8925.2343z"/><path fill="#4C4C4C" d="M67.2534 76.3515a4.96 4.96 0 0 0 3.4282-.2522c.8101-.3488 1.5548-.8323 2.3614-1.1825a.657.657 0 0 0 .3003-.3985.658.658 0 0 0-.0662-.4948.6693.6693 0 0 0-.8928-.2345c-.7164.3113-1.3808.7404-2.0934 1.0641a3.74 3.74 0 0 1-2.6915.2389c-.8066-.2405-1.151 1.0198-.3469 1.2595zM13.738 59.1138a6212 6212 0 0 0 2.7002 15.6945 10677 10677 0 0 0 1.5713 9.0504c.1248.7164.1566 1.4965.7341 2.0168.4091.3689.8971.4405 1.421.4845.6038.0509 1.2079.0953 1.8123.1361 3.6702.2555 7.3482.4408 11.0239.6225q6.3869.3154 12.7757.5777 2.6575.1087 5.3158.2097 1.0563.0387 2.1124.0749a2.44 2.44 0 0 0 1.3594-.2207 1.797 1.797 0 0 0 .652-.6583 1.8 1.8 0 0 0 .2378-.8959 7.46 7.46 0 0 0-.18-1.1542l-.2175-1.2488q-.2071-1.188-.4138-2.3762a7210.7814 7210.7814 0 0 1-2.2105-12.7617 5719 5719 0 0 1-1.3384-7.8024c-.1025-.5999-.1441-1.2407-.4815-1.7653a2.278 2.278 0 0 0-1.5151-1.0146 13.8 13.8 0 0 0-1.8095-.0841q-5.067-.1575-10.1333-.3221-6.152-.1981-12.3035-.3973-4.5331-.1469-9.0662-.2935a2.06 2.06 0 0 0-1.293.287 1.775 1.775 0 0 0-.7762 1.6663.6744.6744 0 0 0 .6525.653.656.656 0 0 0 .4602-.1925.658.658 0 0 0 .1923-.4605c-.0525-.4081.1386-.6628.5576-.653.2332.0049.4662.0152.6992.0226l1.7704.0574 4.6845.1518q5.84.189 11.6805.3774 5.4204.1747 10.8409.3469l1.9593.0615c.5187.016 1.0576-.0085 1.5736.0495a.985.985 0 0 1 .8398.6946c.1471.6052.2554 1.2192.3243 1.8383q.3143 1.839.6302 3.678a6489 6489 0 0 0 2.8258 16.3378 5638 5638 0 0 0 .5866 3.3649c.0544.3096.2083.7156.1539 1.0285-.0625.3605-.3855.3983-.6943.388a305 305 0 0 1-.9094-.0308 772 772 0 0 1-4.6919-.1774 1628 1628 0 0 1-12.098-.5292c-3.8529-.1825-7.7058-.3738-11.5559-.6108-1.3305-.0816-2.6613-.1671-3.9896-.2784-.2719-.0228-.5672-.0141-.7069-.3006a4.23 4.23 0 0 1-.199-1.0456l-.2055-1.1812q-.3899-2.2404-.7787-4.4804a8840 8840 0 0 1-2.7186-15.7539 4191 4191 0 0 1-.6036-3.5287.658.658 0 0 0-.8025-.4563.6687.6687 0 0 0-.4551.8038"/><path fill="#4C4C4C" d="M69.3473 77.6775c-4.2873 2.6324-8.6388 5.1664-13.0066 7.6622-.6932.3962-1.3865.7953-2.0887 1.1735-.74.3978-.0816 1.5259.6585 1.1276 1.5768-.8484 3.1213-1.7626 4.6706-2.6605a741 741 0 0 0 7.0169-4.1197 361 361 0 0 0 3.4078-2.0553c.7147-.4389.0601-1.5689-.6585-1.1278M95.5631 74.8759c1.9381 0 3.8765-.0131 5.8149-.0191.331-.0011.662-.002.992-.0027.84 0 .841-1.306 0-1.306-1.975 0-3.9502.0125-5.9263.019-.2939 0-.5878.0025-.8817.0028-.8398 0-.8412 1.306 0 1.306zM.632 74.8759q2.2685 0 4.5374-.0074l7.1732-.0117q.911 0 1.8215-.0027c.8398 0 .8412-1.306 0-1.306q-2.3448 0-4.6902.0073l-7.1308.0117q-.8561 0-1.7127.0028c-.8398 0-.8412 1.306 0 1.306zM79.5598 20.2363c.3198-1.0329.54-2.0941.6576-3.169a14.58 14.58 0 0 0 .1128-2.7826 14.39 14.39 0 0 0-1.6929-6.1666 10.02 10.02 0 0 0-2.3869-2.863.6717.6717 0 0 0-.9228 0 .6584.6584 0 0 0 0 .9235c3.0205 2.4613 4.0462 6.7007 3.6373 10.4482a15.86 15.86 0 0 1-.6636 3.2612c-.2648.7997.995 1.1428 1.2585.3472zM53.382 6.8419c-2.589 2.311-3.3053 6.1317-3.112 9.4476.08 1.2797.2739 2.5496.5793 3.7948.1968.8163 1.4556.4708 1.2585-.3474-.8023-3.3282-.9632-7.2199.8226-10.2781a6.73 6.73 0 0 1 1.3743-1.6932c.628-.5608-.2974-1.4818-.9227-.9237M74.7057 3.8118C72.6585 1.5488 69.5418.204 66.5274.034c-2.947-.1662-5.8723.2653-8.5325 1.5936a14.74 14.74 0 0 0-4.4842 3.368c-.5494.6309.37 1.5584.9228.9234 2.0047-2.3027 4.9479-3.8397 7.927-4.3828a16.96 16.96 0 0 1 3.6952-.2193 11.015 11.015 0 0 1 4.0981.8927 10.74 10.74 0 0 1 3.6291 2.5258c.565.6242 1.4855-.3015.9228-.9235M67.9925 13.8196a8.834 8.834 0 0 1 3.7735 3.3293c.503.7957.9598 1.6198 1.3683 2.4681.2049.4119.3618.8214.7995 1.0339a1.3726 1.3726 0 0 0 1.5461-.293c.6335-.554-.2925-1.4745-.9243-.9235 0 0-.1052.1072-.0166.0767-.0272.009-.0435-.0612-.0696-.1289-.0489-.1277-.1229-.2506-.1838-.3728-.1974-.3978-.3988-.7934-.6095-1.1844a15.8 15.8 0 0 0-1.2666-2.0254 9.73 9.73 0 0 0-3.7594-3.1084.6735.6735 0 0 0-.8928.2343.6585.6585 0 0 0 .2341.8933zM54.3529 18.9453c1.5102-1.6148 3.2002-3.2378 5.1187-4.3596.0479-.0272.2749-.1146.2928-.1633-.0321.0871-.3344-.0435-.3186-.0938.0089.09.0253.1791.0489.2663.0142.1442.0125.2901.0201.4354.0272.5387.2096 1.1681.8724 1.1667.3665 0 .7512-.2533 1.0633-.4272.4192-.2337.8297-.4827 1.2419-.7281a28.9 28.9 0 0 1 3.4695-1.8627.657.657 0 0 0 .2341-.8935.67.67 0 0 0-.8925-.2343 26.45 26.45 0 0 0-3.1314 1.6616c-.4407.2612-.8789.5271-1.3229.7831-.1704.098-.3411.1954-.5165.2862-.0655.0343-.1319.0667-.1982.0993-.0799.0392-.0835.0117-.0489.0234.0432.0147.1359-.0318.1916-.0097l.2879.1678q-.1182-.1004.0713.1361-.0221-.1064-.0079-.0169a1.4 1.4 0 0 0-.0133-.2353 6.3 6.3 0 0 0-.0585-.7061 1.248 1.248 0 0 0-.8156-1.068c-.4728-.145-.8941.1402-1.2797.3747-.3681.2242-.722.4707-1.0681.7273a31.2 31.2 0 0 0-4.1642 3.7469c-.5733.6133.3475 1.5387.9227.9235zM76.2892 26.2416a8.48 8.48 0 0 1-1.6611.936.653.653 0 0 0-.2991.3902.668.668 0 0 0 .0658.5033.66.66 0 0 0 .3899.2993l.1734.0232a.65.65 0 0 0 .3293-.089 8.5 8.5 0 0 0 1.6611-.936.708.708 0 0 0 .299-.3904.653.653 0 0 0-.2281-.6889.65.65 0 0 0-.2275-.1143.6388.6388 0 0 0-.5027.0658z"/><path fill="#4C4C4C" d="M75.6144 20.2422a1.562 1.562 0 0 1 1.3634-.342 1.932 1.932 0 0 1 1.2897.9681c.696 1.2111.2719 2.6624-.4725 3.8038a.654.654 0 0 0-.0831.5037.654.654 0 0 0 .3045.4097.653.653 0 0 0 .506.0651.6521.6521 0 0 0 .3981-.3192c1.0165-1.5591 1.4698-3.689.345-5.3248a3.186 3.186 0 0 0-2.0895-1.3925 2.8919 2.8919 0 0 0-2.4854.7044c-.6144.5755.3096 1.4965.9227.9251zM51.4688 20.009a22.03 22.03 0 0 0 1.3193 7.0308c.8621 2.2945 2.2742 4.5226 4.2248 6.0425 3.7743 2.9407 9.3223 3.0746 13.3168.5025a16.125 16.125 0 0 0 5.1856-5.5163c.4176-.7308-.7096-1.3895-1.1269-.6592a15.02 15.02 0 0 1-4.0402 4.5773 10.55 10.55 0 0 1-6.3723 2.1283 10.44 10.44 0 0 1-5.5504-1.6192c-1.8984-1.2277-3.3167-3.2439-4.1832-5.3057a20.23 20.23 0 0 1-1.4681-7.1807c-.0271-.8383-1.3321-.8421-1.3049 0z"/><path fill="#4C4C4C" d="M61.5742 24.3339c-.0913.2255-.17.456-.2358.6903-.1141.3885-.2528.878.0726 1.2069a1.07 1.07 0 0 0 .2398.1742c.0891.0485.1841.0851.2828.1088.1332.0229.2685.0321.4037.0272a.672.672 0 0 0 .4622-.1904.6537.6537 0 0 0 0-.9235.686.686 0 0 0-.4622-.1905 1.7 1.7 0 0 1-.2137-.0013l.1734.0231a.54.54 0 0 1-.1052-.0294l.1558.0659a.7.7 0 0 1-.1411-.0847l.1321.1021a.02.02 0 0 1-.0048-.0049l.1019.1322a.05.05 0 0 1-.0057-.0103l.0658.1559a.12.12 0 0 1-.006-.0248l.0231.1736a.47.47 0 0 1 .0041-.1034l-.0231.1736a3.7 3.7 0 0 1 .1598-.6176c.0544-.1698.1088-.3412.1789-.5058a.652.652 0 0 0-.0658-.5031.652.652 0 0 0-.8928-.2343l-.1321.102a.655.655 0 0 0-.1677.2882M56.6465 21.4426c-.1862.5845-.1031 1.9389.961 2.0747 1.4102.0185 1.5211-1.6148 1.0636-2.3927-.3749-.6367-1.5116-.9194-2.0246.318M68.7488 21.4923c.1762.6179.0239 2.0279-1.1418 2.1239-1.5358-.0411-1.5823-1.7503-1.0486-2.5427.438-.6483 1.6885-.8954 2.1904.4188M64.1915 31.4696a5.36 5.36 0 0 0 1.0989-1.4056c.3205-.6008.7424-1.5765-.0245-2.032-.379-.225-.9029-.1121-1.3207-.0754-.448.0395-.8953.0866-1.3422.1377-.5005.0572-1.001.1192-1.4993.1943a.6556.6556 0 0 0-.4557.8032.673.673 0 0 0 .8025.4563q.137-.0209.2741-.0397c.1903-.0272-.0769.0095.0476-.0066l.1411-.0182q.358-.0457.7163-.0862c.4859-.0545.9722-.1062 1.4591-.147a18 18 0 0 1 .5807-.0413.4.4 0 0 0 .1004-.0047.364.364 0 0 1-.2387-.1023.4254.4254 0 0 1-.1199-.3442 1.05 1.05 0 0 0-.0544.1981 3 3 0 0 1-.0443.1304q-.0444.1102-.0117.0367a4.5 4.5 0 0 1-.4875.8465c-.0399.0574-.0799.1153-.1231.1706.0628-.0817-.0596.0644-.0745.0816-.1088.1143-.2308.2176-.3466.3265a.6584.6584 0 0 0 0 .9234.6655.6655 0 0 0 .9227 0zM74.6053 27.4314a21.96 21.96 0 0 1-3.0734 1.3284c-1.1133.37-2.2633.6043-3.4059.8617-.8192.1844-.4725 1.4439.3469 1.2595a33.8 33.8 0 0 0 3.507-.8955 24.75 24.75 0 0 0 3.2839-1.4271c.7476-.3834.0881-1.5106-.6585-1.1275z"/><path fill="#4C4C4C" d="M66.7012 29.4963a1.19 1.19 0 0 0-.0715 1.7454 1.8279 1.8279 0 0 0 1.508.4114c.5794-.0816 1.2955-.7346 1.3167-1.3944.0204-.6408-.7933-1.0998-1.5056-1.1749a1.487 1.487 0 0 0-1.2476.4125M77.1075 26.7129a10.4 10.4 0 0 1-.7503 2.4787.69.69 0 0 1-.6688.2585 2.514 2.514 0 0 1-1.1364-.3047.75.75 0 0 1-.2909-.3048.421.421 0 0 1-.049-.3237c.0218-.0653.0408-.1306.0626-.1959.0924-.2912.1903-.5878.28-.8843a14.6 14.6 0 0 0 .435-1.6897q.1058.1755.231.3374c.2062.2803.4829.501.8021.6394.1906.0682.3934.096.5953.0816a1.76 1.76 0 0 0 .4894-.0925"/><path fill="#4C4C4C" d="M73.8466 29.1436a6.11 6.11 0 0 0 1.7853-2.2913.71.71 0 0 0 .0658-.5031.652.652 0 0 0-.3068-.3945.652.652 0 0 0-.4957-.0618.636.636 0 0 0-.3902.2993 5.7 5.7 0 0 1-.3091.5986 6.3 6.3 0 0 1-.1903.2993 6 6 0 0 1-.0919.1304c-.0174.0239-.0353.0473-.0527.0712-.0655.0898.0761-.0955.0272-.0337a5.92 5.92 0 0 1-.9635.9621.653.653 0 0 0-.1903.4626.665.665 0 0 0 .1903.4625.656.656 0 0 0 .4622.1905.76.76 0 0 0 .4621-.1905z"/><path fill="#4C4C4C" d="M75.553 25.4178a2.578 2.578 0 0 1-.1332-2.2708c-.0272.0677.0212-.0414.0223-.0441a2.6 2.6 0 0 1 .0685-.1295 3 3 0 0 1 .0761-.1255s.0666-.0993.0272-.047a1.26 1.26 0 0 1 .376-.3453c.0457-.0272.0924-.0503.1386-.0759-.116.0639-.0565.0196-.0179.0084.0674-.0201.1359-.0373.2034-.0563.0271-.0079.1264-.0185-.0096-.003a2 2 0 0 1 .1134-.0093 2.3 2.3 0 0 1 .2624.003c.0296 0 .0595.0044.0886.0082-.1259-.0171-.0196 0 .0032.006.077.0223.1545.0411.2311.0645.1191.0362.0373.0152.0109.0024q.054.026.1063.0544c.0348.0191.0682.0417.1017.0634-.0756-.0492 0-.003.0323.0289.0234.0226.139.1572.0786.074q.0782.1149.1416.2386c.1046.191.1837.3947.2355.6062.1764.7093.1025 1.7174-.3594 2.3019a1.013 1.013 0 0 1-.9698.3776.48.48 0 0 1-.1794-.0582 1.28 1.28 0 0 1-.2276-.1529 2.12 2.12 0 0 1-.4214-.5205c-.4415-.7129-1.5708-.058-1.1266.6593a2.9 2.9 0 0 0 1.4224 1.2777 2.3358 2.3358 0 0 0 1.8487-.1905c1.1223-.6184 1.4771-2.1337 1.3822-3.3194-.0933-1.1643-.6364-2.399-1.8449-2.7362a2.471 2.471 0 0 0-2.735 1.022c-.7952 1.1403-.7402 2.7709-.0747 3.9494.4129.7316 1.5409.0742 1.1266-.6593z"/></svg>