<svg xmlns="http://www.w3.org/2000/svg" width="81" height="92" fill="none" viewBox="0 0 81 92"><path fill="#FCFCFC" d="M62.3176 23.2016c.4406-.4241 1.0344-.5836 1.5428-.5655 1.1059.039 1.5762.638 1.7788.9896.6045 1.0496.579 2.9841.1732 4.181-.2874.8476-.758 2.1443-1.8927 3.074-.5145.4217-1.2963.6848-2.0105.4773-.5063 1.7691-1.4294 3.9082-3.0611 5.8968-1.0766 1.3121-2.1102 2.2052-3.2873 2.8691v2.1193c0 .3746 0 .7832.1383 1.1477.1854.4794.4348.8944.8359 1.2187.8496.6852 1.7224 1.0126 2.7979 1.4178l.5144.2031-2.0866 1.5619c-2.4284 1.2304-5.65 2.0841-8.9701 2.094-3.3533-.0099-6.6063-.8808-9.0432-2.1312 0 0-1.4646-.8299-2.3932-1.3547l.9461-.3728c1.0754-.4052 1.9482-.7327 2.7978-1.4178.4011-.324.6505-.7394.8359-1.2187.1384-.3648.1384-.7731.1384-1.1477 0 0 0-.6779-.0009-1.7997-1.3169-.723-2.5144-1.7948-3.6585-3.1887-1.6259-1.9816-2.5484-4.1128-3.0559-5.8782-.6952.1718-1.4437-.0882-1.9416-.4962-1.1347-.9297-1.6052-2.2264-1.8927-3.074-.4057-1.1969-.4313-3.1311.1732-4.181.2026-.3516.6729-.9506 1.7788-.9896.5081-.0181 1.1019.1414 1.5428.5655 0 0-4.5162-14.9656 13.2137-14.9656s14.0869 14.9656 14.0869 14.9656z"/><path fill="#4C4C4C" d="M10.9386 47.4509a374 374 0 0 1-2.635-3.2457c-.3442-.4283-.6876-.857-1.0285-1.2875-.1464-.1851-.503-.4988-.549-.7446-.0354-.1901.132-.2856.3049-.3241.2447-.0543.4472.1085.6286.2538.6043.4833 1.0602 1.1749 1.5487 1.7672 1.1942 1.448 2.4007 2.8853 3.6579 4.279.3892.4318 1.29.4094 1.3608-.3082.081-.821.2234-1.6317.4845-2.4158.1414-.4238.3388-1.3013.9711-1.242.6603.0621.5644 1.1125.5073 1.5548-.0987.7613-.2379 1.5085-.2953 2.2763-.0614.8192-.0887 1.6409-.1131 2.462-.0239.7928.0073 1.6145-.1078 2.3998-.0524.3585-.1368.7158-.2278 1.0664-.106.4073-.395.8913-.3691 1.3107.0458.749.3606 1.5021.4889 2.2431l.0676-.3903c-.0609.1221.067-.0691-.024.0441a1.7 1.7 0 0 1-.1328.1501c.0871-.0858-.0815.0605-.1117.0831a3.8 3.8 0 0 1-.2358.1593c-.2834.1781-.6707.3348-1.0307.4656-.8112.2953-1.6547.5004-2.507.6347-.3312.0521-.6654.0964-1.0007.1134-.0711.0036-.1425.0038-.2137.0069-.142.0064.12.0361.0044.0023-.0996-.0292-.1142-.0176-.1573-.0486-.2077-.1494-.2984-.6404-.3567-.9007-.0876-.3919-.1205-.851-.3576-1.1906-.2099-.3003-.5508-.5252-.8135-.7768-.2754-.2641-.536-.5429-.7919-.8264-.587-.6497-1.1683-1.3042-1.7525-1.9561-.2725-.3043-.6983-.4319-1.0562-.1753-.3044.2183-.4493.7513-.175 1.0578.6397.7145 1.2738 1.4341 1.9213 2.1418.288.3151.5786.6288.8868.9241.1577.151.3179.3173.4954.4447.2097.1503.025.04-.0034-.0533.0158.0514.042.1015.052.155.0261.1426.0874.4027.1412.6386.0678.2971.139.595.2656.8734.2554.5625.6908 1.0489 1.3223 1.1699.8096.1556 1.7658-.0771 2.5535-.2446 1.1396-.242 2.2888-.5531 3.3063-1.1363.4394-.2517.8919-.5948 1.1173-1.0626.1942-.4029.0094-.8764-.0852-1.286-.1077-.4658-.2188-.9306-.3098-1.4002l-.0676.3903c.2634-.6693.4586-1.3653.5951-2.0716.1211-.6264.1205-1.2689.1415-1.905.0455-1.3689.0571-2.7419.2116-4.1041.1438-1.2677.6314-2.7511-.1904-3.8933-.7852-1.0908-2.2873-1.0816-3.1982-.1588-.5039.5104-.6884 1.2322-.8941 1.9007-.2318.7523-.3691 1.5199-.4464 2.3025l1.3608-.3082c-1.1556-1.2814-2.2689-2.5999-3.3689-3.9294-.5166-.6247-1.012-1.2742-1.5592-1.8721-.4516-.4936-1.0214-1.0022-1.7054-1.1154-1.5225-.2519-2.8166 1.3068-1.9842 2.7023.4022.6749.9838 1.2779 1.4736 1.8879a377 377 0 0 0 2.7537 3.3939c.6155.7491 1.8527-.1267 1.2312-.8829z"/><path fill="#4C4C4C" d="M6.147 41.6728c-.914-.466-2.2453-.2796-2.8726.5902-.6441.8931-.2216 1.9593.4059 2.7096 1.3891 1.6617 2.7667 3.3328 4.1822 4.9719.267.3091.7023.4289 1.0563.1753.309-.2217.4437-.7466.175-1.0578-1.1103-1.2852-2.197-2.5905-3.284-3.8954q-.4259-.5109-.8522-1.0218c-.1812-.2169-.4427-.4511-.4888-.7429-.0258-.164-.0038-.2547.1768-.353.2899-.1582.5744-.1481.8608-.0018.8705.4441 1.5076-.9321.6407-1.3743"/><path fill="#4C4C4C" d="M4.169 43.5699c-1.0915-.1453-2.2852.3831-2.407 1.5965-.089.8861.5197 1.6156 1.0346 2.2706 1.0594 1.3478 2.1852 2.6437 3.3032 3.9431.2667.3098.703.4288 1.0563.1752.3093-.2221.443-.7461.175-1.0577-.94-1.092-1.8797-2.1852-2.7897-3.3025-.371-.4555-.7663-.9106-1.0857-1.4052-.0817-.1268-.1475-.2546-.195-.3983q-.0293-.091.004.0263l-.0057-.0939c-.0274.0657.0462-.117.0208-.0587.089-.2039.3617-.236.6234-.2013.9645.1286 1.233-1.3642.2659-1.4929z"/><path fill="#4C4C4C" d="M6.3755 49.6579c-.6371-.534-1.3214-1.011-2.0041-1.484-.4298-.2981-.8374-.5538-1.3746-.5759-.448-.0181-.9229.0994-1.288.3689-.7158.5286-.7874 1.4271-.493 2.2129.2883.77.9836 1.3046 1.5605 1.8536.7407.7052 1.4813 1.4126 2.2758 2.0579.7574.6149 1.7257-.5507.967-1.1663-.7406-.6012-1.4342-1.257-2.1253-1.9142-.3305-.3142-.676-.6183-.9899-.9493.0826.0872-.0899-.1089-.1054-.1291-.0407-.0533-.0762-.1083-.1133-.1638q-.0442-.0752-.0007 0a1.7 1.7 0 0 1-.0522-.1246c-.0121-.0323-.0684-.2296-.0584-.1837.0112.0522-.019-.1589-.0229-.1894-.0092.0976-.0091.1025 0 .0156q.0277-.1265-.0154.0106l.023-.0558q.0584-.1122-.0105.0067c.0558-.0627.0526-.0647-.0104-.0063a1 1 0 0 1 .1089-.0801c-.1123.0721.0777-.027.0983-.0335q-.09.0112.0512-.0101a1.4 1.4 0 0 1 .1602-.0141c-.1312-.0008.0822.0175.1116.0266-.0646-.0203.1635.0914.1652.0923.7539.4778 1.4905 1.0284 2.1746 1.6022.748.6271 1.7154-.5392.967-1.1663zM21.6154 42.2009c-.2676-.8722-.7495-1.6163-1.3972-2.2589-.6802-.6747-1.4834-1.1943-2.4429-1.315-.4582-.0577-.898.4435-.8801.8784.0219.5249.3886.8199.8772.8813-.3814-.0479.0081.0125.1118.045.0801.025.2651.123.005-.0068.0667.0334.136.0605.2024.0949q.125.0653.2446.1397c.0853.0534.1744.1434.2656.1822-.0903-.0384-.1104-.0873-.0077-.0028q.0672.0552.1321.1128c.1046.0926.2054.1889.3034.288a6 6 0 0 1 .3657.4066 3 3 0 0 1 .0611.0769q.064.0822-.0478-.0629c.0463.0116.1345.1944.1618.2367q.0743.1168.14.2392c.0381.0707.0716.1435.1069.2158.092.189-.0671-.1921-.0003-.0047.0349.0981.068.1968.0983.2964.1351.4398.6052.7732 1.0721.6295.4389-.1349.773-.6039.6287-1.0736zM23.8459 40.4746c-.2676-.8722-.7496-1.6163-1.3972-2.2588-.6803-.6747-1.4835-1.1944-2.443-1.3151-.4581-.0576-.8979.4435-.88.8785.0218.5249.3886.8198.8772.8813-.3814-.0479.0081.0124.1118.0449.0801.0251.2651.1231.005-.0068.0667.0334.1359.0606.2024.0949q.125.0652.2446.1398c.0853.0533.1743.1434.2656.1821-.0903-.0384-.1105-.0873-.0078-.0028a5 5 0 0 1 .1322.1128c.1046.0926.2054.1889.3034.288a6 6 0 0 1 .2546.2752 5 5 0 0 1 .111.1314q.0313.0378.0611.077.064.082-.0477-.063c.0463.0116.1345.1944.1618.2368.0496.0778.096.1575.14.2391.0381.0707.0716.1436.1069.2158.0919.189-.0672-.1921-.0003-.0046.0349.098.068.1967.0983.2963.135.4398.6052.7732 1.0721.6296.4389-.135.773-.6039.6286-1.0736z"/><path fill="#FCFCFC" d="M75.9939 60.8955c1.2292 5.4023 1.6916 9.4348 2.241 14.5646.5772 5.3929 1.1352 8.0235 1.6195 13.9095H67.3267c.0035.5836.007 1.1529.0006 1.7246-.0029.0786-.0319.1833-.0755.2503-.0465.0669-.2413.1135-.3227.1135-2.9791 0-35.9361.0553-37.3516.0495-.1395-.0029-.2499-.0466-.3284-.163-.0253-.0419-.0384-.3085-.0392-.5277-.0297-2.6086.0767-8.1376.0392-11.1883l-.774.9993c-1.2818 2.2136-8.3896 6.2475-10.5814 5.7381-2.1915-.5093-5.6556-2.0789-6.8022-4.0175-2.04-3.4494-3.8152-17.4922-3.6151-22.1835l11.2383-2.0461.623 3.219c.8876-1.3713 1.7691-7.4611 8.0754-11.186 2.8952-1.8384 6.2695-2.8411 9.2597-4.0025.9141.5172 2.5261 1.4303 2.5261 1.4303 2.4368 1.2505 5.6898 2.1213 9.0431 2.1312 3.3198-.0099 7.7078-.1339 10.1362-1.3642l3.1045-1.8944c1.9389.5324 2.9981 1.2788 4.4511 1.8944 1.6546.7009 3.366 1.6506 5.2091 3.2923 2.533 2.2564 3.6675 5.4104 4.851 9.2566"/><path fill="#4C4C4C" d="M28.6858 61.7383c.0907 3.4545.1494 6.9095.2063 10.3645.0695 4.2037.1296 8.4077.1866 12.6114q.044 3.2683.0854 6.5367c.0102.803 1.4052.8051 1.395 0a6618 6618 0 0 0-.1622-12.0375c-.0587-4.0487-.1211-8.0973-.1987-12.1457-.034-1.7766-.0707-3.5531-.1172-5.3294-.0209-.8023-1.4164-.8052-1.3952 0"/><path fill="#A9DB5F" d="M32.7865 12.1983c.6763-2.0695 1.7837-3.8988 3.3936-5.1895l1.8146-1.9056C40.0531 2.3852 43.3994.9118 48.1798.7019c6.2188-.2107 10.8094 2.5763 12.8417 5.1718l-.4168.4313c4.2179 3.666 5.7532 10.2245 3.7078 16.4298-.1857-.0541-.3982-.0897-.6414-.0984-.5081-.018-1.1019.1415-1.5428.5656l-2.1817-1.8347c-1.6372-1.827-4.5272-4.5808-6.5551-5.6461-.2377-.1249-.5432.0439-.6397.4421-.093.3845-.0927.6764-.0625.9527.0459.4194-.3607.7247-.706.5326-1.4478-.8054-4.0273-2.4263-5.8564-3.1983l-2.7124.3336c-.8731.3802-1.5372.7454-2.4982 1.5735-1.6465 1.4187-3.2248 3.3651-3.9241 5.1267l-2.1651 1.7179c-.4406-.4241-1.0344-.5836-1.5427-.5656-.2785.0099-.5168.0553-.7206.1231-.8376-3.3187-.8606-7.2476.2221-10.5612z"/><path fill="#4C4C4C" d="M54.5266 40.2961v1.4114c0 .5586-.0259 1.1427.163 1.6771.3622 1.0234 1.117 1.7179 2.0483 2.2337 1.1094.6145 2.3633 1.0054 3.5425 1.4714.3505.1385.7658-.152.858-.4879.1087-.3967-.1355-.7204-.4872-.8592-.9821-.388-2.0148-.7224-2.9574-1.1975-.719-.3626-1.4422-.8196-1.693-1.632-.1378-.4459-.0791-.9588-.0791-1.4192v-1.1978c0-.8991-1.3951-.9006-1.3951 0M41.3747 40.8051v1.2772c0 .4137.0197.8223-.1477 1.2036-.3287.7492-1.0324 1.1666-1.7538 1.5145-.91.4389-1.8913.7631-2.8316 1.134-.3502.1379-.5946.4677-.4871.8592.0919.3342.5055.627.858.4878 1.1356-.4476 2.3316-.8307 3.4117-1.3988.8999-.4736 1.6707-1.1029 2.0788-2.0553.4008-.9358.2668-2.0255.2668-3.0222 0-.8991-1.3951-.9005-1.3951 0M60.53 6.3672c-1.8258-2.3125-4.6112-3.7603-7.4343-4.4667-1.8884-.4724-3.8398-.6014-5.7782-.4474-1.6652.1322-3.3539.4529-4.8969 1.1119-1.4821.6328-2.8374 1.6032-3.8216 2.8906-.2287.299-.6004.4579-.9545.2506-.2938-.1723-.4807-.6543-.2502-.9559.9777-1.279 2.1962-2.3253 3.63-3.064C42.6574.8448 44.4397.3983 46.2534.166c3.9323-.5039 8.0372.1237 11.5067 2.0972 1.4117.803 2.7455 1.8354 3.7567 3.1161.2334.2958.2881.6995 0 .988-.2424.2427-.7519.2974-.9868 0"/><path fill="#4C4C4C" d="M63.6657 22.4759c1.3722-4.2712 1.1449-9.135-1.2676-12.999-.6266-1.0036-1.3954-1.8983-2.2845-2.6781-.6766-.5935.3133-1.5782.9865-.9879 3.5867 3.145 5.1324 8.1017 4.7545 12.778a18.88 18.88 0 0 1-.8435 4.2586c-.2738.8526-1.6212.4876-1.3454-.3716M36.6762 7.503c-3.3274 2.698-4.2218 7.3764-3.9881 11.4516a19.56 19.56 0 0 0 .5328 3.5432c.2139.8732-1.1309 1.2455-1.3454.3714-1.0778-4.396-.9075-9.5526 1.4282-13.535.6255-1.0665 1.4248-2.0398 2.386-2.819.2927-.2373.7005-.2865.9865 0 .245.2453.2944.7492 0 .9878M34.4157 30.5c.4494 2.0404 1.2638 4.0205 2.4101 5.7678 1.2263 1.8687 2.8409 3.625 4.8037 4.7293.9957.5603 2.0845.9434 3.2134 1.1163.3721.057.7502-.0943.858-.4878.0907-.3307-.1124-.8019-.4871-.8593-4.0317-.6179-7.0257-4.1515-8.5435-7.7439-.3935-.9317-.6917-1.9062-.9094-2.8938-.1933-.8776-1.5385-.5062-1.3452.3714M61.5015 30.1288c-.511 2.3204-1.5021 4.5477-2.9737 6.4201-.7302.9291-1.5669 1.8116-2.5415 2.4863-.8987.6224-1.8852 1.0651-2.9208 1.403-.8499.2774-.4863 1.6271.3709 1.3474 1.8358-.5993 3.4867-1.5171 4.8647-2.884 1.582-1.5691 2.7966-3.4736 3.6451-5.5288a17.26 17.26 0 0 0 .9004-2.8726c.193-.8761-1.1519-1.2505-1.3454-.3714zM46.1323 34.6667c.8353.4419 1.7349.6273 2.6798.6212.9632-.0062 1.9334-.1974 2.7045-.799.2974-.232.2433-.7443 0-.9879-.2935-.294-.6882-.2326-.9864 0 .2116-.1651.0476-.039-.0067-.0041a2.2 2.2 0 0 1-.1657.0961c-.0294.0154-.0593.0291-.0886.0442-.1131.0582.0279-.0122.0281-.0093.0015.0134-.2086.0768-.2284.0832-.2084.067-.4229.1141-.6394.1461.1031-.0154-.0184.0012-.0605.0053a6 6 0 0 1-.6429.0282 7 7 0 0 1-.4069-.0145 6 6 0 0 1-.1864-.0155c-.0072-.0008-.2319-.0323-.0895-.0096-.2017-.032-.4014-.0742-.5973-.1327-.0837-.025-.1654-.055-.2479-.0835-.1782-.0612.1029.0532-.0578-.0227a7.5 7.5 0 0 1-.3035-.1517c-.3331-.1761-.7586-.0847-.9545.2506-.1843.3156-.084.7789.2503.9559zM48.4569 28.3458c.1169.4459.2288.8991.2959 1.3555l-.025-.1857c.0079.0626.0114.1243.005.1872l.025-.1857a.44.44 0 0 1-.0207.0841l.0704-.1668a.35.35 0 0 1-.0297.0541l.109-.1414a.28.28 0 0 1-.0442.0436l.1413-.1091a.8.8 0 0 1-.1072.0567l.1665-.0704a.77.77 0 0 1-.1808.0527l.1855-.025a.72.72 0 0 1-.1698-.0003l.1854.025c-.0639-.009-.1267-.0245-.1906-.0332a.53.53 0 0 0-.2782-.0125.515.515 0 0 0-.2592.083c-.1448.0847-.2828.2509-.3206.4174-.0407.1787-.032.3795.0703.5381.0907.1409.2427.2975.4168.3211.1459.0198.2875.0568.436.0634.2279.0099.4392-.0599.6426-.1531.2514-.1152.4476-.3417.5145-.6127.0567-.2293.0322-.4299-.0064-.6595-.0736-.4366-.1744-.8695-.2866-1.2979-.0924-.3534-.5025-.6031-.858-.4878-.3633.1175-.5866.4805-.4872.8592M41.305 24.5062c-.2261.7355-.0788 2.4278 1.3129 2.5719 1.8392-.0111 1.9372-2.057 1.3181-3.019-.5069-.7876-1.9977-1.1151-2.631.4471M56.0323 24.5062c.2261.7355.0787 2.4278-1.3129 2.5719-1.8393-.0111-1.9372-2.057-1.3181-3.019.5069-.7876 1.9976-1.1151 2.631.4471"/><path fill="#4C4C4C" d="M35.5098 22.7077c-.9066-.8214-2.2206-.9908-3.3234-.4663-.8068.3837-1.2753 1.1867-1.4803 2.0285-.4836 1.9863.0218 4.2665 1.1749 5.9416.8315 1.2082 2.0098 2.0753 3.5326 1.8669.3738-.0512.5775-.5303.4871-.8592-.1107-.4034-.4833-.5391-.858-.4878-1.0434.1426-1.8616-.9795-2.2901-1.7709s-.7397-1.692-.8071-2.5902c-.0381-.5071-.0363-1.0301.0622-1.5305.041-.2084.0901-.427.1694-.6235.039-.0966.0904-.1906.1445-.2794.0105-.0169.1195-.1749.0715-.1126.1549-.202.4714-.4072.8534-.4695.4551-.0743.9301.0273 1.2762.3411.6645.6019 1.6541-.383.9865-.9879zM62.8109 23.6956c.6281-.5691 1.6739-.4357 2.1474.1511-.0945-.1171.0386.0652.0538.0899.054.0888.1055.1828.1444.2794.0733.1811.1195.3813.1596.5728.1078.5164.1116 1.0566.0724 1.5808-.0663.8823-.3695 1.7657-.7831 2.5449-.4275.8054-1.2536 1.9615-2.3142 1.8165-.3729-.0509-.749.09-.858.4879-.0895.326.1116.808.4872.8592 2.4816.3394 3.9232-2.0826 4.5786-4.1294.3349-1.0461.3764-2.1961.2084-3.2763-.1383-.8895-.513-1.7365-1.2669-2.2622-1.092-.7614-2.6557-.5731-3.616.2972-.6674.6046.3217 1.5904.9864.9882M43.77 15.3873c-1.3725.6019-2.4909 1.4958-3.526 2.5737s-2.0122 2.3163-2.5757 3.7088c-.1416.3493-.4645.5961-.858.4878-.3308-.0911-.6296-.5076-.4872-.8592.645-1.5933 1.6774-2.9981 2.8537-4.2406 1.1254-1.1891 2.3842-2.2168 3.8889-2.877.3447-.1513.7487-.1013.9545.2506.173.2963.0968.8037-.2502.9559M59.4552 21.8611c-1.6262-1.8093-3.4256-3.5837-5.446-4.9497a11.4 11.4 0 0 0-.6688-.4217c-.075-.0434-.202-.1092-.1985-.122 0 0 .2924-.0405.2802-.0509.0244.0212-.0326.2151-.023.1569-.0415.2497.0021.4869-.0069.7367-.014.3903-.2026.7553-.5235.9788-.5976.4163-1.1676.1051-1.7175-.211-.522-.3004-1.0402-.6069-1.5608-.9099-1.2408-.7218-2.4909-1.4507-3.8131-2.0148-.3467-.1478-.4232-.6595-.2502-.9559.2098-.3591.6063-.399.9545-.2506 1.1832.5048 2.3075 1.1448 3.4207 1.7872.5575.3216 1.1117.6491 1.6683.9725.2081.1208.4165.2413.6261.3594-.0046-.0026.1389.0684.1413.0792-.0056-.0268-.1718-.0512-.2375-.0142l-.0823.0756q-.0243.1797-.0226.0562c-.0265-.0567-.0134-.1682-.0166-.2346-.0302-.6732.1253-1.5124.7897-1.8334.6057-.2926 1.1644.1059 1.6646.4255 1.0716.6849 2.0604 1.5095 3.0056 2.358 1.0519.9442 2.0582 1.9431 3.0034 2.9945.5993.6665-.3843 1.6579-.9865.9879zM59.076 46.6487c1.3161.2797 2.5973.7583 3.8573 1.2228a85 85 0 0 1 2.8461 1.1084q.184.0754.3671.1525c.1371.0577-.2401-.1045.0813.0347.1308.0564.2613.1135.391.1723 1.6241.7355 3.1315 1.6952 4.4711 2.8734 1.1667 1.026 2.0596 2.2648 2.7624 3.6468.8722 1.7144 1.4521 3.5636 2.0171 5.3971.2639.8566 1.6111.491 1.3455-.3714-1.0106-3.2792-2.1346-6.7351-4.6418-9.2008-1.3501-1.3278-2.9635-2.4368-4.6595-3.2725-1.2573-.6194-2.5798-1.1206-3.8892-1.6177-1.4916-.5662-3.0135-1.1597-4.5778-1.4924-.8757-.1862-1.2501 1.1602-.3709 1.3474zM37.0939 47.2063c-1.3161.2798-2.5973.7583-3.8573 1.2228a84 84 0 0 0-2.0697.7944 75 75 0 0 0-.7763.314q-.184.0754-.3671.1525c-.1372.0577.24-.1045-.0814.0347a23 23 0 0 0-.3909.1723c-1.6242.7355-3.1316 1.6952-4.4712 2.8734-1.1667 1.0261-2.0596 2.2649-2.7624 3.6469-.8722 1.7144-1.4521 3.5635-2.0171 5.397-.2639.8566-1.6111.491-1.3454-.3714 1.0106-3.2792 2.1345-6.7351 4.6417-9.2008 1.3501-1.3278 2.9635-2.4368 4.6595-3.2725 1.2574-.6194 2.5798-1.1206 3.8892-1.6177 1.4917-.5662 3.0135-1.1596 4.5778-1.4923.8758-.1863 1.2501 1.1602.3709 1.3473zM67.6757 61.7383c-.0906 3.4545-.1494 6.9095-.2063 10.3645-.0695 4.2037-.1297 8.4077-.1866 12.6114q-.0441 3.2683-.0855 6.5367c-.0102.8038 1.385.8043 1.3952 0 .0508-4.0125.104-8.025.1621-12.0375.0588-4.0487.1212-8.0973.1989-12.1457.034-1.7766.0706-3.5531.1171-5.3294.0212-.8039-1.3739-.8036-1.3952 0z"/><path fill="#4C4C4C" d="M75.5518 60.0947c.8677 3.8952 1.5433 7.2444 1.9759 11.2102.4568 4.1865.8845 8.3773 1.2922 12.5688.2404 2.4722.4652 4.946.66 7.4223.0297.3762.2958.6998.6949.7013.3534.0014.7299-.3177.7002-.6959-.3466-4.4061-.7884-8.8039-1.2435-13.1997-.4184-4.042-.7856-8.0951-1.3764-12.1166-.3376-2.2961-.8522-3.9913-1.3565-6.2567-.1954-.8771-1.5422-.5115-1.3468.3663M61.0675 46.514c-2.8208 1.589-5.9503 2.4653-9.1641 2.8181-1.6725.1837-3.3134.1965-4.986.0112a28.47 28.47 0 0 1-4.8513-.9713c-1.6558-.4845-3.3672-1.1113-4.7885-2.1115-.3249-.2288-.8167-.0675-1.0094.2547-.2169.363-.0706.7783.2552 1.0077 1.3146.9255 2.8945 1.5447 4.4147 2.0391 1.7141.5576 3.4823.9252 5.2673 1.1648 1.7105.2297 3.3947.2877 5.1141.1316 1.7695-.1604 3.531-.4557 5.2464-.9203 1.838-.4976 3.5759-1.2156 5.2335-2.1492.8248-.4645.0953-1.7415-.7319-1.2755z"/><path fill="#3C3C3C" d="M22.2593 71.8548c-.6109-2.7504-1.2407-5.4966-1.827-8.2525-.2834-1.3328-.5559-2.6683-.8111-4.0068-.1169-.613-.1178-1.4152-.609-1.8637-.3819-.3486-.8558-.341-1.3346-.2996-1.8099.1561-3.6125.4855-5.3963.8217-.9299.1752-1.8577.362-2.7812.5686-.6333.1417-1.2962.264-1.9086.4846-.3497.1256-.6212.3425-.7828.682-.1535.3219-.117.6401-.0854.9833.0623.675.1185 1.3507.172 2.0263.112 1.4147.2126 2.8299.3268 4.2442.2309 2.8526.514 5.7098 1.0514 8.5232.4353 2.2783 1.0404 4.5967 2.2559 6.5957 1.2889 2.1198 3.2483 3.6065 5.6339 4.2904 2.5338.7265 5.2533.3824 7.562-.8725 2.0788-1.1298 3.8948-2.7349 5.6914-4.2578q.3053-.2588.6103-.5181c.3004-.2552.2621-.77 0-1.0325-.2977-.2981-.7297-.2558-1.0311 0-3.0189 2.5624-6.2779 5.799-10.5327 5.5967-2.2808-.1083-4.489-1.1521-5.9517-2.912-1.2971-1.5609-1.9788-3.57-2.4533-5.5148-1.23-5.0415-1.367-10.2841-1.8114-15.4323q-.0404-.4683-.0842-.9364c-.003-.031-.0626-.442-.1066-.0894-.0049.0392-.0626-.0113-.011.0112.014.0061.1073-.0322.117-.035a29 29 0 0 1 .826-.2187c.7615-.1874 1.5289-.3514 2.2972-.508 1.713-.3487 3.6046-.694 5.2356-.9103a27 27 0 0 1 1.0286-.1186c.1322-.0125.2643-.0237.3968-.0323.0097-.0006.1844.0007.1892-.0106-.0051.0119-.1825-.0837-.143-.1016-.0171.0076.0209.1323.0206.1457-.0033.2969.1206.651.1762.9443q.0883.4663.1798.9321c.1243.6355.2525 1.2704.3834 1.9044.5204 2.5192 1.0879 5.0281 1.6499 7.5379q.226 1.009.4505 2.0185c.2038.9169 1.61.5296 1.4065-.3873"/></svg>