<svg xmlns="http://www.w3.org/2000/svg" width="53" height="58" fill="none" viewBox="0 0 53 58"><path fill="#FCFCFC" d="M18.9779 19.0257c-.3598-.3214-.8932-.4768-1.3918-.4031-.4987.0738-.9527.3713-1.1811.7772-.1611.2845-.2133.6084-.243.9246-.1092 1.2461.1388 2.5157.7096 3.6509.278.5531.6402 1.0826 1.1438 1.4857.3869.3053.8604.5319 1.3636.6084l.2316.0352c.1144.4168.2396.7647.3011.9495.4136 1.111 2.807 5.0695 5.7676 6.26a16.9 16.9 0 0 1-.2121 1.6452c-.1451.8232-.0996 1.5565-1.2542 1.9702-.078.0279-1.3756.5296-1.4925.5767 0 0-1.7261 8.1955 8.0943 8.1955 9.5314 0 7.5848-8.4956 7.5848-8.4956-.2231-.075-.7604-.2487-.8362-.2766-1.1546-.4137-1.1091-1.147-1.2564-1.9702-.1105-.6215-.1885-1.2473-.2274-1.8772 1.1405-.584 2.193-1.4634 3.1423-2.5879 1.1899-1.4094 1.8612-2.9774 2.2555-4.3572l.4445-.0676c.5034-.0765.9769-.3029 1.3636-.6084.5036-.4031.8658-.9324 1.1438-1.4857.5706-1.1354.8188-2.4051.7096-3.6509-.0297-.316-.0819-.6401-.243-.9246-.2283-.4057-.6824-.7034-1.1811-.7772-.4986-.0737-1.0322.0817-1.3918.4031 0 0 1.5853-9.5005-11.3798-9.5005s-11.9651 9.5005-11.9651 9.5005z"/><path fill="#FCFCFC" d="M52.543 54.4557c-.3809-4.2956-.8706-8.8748-3.5739-12.2119-.9337-1.152-2.1025-2.1061-3.4128-2.7832-1.0056-.521-2.083-.8793-3.1582-1.2332-.8336-.2759-1.6774-.5527-2.5341-.7431-.4055.3289-.4849.3724-.7113.5072-2.2085 1.3157-5.5406 2.0517-8.3862 2.117-2.8425-.0646-6.1565-.7984-8.3672-2.108-.2186-.1295-.3509-.1721-.7807-.4984-.8315.1895-1.6507.4582-2.4613.7253-1.0752.3539-2.1526.7122-3.1581 1.2332-1.3103.6771-2.4791 1.6312-3.4128 2.7832-2.7033 3.3371-3.193 7.9163-3.5739 12.2119"/><path fill="#3C3C3C" d="M13.3953 42.1659c.9192-1.1289 2.2928-1.9276 3.6067-2.5096 1.4319-.6344 2.9464-1.0395 4.4593-1.4277.8445-.2167 1.6903-.4293 2.5259-.6793.2657-.0796.4707-.2962.4199-.5936-.0422-.2482-.3258-.5002-.5933-.4201-3.1313.937-6.4151 1.4399-9.2032 3.2569-.7567.4932-1.4743 1.0657-2.0469 1.7689-.4189.5145.4152 1.1158.8316.6045"/><path fill="#FCFCFC" d="m52.1231 54.4583-42.6784-.0026s-.1306.511 2.8379 1.709 8.9122 1.7512 18.3707 1.711 14.4764-.0965 18.2003-1.3754 3.2695-2.042 3.2695-2.042"/><path fill="#3C3C3C" d="M43.8647 57.4116c-.3676-3.2034-.7366-6.407-1.1283-9.6074-.0939-.7658.9242-.8724 1.018-.1066.3918 3.2004.7605 6.404 1.1283 9.6074.0879.7665-.9301.8735-1.018.1066M51.9478 54.2487c-.2658-2.9564-.5645-5.9771-1.6858-8.7548-.541-1.3403-1.3118-2.6034-2.3152-3.649-1.1024-1.1488-2.446-1.9998-3.928-2.5766-.9163-.3566-1.8584-.6547-2.7969-.9474s-1.9024-.5578-2.8881-.6493c-.2831-.0262-.5264-.2224-.5264-.525 0-.2636.2417-.5514.5264-.525 1.8314.1698 3.6099.7897 5.3341 1.4005 1.6548.586 3.1871 1.3772 4.4923 2.5633 2.3764 2.1597 3.5683 5.2169 4.1624 8.3035.3407 1.7697.5166 3.5665.6778 5.3595.0254.2829-.2602.525-.5264.525-.306 0-.501-.2415-.5264-.525z"/><path fill="#3C3C3C" d="M22.0315 37.236c2.0073 1.153 4.2398 1.7988 6.536 2.0711 1.1949.1418 2.3683.1612 3.5656.0394a20.37 20.37 0 0 0 3.4755-.6635c1.1873-.3358 2.4151-.7728 3.4378-1.4785.2338-.1614.5845-.0431.7203.1883.1529.2608.0456.5565-.1889.7184-.9459.653-2.0796 1.0854-3.1699 1.4291-1.2294.3876-2.4962.6392-3.7742.7991-1.2248.1533-2.4296.1842-3.6582.0619-1.2645-.1258-2.5223-.3478-3.7462-.6906-1.3114-.3671-2.5497-.891-3.7292-1.5684-.587-.3371-.0573-1.2449.5314-.9067z"/><path fill="#FFBDD5" d="M40.2114 35.2072c-1.6325-.2457-3.0184-1.0274-3.6336-1.9407l-.2138-.3395c1.0307-.5806 1.9875-1.403 2.857-2.4329 1.1899-1.4094 1.8612-2.9775 2.2555-4.3577.2766-.0416.4445-.0671.4445-.0671.5034-.0766.9769-.3029 1.3636-.6085.1744-.1395.331-.295.4738-.4607.2807.5392.4852 1.1571.5864 1.9179.0472.3855.0728.8104.0654 1.2787a7 7 0 0 1-.0098.2613c-.0513.9324-.2712 1.8821-.3177 2.8109-.0473 1.0121.2187 2.0082 1.1942 2.336.0386.0128.0464.1365.0453.1678-.0028.0778-.0366.1516-.0782.2163-.119.1848-.3146.3214-.5.434-1.0879.6596-2.7611 1.0509-4.5324.7844zM17.1419 11.4277c.044-.254.0891-.489.1326-.7004C18.4843 4.8567 24.4588.1965 30.7244.5372c6.2653-.3405 12.24 4.3195 13.4496 10.1903.3278 1.5833.2886 4.2923-.0095 5.5563l-.5998 2.3255c-.4534-.0276-.9183.1272-1.2421.4166-2.4763-1.7001-6.6766-4.6531-8.8515-6.5042.179 1.0988.8145 2.9676.0139 2.7753-3.3433-.7662-6.5476-2.3113-8.4851-4.7217-.4083 1.4231-1.0831 3.346-1.579 4.1864-.7016 1.189-2.7346 3.8643-4.4435 4.2642-.3598-.3214-.8932-.4768-1.3918-.4031a1.7 1.7 0 0 0-.2169.0468c-.8706-1.9956-.5773-5.2185-.2266-7.2417z"/><path fill="#3C3C3C" d="M43.6687 16.1973c.1538-.6704.1905-1.3594.21-2.0682.0233-.8413.0012-1.6875-.0915-2.5244-.1668-1.5074-.7248-2.9715-1.5029-4.2709-1.6279-2.7189-4.3155-4.8139-7.3639-5.7535-.7681-.2367-1.5607-.4087-2.3618-.4876-.818-.0804-1.6431-.0574-2.4634-.0585-1.6152-.0021-3.2253.3362-4.7129.9566-2.956 1.2332-5.4506 3.5546-6.8041 6.4388-.6152 1.3107-.9119 2.7332-1.0904 4.1604-.1991 1.5906-.3087 3.2765.0381 4.8544.0803.3656.1889.7234.3347 1.0688.1083.2566-.1168.5659-.3631.6328-.2996.0815-.5309-.1018-.6395-.3593-.66-1.565-.6505-3.4004-.5242-5.0634.1185-1.5597.3362-3.1694.865-4.6497 1.1481-3.2141 3.6148-5.9077 6.649-7.4946 1.5564-.814 3.25-1.3335 5.0016-1.5117.8548-.0868 1.7219-.0665 2.58-.0622.8747.0045 1.7524.1036 2.6081.283 3.404.7137 6.4666 2.7693 8.4974 5.55.9863 1.3504 1.7215 2.9043 2.0913 4.5321.3698 1.6279.3876 3.3981.2091 5.054-.038.3508-.085.7024-.164 1.0467-.1482.6455-1.1507.3724-1.0026-.2736"/><path fill="#3C3C3C" d="M25.4529 10.8843c-.2422.8194-.511 1.632-.8165 2.4303-.2441.6378-.5006 1.2827-.8619 1.8659-.7216 1.1637-1.6225 2.2832-2.6634 3.1817-.579.5-1.2373.9721-1.9942 1.1594-.6492.1608-.9263-.8314-.2764-.9924 1.1607-.2875 2.1584-1.4147 2.9151-2.3231s1.3706-1.871 1.8025-2.9697c.3384-.8606.6304-1.7396.8923-2.6259.1873-.6343 1.1912-.3644 1.0027.2736z"/><path fill="#3C3C3C" d="M25.3349 10.1691c1.1 1.3728 2.5423 2.4048 4.1182 3.1833.8163.4032 1.6658.733 2.5349 1.0057.4539.1423.9129.2692 1.3754.3812.0569.0137.1172.0246.1737.0411.0851.0249.0975-.0173.0277.0144.0314-.0144.0704-.0418-.0383.0105-.0516.0249-.0825.0356-.1289.0755-.0433.037-.05.0696-.0498.0718-.0009-.015.0097-.0982.0102-.0285.0004.0782.0021-.0491.0023-.0641.0052-.7092-.2653-1.4637-.3894-2.202-.0856-.5092.4583-.8492.8688-.5006 2.1827 1.8534 4.553 3.5007 6.8988 5.143q.9208.6443 1.8474 1.2807c.2304.1582.3359.4509.1865.7041-.1335.2257-.4796.3439-.7114.1846-2.4485-1.6815-4.881-3.3923-7.2343-5.2028-.5836-.449-1.1614-.9056-1.7224-1.3818l.8689-.5006c.1321.7875.4096 1.5734.4265 2.3763.0069.3327-.0594.6938-.3414.9069-.3795.2866-.8622.0941-1.2744-.0118-2.0102-.5167-3.9913-1.3131-5.7006-2.4929-.9283-.6406-1.7794-1.3873-2.4836-2.2663-.1744-.2176-.2145-.5154 0-.7277.1809-.179.5597-.2189.7352 0M44.2106 24.7405c.6707 1.3157.8252 2.8214.6638 4.2734-.0862.7765-.2491 1.5486-.273 2.3311-.0147.4813.0262 1.0471.3455 1.4385.1677.2058.3746.2494.5936.3761.3559.206.3596.6965.1921 1.0213-.2952.572-1.0265.8816-1.5976 1.1108-1.3341.5357-2.8373.6318-4.2468.3812-1.4248-.2535-2.9199-.9339-3.7584-2.1459-.3789-.5477.5216-1.0631.8979-.5194.793 1.1463 2.4506 1.6574 3.7826 1.7509.8173.0574 1.6364-.0163 2.4236-.2438.3193-.0922.6297-.2069.9261-.3569.1566-.0794.321-.1645.4631-.2682.05-.0365.1018-.1055.1529-.134.065-.0365.005-.0575.0249.0122l.1337.227-.0238-.0274.2294.1323c-1.662-.5948-1.6687-2.3892-1.4722-3.8533.2253-1.6786.4471-3.4132-.3548-4.9867-.3007-.5897.5961-1.1113.8979-.5194zM18.6083 19.3895c-.4984-.4214-1.3424-.343-1.7163.2033-.1975.289-.2164.6824-.2311 1.0194-.0188.4333 0 .8721.0741 1.3001.2623 1.5185 1.071 3.3702 2.7801 3.6607.2769.0471.4322.3839.3631.6328-.0806.2899-.3618.4065-.6395.3594-1.77-.3008-2.8204-1.9553-3.3048-3.5349-.2524-.8228-.3611-1.7037-.3048-2.5622.0557-.8487.315-1.6471 1.1057-2.089.8465-.4729 1.8802-.3329 2.6085.2826.2136.1805.1876.542 0 .7276-.2116.2095-.5209.181-.7352 0z"/><path fill="#3C3C3C" d="M19.9146 24.7876c.0165.4976.133.9823.2764 1.4578.0555.1837.1163.3658.1781.5478.0167.0493.0327.0988.0509.1475.0143.0381.0791.1811.0121.0334.2212.4884.4889.9545.7762 1.4075.834 1.3155 1.8532 2.5684 3.0929 3.5306.683.5301 1.447.9561 2.2934 1.1487.6518.1483.376 1.1407-.2764.9924-1.743-.3964-3.2017-1.6408-4.3502-2.9425-.9311-1.0555-1.8058-2.2479-2.3941-3.5291-.3958-.8621-.6675-1.8478-.6989-2.7939-.0221-.6625 1.0177-.6616 1.0398 0zM41.9544 18.6618c.6312-.5336 1.5129-.7315 2.299-.4245.8515.3326 1.2774 1.0415 1.3855 1.9141.2047 1.6538-.242 3.5357-1.2491 4.8825-.5738.7673-1.3619 1.3667-2.3308 1.5314-.2764.0469-.56-.0729-.6395-.3593-.0687-.2474.0849-.5857.3631-.6329 1.7089-.2905 2.5178-2.1422 2.7801-3.6607.0713-.4123.091-.8344.0758-1.252-.0128-.3542-.0288-.7618-.2328-1.0675-.3679-.5508-1.222-.6211-1.7163-.2032-.2134.1803-.5258.2073-.7353 0-.1867-.1848-.2144-.5465 0-.7277z"/><path fill="#3C3C3C" d="M42.3529 24.6212c-.6332 3.6157-2.6131 7.1542-5.9979 8.8991-.9211.4748-1.9052.7636-2.9371.8695-.2797.0288-.5199-.257-.5199-.5145 0-.3021.2393-.4858.5199-.5145 3.4899-.3581 6.2093-3.4558 7.3054-6.5676.2803-.7959.4815-1.6159.6269-2.4456.0479-.274.3877-.4279.6394-.3593.2927.0795.4114.3583.3633.6329"/><path fill="#3C3C3C" d="M38.2602 37.7022c-.834-.2794-1.7824-.5051-2.1697-1.3839-.1663-.3776-.2095-.7727-.2777-1.1751-.1159-.6839-.2097-1.3697-.2543-2.0622-.018-.2776.2517-.5145.5199-.5145.2963 0 .5019.236.5199.5145.0377.5849.1092 1.1637.2088 1.7413.0594.3441.1044.6837.2028 1.0196.0299.1025-.0416-.0677.0132.0347.0169.0316.0325.0637.0505.0948q.033.0565.0714.1098c.0308.0426-.0498-.0442.0191.018.1506.1361.2372.2152.4722.3108.2842.1156.6033.2001.9001.2995.2658.089.4406.354.3631.6329-.0713.2566-.3724.4489-.6395.3593zM26.1999 33.3123c-.0613.7574-.1848 1.5056-.3048 2.2553-.0849.5315-.2699 1.0443-.7003 1.3991-.3763.3101-.8403.4563-1.2896.6295-.349.1344-.699.2667-1.0461.4056-.2603.1042-.5712-.1134-.6394-.3593-.0817-.2939.1018-.5283.363-.6329.3076-.123.6176-.2403.9267-.3595.3232-.1248.6867-.2268.9707-.4284q.0448-.0314-.0004.0013a1.4 1.4 0 0 0 .0745-.066c.0156-.015.1376-.1587.073-.0712a1.3 1.3 0 0 0 .0732-.1117c.0119-.0203.0873-.1861.0427-.0735.0799-.202.1191-.4159.1529-.6295.1032-.6519.2106-1.3002.2641-1.9588.0225-.277.2229-.5146.5199-.5146.2638 0 .5424.2361.5199.5146M30.196 22.9285c-.0592.2219-.1917.7665-.2351 1.048-.0279.1387-.0467.3209.0774.391.2502.1415.399.0688.5281.0534"/><path fill="#3C3C3C" d="M30.6964 23.0653c-.0979.3696-.1919.7452-.248 1.1234l.0186-.1368a.68.68 0 0 0-.0043.155l-.0186-.1367a.37.37 0 0 0 .0173.0696l-.0524-.1228a.3.3 0 0 0 .0249.0448l-.0812-.1042a.24.24 0 0 0 .037.0362l-.1053-.0804a.7.7 0 0 0 .0899.0472l-.1241-.0519a.67.67 0 0 0 .1516.0438l-.1382-.0185a.62.62 0 0 0 .1423-.0002l-.1382.0184c.0538-.0075.1064-.0203.1599-.0274.1452-.0193.2684-.0247.4005.0519.1079.0624.2108.1848.239.3074.0303.1317.0238.2796-.0524.3964-.0676.1038-.1809.2191-.3107.2365-.1165.0156-.2296.045-.3481.0502-.1789.0077-.3459-.0459-.506-.1182-.1963-.0885-.3492-.2598-.4014-.4693-.0442-.1768-.0249-.3353.0054-.5124.0617-.3618.1462-.7205.2404-1.0755.0689-.2603.3746-.4443.6395-.3594.2708.0867.4372.354.3631.6329zM36.7578 19.9002c.1895.6097.0661 2.0123-1.1011 2.1317-1.5426-.0092-1.6247-1.7048-1.1054-2.5021.4252-.6529 1.6753-.9243 2.2065.3704M24.4084 19.8999c-.1895.6097-.0661 2.0122 1.1011 2.1316 1.5426-.0092 1.6247-1.7048 1.1054-2.5021-.4252-.6527-1.6753-.9244-2.2065.3705"/><path fill="#FCFCFC" d="M10.6672 41.2894a3 3 0 0 0-.2233-.2188c-.7205-1.907-1.0561-2.5022-2.026-4.5559-.2476-.5246-.5316-1.0872-1.0565-1.3432-.3912-.1909-.8807-.1686-1.2525.0568-.372.2254-.6143.6468-.6205 1.0784-.0052.3677.1476.7172.2973 1.0536.8345 1.8737.8972 2.1779 1.7637 4.1167-.1463-.0827-.3038-.1382-.4806-.1748-.325-.0672-.9292.2039-1.2205.5486-.3365.398-.1984 1.2366-.116 1.5356l.1175.4267c-.4463-.3827-1.1574-.2298-1.3886-.0517-.4064.3135-.533.892-.4155 1.3885l.042.1769-.3838-.1973c-.2118-.1089-.6881-.1835-1.0555-.1102-.2675.0534-.488.2903-.6413.5537-.1644.2822-.0266 1.0885.091 1.3923.0585.1505.3174.4523.612.7725 1.1219 2.1658 1.285 2.9517 2.8833 4.4928.9718.9551 2.2873 1.8588 2.4997 3.2987.3032-.0999.6188-.2143.9385-.3389.0021 0 .004 0 .0081-.0041 1.2953-.5001 2.6813-1.1758 3.8094-1.8269.1506-.0854.2952-.1728.4323-.2572-.6083-1.0421-.3807-2.2367-.1156-3.401.2604-1.1431.6129-2.3151.391-3.4661-.1347-.6993-.4748-1.3416-.8351-1.9578a26.7 26.7 0 0 0-1.6367-2.4712c-.1319-.1769-.2681-.3542-.4183-.5167z"/><path fill="#3C3C3C" d="M12.8063 53.3019c-1.0835-2.0459.2947-4.1705.3066-6.2745.006-1.0561-.5045-1.9506-1.0371-2.8317a26.5 26.5 0 0 0-.8574-1.3277c-.2967-.4308-.5915-.8834-.9556-1.2623-.2718-.283-.7449-.6347-1.1598-.4255-.319.1607-.3615.6136-.298.9207.056.2698-.079.5513-.36.6276-.255.0694-.5782-.0852-.6342-.3563-.219-1.0557.3246-2.2773 1.5587-2.2664 1.2677.011 2.0162 1.209 2.655 2.1254.6881.9872 1.3921 2.0323 1.8246 3.1588.4596 1.1969.2812 2.4439.0004 3.6595-.2724 1.1786-.7633 2.5852-.1529 3.7374.3078.5811-.5818 1.0978-.8905.5152zM8.011 55.6571c-.197-1.2129-1.2572-1.9647-2.096-2.7634-.797-.759-1.4657-1.5893-1.9718-2.5641-.3217-.6196-.617-1.2526-.9375-1.8731-.2832-.548.552-1.0335.836-.4837.514.995.941 2.0594 1.6008 2.9727.6925.9586 1.679 1.6531 2.4713 2.5263.4995.5501.9103 1.1892 1.0308 1.9304.0413.2551-.0666.5154-.338.5893-.2308.0627-.5538-.0777-.5955-.3346z"/><path fill="#3C3C3C" d="M7.052 41.6192c-.3943-.8866-.7638-1.7828-1.1385-2.6776-.2095-.5003-.433-.9946-.648-1.4926-.249-.5767-.408-1.1773-.159-1.7835.48-1.1682 1.9618-1.4704 2.912-.6615.4172.3553.6596.8639.8884 1.3474.243.5133.4894 1.0251.7334 1.5379.4645.9766.8901 1.9675 1.2743 2.9779.0982.2579-.1092.5594-.3601.6277-.2894.0786-.5358-.0976-.6342-.3564-.2875-.7559-.5943-1.5022-.9357-2.236-.3867-.8314-.762-1.6781-1.1895-2.4894-.1753-.3328-.4033-.7338-.8005-.834-.361-.0912-.7415.0672-.9073.4025-.2078.4202.0328.8731.2058 1.2633q.2942.6634.5756 1.3323c.3549.8439.7014 1.6904 1.0735 2.5271.1122.2519.0746.5479-.185.6982-.2189.1268-.5927.0706-.7055-.183zM3.4444 45.571c.0921.0432-.045-.0123-.0802-.0219a1.5 1.5 0 0 0-.1725-.0367c-.1003-.0147-.2838-.0175-.416-.0015.0413-.0049-.0816.0323-.0313.0078-.0587.0285-.0862.0538-.1165.0823a.8.8 0 0 0-.105.1191c-.0183.0251-.032.0597-.053.0823-.0606.0648.013-.0621.0004-.0128-.01.0383-.0228.1455-.0164.0534a2 2 0 0 0-.0051.175c.0006.0538.0036.1074.0077.1607q.0041.055.0105.1097c.0103.091-.0103-.0614.0039.0279.0172.1089.0391.2173.067.324.0112.0428.04.0957.0415.1395.0017.0511-.0176-.0406-.0256-.0521.0123.0179.0192.0396.031.0577.0176.027.0343.0544.0528.0807.0217.0313.0855.1119.0267.0387.0707.0881.1443.1738.2191.2584.1723.195.351.3846.53.5739.358.3787.689.8094 1.1679 1.0444.067.0327.0159.0089.0015.0038.0009.0004.125.0338.092.0281.011.0019.1402.007.1916.003.0619-.0049.0206-.0017.008.0004a.9.9 0 0 0 .1108-.027c.0084-.0026.0963-.0268.0277-.01.0337-.0083.0634-.0404.0131-.0021.0086-.0066.041-.0566.0215-.0179-.025.0489.0417-.067.0477-.0774.0327-.0559.0415-.0755.0675-.1597.04-.129.0721-.28.0537-.4144-.0374-.2728.0664-.5477.36-.6277.2405-.0652.5967.0815.6343.3564.0644.4701.014.9405-.2252 1.3606-.2213.3887-.5934.5828-1.0315.6309-.85.0931-1.4806-.532-2.0128-1.0978-.4179-.4444-.9092-.8835-1.2313-1.4048-.1456-.2361-.2013-.5229-.2419-.7927-.0513-.3404-.096-.7172.0202-1.0502.1539-.4408.5874-.8696 1.0558-.9613.4715-.0923.9865-.0365 1.4211.1676.2516.1182.317.475.185.6982-.1506.2548-.4529.3018-.7055.1831z"/><path fill="#3C3C3C" d="M5.4904 44.1776c-.19-.1516-.4911-.1082-.6903-.0276.1046-.0423-.0894.0648-.0296.0191-.0624.0479-.106.1089-.144.1757-.064.1124-.095.2398-.1046.3678-.0623.8384.6974 1.6625 1.1386 2.304.2347.3409.4585.6866.7556.9785.2293.2252.5754.5012.9215.4908.2664-.0081.348-.2615.3934-.4582.027-.1172.0028.0317.0111-.0734a1.9 1.9 0 0 0 .0052-.1905c-.001-.0531-.0092-.1063-.0097-.1592.021.1243-.001-.1113 0 0-.046-.2716.0722-.5495.3601-.6277.2473-.0672.588.0831.6342.3563.1042.6145.0297 1.286-.4247 1.7555-.741.7654-1.8554.327-2.5304-.2873-.3515-.32-.624-.7131-.891-1.1016-.2913-.4235-.6086-.8388-.8697-1.2813-.462-.7827-.7766-1.8216-.2425-2.6504s1.7063-.9032 2.446-.3123c.2167.1733.1822.5413 0 .7216-.2144.2122-.5118.174-.7292.0002"/><path fill="#3C3C3C" d="M7.7516 42.3601c-.1661-.2298-.3672-.4344-.6443-.5211a1.2 1.2 0 0 0-.1027-.0285c.0004 0-.1109-.0149-.0552-.0121.0197.001-.0486.0091-.0613.0123a1.4 1.4 0 0 0-.4148.1775c-.4587.2858-.3137.794-.2518 1.2258.0204.1419-.065-.1139-.0155-.0223.0243.0451.0449.0925.0679.1382.0735.1461.15.2905.227.4348q.3334.625.6867 1.239c.2454.4265.4963.8512.7685 1.2617q.0823.1247.1684.2463c.0239.0336.0488.0663.0727.0999.07.0989-.0424-.0434.0313.0408.144.1644.1919.2165.399.3143.254.1201.5534.1558.7814-.0349.234-.1954.2518-.4371.2707-.7127.001-.0149.0281.114.0006.0179-.0096-.0336-.0148-.0689-.0234-.103a3.7 3.7 0 0 0-.0844-.2823c-.0662-.1969-.169-.4572-.2325-.606-.244-.572-.5231-1.131-.8207-1.6772-.132-.2422-.2683-.4825-.415-.7166a6 6 0 0 0-.1788-.2711c-.0217-.0306-.1188-.1475-.0224-.0346-.0236-.0277-.0464-.0555-.071-.0823-.448-.4833.2794-1.2071.7291-.7217.338.3647.5822.8265.8192 1.2581.3188.5809.6123 1.1765.8733 1.785.2067.4819.4688 1.0211.4611 1.5575-.0136.922-.7625 1.7825-1.7319 1.7444-1.3608-.0535-1.992-1.3748-2.5828-2.3901a44 44 0 0 1-.8203-1.4744c-.158-.2979-.3328-.5909-.3931-.9255-.0748-.4159-.112-.868.0114-1.279.137-.4565.4975-.7942.9206-1.004.4415-.219.8896-.2971 1.3614-.1257.503.1829.8553.5331 1.1617.9568.1622.2244.0397.5682-.185.6983-.2593.1501-.543.0417-.7055-.1831zM12.57 53.2549a.5005.5005 0 0 1 .533.8472l-.0045.002c-.0021.0014-.0051.0039-.0089.0063-.0081.005-.0202.0121-.0353.0215a27.6706 27.6706 0 0 1-.5692.3426c-.3484.2038-.8003.457-1.1767.6296-.3764.1725-.8649.3504-1.2486.482a27 27 0 0 1-.6346.2092l-.0393.0127c-.0044.0014-.0082.0019-.0106.0027l-.0044.002a.5006.5006 0 0 1-.6253-.3311.501.501 0 0 1 .3311-.6255l.0031-.0003q.003-.001.0084-.0028l.0375-.0119a27.6127 27.6127 0 0 0 .6094-.2008c.3782-.1298.828-.2947 1.1569-.4455.3288-.1507.7452-.3828 1.0882-.5836a26 26 0 0 0 .5474-.3293l.0326-.0203q.0048-.003.0076-.0046zM4.7876 31.8146l-.9692-1.5932c-.374-.6148-1.3295-.0342-.955.5815l.9692 1.5932c.374.6147 1.3295.0342.955-.5815M7.6693 31.3524c-.0591-.6582-.1677-1.312-.2774-1.9633-.0504-.2979-.4237-.4611-.691-.3845-.3174.0909-.4348.3922-.3843.6913.0939.5565.1844 1.114.235 1.6763.0641.7144 1.1825.6978 1.118-.0197zM2.9144 33.5364c-.4762-.3033-.9294-.6399-1.3802-.979-.2412-.1813-.567-.2133-.7903.0239-.1894.2012-.2186.6083.024.7907.5277.3968 1.0582.7936 1.6154 1.1485.6069.3866 1.1365-.5986.5312-.9844zM27.7402 28.0866c1.5953-.0585 3.1879.0693 4.7829.0794l-.4817-.7038c-.1353.6093-.372 1.1843-.7275 1.6984-.2725.3939-.6815.7528-1.1588.7086-.4338-.0403-.861-.4055-1.1588-.7578-.3637-.4298-.5919-.9398-.6787-1.4952-.0447-.2861-.3696-.4669-.6392-.4073-.2976.0659-.452.3526-.4071.6396.2142 1.3707 1.339 2.9676 2.8295 3.0913 1.6626.1379 2.655-1.7758 2.9582-3.1409.0713-.3212-.1038-.7014-.4817-.7039-1.5949-.01-3.1876-.1376-4.7829-.0794-.2892.0105-.5466.2008-.5622.5082-.0137.2702.2171.5732.508.5626z"/></svg>