<svg xmlns="http://www.w3.org/2000/svg" width="49" height="58" fill="none" viewBox="0 0 49 58"><path fill="#FCFCFC" d="M47.2847 54.2522 3.2669 53.0673s-.1493.556 2.8782 1.9506 9.142 2.1652 18.8984 2.3831 14.9336.2953 18.8108-1.0024c3.8772-1.2978 3.4304-2.1464 3.4304-2.1464M37.6686 17.7049c.3618-.3197.8908-.4663 1.3804-.3795.4895.0867.93.4009 1.1456.8201.1523.2939.1962.6258.2184.9491.079 1.2739-.1944 2.5639-.7826 3.7095-.2865.5581-.6553 1.0902-1.1608 1.4899-.3879.3027-.7747.4709-1.3243.2853 0 0-.0716-.0242-.1963-.0658-.1325.487-.3021.9101-.3785 1.1171-.4365 1.0619-2.945 4.9649-5.9375 5.991.0195.1837.0468.3936.0852.649.124.8695.3411 1.8555 1.4505 2.5189.0664.0232 1.2057.6103 1.5496.7826-1.9189 1.301-4.9691 2.2611-8.1128 2.1977-3.1416-.0823-6.1445-1.1816-8.0013-2.5703.3519-.1553 1.5132-.6887 1.5841-.7087 1.134-.6114 1.3953-1.5864 1.5621-2.4492.0595-.3052.1004-.54.1226-.7419-1.2491-.646-2.3951-1.6297-3.3984-2.833-1.2094-1.4507-1.9291-2.9901-2.3471-4.3129l-.2941.0742c-.6296.1583-1.0999-.195-1.4739-.5155-.487-.4227-.8315-.9714-1.0927-1.5422-.5361-1.1716-.7513-2.4729-.6152-3.7419.0365-.3219.0953-.6513.2608-.9379.2342-.4088.6883-.7021 1.1812-.7662.4929-.0638 1.0148.1069 1.3619.443 0 0-2.1473-11.3473 11.8603-11.0229S37.6686 17.705 37.6686 17.705"/><path fill="#FCFCFC" d="M46.2592 44.1066c1.3013 3.2231 1.5856 6.955 1.8083 10.5098L2.4098 53.559c.5088-4.7239 1.1405-9.7573 4.0822-13.3692 1.0143-1.2454 2.2745-2.2683 3.6767-2.9838 1.076-.5491 2.2313-1.0473 3.3757-1.4118 1.2614-.4018 2.5289-.6404 3.8372-.774 1.8321 1.4704 4.9525 2.6585 8.2234 2.7442 3.2828.0661 6.4638-.9837 8.3587-2.3738 1.3096.1873 2.5463.5442 3.7789.9993 1.1302.4172 2.2327.9326 3.2862 1.531 1.3728.7798 2.5895 1.8601 3.5497 3.1512.6975.9379 1.2457 1.9579 1.6805 3.0347z"/><path fill="#3C3C3C" d="M40.2555 57.0701c.1117-3.5718.2247-7.1438.3601-10.7145.0324-.8545-.9625-.8775-.9949-.0231-.1354 3.5707-.2482 7.1428-.3601 10.7146-.0267.8545.9682.8781.9949.023M18.3329 34.4326c-1.9947.1337-3.9583.4822-5.839 1.1905-1.7893.6738-3.5333 1.5145-4.9913 2.7928-2.6587 2.3312-4.02 5.7295-4.7344 9.1625-.4096 1.9685-.6412 3.9707-.8568 5.9694-.0295.2742.234.5157.486.5215.2886.0067.4793-.2234.509-.4985.3588-3.3296.7518-6.7377 2.0592-9.8414.6346-1.5068 1.525-2.9141 2.6743-4.0614 1.2826-1.2805 2.832-2.1206 4.4773-2.8098 1.9792-.8291 4.0642-1.2631 6.1928-1.4055.2682-.0181.5024-.2057.5089-.4985.0058-.2572-.2162-.5396-.486-.5216"/><path fill="#3C3C3C" d="M32.9486 35.7909c1.8533.142 3.6584.6648 5.3785 1.3714 1.6548.6798 3.2846 1.5384 4.5957 2.7948 2.4408 2.3387 3.5496 5.6124 4.0853 8.9164.3075 1.8958.44 3.8148.5604 5.7309.0173.2749.2004.515.486.5216.251.0058.5264-.2219.5089-.4985-.2222-3.5391-.4765-7.168-1.7638-10.4971-.6433-1.6635-1.558-3.2171-2.7813-4.5011-1.3305-1.3967-2.9553-2.3507-4.6849-3.1337-2.0125-.9109-4.1621-1.5564-6.3621-1.7248-.6391-.049-.66.9713-.0227 1.0201"/><path fill="#3C3C3C" d="M16.8442 35.6279c1.8203 1.5154 4.1354 2.3896 6.4313 2.7819 2.597.4437 5.2846.2329 7.781-.638 1.191-.4155 2.3253-.9695 3.3388-1.7374.2163-.164.1853-.5398.0162-.7212-.2049-.2199-.4866-.1808-.7034-.0163-1.7243 1.3066-3.9576 1.9614-6.0587 2.2231-2.4236.302-4.9078-.05-7.1823-.9479-1.0264-.4052-2.046-.9355-2.9035-1.6491-.2082-.1735-.4918-.2236-.7034-.0163-.1754.1718-.2257.5467-.016.7212"/><path fill="#3C3C3C" d="M17.6258 35.7352c.5457-.2159 1.0734-.4814 1.6103-.7185.0423-.0186.085-.0363.1271-.0556.0756-.0344-.1233.0486-.0691.0278s.1076-.0418.1592-.068c.2513-.1281.4906-.3118.6965-.5058.3686-.347.6296-.783.813-1.2567.1855-.4794.2771-1.001.3557-1.5082.0422-.2718-.0518-.5489-.3333-.6354-.2303-.0706-.5774.0681-.6199.342-.0657.4244-.1428.8549-.271 1.2648a4.7 4.7 0 0 1-.0933.2655 3 3 0 0 1-.0268.066c.0037-.0089.0299-.0648.0048-.0116a3.4 3.4 0 0 1-.0749.1509 2.8 2.8 0 0 1-.1662.2732c-.0744.1073-.0631.0931-.1617.198-.1665.1777-.2989.2829-.4961.4019-.02.012-.1196.0895-.0515.0394.0126-.0093.0408-.0146.0231-.0059-.044.0222-.0929.037-.1383.0559a7 7 0 0 0-.1041.0446c-.2674.1167-.5327.2388-.7986.3594-.1531.0693-.3061.1389-.4594.2079q-.0895.0404-.1794.0805c-.0517.0228-.2047.0837.0115-.0019-.2507.099-.4325.3287-.3615.6193.0591.2422.3515.4701.6039.3703zM30.1078 31.7947c.1064.969.2619 1.9375.8761 2.7182.1691.2151.3732.3973.5892.5616.1282.0976.2618.1885.4097.2512.0526.0223-.1003-.0489-.088-.0411.0178.0112.039.0185.0578.0279.2642.1316.5272.2656.7903.3999.2534.1292.5044.2669.7624.3862.2446.1132.5312.0882.6848-.1672.1268-.2112.0835-.5881-.1628-.702-.4813-.2225-.9475-.483-1.4216-.7208-.0999-.0501-.2298-.0916-.3209-.1539.0049.0033.0709.0384-.0091-.0221-.0505-.0382-.105-.0709-.1559-.1087-.0908-.0676-.1471-.1195-.2345-.2089-.1729-.1775-.2394-.2698-.3498-.4724a3.3 3.3 0 0 1-.1295-.2718c-.0361-.0838.0046.0252-.0225-.0613-.017-.0542-.0357-.1078-.0517-.1624-.1428-.4847-.2032-.9995-.2583-1.5011-.0301-.2741-.3682-.431-.6039-.3703-.2893.0743-.3918.3445-.3614.6192z"/><path fill="#93C9F5" d="M13.3515 11.5508c.7022-4.2566 3.1941-6.9244 5.4009-8.4705C20.8541 1.608 23.4579.7605 26.5005.831c1.5413.0357 3.0771.3073 4.5242.8687.6546.254 1.2886.5648 1.8959.925.8329.4943 1.7495 1.1594 2.1598 1.5422.2572.2398.6343.6332.8821.9022.6154.6676 1.1615 1.4053 1.6185 2.2007 1.0905 1.8978 1.6267 4.0819 1.6715 6.2903.0282 1.3929-.1034 2.5801-.3046 3.664l-.0165.0883c-.4558-.0492-.9315.0984-1.2652.3932-.9551-3.807-4.1179-7.741-6.8973-8.6895-3.2253-1.2135-7.6428.4598-8.5594 1.1549-4.0903 2.5422-4.3722 2.6596-6.0252 5.9833-.3497.7422-.472 1.1698-1.0487 1.1781-.1772.0027-.5591-.0659-.6827-.1644-.27-.2616-.6459-.423-1.0316-.4489.0607.7851-.3396-2.0812-.2299-3.7626a14.4 14.4 0 0 1 .1601-1.4057"/><path fill="#3C3C3C" d="M38.0114 18.0735c.5091-.4258 1.3519-.3246 1.711.2537.2001.3223.2021.7595.205 1.1285.0034.4204-.0268.8441-.1058 1.2571-.1586.8306-.4584 1.638-.9164 2.3448-.3486.5379-.9177 1.2487-1.6177 1.0324-.6142-.1896-.8999.7882-.2866.9776 1.7593.5434 2.9741-1.5694 3.4785-2.979.2968-.8294.4503-1.7265.4429-2.6099-.0074-.8985-.1794-1.76-.9381-2.3027-.8144-.5825-1.9092-.4682-2.6601.1597-.2084.1742-.1916.5331-.0162.7213.1978.2123.4944.1911.7035.0165"/><path fill="#3C3C3C" d="M36.6251 23.471c-.0279.4882-.1615.9605-.3182 1.4202-.0564.1654-.1178.3287-.1791.4923-.0181.0483-.0386.0958-.0563.1443.0457-.125.0116-.028-.0175.032-.2268.4684-.508.9114-.7991 1.3401-.8416 1.239-1.8591 2.4274-3.0691 3.3072-.7081.515-1.4816.9272-2.3391 1.0953-.6289.1232-.3861 1.113.2424.9898 1.6822-.3297 3.135-1.4797 4.3002-2.7146.9504-1.0071 1.8484-2.1608 2.4771-3.4118.4079-.8117.7017-1.7608.7539-2.6715.0375-.6559-.9574-.6781-.995-.0231zM16.3275 16.828c.1313-.4705.3624-.9023.6133-1.3166.0903-.1491.185-.2951.2797-.4414.0279-.0431.0582-.085.0858-.1285-.0713.112-.0174.0248.0239-.0273.3212-.4076 1.134-1.3197 1.5095-1.6744 1.3146-1.2408 3.3478-2.7611 5.7941-3.343.8185-.1937.4311-1.1956-.2502-.9684-1.9292.535-3.073 1.2084-4.4737 2.1581-1.1425.7745-2.3635 1.9742-3.2438 3.0575-.5712.7028-1.0602 1.565-1.3052 2.4427-.1764.6321.7904.8726.9666.2413M36.9945 17.8266c-.0335-.4879-.1725-.9586-.3344-1.4164-.0583-.1647-.1215-.3274-.1846-.4902-.0187-.0481-.0398-.0954-.058-.1437.0471.1245.0119.0279-.0179-.0317-.2321-.4658-.8435-1.5278-1.1394-1.9531-1.0361-1.4882-2.7192-3.3995-4.996-4.4784-.7619-.36-.1805-1.26.4405-.8958 1.7801.9255 2.7636 1.8226 3.9428 3.0438.9619.9959 1.9147 2.4244 2.5576 3.668.4171.8068.7217 1.7525.7842 2.6625.045.6555-.9498.6896-.9948.035M28.1357 8.819c.1283-.5993-.0678-1.2611-.3309-1.7941-.4367-.885-1.1216-1.565-1.9337-2.0997-.2236-.1472-.579.0101-.676.2435-.1186.2852.0003.5288.2397.6864-.0624-.041.074.0525.0887.063a5.4 5.4 0 0 1 .3877.3047c.1576.136.3055.2825.4455.437-.0714-.0788.0164.02.0309.0375q.0492.0596.0963.1205.0846.1097.1623.2245a4.2 4.2 0 0 1 .208.3429c.0139.0257.0676.133.0112.0175.0673.138.1272.2797.1766.4255q.031.0926.0569.1866c.0094.0348.0162.0706.0263.1052.0085.0291-.0191-.118-.0008.002.0176.1148.033.2287.0345.3452.0003.0223-.0055.0506-.0006.0717-.024-.1055.0098-.1062.0005-.043-.0072.0479-.0119.0953-.0221.1429-.0564.2634.1464.5617.4109.5972.281.0377.5278-.1348.5881-.417M14.8106 16.8144c-.664-.609-1.5906-.784-2.4125-.4112-.832.3773-1.163 1.1814-1.2532 2.0596-.18 1.7544.2877 3.7083 1.3727 5.0955.5884.7525 1.4548 1.3751 2.4325 1.1641.6265-.1352.3849-1.1252-.2424-.9898-.6762.1459-1.3176-.6142-1.6436-1.128-.4649-.7326-.7503-1.5799-.8861-2.4399-.0657-.4161-.084-.8388-.0675-1.2598.0154-.3937.0302-.876.2598-1.2111.3847-.5615 1.2312-.6231 1.7207-.1742.2001.1834.4984.2171.7034.0163.1828-.1791.2174-.5372.0162-.7215"/><path fill="#3C3C3C" d="M14.2437 22.6451c.6301 3.5904 2.8354 7.0228 5.9415 8.8529.868.5115 1.8152.8848 2.8052 1.0483.2649.0438.5357-.0537.6199-.342.0692-.2367-.0664-.5913-.3333-.6353-1.683-.2782-3.1799-1.1659-4.4148-2.3493-1.3171-1.2622-2.3666-2.8037-3.0243-4.5282-.2824-.7407-.4913-1.5127-.6286-2.2953-.0476-.2714-.3559-.4342-.6039-.3704-.2755.0708-.4095.3473-.3617.6193M39.4258 17.3716c.648-3.5287.3767-7.2988-1.456-10.4306-1.7458-2.9834-4.6785-5.1995-7.9482-6.11-3.2697-.9103-6.9552-.6422-10.0188.9095-2.2839 1.1568-4.2869 3.0403-5.578 5.2937-.7587 1.3238-1.2797 2.7892-1.5369 4.3011-.2633 1.5467-.2346 3.078-.0745 4.6338.0271.2632.0556.5263.0914.7884.0372.273.3632.4322.6039.3704.2837-.073.3988-.3454.3614-.6193-.1624-1.1889-.2643-2.5208-.1632-3.7718.1192-1.4758.4784-2.9495 1.1067-4.2865 1.0111-2.1516 2.673-3.9708 4.6057-5.2082 2.6482-1.6957 5.8851-2.2298 8.9516-1.7351 1.7098.2759 3.3244.9178 4.7871 1.8615.5783.3732 1.1661.7664 1.6653 1.2482.5604.5412 1.0932 1.1202 1.5645 1.7445 2.0635 2.7333 2.6504 6.256 2.2509 9.6278a17.2 17.2 0 0 1-.1663 1.0892c-.0496.2704.057.5505.3334.6354.2362.0724.57-.0697.6198-.342zM26.0102 21.5762c.0886.3824.1732.7705.2202 1.1609l-.0147-.136a.7.7 0 0 1 .0005.1595l.0209-.1352a.4.4 0 0 1-.0188.0712l.0529-.1206a.3.3 0 0 1-.0257.0455l.08-.1014a.24.24 0 0 1-.0377.0363l.1025-.0774a.7.7 0 0 1-.0902.0464l.1199-.0487a.64.64 0 0 1-.1515.0416l.1327-.0152a.6.6 0 0 1-.1412-.0035l.1319.0214c-.0531-.0089-.1051-.0233-.1582-.032-.1384-.0223-.2562-.0304-.3844.0426-.1046.0594-.2058.1785-.2354.2994-.032.1298-.0291.2766.0413.3941.0624.1044.1682.2212.292.2413.1136.0183.2236.0509.3396.0589.1739.0119.338-.0383.4955-.1074.1927-.0846.345-.2525.4005-.4621.0469-.1771.0317-.338.0062-.5169-.053-.3736-.1286-.7444-.2137-1.1117-.0601-.2595-.3485-.4486-.6039-.3703-.261.0798-.4259.3412-.3612.6193"/><path fill="#3C3C3C" d="M20.1101 18.4226c-.1979.6086-.1095 2.0212 1.0203 2.1675 1.497.0255 1.6148-1.6772 1.1292-2.4902-.3978-.6658-1.6048-.9668-2.1493.3229zM32.0437 18.6988c.1703.6171.0186 2.0241-1.1164 2.118-1.4966-.0438-1.5381-1.7502-1.0162-2.5401.4272-.6467 1.6463-.8915 2.1326.4221"/><path fill="#FCFCFC" d="M18.9134 34.3272c.3426-.882.6675-1.3865 1.1196-1.9057.4542-.5412.8204-.901 1.3318-1.3051.3355-.265 1.0214-.5384 1.8714-.5889 1.2705-.0756 2.1883.0016 2.9836.1105.3531.0484.7447.3498.7115.8582-.0264.405-.3989.6664-.7095.6941-.4577.0406-1.0842.0188-1.8461.107-.8716.101-.9006.1807-1.3511.5531l-.0433.0571c.8472.0395 1.8508.1575 2.2842.3947.1628.0892.7502.4914.8949.6082.681.5495 1.0289.9396 1.22 1.4224.0853.2155.019.5855-.0954.7867-.0997.1755-.4118.3937-.8691.2132.2696.2968.3326.6662.2311.9959-.0824.2676-.3941.6084-.9042.612.1772.1948.0422.6743-.1188.8746-.1686.2097-.6075.1979-.8323.099-.1229-.054-.343-.1673-.5822-.2315l-.0268.1042c-.0607.2351-.1886.7817-.2786 1.0072-.2558.6566-.6081 1.3793-1.2356 1.6988-.2981.1522-.6363.1945-.9474.3152-.2691.1066-.5406.698-.7078 1.1147a.017.017 0 0 1-.0228.0095c-1.2817-.5257-2.7815-1.163-3.9838-1.6481-.083-.0334-.1214-.1295-.0859-.2128.2391-.5618.3905-.8631.5398-1.2365.1721-.5643.3697-1.0655.5487-1.9085.3596-1.6937.4799-2.3607.7571-3.2026.0495-.1406.0982-.2724.1466-.3968z"/><path fill="#3C3C3C" d="M21.9577 33.4107c.604-.0253 1.2135.0049 1.8142.0677.2848.0297.592.0682.842.129.1204.0293.2364.0678.3536.1073a1.6 1.6 0 0 1 .0833.0351q-.0754-.0407-.0156-.0072c.0438.0252.0863.0529.1289.0802.5177.3308 1.0323.6936 1.438 1.1635.1422.1648.3287.3894.3417.5987.0051.0824-.0186.1731-.0497.2478-.0184.0441-.0263.051.005.0124-.0295.0362-.0296.0351-.0634.0432-.0665.0161-.1152.0071-.1811-.0122-.6169-.18-.9478.7787-.329.9595.3973.1161.8139.0998 1.1532-.1618.2824-.2174.4029-.5575.4509-.904.0968-.6984-.4155-1.3319-.8883-1.7752-.4356-.4083-.9151-.7835-1.4299-1.0843-.4902-.2862-1.0808-.3656-1.634-.4302-.646-.0755-1.3038-.1104-1.9538-.083-.2698.0114-.5125.1785-.5318.4732-.0164.2513.1942.5517.4656.5403z"/><path fill="#3C3C3C" d="M23.0577 35.2606c.9929.0717 1.7652.4664 2.5715 1.0492.0859.0622.1706.1262.2531.1933.0136.0111.116.0985.0792.0655-.0393-.0353.0524.0508.0621.0608.0664.0677.1071.1156.1444.1925.0326.0673.0488.1446.0493.1781.0005.0272-.0105.1448-.0065.1255.0078-.0397-.0255.0768-.0299.0901q-.021.0506.0187-.0342a.6.6 0 0 1-.0306.0505c-.0091.0115-.0881.1088-.0477.0666.0398-.0419-.0593.0484-.0719.0581q-.0407.0313.0087-.0051a.7.7 0 0 1-.0649.0353c-.0499.0227-.1354.0505-.1938.0525-.2698.0089-.5126.1798-.5317.4731-.0165.253.1941.5494.4656.5403.6059-.0203 1.2084-.3334 1.4094-.9516.229-.7044-.1026-1.3309-.6247-1.7761-.9546-.814-2.1454-1.3874-3.3937-1.4776-.6417-.0464-.7087.967-.0662 1.0135z"/><path fill="#3C3C3C" d="M23.2691 37.1673c.0177.0036.0978.0196.0056.0004a7 7 0 0 1 .2233.0507q.164.0402.3253.0912a4.1 4.1 0 0 1 .4422.1693q.0313.0144.0624.0293c.0305.0145.092.0479.0293.014.3489.1893.6613.4328.9599.6951.0081.0071.0827.0732.0434.0381-.0357-.0318.0266.0243.0266.0243l.0081.0099q.0364.045-.0363-.0536c.0077.0131.0287.0647-.0024-.0116-.0302-.0737-.0074-.0179-.0052.0067.0046.0535-.0011-.0635-.0032-.0609-.0127.0163-.0062.1016-.0083.1277-.006.0785-.0137-.0335.0082-.0352-.0019 0-.0113.045-.0126.0487-.0126.0367-.0226.074-.0367.1104-.0057.0147-.014.0296-.0185.0448-.0187.0621.0551-.0835.0175-.0345-.0167.0218-.0862.1172-.0268.055.0547-.0574.0176-.02.0052-.0087-.062.0567.0291-.0271.0359-.0233-.0026-.0014-.036.0177-.0399.0196-.0568.0265.0991-.0181.0355-.0127-.0355.0032-.0749.0154-.1103.0212-.0509.0087-.0122.0141.0012.0005q.0592-.0036.0175-.0028a1 1 0 0 1-.0494-.0008c-.037-.0016-.0761-.0113-.1126-.0107-.0508.0008.0507.0099.0553.0128-.0118-.0076-.0452-.0115-.0569-.0149-.0618-.0188-.1196-.0475-.1783-.0745-.234-.1076-.4667-.1911-.7204-.2371-.2708-.0489-.5481.0238-.7881.1544-.2303.1255-.3578.4365-.2242.6813.1281.2347.424.3621.6705.2277.0299-.0162.1656-.0721.0622-.0388.013-.0042.1423-.0439.1459-.0343.0065.0174-.1298-.017-.0401.0066.0262.0069.06.0081.0862.0124-.0211-.0033-.0954-.0259-.003.0017.0348.0104.0698.02.1044.0312.1822.0598.3488.1577.5292.2199.4607.1591 1.061.0933 1.3689-.3232.2607-.3528.3896-.9321.175-1.3351-.0818-.1537-.2179-.2549-.3454-.3674a8 8 0 0 0-.296-.2505c-.1704-.1372-.3475-.2662-.5351-.3778-.5404-.3212-1.1187-.4908-1.7293-.6097-.2578-.0503-.5264.222-.5318.4731-.0064.3033.1895.4865.4656.5403z"/><path fill="#3C3C3C" d="M23.7096 38.6204c-.2049.7888-.4037 1.7399-1.0617 2.283-.3902.3222-.9511.2611-1.3429.5723-.3821.3039-.587.8393-.7653 1.2812l.249-.2874-.0217.0094.3875-.0253c-.6751-.2774-1.3486-.559-2.0223-.8398a344 344 0 0 0-.9915-.4115 152 152 0 0 0-.4968-.2042c-.1278-.0523-.2976-.0923-.4115-.1694l.167.1939-.003.0102-.0175.2694c.0773-.3795.326-.761.4776-1.1181.1455-.3431.2486-.7109.3583-1.0676.2587-.8423.4077-1.7145.5939-2.5752.3001-1.3881.6988-2.7418 1.6363-3.8347.1775-.2069.0706-.5646-.1337-.7054-.2462-.1695-.5162-.0717-.6942.1358-1.7125 1.9969-1.7312 4.761-2.5126 7.1635-.088.2702-.1814.53-.2968.7894-.1368.3079-.3771.6711-.3993 1.0117-.0336.5141.4488.6691.8261.823.3639.1486.7272.2988 1.0903.4496.7512.3121 1.5011.6266 2.2529.9368.2097.0864.4114.184.6358.0769.1978-.0942.2612-.2799.3421-.4696.0611-.1432.1255-.2835.2052-.4173a2 2 0 0 1 .1202-.1823c.037-.0486.02-.0332.0403-.0448.1723-.0972.4069-.1164.5948-.179.201-.0669.3885-.1463.5661-.2637.3359-.2225.6074-.5291.8176-.8749.3811-.6268.5712-1.2973.7542-2.0013.0689-.2649-.0389-.5519-.3075-.6468-.2401-.0846-.5674.0462-.6365.3126z"/><path fill="#3C3C3C" d="M23.3863 33.2289c.0629-.0523.1251-.1054.1885-.157.0195-.016.1812-.1345.0829-.0708a1.5 1.5 0 0 1 .1377-.0766c.0779-.0393.0173-.0108-.0027-.0035.0458-.0167.095-.0279.1423-.0392.4616-.1093.9488-.1307 1.4207-.1478.4231-.0155.9061.0307 1.3032-.1401.4594-.1975.785-.6562.7696-1.1699-.0153-.5137-.3048-.94-.7602-1.1556-.3633-.1719-.8254-.1748-1.2198-.2081-1.0175-.0855-2.1409-.1349-3.1358.1257-.5211.1363-.9749.3559-1.393.6999-.4563.3755-.8565.8037-1.2383 1.2557-.1746.2066-.0713.5594.1325.6998.2431.1672.5137.0722.6887-.1348.4779-.5659 1.0441-1.2017 1.7526-1.4563.8143-.2927 1.7481-.2572 2.5993-.2188.3725.0169.7441.0497 1.1143.0956.1838.0229.4326.0262.4732.2675.045.2677-.2671.3047-.4298.3135-.4125.0221-.8256.0261-1.238.0559-.4283.0309-.8755.0597-1.2833.206-.2915.1045-.5209.3049-.7571.5013-.4949.4113.1593 1.1683.6531.7579z"/><path fill="#FCFCFC" d="M27.7977 27.5596c-.0999.9929-.8908 1.7243-1.7667 1.6335-.8759-.0909-1.505-.9694-1.4051-1.9624s.8908-1.7243 1.7666-1.6335c.8759.0908 1.505.9694 1.4052 1.9624"/><path fill="#3C3C3C" d="M26.8075 27.4564c.056-.5595-.295-.8415-.515-.8643s-.6199.1814-.6764.7408c-.0562.5597.2949.8424.5149.8653l-.1.9949-.1615-.0266c-.7903-.1752-1.3372-1.0056-1.2436-1.9363.1-.9927.8909-1.7238 1.7666-1.633.8758.0908 1.5048.9691 1.4052 1.9619-.0998.9929-.8908 1.7248-1.7667 1.634l.1-.9949c.2201.0228.6202-.182.6765-.7418"/><path fill="#FCFCFC" d="M3.3476 14.9379c-.1262-.5262-.6595-.8413-1.1785-.6964s-.8187.6927-.6622 1.2105l2.4214 8.0107c.112.3703.4964.5824.8676.4788s.5948-.4856.5045-.862z"/><path fill="#3C3C3C" d="M1.9094 13.2766c-1.0597.296-1.6711 1.4145-1.3516 2.4716l2.4211 8.0102c.2684.8879 1.19 1.3969 2.08 1.1483.89-.2487 1.4258-1.1646 1.2094-2.0669l-1.9528-8.141c-.2577-1.0743-1.3464-1.718-2.406-1.4222m.2613.965c.519-.1448 1.0518.1706 1.178.6967l1.9528 8.1411a.722.722 0 0 1-.3719.8103l-.132.0521a.707.707 0 0 1-.8134-.3476l-.0548-.1316-2.4211-8.0103c-.1565-.5177.1434-1.0658.6624-1.2107"/><path fill="#FCFCFC" d="M5.1518 29.0196c.144.5317.6851.8442 1.2087.698s.8313-.6958.6873-1.2275-.6851-.8442-1.2087-.698-.8314.6958-.6874 1.2275"/><path fill="#3C3C3C" d="M5.1517 29.0198c-.144-.5317.1635-1.0815.687-1.2278.5236-.146 1.0647.1667 1.2087.6984l.0219.0993c.083.499-.2184.9903-.7092 1.1275s-.9972-.1287-1.1772-.6007zm-.959.2678c.286 1.056 1.3671 1.691 2.4287 1.3945s1.6709-1.4036 1.385-2.4596-1.3673-1.6918-2.429-1.3954-1.6708 1.4044-1.3848 2.4605"/></svg>