<svg xmlns="http://www.w3.org/2000/svg" width="90" height="89" fill="none" viewBox="0 0 90 89"><path fill="#FCFCFC" d="m70.4772 50.8124-.2074-.3268c-1.8651-.7591-5.097-2.4927-5.4267-2.2827-2.8823 1.672-8.4977 3.1649-12.7608 3.1482-4.5025-.0113-9.2727-1.4312-12.4198-3.0612-.3456-.197-3.2949 1.2783-5.19 2.0765l-.2682.1204c-1.9016.853-3.3925 1.9738-4.6983 3.3588-1.8175 1.9371-4.5903 9.3657-5.7457 11.0547l-.4923.7195c-.4163-1.9203-.8068-3.8196-1.1753-5.8235a.5424.5424 0 0 0-.5596-.4439c-2.208.1004-8.5965 1.3072-10.4192 1.8787a.5355.5355 0 0 0-.3731.5624c.4862 5.028.6453 10.6701 1.737 15.8015.7768 3.657 2.1499 7.2015 5.5139 8.8735 2.8808 1.4287 5.7616 1.2798 8.1653.1976 2.0398-.9211 4.4986-3.0156 6.1897-4.4353l1.0481-.8797c.1104.88.178 1.6233.178 2.1258 0 .8968-.1407 2.6934-.3242 4.7939h45.7538v-.1763a6.7 6.7 0 0 0 2.0961-.2027c1.3214-.3436 2.5285-1.1534 3.2823-2.2858.7829-1.1758 1.0569-2.676 1.1147-4.0628.1701-4.068-1.1003-8.1375-2.9557-11.7201 0 0-10.4522-16.4721-12.0629-19.011z"/><path fill="#FCFCFC" d="M64.5127 48.0114c-.1386-.0565-4.0215-1.8929-4.1123-1.9255-1.3692-.4915-1.315-1.3664-1.4875-2.3452-.1529-.867-.2548-1.7371-.2909-2.6147 3.4472-1.6795 6.1944-6.3732 6.683-7.6916.0893-.2696.2881-.8201.4392-1.4521.6116-.0891 1.4257-.0888 1.8899-.4569.6187-.4971 1.0634-1.1503 1.4047-1.8325.7009-1.4005 1.0055-2.9667.8715-4.5033-.0367-.3901-.1006-.7895-.2987-1.1406-.2805-.5004-.838-.8676-1.4505-.9585-.6123-.0909-1.2676.1006-1.7092.497-2.3961-.7265-5.287-4.5364-6.2112-6.2591-.6465-1.2048-1.3492-3.817-1.9064-5.6601-2.6493 3.4297-6.0158 5.8595-10.1972 7.0466-.9942.2939-.0572-2.8411.1193-4.3222-2.6429 2.5803-5.5316 5.3037-8.2121 7.484l-2.2637 1.7105c-.4419-.3964-1.0969-.5882-1.7095-.497-.6125.0909-1.17.4581-1.4505.9585-.1981.3508-.262.7505-.2987 1.1406-.134 1.5369.1706 3.1031.8715 4.5033.3413.6825.7863 1.3354 1.4046 1.8325.475.3766 1.1462.8031 1.9986.5912 0 0 .0565-.014.1593-.0401.4746 1.7561 1.3064 3.7853 2.8328 5.6013 1.3657 1.6246 2.9257 2.9229 4.6166 3.7124-.0422.8308-.1401 1.547-.2817 2.3508-.1725.9788-.1183 1.8537-1.4875 2.3452-.0905.0326-4.4209 2.0459-4.6845 2.1353 0 0-.0624.021-.1605.0544.0278.0021.0556.0043.0718.0137 3.1472 1.63 7.9173 3.0499 12.4199 3.0612 4.1679.0164 9.6219-1.4109 12.5571-3.0372.0538-.0611.1128-.1207.1642-.1821-.1728-.0705-.2923-.1195-.2923-.1195zM7.137 37.3323c-.275-.1496-.5768-.2125-.9597-.1964-.136.0058-.5685.2213-.7232.3365-.1682.1255-.2542.3602-.2924.5657-.0908.4876.1391 1.3136.416 1.7516.1036.1639 1.456 2.7101 1.8816 3.4026.0768.1246 1.8566 2.9059 2.708 4.1598-1.286-1.6415-3.801-4.7869-4.413-5.5113-.8437-.9987-1.4058-1.4601-2.0131-1.4881-.8364-.0386-1.5053.5572-1.4407 1.3871s.8706 1.689 1.348 2.373c1.563 2.2386 2.3398 3.236 3.935 5.4834-1.6108-1.1829-3.042-2.1772-4.8888-3.4011-.3835-.2541-1.1887-.3748-1.5386-.0766-.2098.1788-.4358.4341-.441.7086-.0104.5405.2649.9734.631 1.4835s.9743.9992 1.5385 1.5497C4.12 51.066 5.0333 51.6879 6.3412 53.276c1.9386 2.3535 3.9448 4.3446 4.8023 5.2946.1994.5876.4676 1.6285.5746 2.2575l.0554.2179c2.0352-.5253 6.2973-1.3299 8.7243-1.6048l-.0015-.0373c-.0309-.7342-.1847-1.8352-.1847-2.5387l-.0233-.3544c.8456-.7099 1.2692-1.5379 1.7159-2.6533.5713-1.4272 1.0857-2.8742 1.3787-4.3799.2287-1.1758.3838-2.1601.3957-3.0192.0049-.3514-.1603-.8527-.4645-1.0451-.2211-.1399-.8924-.094-1.1245.0267-.4086.2119-.7682.9925-1.1355 1.8054-.3511.7773-.6273 1.4352-1.1887 2.0787-.4199.4812-1.3514.6955-2.0105.1511-.3877-.3204-.5856-.9713-.644-1.4692-.0792-.6779-.1202-1.2002.1767-1.8154s.9854-1.0445 1.5007-.9667c.3942.0596 1.2603.3234 1.6587.307.9013-.0374 1.3138-.9719 1.1536-1.5598-.1217-.4462-1.4251-1.1488-2.0056-1.43-.6544-.3173-1.289-.7198-2.0101-.6633-.8636.0675-1.7022.6284-2.2591 1.285-.5104.6019-.8428.9311-1.2789 1.6875-.1783.2912-.3208.5721-.4991.8636-.0566.0927-.1165.1809-.1832.2423-.0801.0736-.2168.0729-.2975 0-.0282-.0255-.2104-.2824-.2673-.38-.9688-1.5674-1.8098-2.9949-3.0203-4.7894-.3663-.5429-1.722-2.5231-2.1743-2.9976-.1887-.1979-.3719-.3493-.5685-.4563z"/><path fill="#FCFCFC" d="M68.8786 49.4587c-3.8863.4435-7.1151 2.2091-9.6561 6.3583-.5288.8633-1.1135 2.6225-2.4508 2.2495-.5441-.1517-.7832-.6171-.9209-1.1366-.1376-.5195.0095-1.4418.1997-1.9459 2.0775-5.5001 6.8491-8.8671 12.7841-9.0741 6.0652-.2116 10.7864 1.5884 13.8825 6.9894.2606.4544.7022 1.7142.6591 2.2337s-.1691.9247-.6502 1.1828c-1.2912.6928-2.2689-1.136-2.8248-1.9106-2.5927-3.6114-6.9662-5.4095-11.0226-4.9462z"/><path fill="#FCFCFC" d="M67.7438 41.7343c1.3676 1.0771.9698 2.711.5227 3.3464-.7462 1.0609-2.4839 1.2412-3.4026.5478-1.2902-.974-1.0107-2.4475-.2743-3.4622.6263-.8633 2.2007-1.1831 3.1542-.432"/><path fill="#FCFCFC" d="M72.7262 41.4713c1.3677 1.077.9698 2.711.5227 3.3463-.7462 1.061-2.4839 1.2412-3.4025.5478-1.2903-.974-1.0108-2.4474-.2743-3.4621.6263-.8634 2.2006-1.1832 3.1541-.432M72.0592 63.3703q.119.0546.2459.1295c-.5609-.6475-.7489-1.4853-.3187-2.0204.2848-.3541.86-.5605 1.2285-.5341.6006.0429 1.8181.2122 2.3481.4849-.679-.3605-1.0832-1.3123-.6462-1.9422.174-.2508.9581-.6344 1.7003-.5283.5786.0826 1.156.2365 2.0224.7529 1.1437.6819 2.1881 1.4045 3.1682 2.3876.8799.8825 1.6401 1.5777 1.7343 2.8168.0523.687-.0599 1.423-.5046 1.9516-.1792.2128-.4092.3891-.5358.6363-.2783.5426.0303 1.1943-.0061 1.8023-.0452.7551-.611 1.3646-1.1489 1.8997-1.0942 1.0886-2.2206 2.1674-3.5441 2.9657a9 9 0 0 1-.323.1863c.0444.1137.0728.1873.0728.1873.2297.4332.682 1.2625.6963 2.0039.0037.1949-.314.946-.7462 1.6495-.3541.5763-1.3981 2.1994-2.0015 2.88-.6367.718-1.5251 1.3874-2.4805 1.2652-.863-.1103-1.4379-.7518-1.8089-1.5339-.7685-1.6206-1.0642-2.8731-1.4279-4.6438-.0721-.3514-.0578-.9442-.0461-1.3029.0269-.8521.8682-2.5292 1.5162-3.0877 0 0 .1321-.1507.3092-.352-.4661-.7229-.9052-1.4646-1.3594-2.2267-.3128-.6372-.6911-1.5054-.6379-1.9374.0483-.3924.1706-.7967.4596-1.0682.289-.2714.7786-.3596 1.086-.1091-.3618-.3034-.6832-.6788-.8153-1.1306-.1318-.4517-.1844-1.0317.1651-1.3494.4165-.3784.9144-.5475 1.5979-.2331z"/><path fill="#FFBA4A" d="M58.3341 11.6685c.5569 1.8431 1.2599 4.4553 1.9064 5.66.9242 1.7227 3.8148 5.5323 6.2112 6.2592.4419-.3965 1.0969-.5883 1.7092-.4971.6125.0909 1.17.4581 1.4505.9585.1981.3508.2621.7506.2987 1.1406.134 1.537-.1706 3.1031-.8715 4.5033-.3413.6825-.7863 1.3355-1.4046 1.8325-.4643.3681-1.2784.3678-1.89.4569-.1511.632-.3498 1.1825-.4391 1.4521-.4887 1.3185-3.2359 6.0121-6.6831 7.6916.0361.878.138 1.7477.2909 2.6147.1725.9788.1183 1.8537 1.4875 2.3453.0538.0191 1.4382.6715 2.5872 1.212 1.7541-.8348 3.7257-1.3145 5.8475-1.3884 1.2765-.0443 2.4927.0016 3.6478.1499.2697-.3569.4939-.7344.6679-1.119-.7906.9485-2.4227 1.0895-3.3038.4244-1.2902-.974-1.0107-2.4474-.2743-3.4622.6263-.8633 2.2007-1.1831 3.1542-.4319.4376.3444.693.7463.8251 1.1536-.063-1.4795-.3404-2.7034-.8584-4.1942-.7193-2.0695-2.1126-6.2743-2.2132-13.7872.2-2.2735-.0077-5.5582-.0982-6.8206-.3134-4.3763-2.282-9.263-5.1141-11.9794-1.2245-1.1743-1.5805-1.7224-2.9133-2.4417l-1.4942-.8062c-.3682-.1483-.7367-.297-.7367-.297C57.7885 1.3571 55.356.7327 51.9012.7327c-5.6646 0-10.7063 2.9007-12.9434 5.0298-3.7117 3.532-6.0661 9.9837-5.7689 18.8803.0012 6.03-.496 10.3792-1.1921 12.8506-.4764 1.6911-.8795 4.5076-.8951 6.2276-.0254 2.8119 3.0389 5.8956 7.5577 4.9426 0 0 .4033-.1325 1.0795-.3371-.0248-.0128-.0511-.0249-.0755-.0377-.0166-.0094-.0441-.0116-.0719-.0137l.1605-.0544c.2637-.0894 4.594-2.1027 4.6845-2.1352 1.3692-.4916 1.3151-1.3665 1.4875-2.3453.1416-.8038.2395-1.52.2817-2.3508-1.6909-.7892-3.2508-2.0875-4.6166-3.7124-1.5263-1.8157-2.3582-3.8451-2.8328-5.6013-.1027.0261-.1593.0401-.1593.0401-.8523.2119-1.5233-.2146-1.9985-.5912-.6184-.4971-1.0634-1.1503-1.4046-1.8325-.701-1.4005-1.0056-2.9666-.8716-4.5033.0367-.39.1006-.7895.2988-1.1406.2804-.5004.8379-.8676 1.4504-.9585.6126-.0909 1.2677.1006 1.7096.497l2.2636-1.7105c2.6805-2.1799 5.5692-4.9037 8.2121-7.484-.1761 1.4811-1.1135 4.6161-.1193 4.3222 4.1815-1.1874 7.5473-3.6163 10.1966-7.0459m9.932 33.4117c-.7462 1.0609-2.4839 1.2412-3.4025.5477-1.2903-.9739-1.0108-2.4474-.2744-3.4618.6264-.8633 2.2007-1.1831 3.1542-.432 1.3676 1.0771.9698 2.7107.5227 3.3461"/><path fill="#FFEC72" d="M70.2448 69.2683c-.0141-.0237-.0279-.0465-.0419-.0702-.3129-.6372-.6912-1.5054-.638-1.9374.0484-.3924.1707-.7967.4597-1.0682.289-.2718.7786-.3596 1.0859-.1091-.3617-.3034-.6832-.6788-.8153-1.1306-.1318-.4517-.1844-1.032.1652-1.3494.4165-.3784.9144-.5475 1.5979-.2331.0795.0364.1611.0796.2458.1295-.5608-.6475-.7489-1.4853-.3186-2.0204.2847-.3538.8599-.5605 1.2284-.5341.6007.0429 1.8181.2122 2.3481.4849-.6789-.3605-1.0832-1.3123-.6462-1.9422.174-.2508.9581-.6344 1.7003-.5284.5787.0827 1.156.2369 2.0224.753 1.1438.6819 2.1881 1.4045 3.1683 2.3876.5165.518.9875.9737 1.311 1.5108.0945-.2146.1804-.4332.2468-.6587.633-2.148-.1287-4.4407-.9835-6.5073-1.1208.2393-1.9747-1.3357-2.4802-2.0398-2.593-3.6114-6.9662-5.4095-11.0225-4.9462-3.8863.4435-7.1152 2.2091-9.6562 6.3583-.4936.8059-1.0358 2.3924-2.1936 2.2966-.4615.8087-.5401 2.0948-.6202 3.0156-.0853.9801-.0437 1.9805.2462 2.9229.041.1329.0865.2645.1376.3949 1.0456 2.669 3.9955 4.1635 6.6897 4.6389 2.0857.3657 4.2209.3873 6.3277.2161.1449-.0118.2902-.0227.4352-.0337z"/><path fill="#4C4C4C" d="M65.2046 30.639c-.0217.6217-.17 1.2257-.3499 1.8194-.0648.2134-.1357.425-.207.6362a18 18 0 0 1-.0615.1791c-.0082.0234-.0189.0456-.0272.069-.0465.1341.056-.1243.0181-.0413-.2744.6031-.5967 1.1816-.9456 1.7452-1.019 1.6449-2.2557 3.1998-3.7686 4.4237-.8306.6718-1.7658 1.2035-2.8025 1.4418-.9199.2113-.5306 1.6184.3902 1.4072 2.1542-.4949 3.9469-2.0581 5.353-3.6838 1.1664-1.3482 2.2557-2.8663 2.9949-4.4939.4927-1.0847.8324-2.3125.874-3.502.0327-.939-1.4352-.9378-1.4679 0zM38.3005 23.0719c-.8272-.6977-1.9544-.9379-2.9746-.5229-1.1453.4657-1.6288 1.4677-1.7365 2.6408-.2027 2.2072.4841 4.7197 1.9964 6.3838.8272.9101 1.9557 1.5126 3.2074 1.247.9233-.1961.5327-1.603-.3902-1.4072-.811.172-1.5701-.5597-2.0123-1.1521-.6297-.8433-1.0168-1.8732-1.2235-2.8959-.1043-.5155-.1462-1.0387-.1401-1.5643.0055-.4593-.0006-1.0275.2563-1.4297.414-.6481 1.3972-.7581 1.9792-.2675.3022.2548.7416.2946 1.0379 0 .2627-.2611.3037-.7761 0-1.032"/><path fill="#4C4C4C" d="M37.6772 30.5988c.3771 2.0797 1.0649 4.1234 2.1826 5.93 1.2582 2.0334 3.075 3.8592 5.1552 5.0624 1.0881.6292 2.2875 1.0849 3.5346 1.2697.3915.0581.789-.0972.9028-.5094.0951-.3442-.1181-.8391-.5126-.8974-2.0685-.3061-3.8866-1.3716-5.3976-2.7785-1.6392-1.526-2.9047-3.3628-3.6619-5.4691-.3498-.9737-.603-1.9781-.7874-2.9949-.0704-.3879-.5456-.6071-.9028-.5095-.411.1121-.5832.5082-.5126.8974zM57.6786 12.0304c.3391 1.1345.6593 2.2751 1.0297 3.4002.2993.9098.6247 1.8212 1.1168 2.6477.9838 1.6528 2.2514 3.2269 3.6909 4.5088.8049.7168 1.7016 1.3753 2.7419 1.7042.9025.2852 1.2888-1.1232.3903-1.4072-1.5796-.4991-2.971-2.0829-4.0249-3.374-.5202-.6371-1.0034-1.308-1.434-2.0084-.4229-.6883-.7131-1.4142-.9715-2.1775-.412-1.2157-.756-2.4526-1.1236-3.682-.2685-.898-1.6857-.5152-1.4156.3882"/><path fill="#4C4C4C" d="M57.8092 11.1661c-1.5147 1.9458-3.3202 3.6576-5.4435 4.9343-1.0364.6232-2.1312 1.1449-3.2731 1.5464a20 20 0 0 1-.9166.297c-.0709.0213-.1697.0359-.2333.0678-.06.0301-.1098-.0273.0694-.0067.1752.0201.297.08.4074.2214.1067.1364.0107.0732.0024-.0353.0138.1815.0015-.0304 0-.093-.0049-.1952.0119-.3916.033-.5855.1049-.9606.4065-2.0836.5358-3.1193.0823-.6587-.8391-.9199-1.2529-.5158-2.6493 2.5854-5.3396 5.1426-8.2121 7.4839-.3067.2499-.2609.7725 0 1.0318.3034.3015.7306.2505 1.0379 0 2.8726-2.3414 5.5628-4.8986 8.2121-7.484l-1.2529-.5159c-.0184.1484-.0098.0493-.0028.0213-.0155.0626-.0201.1298-.0305.1933-.0205.125-.0432.2496-.0661.374-.0501.2714-.1043.5423-.1569.8131-.1079.556-.2107 1.1136-.2749 1.6765-.0979.8594.0557 2.2091 1.2752 1.9614.6392-.1298 1.2802-.3903 1.8851-.6287.6786-.2675 1.3453-.5654 1.9912-.9031 1.2226-.639 2.3658-1.4187 3.4273-2.2964 1.2192-1.008 2.3064-2.161 3.2762-3.4068.2422-.3113.3052-.7284 0-1.0317-.2529-.2514-.7939-.3135-1.038 0zM71.2144 24.6435c.1351-1.5947.0941-3.2047.0211-4.8015-.0649-1.4166-.1499-2.8332-.4001-4.2316-.5813-3.2521-1.8862-6.4817-3.9587-9.0808-.5591-.7013-1.2086-1.309-1.8405-1.9438-.6186-.6216-1.2544-1.1946-2.0125-1.646-.8126-.4837-1.5514.7772-.741 1.26.5875.3499 1.0749.777 1.5563 1.2582.5538.5539 1.1342 1.087 1.6471 1.6792.9991 1.1534 1.7759 2.4995 2.4049 3.8823.6524 1.4343 1.1251 2.9576 1.4374 4.4997.2645 1.3063.3535 2.6271.4211 3.9552.0875 1.7185.1422 3.4528-.0034 5.1694-.0333.3931.3612.7296.734.7296.4248 0 .7006-.3353.734-.7296zM32.4561 24.6434c-.0015 2.3502-.0697 4.7025-.2703 7.0447-.1389 1.6227-.3294 3.2236-.6949 4.814-.1746.7597-.3945 1.5054-.5452 2.2709-.2107 1.0685-.367 2.1501-.4743 3.2335-.0872.8804-.1713 1.7759-.0144 2.653.1407.7879.4963 1.5543.9722 2.1969 1.3465 1.8182 3.5129 2.746 5.7612 2.7104.9438-.0149.9466-1.4741 0-1.4592-1.703.0268-3.3936-.5964-4.4676-1.954-.4383-.5539-.7031-1.1512-.8425-1.8404-.0267-.1313-.0371-.235-.0435-.4265-.0067-.197.0012-.3949.0092-.5916.018-.4493.0538-.898.0991-1.3451.0982-.9728.2452-1.941.4382-2.8995.1465-.7274.3572-1.437.5233-2.1599.359-1.5628.5587-3.1642.7076-4.7586.2325-2.4885.3083-4.9897.3098-7.4879.0006-.9391-1.4673-.9406-1.4679 0z"/><path fill="#4C4C4C" d="M69.7462 24.6449c.0673 4.6082.6211 9.2307 2.1129 13.6097.4786 1.4053.9605 2.8727.9605 4.3744 0 .939 1.468.9405 1.468 0 0-2.2274-.9157-4.2787-1.5251-6.3793-.5927-2.0425-.9891-4.1403-1.2261-6.2522-.1994-1.7774-.2963-3.5649-.3223-5.3529-.0138-.9382-1.4817-.9406-1.4679.0003M72.5124 44.5833c-.1783.3936-.4052.763-.6636 1.1095a.544.544 0 0 0-.0872.2712.55.55 0 0 0 .0132.2909c.0468.1693.1786.3527.3373.436.1703.0893.3768.1343.5654.0735l.1753-.0735a.73.73 0 0 0 .2633-.2618c.2584-.3465.4853-.7159.6636-1.1096a.543.543 0 0 0 .0872-.2711.55.55 0 0 0-.0132-.2909c-.0468-.1694-.1786-.3527-.3373-.436-.1703-.0893-.3768-.1343-.5655-.0735-.1706.055-.3617.1657-.4385.3353M45.4604 41.6171c-.0431.6272-.1247 1.2464-.2312 1.8659-.0648.3764-.0987.7631-.2036 1.1315-.0132.0456-.0954.2575-.0428.1444a1.7 1.7 0 0 1-.1172.2088c-.0633.0976.0646-.0696-.0147.021a1.4 1.4 0 0 1-.0758.0806c-.1012.0997-.0979.0924-.2089.1568-.2.1159-.4159.1922-.626.287-1.085.4903-2.1624.9971-3.2453 1.4923-.2798.128-.5593.2557-.8401.3815-.1.045-.2003.0888-.3003.1335-.1859.0829.1694-.0611.004-.0025-.3731.1326-.6233.4974-.5126.8974.0991.3587.5279.643.9028.5095.4315-.1535.8486-.3684 1.2646-.5581a550 550 0 0 0 1.9951-.9163c.4908-.2261.9817-.4517 1.4725-.6776.0352-.0161.0875-.0291.1184-.0532-.0046.0037-.2768.1101-.1147.0505.0798-.0292.1578-.0629.2361-.0961.1462-.0623.2899-.127.4247-.2112.4679-.2922.8034-.6956 1.0065-1.2038.1596-.4001.1988-.8278.2688-1.2494.1321-.795.2526-1.5887.3077-2.3931.0269-.3936-.3566-.7295-.734-.7295-.4196 0-.7067.335-.734.7295zM57.8935 41.2552c.0541.9962.2091 1.9723.3578 2.9572.0981.6509.2284 1.2677.6746 1.7814.2468.2843.5752.498.9187.6494-.0236-.0104.4159.1708.1932.0753.027.0116.0532.0244.0802.0365.0859.0389.1709.0794.2565.1195.7487.3496 1.4961.7022 2.2435 1.0542.3581.1684.7921.0988 1.0043-.2617.1869-.3174.0967-.829-.2633-.9983-.6985-.3286-1.3967-.6575-2.0954-.9849-.1612-.0754-.3218-.1529-.4848-.225-.285-.1261-.5682-.2429-.7223-.3964-.0132-.0131-.1404-.1745-.0581-.0565-.037-.0529-.0652-.1098-.1006-.1633-.0976-.1474.0275.1113-.0288-.0556-.0202-.0602-.0406-.1195-.0578-.1809-.0712-.2556-.1049-.5198-.1443-.7816-.1294-.8569-.2584-1.7023-.3055-2.5693-.0214-.3937-.3221-.7296-.734-.7296-.381 0-.7554.3341-.7339.7296M60.3204 1.5957C57.4362.4396 54.3435-.107 51.2315.0172c-3.2126.1283-6.3738 1.108-9.1772 2.6542-2.0842 1.1497-3.9035 2.6216-5.3212 4.5325-1.4897 2.0082-2.4937 4.3629-3.1576 6.7586-.9596 3.4637-1.2337 7.101-1.1196 10.6811.03.9366 1.4979.9408 1.4679 0-.1724-5.4126.4988-11.2681 3.5273-15.9134 1.137-1.744 2.642-3.1557 4.4316-4.2653 2.4536-1.5214 5.2741-2.5854 8.1574-2.8994 3.3685-.367 6.7594.1823 9.8895 1.437.3679.1474.8064-.1606.9027-.5096.1153-.4164-.1434-.7496-.5125-.8973z"/><path fill="#4C4C4C" d="M66.9723 24.103c.5648-.4761 1.5186-.3858 1.9505.2219.2752.3876.2752.9536.2847 1.4078.0113.5484-.0306 1.0953-.1392 1.633-.2039 1.0084-.5829 2.0055-1.1887 2.8457-.4141.5745-1.1844 1.357-1.9771 1.2172-.3899-.0687-.7908.1049-.9027.5095-.0976.3526.1201.8283.5125.8974 2.2994.4055 3.853-1.8422 4.5698-3.7039.422-1.0959.6254-2.2942.5915-3.4673-.0331-1.1497-.2991-2.262-1.3395-2.908-1.0795-.6706-2.452-.4842-3.3998.3143-.3024.2551-.2642.7694 0 1.0318.2997.2979.7346.2556 1.038 0zM24.3941 65.2677c.4813-.7114.8297-1.5212 1.1908-2.2967.5196-1.1156 1.0196-2.2404 1.5368-3.3573.5327-1.1506 1.0758-2.2994 1.6899-3.4095.244-.4411.4991-.878.7844-1.2938.0606-.0885.1239-.1748.1866-.2618.1156-.1596-.0609.0733.0128-.0182.0297-.0368.0593-.0736.0896-.1097.2144-.2536.4548-.488.6939-.7184 1.182-1.1396 2.5417-2.0227 4.0371-2.7025 1.2759-.58 2.5667-1.1737 3.8542-1.7081.2355-.0979.4728-.1927.7141-.2754.0966-.0331.1936-.0654.2923-.0912.0438-.0116.101-.0158.1423-.0334.1195-.0508-.1634.0042-.0487.0094-.0244-.0009-.2538-.0304-.278-.0815.0221.0471.2419.1234.2906.1474q.2248.1118.452.2186c.3914.1842.7884.356 1.1881.5223 1.6358.6806 3.3364 1.2096 5.067 1.5923 2.0227.4472 4.1081.7113 6.1821.6779 2.1814-.0353 4.3656-.3943 6.4809-.9083.9171-.2229.5287-1.6304-.3902-1.4072-1.8878.4584-3.8151.7837-5.7604.8478-1.8511.0611-3.7053-.1283-5.5194-.4906-1.7811-.3557-3.534-.8676-5.2215-1.5367-.6939-.2751-1.3529-.6095-2.0285-.9235-.4572-.2128-.9254-.0654-1.3737.0975-1.3355.4852-2.6132 1.1291-3.9123 1.7006-1.5294.673-2.9563 1.4157-4.2588 2.4726-.9667.7846-1.8135 1.6595-2.4673 2.7171-.6294 1.0178-1.1582 2.0976-1.6726 3.1761-.6302 1.3215-1.2238 2.6596-1.8361 3.9893-.4208.9144-.819 1.8808-1.3859 2.7186-.5288.7813.7425 1.5123 1.2676.7366zM82.0646 41.659q-.1018 1.4973-.204 2.9946c-.026.3815.3563.7463.734.7296.4199-.0186.7061-.3207.7339-.7296q.1018-1.4973.204-2.9946c.026-.3815-.3563-.7463-.7339-.7296-.4199.0185-.7062.3207-.734.7296M86.5262 48.8499c.9695-.2441 1.9466-.4721 2.9353-.6259.17-.0264.3556-.1942.4385-.3353.0921-.1562.1312-.387.074-.5621-.0575-.1766-.1676-.3468-.3373-.4359-.1853-.0973-.3596-.1055-.5655-.0736-.9887.1539-1.9657.3816-2.9352.626-.3722.0936-.633.5277-.5125.8973.1244.3825.504.6102.9027.5095M85.5596 46.1983c.6737-.7669 1.4156-1.4777 2.1859-2.148.29-.2523.279-.7773 0-1.0317-.3088-.2821-.7287-.269-1.0379 0-.7704.6703-1.5119 1.381-2.186 2.148-.129.1471-.215.3155-.215.5159 0 .179.0799.3927.215.5158.2768.2527.7682.3071 1.038 0M81.9066 70.1915c1.7994 3.4923 3.0263 7.3928 2.8554 11.352-.0734 1.6984-.49 3.4296-1.8215 4.5918-1.2067 1.0533-2.9395 1.4278-4.5037 1.1709-1.908-.3134-3.576-1.3865-4.8426-2.811-.627-.7049-1.6619.3302-1.038 1.0318 2.5505 2.8681 7.0096 4.4711 10.5225 2.3073 3.8007-2.3414 3.4946-7.5946 2.6811-11.39-.522-2.4355-1.4456-4.7769-2.5856-6.9893-.4309-.836-1.6979-.0985-1.2676.7365M11.6633 58.055c-.8364-.9229-1.714-1.8087-2.5566-2.7262-1.1535-1.2561-2.1887-2.6301-3.3933-3.8369-1.0291-1.0306-2.1496-1.972-3.1995-2.9822-.2575-.2478-.4951-.5016-.6948-.7977-.1-.148-.2095-.304-.2795-.4684-.0333-.0778-.0664-.1666-.0795-.2511-.0074-.0477.019-.2371-.0169-.1301.0364-.1092.182-.1958.3676-.1882.3092.0128.5108.148.7637.3162 1.57 1.0442 3.118 2.1197 4.6383 3.2347.3193.2341.8193.0526 1.0043-.2617.2183-.3709.0566-.7636-.2633-.9983-1.5003-1.1008-3.0276-2.1626-4.5769-3.1941-.662-.4407-1.4816-.7399-2.2737-.4447-.9334.3481-1.312 1.3835-.9909 2.2809.3059.8551.949 1.5512 1.604 2.1598.6108.5673 1.2117 1.1442 1.8319 1.7018.5982.538 1.185 1.0855 1.7242 1.6829.6456.7152 1.2428 1.4734 1.882 2.1951 1.1281 1.2737 2.329 2.479 3.4713 3.7394.6337.6992 1.6691-.3353 1.0379-1.0318z"/><path fill="#4C4C4C" d="M7.745 48.5645c-.8505-1.1864-1.7178-2.3608-2.5655-3.5491-.455-.638-.9016-1.2813-1.3716-1.9084-.3055-.408-.9328-1.1038-.749-1.6574.0438-.1313.1511-.248.2909-.3091.1116-.049.2214-.0572.34-.0584.0334-.0003.2052.0313.0658.0018.0703.0149.1425.0344.2082.0626-.0899-.0386.1588.0994.1786.1128.0948.0633.1792.1356.2655.2137.299.2715.5676.5761.8278.884.6233.7375 1.2212 1.4969 1.8245 2.2505.8676 1.0831 1.7325 2.1687 2.5885 3.2609.2437.311.7819.2544 1.0379 0 .3089-.307.2444-.7199 0-1.0317-.856-1.0923-1.7208-2.1778-2.5884-3.261-.7187-.8973-1.4172-1.8251-2.1952-2.6736-.4697-.5119-1.0272-1.0405-1.7226-1.2168-.7285-.1846-1.5615.0386-2.0796.5839-1.3942 1.4689.2199 3.2217 1.0829 4.4529 1.0792 1.5397 2.1982 3.0508 3.2937 4.579.2296.3204.64.4733 1.0042.2617.3187-.1854.4946-.6754.2634-.9983"/><path fill="#4C4C4C" d="M10.8022 46.9839c-1.4126-2.0848-2.7573-4.1927-3.957-6.4045-.2098-.3867-.4162-.7752-.6327-1.1579-.1756-.3101-.304-.6584-.3315-1.0159-.0132-.1727-.0163-.2414.066-.408-.07.142-.029.0413.0774-.0173.0826-.0456.156-.0943.2364-.1143.1492-.0371.4795.0547.674.2.1297.097.2419.2228.3477.3447.1034.1189.1832.225.2208.2745.4554.6001.886 1.219 1.3132 1.8389 1.2168 1.7656 2.3251 3.5968 3.4508 5.4198.4933.7989 1.7637.0669 1.2676-.7365-1.1116-1.8003-2.2052-3.6093-3.4052-5.3536-.4566-.6636-.916-1.3276-1.4065-1.9675-.548-.7149-1.1535-1.3418-2.1016-1.4576-1.1033-.1347-2.1391.6077-2.2086 1.7388-.0489.795.2814 1.5306.6542 2.2091.596 1.0853 1.1456 2.2067 1.8046 3.2561.8642 1.3762 1.7505 2.7423 2.6621 4.0878.5251.7748 1.7973.0453 1.2676-.7366zM19.5781 56.865c.0028.849.1474 1.6914.1847 2.5386.0169.3809.3257.7478.734.7296.3832-.0171.752-.3213.734-.7296-.0373-.8475-.182-1.6896-.1848-2.5386-.0012-.3815-.3367-.7473-.7339-.7296s-.7352.3207-.734.7296"/><path fill="#4C4C4C" d="M19.9173 57.6687c1.2138-.7506 2.0145-1.7805 2.5695-3.0767.6988-1.6319 1.2964-3.322 1.6315-5.067.156-.8119.2976-1.6312.3637-2.4559.0575-.7171.0293-1.5005-.5089-2.0526-.4759-.4879-1.304-.5177-1.9227-.3055-.7339.2517-1.1104 1.0491-1.4162 1.699-.3389.7196-.6202 1.4817-1.0826 2.1356-.2655.3754-.7829.7688-1.2349.3681-.4144-.3672-.4379-1.2229-.4284-1.7224.01-.518.2819-1.146.852-1.2497-.0823.0149.1308.0052.044-.0003-.0979-.0064.167.0352.141.0298.1293.0276.2578.0593.3865.089.356.083.7202.1721 1.0863.1952.6957.0438 1.3609-.3164 1.7337-.8952.3247-.5044.4783-1.2498.1862-1.8039-.2709-.5141-.8462-.86-1.3312-1.15-.6404-.3828-1.3273-.7381-2.0187-1.0178-.9043-.3657-1.8211-.2736-2.6835.1614-.7716.3894-1.3288 1.0266-1.8741 1.6741-.2725.3238-.5315.6603-.7554 1.0196-.1241.1994-.2412.4034-.3568.6077-.0582.1024-.1147.2055-.1738.307a7 7 0 0 1-.11.186q-.1566.2112.107-.0383h.3902q.3407.3506.2126.1809a4 4 0 0 1-.0698-.0979 4 4 0 0 1-.1199-.1824c-.4929-.7992-1.7633-.0668-1.2676.7366.1401.2271.2994.4986.5306.6417.3942.2441.8958.1782 1.2193-.1486.2676-.2703.4321-.6463.619-.971.1976-.3432.3994-.6876.6425-1.0016.7655-.9883 1.8517-2.2742 3.2411-1.6908.5746.2414 1.148.5514 1.6847.8685.2119.1252.4703.2836.6327.4192.0291.0243.2578.2414.1606.1371.0847.0906-.0535.003-.004-.0334-.0043.003.0092.0693.0074.0975-.0138.2423-.1829.57-.6022.5348-.4976-.042-1.1496-.3344-1.7214-.3071-.7426.0356-1.4279.5357-1.8172 1.1445-.4297.6722-.4832 1.4677-.3982 2.2377.0811.7342.2587 1.5051.7991 2.0501.545.55 1.3942.7199 2.1288.5141 1.5395-.4308 2.0322-2.3535 2.6652-3.6053.1135-.2241.2835-.5855.4376-.7211.0328-.0286.1309-.0477.0162-.0137a1.1 1.1 0 0 1 .1621-.0356c-.004.0007.297-.0088.2532-.0097.1707.0034.0367.0365.0159-.0052-.0159-.0322.0777.4949.0462.1037.0058.0727.0474.1459.0563.218.0422.3374-.0245.7177-.0612 1.0539-.2064 1.8905-.7199 3.7306-1.3957 5.5044-.2713.7116-.5416 1.4345-.9481 2.0832-.3679.5873-.8725 1.0366-1.4605 1.4002-.8007.4949-.0643 1.758.741 1.2601zM10.4369 58.7648c.2474.7326.4434 1.4956.5746 2.2574.0294.1699.1933.3523.3373.4359.1572.0915.3893.1304.5655.0736.1777-.0571.3489-.1666.4385-.3353.0973-.183.1089-.3587.074-.5621-.1312-.7618-.3272-1.5248-.5746-2.2574-.122-.3612-.5113-.6357-.9028-.5095-.3614.1161-.6434.5101-.5125.8974"/><path fill="#4C4C4C" d="M25.6858 73.0655c-.615-2.7484-1.2489-5.4925-1.8392-8.2464-.2853-1.3318-.5596-2.6663-.8165-4.0039-.1177-.6125-.1187-1.4141-.6132-1.8622-.3844-.3484-.8614-.3408-1.3434-.2994-1.8221.1559-3.6368.4851-5.4325.821-.9361.1751-1.8701.3618-2.7998.5682-.6376.1417-1.3049.2639-1.9214.4843-.352.1255-.6254.3422-.7881.6815-.1545.3216-.1178.6396-.086.9825.0627.6746.1193 1.3497.1731 2.0249.1129 1.4135.2141 2.8277.3291 4.241.2324 2.8505.5174 5.7056 1.0584 8.5169.4383 2.2766 1.0474 4.5933 2.271 6.5908 1.2976 2.1182 3.2701 3.6039 5.6717 4.2872 2.5508.726 5.2885.3822 7.6127-.8718 2.0927-1.129 3.9209-2.7329 5.7295-4.2547q.3074-.2585.6143-.5177c.3025-.255.264-.7694 0-1.0317-.2997-.2979-.7345-.2557-1.0379 0-3.0392 2.5605-6.32 5.7947-10.6033 5.5925-2.296-.1082-4.519-1.1512-5.9915-2.9098-1.3059-1.5598-1.9921-3.5673-2.4698-5.5108-1.2383-5.0377-1.3762-10.2764-1.8236-15.4208a134 134 0 0 0-.0847-.9357c-.0031-.031-.063-.4417-.1073-.0894-.0049.0392-.063-.0112-.0111.0113.0141.006.108-.0323.1178-.035.2764-.0763.5529-.1505.8315-.2186.7667-.1872 1.5392-.3511 2.3126-.5076 1.7245-.3484 3.6288-.6934 5.2707-.9096a28 28 0 0 1 1.0355-.1185c.1331-.0125.2661-.0238.3994-.0323.0098-.0006.1857.0006.1905-.0106-.0051.0119-.1837-.0836-.144-.1015-.0171.0076.0211.1322.0208.1456-.0034.2967.1214.6505.1774.9436q.089.4659.181.9314c.1251.635.2542 1.2695.386 1.903.5238 2.5173 1.0951 5.0244 1.6609 7.5323q.2276 1.0082.4535 2.017c.2052.9162 1.6208.5292 1.4159-.387M68.8799 48.7294c-2.3301.2736-4.5763 1.0011-6.4665 2.4153-1.0043.7514-1.8811 1.6284-2.6508 2.6152-.4355.5584-.8499 1.1387-1.2089 1.7492-.2325.3955-.4218.8147-.6652 1.2044-.1205.1927-.193.3-.3526.4605-.1174.1183-.2073.1891-.3743.2174.1214-.0207-.1826-.0207-.1037-.0061-.081-.0149-.1483-.0304-.2162-.0812-.1798-.1346-.2713-.445-.3015-.6532-.1517-1.0412.4877-2.2177.9715-3.119 1.0481-1.9528 2.5588-3.6427 4.4426-4.8325 1.9288-1.2181 4.1616-1.8963 6.4384-2.0383 2.2848-.1423 4.6347.0304 6.8167.7505 2.0339.6716 3.8147 1.8833 5.2166 3.4905.6933.7946 1.4477 1.7808 1.8294 2.7234a7.5 7.5 0 0 1 .2568.7539c.0679.2374.1352.5189.1337.6597-.0018.1587-.0162.3693-.107.5013-.1037.1505-.3022.1997-.3912.1997-.0783 0-.0666.0043-.1896-.0435.0462.018-.1364-.079-.1841-.1121-.1517-.1055-.3422-.3107-.4905-.4883-.2581-.3091-.4869-.6903-.7291-1.0323-.7789-1.0996-1.722-2.0507-2.7997-2.8609-2.0279-1.5239-4.531-2.4128-7.0687-2.5322-.6034-.0286-1.2064-.0067-1.8067.0586-.3939.0429-.734.3046-.734.7296 0 .3612.3373.7728.734.7296 2.6116-.2848 5.2328.359 7.4322 1.7835 1.1077.7174 2.1077 1.6413 2.8866 2.7052.6499.8874 1.2055 1.9793 2.2955 2.3973.5966.2289 1.2722.1195 1.7887-.2483.5823-.4147.8462-1.1206.8303-1.8203-.0266-1.1747-.6434-2.3447-1.2685-3.3053-1.3502-2.0748-3.1695-3.8455-5.4102-4.9469-2.22-1.091-4.6855-1.5312-7.1473-1.5841-2.6456-.0571-5.2512.3499-7.653 1.4883-2.2359 1.0598-4.1396 2.7272-5.5417 4.7505-.7337 1.0588-1.3658 2.2438-1.7784 3.4646-.4024 1.1914-.4345 3.018.8413 3.7218 1.2404.6843 2.3796-.1338 3.0236-1.1822.2676-.4357.4768-.9032.7462-1.3379.3762-.6062.7857-1.1944 1.2441-1.7425 1.5826-1.8923 3.6245-3.2402 6.0338-3.837a13.6 13.6 0 0 1 1.6768-.3067c.3935-.0462.7339-.3022.7339-.7296 0-.3584-.3376-.7761-.7339-.7296z"/><path fill="#4C4C4C" d="M67.2243 42.2497c.1031.083.2016.1703.2927.266.0462.0487.0884.0997.1321.1502-.1003-.1161.0104.0201.0443.0739q.0423.0666.0799.1359c.0165.0304.1003.1893.0513.0966-.0501-.0951.0254.0724.034.0985q.0265.0807.0471.1633c.0134.0541.0232.1088.0348.1632.0291.135-.0097-.1444-.0009-.0082.0074.1143.0144.2271.0104.3417a3 3 0 0 1-.0098.155c-.0021.0216-.0058.0435-.007.0654-.004.079.0129-.09.0116-.087-.0361.0827-.0367.197-.0602.2861a3.3 3.3 0 0 1-.0835.2614c-.0391.1113-.0245.0234.0183-.038-.0253.0362-.0394.0855-.0599.1253a1.9 1.9 0 0 1-.1034.1772c-.0125.0189-.0269.0368-.0388.0559-.0443.0712.0391-.0562.0401-.0504.003.0261-.1138.1267-.1312.1441a2 2 0 0 1-.1071.0994c-.0156.0137-.0593.0589-.0749.062-.0067.0012.1248-.0821.0508-.0414-.0997.0548-.1909.1238-.2933.1754-.022.011-.0444.0213-.0661.0323-.1253.0641.0392-.0131.0401-.0149-.0138.0228-.1125.0422-.1385.051a2.8 2.8 0 0 1-.3578.0946c-.0242.0045-.0487.0085-.0728.0134-.0716.0142-.0324-.0186 0 .0012l.0486-.0067a1.5 1.5 0 0 1-.0734.0073c-.0245.0018-.0489.0042-.0734.0058a2.8 2.8 0 0 1-.341.0012c-.0336-.0018-.2076-.0359-.0939-.0052.1199.0322-.0639-.0125-.0899-.0179a2.3 2.3 0 0 1-.3137-.0873c-.0214-.0076-.0426-.017-.0643-.024-.0905-.0295.1312.0684.0505.0198-.0379-.0228-.0807-.0395-.1196-.0614-.0452-.0253-.0877-.0544-.1318-.0812-.015-.0091-.0816-.048-.0046-.0003.0924.0571-.0556-.0471-.0639-.0541-.0966-.0836-.1783-.1775-.2667-.2693-.0562-.0584.0248.0334.0288.0395-.0153-.0222-.0315-.0438-.0468-.066a2 2 0 0 1-.1101-.1797c-.0122-.0225-.0232-.0459-.0358-.0687-.0685-.1237.0074.0314.0119.0353-.0263-.0231-.04-.1076-.0504-.141a2 2 0 0 1-.0447-.1666c-.0052-.024-.0091-.0484-.0146-.0721-.0312-.1325.0033.1155.0024.0249-.0012-.1057-.0131-.21-.0086-.3161.0007-.0122.0098-.1462.0111-.1462.0103.0012-.0288.1632-.0065.0483.0061-.0322.0113-.0644.0178-.0967a2.8 2.8 0 0 1 .0899-.3343c.0159-.0475.0339-.0937.0507-.1405.0068-.0185.0404-.0991.001-.0052-.0447.1067.0137-.0276.0244-.0498a3.5 3.5 0 0 1 .1542-.2864 4 4 0 0 1 .0932-.1477c.0199-.0301.1037-.1806.056-.0854-.0443.0887-.0089.0106.0168-.0165.0217-.0228.0425-.0462.0645-.0687.0447-.0449.0985-.0826.1416-.1285.0578-.0618-.0538.0495-.0526.0398.0022-.0189.0869-.0596.1016-.069a2.3 2.3 0 0 1 .1498-.0882c.0523-.028.1217-.0772.1817-.0875.0012 0-.138.0465-.0572.0261.041-.0103.0807-.0292.1211-.0419.1245-.0396.2511-.0602.3777-.0891.0859-.0195-.0698.0118-.0661.0088.0147-.0134.1058-.0091.13-.0106a2.5 2.5 0 0 1 .2086-.0034c.0305.0009.1617-.0103.1816.0116-.0183-.0198-.148-.0274-.0407-.0049.034.007.0679.0125.1019.0198.0673.0149.1342.0328.1997.0541.0238.0079.0489.0197.0734.0255.088.0198-.1517-.0778-.0083-.0039.1248.0644.2425.1334.3545.2188.3058.2335.8348.0566 1.0043-.2617.2055-.3867.063-.7487-.2634-.9983-1.0801-.8253-2.7055-.6138-3.7162.2067-.4774.3873-.7942.9931-.9903 1.564-.1991.5801-.24 1.2443-.0617 1.8346.3899 1.2932 1.6559 2.1091 2.9905 2.0587.6126-.0231 1.2487-.1906 1.7603-.5351.5083-.342.8575-.7864 1.0866-1.3469.5211-1.2762.1614-2.7968-.9205-3.668-.2979-.2399-.7508-.311-1.038 0-.2458.2663-.3186.7752 0 1.0317z"/><path fill="#4C4C4C" d="M72.2087 41.9869c.1031.083.2015.1703.2927.266.0461.0487.0883.0997.1321.1502-.1003-.1161.0104.0201.0443.0739q.0423.0665.0798.1358c.0166.0304.1003.1894.0514.0967-.0501-.0951.0254.0724.034.0985q.0265.0807.0471.1632c.0134.0542.0232.1089.0348.1633.0291.135-.0098-.1444-.0009-.0082.0073.1143.0144.2271.0104.3417a3 3 0 0 1-.0098.155c-.0021.0216-.0058.0435-.007.0654-.004.079.0128-.09.0116-.087-.0361.0827-.0367.197-.0602.2861a3.3 3.3 0 0 1-.0835.2614c-.0392.1113-.0245.0234.0183-.038-.0254.0362-.0394.0854-.0599.1253a1.9 1.9 0 0 1-.1034.1772c-.0125.0188-.0269.0368-.0388.0559-.0444.0712.0391-.0562.04-.0504.0031.0261-.1137.1267-.1312.1441a2 2 0 0 1-.107.0994c-.0156.0136-.0593.0589-.0749.062-.0067.0012.1248-.0821.0507-.0414-.0996.0547-.1908.1238-.2932.1754-.022.011-.0444.0213-.0661.0323-.1254.0641.0392-.0131.0401-.0149-.0138.0228-.1126.0422-.1386.051a2.8 2.8 0 0 1-.3578.0946c-.0241.0045-.0486.0085-.0727.0133-.0716.0143-.0325-.0185 0 .0013l.0486-.0067a2 2 0 0 1-.0734.0073c-.0245.0018-.049.0042-.0734.0057a2.9 2.9 0 0 1-.341.0013c-.0336-.0019-.2077-.0359-.0939-.0052.1199.0322-.0639-.0125-.0899-.0179a2.3 2.3 0 0 1-.3138-.0873c-.0214-.0076-.0425-.017-.0642-.024-.0905-.0295.1312.0684.0505.0198-.0379-.0228-.0808-.0396-.1196-.0615-.0453-.0252-.0878-.0544-.1318-.0811-.015-.0091-.0817-.048-.0046-.0003.0924.0571-.0557-.0471-.0639-.0541-.0967-.0836-.1783-.1776-.2667-.2694-.0563-.0583.0248.0335.0288.0396-.0153-.0222-.0315-.0438-.0468-.066a2 2 0 0 1-.1101-.1797c-.0123-.0225-.0233-.0459-.0358-.0687-.0685-.1237.0073.0313.0119.0353-.0263-.0231-.04-.1076-.0504-.1411a2 2 0 0 1-.0447-.1666c-.0052-.024-.0092-.0483-.0147-.072-.0312-.1325.0034.1155.0025.0249-.0012-.1058-.0132-.21-.0086-.3161.0006-.0122.0098-.1462.011-.1462.0104.0012-.0287.1632-.0064.0483.0061-.0322.0113-.0645.0177-.0967a2.8 2.8 0 0 1 .09-.3344c.0159-.0474.0339-.0936.0507-.1404.0067-.0186.0404-.0991.0009-.0052-.0446.1067.0138-.0276.0245-.0498a3.5 3.5 0 0 1 .1541-.2864q.0448-.0748.0933-.1477c.0199-.0301.1037-.1806.056-.0855-.0444.0888-.0089.0107.0168-.0164.0217-.0228.0425-.0462.0645-.0687.0447-.045.0985-.0827.1416-.1286.0578-.0617-.0538.0496-.0526.0399.0022-.0189.0869-.0596.1015-.069a2.2 2.2 0 0 1 .1499-.0882c.0523-.028.1217-.0772.1817-.0876.0012 0-.138.0466-.0572.0262.0409-.0103.0807-.0292.1211-.042.1244-.0395.251-.0602.3776-.089.086-.0195-.0697.0118-.066.0088.0147-.0134.1058-.0091.13-.0107a2.5 2.5 0 0 1 .2085-.0033c.0306.0009.1618-.0103.1817.0116-.0184-.0198-.148-.0274-.0407-.0049.034.007.0679.0125.1018.0198.0673.0148.1343.0328.1997.0541.0239.0079.049.0197.0734.0255.0881.0198-.1516-.0778-.0082-.004.1248.0645.2425.1335.3544.2189.3058.2335.8349.0566 1.0043-.2617.2055-.3867.063-.7487-.2633-.9983-1.0801-.8254-2.7055-.6138-3.7163.2067-.4773.3873-.7942.9931-.9902 1.564-.1991.58-.2401 1.2443-.0618 1.8346.3899 1.2932 1.656 2.1091 2.9906 2.0586.6126-.0231 1.2487-.1906 1.7603-.535.5083-.342.8575-.7864 1.0866-1.347.5211-1.2761.1614-2.7967-.9206-3.6679-.2978-.2399-.7507-.311-1.0379 0-.2459.2663-.3187.7752 0 1.0317zM81.6867 56.6668c.8282 2.0164 1.7151 4.4343.8019 6.5756-.1545.3624-.1095.7816.2633.9983.308.1791.8486.1031 1.0043-.2617 1.0967-2.5715.3609-5.2287-.6538-7.6998-.1499-.3645-.4881-.6229-.9028-.5095-.3474.0948-.6633.5305-.5126.8974zM56.3853 57.7646c-.3527.6655-.4924 1.3865-.5875 2.1252-.0945.7329-.1698 1.4835-.1603 2.2225.0202 1.589.4961 3.0794 1.4881 4.3288 1.7355 2.1857 4.5466 3.1637 7.2341 3.5072.9765.1249 1.96.183 2.9444.1854a29 29 0 0 0 1.5502-.0392c.4621-.0237.9321-.097 1.3945-.097.9447 0 .9462-1.4591 0-1.4591-.7569 0-1.5208.1131-2.2798.1295-.812.0176-1.6248.0009-2.4346-.0596-1.3349-.1-2.6582-.3171-3.9157-.7852-2.2264-.829-4.2172-2.5396-4.4744-5.0107-.0811-.7791-.0165-1.5592.0572-2.3359.0627-.6618.1358-1.3792.4517-1.9753.4397-.8302-.8267-1.5686-1.2676-.7366zM76.9185 74.9147c.1337.2517.2704.504.3774.7682.0762.1882.1419.3873.1838.5858.0116.0544.019.1094.0291.1639q-.0015.2037.0137.0632.0184-.1101-.0055.0015c-.1186.2423-.1933.5065-.3189.75-.1511.293-.3215.5745-.4973.8533-.6367 1.0092-1.2661 2.1002-2.1481 2.8988-.4529.4101-1.0841.7931-1.711.5554-.6019-.2283-.8936-.8758-1.1383-1.4193-.3006-.6676-.537-1.3634-.7302-2.0687-.1949-.7107-.4163-1.4725-.4946-2.2012-.0801-.7445-.025-1.2451.253-1.9267.2412-.5913.5746-1.2263 1.041-1.6464.7015-.632-.3392-1.6613-1.038-1.0318-.5651.5089-.9621 1.2355-1.2636 1.9219-.3217.7314-.4808 1.4187-.4768 2.2176.0049.9147.2477 1.8258.4722 2.7086s.5232 1.7446.8893 2.5824c.3517.8046.7936 1.5926 1.5841 2.0464.8692.4989 1.897.4199 2.7576-.0513 1.3875-.7597 2.2704-2.2894 3.097-3.5768.4413-.687.934-1.4263 1.1379-2.2246.2315-.9065-.3345-1.9313-.7465-2.7071-.441-.8308-1.7086-.0942-1.2676.7366z"/><path fill="#4C4C4C" d="M74.4284 75.6933c.9542.0948 1.8389.0562 2.7233-.3377 1.0279-.4578 1.9643-1.1449 2.8206-1.8641.8777-.7375 1.7948-1.5431 2.5092-2.4417.3609-.4538.6453-.9451.7235-1.5275.0413-.3074.0141-.5955-.0284-.902-.029-.2097-.0979-.4696-.0526-.68.0428-.1976.2223-.3222.3532-.4666.2052-.2265.3792-.4721.5046-.7506.237-.5262.3291-1.1095.3019-1.6844-.0526-1.1184-.5737-2.0136-1.3282-2.8162-.7976-.8484-1.6633-1.6184-2.6184-2.2878-.8988-.6302-1.8753-1.2829-2.9508-1.565-1.0034-.2632-2.4612-.2155-3.1031.75-.6744 1.0138-.0643 2.3787.9095 2.9402l.7409-1.2601c-.5492-.2647-1.1477-.3842-1.748-.4714-.6122-.0891-1.2162-.1919-1.8114.0373-.6611.2548-1.1994.7512-1.3223 1.4692-.1398.8172.2251 1.5635.7343 2.1803l.8893-1.1458c-.5355-.2991-1.1432-.49-1.7576-.3362-.5033.1262-1.0211.4739-1.263.9381-.5657 1.0856.0994 2.4034.9374 3.1275l.8893-1.1458c-.7569-.5234-1.7609-.1571-2.2444.5484s-.4774 1.5692-.1973 2.3447c.3058.8476.7529 1.6027 1.2187 2.3706.4927.8122 1.0043 1.6126 1.5646 2.3808.2324.3186.6382.4745 1.0043.2618.3165-.184.4972-.6776.2633-.9984-.8242-1.1296-1.6352-2.3413-2.2784-3.5828-.2061-.3976-.5134-1.0181-.5168-1.4069-.0015-.1805.1468-.8648.4453-.6581.6798.4703 1.5184-.6025.8893-1.1458-.345-.2982-.8416-.8286-.6967-1.3472.1254-.4478.7147-.2505 1.001-.0906.7624.4259 1.4015-.5256.8893-1.1458-.1902-.2304-.4395-.6451-.3159-.9573.0911-.2295.4226-.3444.6245-.3541.3361-.0161.7043.0638 1.0336.1228.1924.0344.3841.0733.5734.1216.1685.0429.363.1.4526.1432.8407.4052 1.5683-.7828.741-1.2601-.2275-.1313-.4147-.348-.4581-.6171a.49.49 0 0 1 .0236-.2514c-.0009.0025-.093.1058.0165-.0152-.0551.0608.1266-.0723.1691-.0924.6196-.2903 1.3358-.1 1.9297.1697 1.7034.7739 3.2701 2.0753 4.4943 3.4697.519.5913.7865 1.2737.6988 2.0659-.0373.3353-.1462.6545-.3682.9126-.3844.4469-.7141.7865-.7756 1.4005-.0434.4332.0844.8506.0985 1.2813.0128.4007-.1841.7345-.434 1.036-.611.7378-1.3645 1.4024-2.0838 2.0334-.7954.6983-1.6615 1.3288-2.6141 1.8-.7138.3529-1.3887.3219-2.2016.241-.3951-.0392-.7339.3636-.7339.7296 0 .4271.3379.6901.7339.7296z"/><path fill="#4C4C4C" d="M70.741 66.713c.0361.0216.0703.0456.1052.069.1397.094-.1465-.1204.0009 0 .115.094.2272.1912.3376.2906.286.2578.5618.5272.8334.7998.5874.5901 1.1605 1.1978 1.6948 1.8361q.0923.1102.1823.2223c.0189.0237.1229.1562.0336.0416-.0878-.1122.0049.0073.0248.0344.0758.1021.1504.2064.2116.3179.1838.3356.678.4709 1.0043.2618.3422-.2195.46-.6393.2633-.9983-.1492-.2721-.359-.5168-.5538-.7564-.2538-.3125-.5214-.614-.793-.9113-.5743-.629-1.1682-1.2449-1.7976-1.82-.2508-.2292-.5128-.4736-.8061-.6475-.33-.1958-.8202-.0845-1.0043.2617-.1872.3523-.089.7892.2633.9983zM71.9937 64.1719c1.0707.6283 2.1269 1.2941 3.1374 2.0148q.0594.0424.118.086c.0918.0681-.1339-.1112.0309.025.0939.0775.1887.1538.2813.2325.2098.1791.4147.3639.616.5527.433.4058.8513.8281 1.2437 1.2728.2615.2964.7707.2657 1.038 0 .296-.2943.262-.7348 0-1.0318-.7603-.8621-1.608-1.6874-2.5411-2.3644-1.0186-.739-2.0976-1.4105-3.1832-2.0477-.8153-.4785-1.5548.7825-.741 1.2601M75.1917 62.0604c.3379.1864.656.4098.9685.6348.1982.1425.3933.2888.5875.4362-.1379-.1046.0376.0292.0648.0502a32.0101 32.0101 0 0 1 .4826.3821c.7783.6274 1.5585 1.278 2.2337 2.0164.259.2833.7786.2808 1.0379 0 .2796-.3028.2762-.7296 0-1.0318-.689-.7536-1.4868-1.4166-2.282-2.0553-.7449-.5985-1.5107-1.2287-2.352-1.6926-.3358-.1851-.8162-.0918-1.0043.2617-.1823.3432-.0954.8004.2633.9983M49.7892 35.0678c.863.4529 1.792.6435 2.7679.6371.9967-.0064 1.9988-.2034 2.7967-.8214.3043-.2356.2676-.7876 0-1.0317-.3226-.2946-.7132-.2514-1.0379 0 .2235-.173.0535-.0432-.004-.0067a2.3 2.3 0 0 1-.1707.0982c-.0302.0158-.0611.0298-.0914.0453-.1052.0538-.0141-.0307.033-.011-.0312-.013-.1984.0733-.2354.0852-.2147.0687-.4358.1161-.6585.1492.1098-.0164-.0104 0-.0581.0049a5 5 0 0 1-.1942.0158 6.9944 6.9944 0 0 1-.8875-.0018 6 6 0 0 1-.192-.0158c-.0113-.0013-.2422-.0362-.0881-.0095-.2076-.0361-.4128-.0757-.6153-.1359-.0862-.0255-.1703-.0562-.2553-.0854-.1863-.0632.1122.0572-.056-.0216a8 8 0 0 1-.3126-.155c-.3394-.1781-.8134-.0967-1.0043.2617-.1792.3372-.099.8081.2634.9984zM52.1742 28.5964c.1202.456.2358.919.3046 1.3859l-.0263-.1939a.83.83 0 0 1 .0052.1912l.0263-.1939a.46.46 0 0 1-.0211.086l.074-.1742a.34.34 0 0 1-.0306.0553l.1147-.1477a.3.3 0 0 1-.0455.0447l.1486-.114a.9.9 0 0 1-.1104.058l.1752-.0735a.82.82 0 0 1-.1862.0541l.1951-.0262a.74.74 0 0 1-.1746-.0003l.1951.0262c-.0658-.0091-.1306-.0249-.1964-.0338a.56.56 0 0 0-.2926-.013.544.544 0 0 0-.2728.0866c-.1523.0885-.2976.262-.3373.4359-.0428.1867-.0337.3964.074.5621.0954.1471.2553.3107.4385.3353.1517.0204.2988.0587.4529.0654.2373.0103.4578-.062.6698-.1587.2624-.1195.4673-.3551.537-.6357.059-.2377.0339-.4444-.0067-.6824-.0759-.4466-.1799-.8889-.2952-1.3269-.0972-.3691-.5287-.6299-.9027-.5095-.3823.1228-.6172.5016-.5126.897M44.8212 24.6662c-.2328.7521-.0811 2.4821 1.3523 2.6295 1.8945-.0112 1.9951-2.103 1.3575-3.0864-.522-.8053-2.0575-1.14-2.7098.4569M59.9927 24.6665c.2328.7521.0811 2.4821-1.3523 2.6292-1.8945-.0112-1.9954-2.103-1.3578-3.0864.522-.8053 2.0578-1.14 2.7101.4572M29.4672 61.3277c.5322 4.0139 1.1313 8.0141 1.8625 11.997.5611 3.0554 1.1945 6.1564 1.4593 9.1881.1667 1.9079-.1073 3.8586-.2728 5.7576-.0342.3931.3618.7296.734.7296.4257 0 .6997-.3353.7339-.7296.1536-1.7604.415-3.5783.304-5.3487-.092-1.4674-.3324-2.9299-.5639-4.3802-.5046-3.1588-1.1413-6.2942-1.6584-9.4508-.423-2.5806-.7869-5.1709-1.1306-7.763-.0517-.3907-.3004-.7296-.734-.7296-.3563 0-.7863.3362-.734.7296"/></svg>