<svg xmlns="http://www.w3.org/2000/svg" width="99" height="78" fill="none" viewBox="0 0 99 78"><path fill="#FCFCFC" d="M0 8c0-1.6569 1.3432-3 3-3h93c1.6569 0 3 1.3431 3 3v67c0 1.6569-1.3431 3-3 3H3c-1.6569 0-3-1.3431-3-3z"/><path fill="#4C4C4C" d="M96 76.75V78H3v-1.25zM97.75 75V8c0-.9665-.7835-1.75-1.75-1.75H3c-.9665 0-1.75.7835-1.75 1.75v67c0 .9665.7835 1.75 1.75 1.75V78l-.1543-.0039C1.2606 77.9158 0 76.6051 0 75V8c0-1.6569 1.3432-3 3-3h93c1.6569 0 3 1.3431 3 3v67l-.0039.1543c-.0777 1.534-1.3078 2.7641-2.8418 2.8418L96 78v-1.25c.9665 0 1.75-.7835 1.75-1.75"/><path fill="#FF6464" d="M12 28h10v37H12z"/><path fill="#3D8DCC" d="M78 28h9v37h-9z"/><path fill="#4C4C4C" d="M86 64.75V66H13v-1.25zm.75-.75V29a.75.75 0 0 0-.75-.75H13a.75.75 0 0 0-.75.75v35a.75.75 0 0 0 .75.75V66c-1.0357 0-1.887-.7872-1.9893-1.7959L11 64V29c0-1.0357.7872-1.887 1.7959-1.9893L13 27h73l.2041.0107C87.2128 27.113 88 27.9643 88 29v35c0 1.1046-.8954 2-2 2v-1.25a.75.75 0 0 0 .75-.75"/><path fill="#FCFCFC" d="M75 3.5C75 1.567 76.567 0 78.5 0S82 1.567 82 3.5v5c0 1.933-1.567 3.5-3.5 3.5S75 10.433 75 8.5z"/><path fill="#4C4C4C" d="M80.75 8.5v-5c0-1.2426-1.0074-2.25-2.25-2.25s-2.25 1.0074-2.25 2.25v5c0 1.2426 1.0074 2.25 2.25 2.25V12c-1.933 0-3.5-1.567-3.5-3.5v-5C75 1.567 76.567 0 78.5 0S82 1.567 82 3.5v5l-.0049.1797C81.9016 10.5292 80.3727 12 78.5 12v-1.25c1.2426 0 2.25-1.0074 2.25-2.25"/><path fill="#FCFCFC" d="M17 3.5C17 1.567 18.567 0 20.5 0S24 1.567 24 3.5v5c0 1.933-1.567 3.5-3.5 3.5S17 10.433 17 8.5z"/><path fill="#4C4C4C" d="M22.75 8.5v-5c0-1.2426-1.0074-2.25-2.25-2.25s-2.25 1.0074-2.25 2.25v5c0 1.2426 1.0074 2.25 2.25 2.25V12c-1.933 0-3.5-1.567-3.5-3.5v-5C17 1.567 18.567 0 20.5 0S24 1.567 24 3.5v5l-.0049.1797C23.9016 10.5292 22.3727 12 20.5 12v-1.25c1.2426 0 2.25-1.0074 2.25-2.25M63.375 16.75a.625.625 0 1 1 0 1.25h-27.75a.625.625 0 1 1 0-1.25zM23.25 65.375a.625.625 0 1 1-1.25 0v-37.75a.625.625 0 1 1 1.25 0zM34.25 65.375a.625.625 0 1 1-1.25 0v-37.75a.625.625 0 1 1 1.25 0zM45.25 65.375a.625.625 0 1 1-1.25 0v-37.75a.625.625 0 1 1 1.25 0zM56.25 65.375a.625.625 0 1 1-1.25 0v-37.75a.625.625 0 1 1 1.25 0zM67.25 65.375a.625.625 0 1 1-1.25 0v-37.75a.625.625 0 1 1 1.25 0zM78.25 65.375a.625.625 0 1 1-1.25 0v-37.75a.625.625 0 1 1 1.25 0z"/><path fill="#4C4C4C" d="M88 35.75V37H11v-1.25zM88 45.75V47H11v-1.25zM88 55.75V57H11v-1.25z"/><path fill="#FCFCFC" d="M72 41h20v20H72z"/><path fill="#3D8DCC" d="M76 45h12v12H76z"/><path fill="#4C4C4C" d="M88 45H76v12h12zm1.5 13.5h-15v-15h15z"/><path fill="#FCFCFC" d="m86.5117 48.4004-5.0342 6.04-3.9052-3.6582.8554-.9121 2.9366 2.752 4.1865-5.0225z"/><path fill="#3D8DCC" d="M90.3969 41.9996a.625.625 0 0 1-1.118-.559l1.4407-2.8816a.625.625 0 0 1 1.1181.559zM92.118 43.8383a.625.625 0 0 1-.559-1.118l2.8816-1.4408a.625.625 0 1 1 .559 1.1181z"/></svg>