<svg xmlns="http://www.w3.org/2000/svg" width="331" height="203" fill="none" viewBox="0 0 331 203"><path fill="#FCFCFC" fill-rule="evenodd" d="M162.565 179.539c4.984-.03 9.793-1.351 12.967-3.983 3.243-2.69 4.683-6.268 3.482-9.658-1.183-3.338-4.926-5.91-9.498-7.317-4.415-1.36-9.45-1.311-13.799.144-4.32 1.445-7.357 4.147-8.56 7.336-1.252 3.316-.934 6.959 2.149 9.656 3.111 2.721 8.215 3.853 13.259 3.822" clip-rule="evenodd"/><path fill="#4C4C4C" d="M162.574 180.539c5.122-.031 10.186-1.384 13.597-4.212 3.45-2.861 5.172-6.852 3.786-10.763-1.342-3.787-5.468-6.499-10.145-7.939-4.612-1.42-9.861-1.37-14.41.152-4.526 1.514-7.843 4.391-9.178 7.93-1.362 3.609-1.043 7.728 2.426 10.762 3.382 2.959 8.783 4.102 13.924 4.07m-.013-2c-4.949.031-9.756-1.091-12.596-3.576-2.696-2.358-3.013-5.524-1.872-8.549 1.071-2.838 3.829-5.364 7.942-6.74 4.149-1.388 8.971-1.436 13.189-.138 4.466 1.375 7.827 3.809 8.85 6.697 1.017 2.869-.142 6.035-3.178 8.553-2.937 2.436-7.492 3.724-12.335 3.753"/><path fill="#FCFCFC" fill-rule="evenodd" d="M171.886 195.536c-.059-1.901-1.073-3.717-3.05-4.891-2.019-1.199-4.684-1.699-7.191-1.193-2.468.498-4.35 1.962-5.362 3.725-.976 1.703-.904 3.623.207 5.262 1.103 1.628 3.13 2.748 5.505 3.163 2.47.431 5.171.259 7.149-.955 1.997-1.224 2.801-3.187 2.742-5.111" clip-rule="evenodd"/><path fill="#4C4C4C" d="M172.882 195.505c-.07-2.261-1.284-4.38-3.537-5.719-2.23-1.325-5.147-1.869-7.899-1.315-2.745.554-4.874 2.191-6.031 4.208-1.168 2.037-1.077 4.368.247 6.321 1.299 1.915 3.605 3.141 6.16 3.587 2.594.452 5.575.303 7.842-1.087 2.342-1.436 3.287-3.76 3.218-5.995m-1.996.062c.05 1.613-.612 3.214-2.265 4.227-1.689 1.037-4.111 1.233-6.457.823-2.194-.383-3.94-1.399-4.849-2.739-.897-1.324-.952-2.834-.167-4.203.866-1.51 2.502-2.801 4.692-3.243 2.263-.456 4.677-.001 6.485 1.073 1.699 1.009 2.514 2.522 2.561 4.062"/><path fill="#FCFCFC" d="M.5477 74.9172C4.694 34.6221 36.1302 1.9 76.567.3304 83.8784.0467 90.9901-.0762 97.4418.0487 130.992.6983 155.658 8.3905 189.209 8.977c24.4.4266 44.724-.3869 69.027-2.9454q1.206-.1269 2.382-.2466c40.379-4.109 66.143 24.1392 69.528 64.6262l.589 7.0539a76.14 76.14 0 0 1 0 12.6875c-3.354 40.1184-37.402 70.9714-77.451 67.2794-4.261-.393-8.519-.82-12.714-1.285-39.29-4.351-57.064-9.79-91.209-9.79s-45.371 3.807-69.6932 6.527c-.5137.057-1.0377.116-1.5715.176-38.6897 4.367-73.7416-23.362-77.731-62.1314a69.56 69.56 0 0 1 0-14.2395z"/><path fill="#4C4C4C" d="M76.5672.33C83.8785.0462 90.99-.076 97.4416.0488c33.5504.6496 58.2164 8.3414 91.7674 8.928 23.637.4131 43.45-.3374 66.76-2.7108l2.267-.2343c.804-.0846 1.598-.1672 2.382-.247 40.38-4.109 66.143 24.14 69.528 64.6269l.589 7.0531a76.14 76.14 0 0 1 0 12.6883l-.084.9384c-3.772 39.3476-37.1 69.5246-76.429 66.4206l-.937-.08c-3.196-.294-6.391-.609-9.558-.943l-3.157-.342c-39.29-4.351-57.064-9.79-91.209-9.79s-45.371 3.807-69.6927 6.527l-1.5715.176-.9062.097C38.8612 156.994 4.3236 129.395.3655 90.9283A69.56 69.56 0 0 1 .2796 77.577l.0859-.8876.1824-1.7723C4.6619 34.9368 35.6408 2.4118 75.621.373zm20.8364 1.7186c-6.4015-.124-13.4729-.0025-20.7593.2803C37.3079 3.8559 6.5907 35.7076 2.5349 75.122l-.1824 1.7723a67.56 67.56 0 0 0 0 13.8289c3.8733 37.6417 37.9129 64.5947 75.5199 60.3497.5344-.06 1.0592-.119 1.5735-.176 24.0861-2.693 35.6281-6.54 69.9151-6.54 34.272 0 52.455 5.487 91.429 9.803 4.181.463 8.427.888 12.677 1.28 38.856 3.582 72.008-26.353 75.277-65.454a74.1 74.1 0 0 0 0-12.3543l-.589-7.0541c-1.662-19.8777-8.802-36.5695-20.294-47.7701-11.456-11.1657-27.394-17.032-47.041-15.0328-.782.0796-1.574.1617-2.375.246-24.388 2.5675-44.794 3.3837-69.271 2.9558-16.915-.2957-31.584-2.384-46.131-4.4605-14.563-2.0789-29.003-4.1453-45.6394-4.4674"/></svg>