<svg xmlns="http://www.w3.org/2000/svg" width="56" height="58" fill="none" viewBox="0 0 56 58"><path fill="#FCFCFC" d="m54.2531 54.2522-44.773-1.1849s-.152.556 2.9275 1.9506 9.2989 2.1651 19.2227 2.383 15.1898.2954 19.1335-1.0024 3.4893-2.1463 3.4893-2.1463M44.47 17.7047c.3681-.3197.9061-.4662 1.4041-.3794.4979.0866.946.4008 1.1653.82.1548.294.1996.6258.2221.9491.0804 1.2739-.1978 2.5639-.796 3.7094-.2914.5581-.6666 1.0903-1.1807 1.49-.3946.3027-.7881.4708-1.347.2852 0 0-.0729-.0241-.1998-.0657-.1347.487-.3072.91-.3849 1.117-.4441 1.0619-2.9955 4.9649-6.0394 5.991.0198.1837.0475.3935.0866.6489.1261.8695.347 1.8556 1.4754 2.5189.0676.0232 1.2264.6103 1.5762.7826-1.9518 1.301-5.0543 2.2611-8.252 2.1977-3.1955-.0824-6.2499-1.1816-8.1386-2.5703.3579-.1553 1.5391-.6887 1.6113-.7087 1.1535-.6114 1.4192-1.5864 1.5889-2.4491.0605-.3052.1022-.5401.1247-.742-1.2705-.6459-2.4363-1.6297-3.4567-2.8329-1.2302-1.4506-1.9622-2.9901-2.3874-4.3129l-.2991.0742c-.6405.1583-1.1188-.1949-1.4992-.5155-.4954-.4227-.8459-.9713-1.1115-1.5421-.5453-1.1716-.7642-2.4729-.6258-3.7418.0371-.3219.097-.6514.2653-.938.2382-.4088.7001-.7021 1.2015-.7661.5014-.0639 1.0322.1068 1.3852.4429 0 0-2.1841-11.347 12.0638-11.0227C47.1702 6.4688 44.47 17.7047 44.47 17.7047"/><path fill="#FCFCFC" d="M53.2094 44.1067c1.3237 3.223 1.6129 6.9549 1.8394 10.5097L8.6076 53.5589c.5175-4.7238 1.16-9.7571 4.1523-13.3689 1.0317-1.2454 2.3135-2.2683 3.7398-2.9838 1.0944-.5491 2.2695-1.0473 3.4336-1.4118 1.2831-.4018 2.5723-.6403 3.903-.7739 1.8636 1.4703 5.0375 2.6584 8.3646 2.7441 3.3391.0661 6.5746-.9837 8.5021-2.3737 1.332.1872 2.5899.5441 3.8437.9992 1.1496.4172 2.271.9326 3.3426 1.531 1.3963.7798 2.6339 1.86 3.6106 3.1512.7095.9378 1.2671 1.9579 1.7093 3.0346z"/><path fill="#3C3C3C" d="M47.1021 57.07c.1136-3.5718.2285-7.1438.3662-10.7144.033-.8545-.9788-.8775-1.0119-.0231-.1376 3.5707-.2524 7.1427-.3662 10.7144-.0271.8546.9847.8782 1.0119.0231M24.8045 34.4327c-2.0289.1337-4.0262.4822-5.9392 1.1905-1.82.6738-3.594 1.5145-5.077 2.7928-2.7043 2.3312-4.089 5.7294-4.8156 9.1623-.4166 1.9685-.6522 3.9706-.8715 5.9694-.03.2742.238.5157.4944.5215.2934.0067.4875-.2234.5176-.4985.365-3.3296.7648-6.7376 2.0946-9.8413.6455-1.5068 1.5512-2.9141 2.7202-4.0614 1.3046-1.2804 2.8806-2.1205 4.5541-2.8097 2.0131-.8291 4.1339-1.2631 6.2991-1.4055.2727-.0181.511-.2057.5177-.4985.0058-.2572-.22-.5396-.4944-.5216"/><path fill="#3C3C3C" d="M39.6733 35.7913c1.8851.142 3.7212.6647 5.4708 1.3713 1.6832.6798 3.341 1.5384 4.6745 2.7948 2.4827 2.3387 3.6105 5.6123 4.1554 8.9162.3128 1.8958.4476 3.8148.57 5.7309.0176.2749.2039.5149.4944.5216.2553.0058.5354-.2219.5176-.4985-.2261-3.5391-.4847-7.168-1.7941-10.4969-.6543-1.6636-1.5847-3.2171-2.829-4.5011-1.3533-1.3967-3.006-2.3507-4.7653-3.1336-2.047-.9109-4.2334-1.5565-6.4712-1.7248-.6501-.049-.6713.9713-.0231 1.0201"/><path fill="#3C3C3C" d="M23.3269 35.2594c1.8516 1.5154 4.2064 2.3895 6.5416 2.7818 2.6416.4437 5.3753.2329 7.9145-.638 1.2114-.4155 2.3653-.9694 3.3962-1.7373.2199-.164.1884-.5398.0164-.7213-.2084-.2199-.4949-.1807-.7155-.0163-1.7539 1.3066-4.0255 1.9614-6.1626 2.2232-2.4652.3019-4.992-.0501-7.3055-.9479-1.044-.4052-2.0811-.9355-2.9533-1.6492-.2118-.1734-.5003-.2235-.7155-.0162-.1784.1717-.2296.5467-.0163.7212"/><path fill="#3C3C3C" d="M24.0897 35.7355c.5551-.2159 1.0918-.4814 1.6378-.7185.043-.0186.0864-.0363.1293-.0556.0769-.0344-.1254.0486-.0703.0278s.1094-.0418.1619-.068c.2556-.1281.499-.3118.7084-.5058.3749-.347.6403-.783.8268-1.2567.1888-.4794.2819-1.001.3618-1.5081.0429-.2719-.0526-.5489-.339-.6354-.2342-.0706-.5872.0681-.6304.342-.0669.4243-.1452.8548-.2757 1.2647a4.6 4.6 0 0 1-.0948.2656 3 3 0 0 1-.0273.0659c.0038-.0089.0304-.0648.0049-.0116a3 3 0 0 1-.0762.1509 2.8 2.8 0 0 1-.169.2732c-.0757.1074-.0642.0932-.1644.198-.1695.1778-.3041.2829-.5047.4019-.0203.0121-.1216.0895-.0523.0394.0128-.0093.0414-.0146.0235-.0058-.0448.0221-.0945.0369-.1407.0559a7 7 0 0 0-.1058.0445c-.272.1167-.5418.2388-.8122.3594-.1558.0693-.3114.1389-.4673.2079q-.0911.0404-.1824.0805c-.0526.0228-.2082.0837.0116-.0019-.2549.099-.4399.3287-.3676.6193.0601.2422.3575.4701.6142.3703zM36.8244 31.7471c.1082.969.2664 1.9375.8911 2.7182.172.215.3796.3973.5992.5615.1304.0976.2663.1885.4167.2513.0535.0222-.102-.0489-.0895-.0412.0181.0113.0396.0186.0588.0279.2687.1316.5362.2657.8038.4.2577.1292.5129.2668.7753.3861.2489.1132.5403.0882.6965-.1672.1291-.2112.0849-.5881-.1656-.702-.4895-.2225-.9636-.4829-1.4458-.7208-.1016-.0501-.2337-.0916-.3263-.1539.005.0033.0721.0384-.0092-.0221-.0515-.0382-.1068-.0709-.1587-.1086-.0923-.0676-.1495-.1195-.2384-.2089-.1759-.1775-.2436-.2699-.3558-.4725a3.3 3.3 0 0 1-.1317-.2717c-.0367-.0838.0047.0252-.0229-.0614-.0173-.0542-.0363-.1077-.0526-.1623-.1452-.4847-.2066-.9996-.2627-1.5011-.0306-.2742-.3744-.431-.6141-.3704-.2943.0743-.3985.3445-.3677.6193z"/><path fill="#93C9F5" d="M19.7403 11.5511c.7142-4.2564 3.2488-6.9243 5.4935-8.4703C27.3716 1.6084 30.0201.761 33.1149.8315c1.5677.0357 3.1298.3073 4.6018.8687.6658.254 1.3108.5648 1.9284.925.8472.4943 1.7796 1.1593 2.1969 1.5422.2616.2398.6452.6332.8972.9021.626.6676 1.1815 1.4053 1.6463 2.2007 1.1093 1.8977 1.6546 4.0818 1.7002 6.2902.0287 1.3929-.1052 2.5801-.3099 3.664l-.0167.0883c-.4636-.0493-.9475.0983-1.2869.3932-.5487.2798-1.1242.346-1.5241.1213-.1497-.084-.5144-.3066-.5108-.9169-.2238-1.8947-1.0035-3.7486-2.2574-5.3777-.4398-.5377-1.2099-1.3037-1.8436-1.5163 0 0-.1327-.0444-.3473-.1129a22.2 22.2 0 0 1-2.4012.9246c-.6186.1984-1.4343.3373-1.8737-.0666-.4163-.3829-.2278-1.055-.7264-1.3699-.3373-.213-.8241-.1501-1.2353-.0564-4.3479.9915-7.0122 3.5798-8.6936 6.9035-.3557.7422-.9173 1.0857-1.5039 1.0941-.1802.0027-.5686-.0659-.6944-.1645-.2746-.2616-.6569-.4229-1.0493-.4489.0618.7851-.3454-2.0811-.2338-3.7624.0322-.4866.0874-.955.1631-1.4056z"/><path fill="#3C3C3C" d="M44.8205 18.0741c.5178-.4258 1.375-.3246 1.7401.2537.2036.3223.2056.7595.2086 1.1284.0034.4204-.0273.8441-.1076 1.2571-.1614.8307-.4662 1.638-.9321 2.3448-.3546.5379-.9333 1.2487-1.6453 1.0324-.6246-.1896-.9152.7882-.2914.9776 1.7892.5433 3.0247-1.5694 3.5378-2.979.3018-.8294.4579-1.7265.4504-2.6098-.0075-.8985-.1825-1.76-.9541-2.3027-.8282-.5825-1.9417-.4682-2.7054.1597-.212.1742-.1949.5331-.0165.7213.2012.2123.5029.1911.7155.0165"/><path fill="#3C3C3C" d="M43.4135 23.4717c-.0285.4882-.1644.9605-.3238 1.4202-.0573.1654-.1197.3287-.182.4923-.0184.0483-.0394.0958-.0573.1443.0465-.125.0118-.028-.0179.0319-.2306.4685-.5166.9114-.8126 1.3401-.856 1.239-1.8909 2.4274-3.1214 3.3072-.7203.515-1.5069.9272-2.3791 1.0953-.6396.1232-.3926 1.113.2465.9898 1.7109-.3297 3.1885-1.4797 4.3736-2.7146.9666-1.0071 1.8799-2.1608 2.5193-3.4117.4148-.8117.7137-1.7608.7667-2.6715.0382-.6559-.9737-.6781-1.0118-.023zM21.2262 16.815c-.6754-.609-1.6178-.784-2.4537-.4112-.8462.3773-1.1828 1.1814-1.2746 2.0596-.1831 1.7543.2926 3.7083 1.3961 5.0954.5984.7525 1.4796 1.3751 2.474 1.1641.6371-.1352.3914-1.1252-.2465-.9898-.6878.1459-1.3401-.6142-1.6717-1.128-.4728-.7326-.7631-1.5799-.9012-2.4398-.0668-.4162-.0854-.8389-.0687-1.2599.0158-.3936.0308-.8759.2644-1.211.3912-.5615 1.2521-.6231 1.7499-.1742.2036.1834.5069.2171.7155.0163.1859-.1791.2211-.5372.0165-.7215"/><path fill="#3C3C3C" d="M20.6478 22.6458c.6409 3.5904 2.8841 7.0227 6.0435 8.8528.8829.5114 1.8464.8848 2.8535 1.0483.2694.0438.5448-.0537.6305-.342.0704-.2367-.0675-.5913-.339-.6353-1.712-.2782-3.2345-1.1659-4.4907-2.3492-1.3397-1.2622-2.4073-2.8038-3.0762-4.5282-.2873-.7407-.4998-1.5127-.6395-2.2953-.0484-.2713-.3619-.4341-.6142-.3703-.2803.0708-.4165.3472-.3679.6192M46.2597 17.3704c.6592-3.5287.3833-7.2987-1.4807-10.4304-1.7757-2.9833-4.7586-5.1993-8.0843-6.1095-3.3258-.9103-7.0746-.642-10.1909.9097-2.3231 1.1569-4.3606 3.0404-5.6739 5.2938-.7717 1.3238-1.3017 2.7892-1.5634 4.3011-.2678 1.5467-.2387 3.078-.0759 4.6338.0275.2632.0565.5262.0929.7884.0379.273.3694.4321.6142.3703.2886-.073.4058-.3454.3677-.6193-.1652-1.1889-.2687-2.5207-.1659-3.7718.1213-1.4757.4867-2.9493 1.1258-4.2864 1.0286-2.1516 2.7191-3.9708 4.685-5.2083 2.6937-1.6957 5.9862-2.23 9.1052-1.7354 1.7393.2758 3.3815.9177 4.8692 1.8614.5883.3731 1.1862.7663 1.6939 1.2481.57.5411 1.112 1.12 1.5913 1.7444 2.0989 2.7331 2.6957 6.2558 2.2892 9.6275-.044.3652-.1016.7278-.1692 1.0892-.0504.2704.0579.5505.3391.6354.2402.0724.5797-.0697.6305-.342z"/><path fill="#3C3C3C" d="M38.867 8.9045c-.7246.3805-1.469.7243-2.233 1.0165-.6571.2513-1.4007.5966-2.1171.5892-.2267-.0024-.4562-.0401-.5546-.2684-.106-.2462-.1307-.5298-.2541-.777-.3825-.7653-1.2646-.7965-1.9975-.644-2.5567.5325-4.9696 1.8419-6.7562 3.7669-.9349 1.0074-1.7051 2.1564-2.3284 3.3825-.1246.245-.0798.5497.1656.702.2188.1357.5713.0791.6965-.1673 1.0679-2.1001 2.5781-3.9499 4.6003-5.1758 1.1228-.6805 2.3464-1.1559 3.6192-1.4611.2787-.0668.6719-.1955.9521-.0725.1951.0856.2105.316.2629.5071.1962.7176.6733 1.1532 1.4196 1.2206.8304.0748 1.6852-.2901 2.4459-.577.8786-.3315 1.7373-.7119 2.5696-1.1488.5779-.3034.088-1.1963-.4908-.8925z"/><path fill="#3C3C3C" d="M20.5952 17.6022c.2265.1634.5659.2108.8345.2346.2467.0218.512-.0168.7447-.1021.5903-.2164 1.0398-.6641 1.3153-1.2296.1164-.2391.0885-.5591-.1655-.702-.2206-.1241-.5719-.0885-.6965.1672-.0571.1171-.1204.2309-.1942.3381-.0187.0274-.0385.054-.0581.081-.0543.0744.0521-.059.0108-.0132-.0383.0425-.0754.0857-.1161.126a1.8 1.8 0 0 1-.1221.1101c-.0637.0522-.0097-.0002.0237-.0152-.0232.0106-.0491.0344-.0707.0484a1.6 1.6 0 0 1-.1948.1067c-.0496.0227-.0961.0155.0217-.0071-.0949.0182-.1879.0555-.2841.0741-.0854.0166.1054-.0072.0427-.0037-.0222.0012-.0442.0037-.0664.0049a1.2 1.2 0 0 1-.1419-.0014c-.0446-.0031-.0895-.013-.134-.0149.1446.006.0612.0099.0183.0013a2 2 0 0 1-.0722-.0159 1.5 1.5 0 0 1-.1475-.0427c-.0847-.0304-.0004-.0268.0323.0171-.0088-.0119-.0368-.0219-.0488-.0307-.2158-.1556-.5696-.0621-.6965.1672-.1415.2556-.0648.5358.1656.702zM41.9304 16.8988c.0031.5548.2424 1.0675.7282 1.3495.6465.3753 1.4222.2218 2.0576-.0967.2375-.119.3359-.466.1974-.6937-.1483-.2443-.434-.3261-.6881-.1988a3 3 0 0 1-.1053.051c-.019.0087-.138.0675-.0188.0109-.0606.0288-.1291.047-.1935.0657a2 2 0 0 1-.1911.0467c-.0307.0059-.0731.0068-.1026.017q.1094-.011.0505-.0057a1.5236 1.5236 0 0 1-.2289.004c-.0264-.0017-.0525-.0048-.0786-.0069-.1059-.0084.107.025.0125.0005-.0294-.0077-.0585-.0143-.0874-.0233-.0225-.0069-.063-.0327-.0839-.0302.0264-.003.1076.0537.0267.01q-.018-.0097-.036-.0202c-.0443-.0256-.0843-.0565-.1267-.0847s.1135.1014.0485.0385c-.011-.0104-.0224-.0205-.0331-.0311-.0218-.0218-.0678-.0586-.0779-.0886.0091.0268.0773.1139.0279.0345a1 1 0 0 1-.0284-.0491c-.0113-.0209-.0197-.0439-.0314-.0643-.0288-.0504.0392.1212.0161.0401a2 2 0 0 1-.0401-.1629c-.0187-.0955.0027.1212.0008.0119-.0007-.034-.0027-.0677-.003-.1017-.0015-.2667-.2153-.5277-.4943-.5215-.2678.006-.5193.2127-.5176.4985z"/><path fill="#3C3C3C" d="M38.1902 10.5044c.5219.1883.9645.6474 1.3339 1.0477.4382.475.7965 1.0225 1.1174 1.5831.6701 1.171 1.1115 2.4485 1.2926 3.7889.037.2732.3702.432.6142.3703.2893-.0731.4046-.3454.3676-.6192-.1999-1.4806-.7216-2.9134-1.4818-4.1941-.3693-.6222-.7863-1.2281-1.2876-1.7502-.4726-.4923-1.0166-.97-1.6651-1.2041-.6146-.2217-.9025.757-.2912.9776M32.6141 21.5762c.0902.3824.1762.7705.2241 1.1608l-.0151-.136a.7.7 0 0 1 .0006.1595l.0212-.1351a.37.37 0 0 1-.0191.0712l.0538-.1206a.3.3 0 0 1-.0262.0455l.0815-.1015a.25.25 0 0 1-.0384.0364l.1043-.0774a.7.7 0 0 1-.0918.0464l.122-.0487a.67.67 0 0 1-.1541.0416l.1349-.0152a.62.62 0 0 1-.1435-.0035l.134.0213c-.054-.0088-.1068-.0232-.1608-.0319-.1408-.0223-.2606-.0304-.391.0425-.1063.0595-.2093.1786-.2394.2995-.0325.1298-.0296.2766.042.3941.0634.1043.1711.2212.2969.2412.1156.0184.2275.0509.3454.0589.1769.0119.3439-.0383.5041-.1073.1959-.0847.3508-.2525.4072-.4621.0478-.1771.0322-.338.0064-.517-.0539-.3735-.1309-.7443-.2174-1.1116-.0611-.2595-.3544-.4486-.6142-.3703-.2654.0798-.4332.3411-.3674.6193M26.6109 18.4228c-.2012.6086-.1113 2.0212 1.0378 2.1675 1.5224.0255 1.6423-1.6772 1.1483-2.4902-.4045-.6658-1.6321-.9667-2.1859.3229zM38.7545 18.6996c.1732.6171.0189 2.0241-1.1355 2.118-1.522-.0438-1.5642-1.7502-1.0334-2.5401.4345-.6467 1.6743-.8914 2.1689.4221"/><path fill="#FCFCFC" d="M10.4751 25.628c-.3666.2194-.7072.3007-1.0117.2417-.18-.0347-.3437-.1022-.4865-.2007-.509-.3505-1.0267-1.1792-1.4577-2.3335-.5542-1.4848-.2056-2.4866.198-3.6468.0945-.2715.1922-.552.2795-.8449.186-.6022.1077-1.2078-.2208-1.7039-.308-.465-.8128-.7722-1.3502-.8219-.4743-.0675-.9828.0404-1.4245.3046-.4416.2642-.7826.6681-.935 1.1077-.2947.7251-.2826 1.4832-.2318 2.1281.013.1638.002.4831-.2168.783-.1187.1628-.2894.3154-.481.4301-.211.1261-.4397.2041-.6612.2249-.5942.056-1.0445-.2329-1.3762-.8835-.3493-.6851-.4884-1.5143-.3914-2.3347.1901-1.6088 1.3227-3.2525 2.8852-4.1875.8877-.5313 2.3105-1.0681 4.0475-.6084 1.2244.3241 2.3363 1.1933 2.9742 2.3251.5821 1.033.7309 2.2015.4193 3.2902-.1967.6872-.3777 1.188-.5373 1.6296-.0944.2609-.1757.4861-.2467.712-.1724.5482-.1163 1.1967.1466 1.6923l.1112.2084c.1807.337.3369.6283.4707.9685.0741.1888.1177.5092.0475.7995-.0703.2905-.2708.5532-.5503.7206zM12.9087 29.9841c-.4475.2679-.9807.3053-1.4259.0995-.6971-.362-.9452-1.1224-.8265-1.6851.0771-.3643.3185-.6839.6982-.924l.0278-.0173c.1775-.1063.8045-.4303 1.4235-.1415.6572.3069 1.0136 1.1574.778 1.8575-.1104.3281-.3502.6163-.6751.8109"/><path fill="#3C3C3C" d="M10.2294 25.1814c-.281.1609-.568.2694-.8762.1199-.1346-.0653-.1594-.0944-.2656-.1995a2.8 2.8 0 0 1-.2607-.2974c-.4638-.6148-.8135-1.4161-.9929-2.1633-.1666-.6943-.0874-1.3725.1158-2.0489.234-.7794.6647-1.5807.6501-2.41s-.4421-1.6135-1.1487-2.0435c-.6932-.4221-1.5708-.4455-2.3134-.1473-.7853.3153-1.3314.9399-1.6103 1.7342-.1475.4202-.2121.8765-.2252 1.3208-.01.335.0783.7089.0193 1.0378-.1001.5586-.9307.8877-1.3675.5999-.5607-.3693-.7465-1.3112-.7682-1.9334-.0501-1.4433.7118-2.7914 1.7496-3.7405.9944-.9095 2.3007-1.4606 3.654-1.3849 1.4482.0808 2.802.8968 3.5416 2.1585.404.6892.6038 1.473.5442 2.2734-.0551.7386-.357 1.4704-.6059 2.1619-.2847.7919-.5572 1.5481-.3334 2.3975.072.2734.1965.5224.3286.7697.1723.3227.4253.6899.4818 1.059.0466.3047-.0588.5704-.3167.7359-.547.3509-.061 1.2464.4907.8924.8306-.533 1.0204-1.465.6443-2.35-.2877-.6769-.7929-1.2676-.6959-2.0478.0493-.3971.2357-.7892.3704-1.1633.1356-.3775.2655-.7568.3823-1.1407.2712-.8911.3644-1.7877.1495-2.7037-.3927-1.6728-1.6598-3.0401-3.2206-3.6846-1.5378-.6348-3.315-.4533-4.7652.3253-1.414.7589-2.566 2.0645-3.1133 3.5848a5 5 0 0 0-.2186 2.5717c.1414.7895.5153 1.734 1.2537 2.1369.764.4169 1.7446.1683 2.334-.4442.3075-.3196.4985-.7362.503-1.1851.0043-.4294-.0521-.8483-.0043-1.2792.09-.8108.4967-1.5672 1.315-1.8101.7085-.2103 1.4815.0363 1.8092.7333.359.7636-.1475 1.6542-.388 2.3814-.2594.7854-.4096 1.5785-.3095 2.4066.1084.8973.5037 1.8108.9686 2.5785.4032.666.9398 1.2971 1.7523 1.4009.4335.0553.861-.0978 1.2333-.3111.566-.3241.0778-1.218-.4907-.8924zM12.6656 29.5379c-.0434.0252-.0884.0469-.1322.0714-.0116.0064-.0893.0397-.014.0097a1.4 1.4 0 0 1-.2327.0681 2 2 0 0 1-.0944.0169c.11-.017-.0414.0008-.0547.0011a1.37 1.37 0 0 1-.2353-.013c.1135.0171-.0374-.0127-.05-.016a1.3 1.3 0 0 1-.0901-.0278c.0013.0005-.1298-.0614-.0696-.0267.0614.0355-.0596-.0392-.0565-.0372a2 2 0 0 1-.0713-.0473c-.0008-.0007-.1058-.0864-.0492-.0358s-.0412-.0407-.0416-.0411a1.5 1.5 0 0 1-.0832-.0878c-.0218-.025-.0419-.0511-.063-.0767-.0487-.0592.0578.101-.0022-.0069-.0312-.0562-.0656-.1095-.0936-.1677-.0109-.0228-.0207-.0462-.0313-.069.0498.1066.0113.0322.0019.0005-.019-.0649-.0387-.1287-.0519-.1951-.0057-.0288-.0073-.0603-.0151-.0888-.0192-.0708.0037.1277.0025.0126-.0006-.0578-.0037-.1149-.0003-.1726.0014-.0226.0042-.0448.0056-.0673.0062-.1081-.032.08-.0039.0207.0295-.0618.0401-.1468.0627-.2137-.0341.1004-.0071.0164.0076-.0113a1.3 1.3 0 0 1 .0534-.0911c.0155-.0241.0323-.0471.0484-.0705-.0635.0925.0182-.0204.0303-.0336a1.7 1.7 0 0 1 .1492-.1414c.0165-.0138.0983-.0732.0282-.0244a2 2 0 0 1 .0959-.0633c.0652-.04.1335-.0727.2022-.1062.036-.0177.0796-.0592-.0113.0025.0167-.0113.0504-.0186.0708-.0254a1.8 1.8 0 0 1 .2398-.0628 1.4 1.4 0 0 1 .0877-.0139c-.1193.0139.0345.0027.0492.0026.0321-.0001.0637.0025.0957.003.1434.0018-.0455-.0184.0375.0022.0764.0187.1521.0377.2248.0684-.0915-.0388.0241.0163.0353.023.0341.0199.0659.0427.0992.0639.0754.0483.0075.0029-.0074-.0098q.045.0384.087.08c.0422.042.0785.0888.118.1331.0516.0579-.0614-.1001.0044.0077.0139.0227.0286.0449.0419.0677q.0305.0517.0569.1055c.0125.0254.0576.1385.0155.024.0254.069.047.139.0637.2108.0075.0325.0129.0656.0197.0983.0266.1273-.002-.1068.0033.023.0029.0735.004.1462-.0019.2196-.0026.0329-.0217.1207.0033.0035-.0083.0394-.0159.0783-.0265.1172a1.4 1.4 0 0 1-.0536.158q.0374-.0815-.0014-.0024c-.0379.0632-.0742.1257-.1167.186.0632-.0898-.0223.0244-.0329.0358a1.6 1.6 0 0 1-.1669.1546c.0771-.0637-.0703.0452-.0874.0558-.2255.1393-.3444.4519-.1974.6938.1382.2272.4466.3478.6881.1987.7601-.4691 1.1641-1.3234.9479-2.2102-.2024-.8313-.9103-1.5029-1.7789-1.5303-.7436-.0236-1.5206.3925-1.9235 1.0209-.4028.6285-.3485 1.4923.0602 2.105.2691.4038.6669.7358 1.1444.8489.5297.1256 1.0786.0384 1.5499-.2343.2295-.1327.3416-.4564.1972-.6937-.1415-.2327-.4421-.3409-.6879-.1988z"/><path fill="#FCFCFC" d="M27.7498 29.8245c1.9181-.7046 4.6656-.5076 5.893 1.3125.1901.2822.3321.6322.291 1.0023-.0486.4366-.404.9337-.819.9266l-.362-.0063.317.1871c.2404.1419.4428.2752.6272.4858.4424.5059.5124 1.0788.1572 1.6112-.0886.133-.1978.2566-.3375.3327-.3225.1757-.6246.1293-.9098-.0056l.4549.6316c.324.4501.2673 1.0041-.0412 1.3686-.2935.3464-.8448.3709-1.2969.2243.2908.7882-.2197 1.7204-.9722 2.0185-.642.2544-1.2493-.2795-1.8694-.0489-.4681.1741-.6237.7174-1.0001 1.0046-.3368.257-.8048.3552-1.2181.3586-.8937.0077-1.8537-.4198-2.4672-1.0714-1.0993-1.1677-1.0038-2.8743-.8188-4.3605.3506-2.8141 1.701-5.0413 4.4391-5.9957"/><path fill="#3C3C3C" d="M27.6962 29.3062c-1.4099.4996-2.6301 1.3615-3.4807 2.6118-.8342 1.2265-1.2089 2.6787-1.3735 4.1386-.1788 1.5886-.1272 3.3917 1.1063 4.5692 1.1727 1.1194 3.4819 1.719 4.6268.2442.2037-.2624.3504-.5727.7226-.551.4588.0268.8692.2256 1.3403.1515.9685-.1521 1.6663-1.1708 1.6772-2.1154.0076-.6562-1.0044-.6809-1.012-.0231-.0063.5529-.4487 1.1988-1.0526 1.1359-.3517-.0367-.6863-.1819-1.0453-.1714-.3808.0111-.7349.1547-1.0075.4251-.218.2161-.3538.5133-.5858.714-.2187.1891-.5345.2647-.8166.2793-.7035.0365-1.4155-.2196-1.9646-.6603-1.1068-.888-1.1309-2.4006-1.0058-3.6999.1192-1.2394.3947-2.4769 1.0332-3.5567.7019-1.187 1.7946-2.0451 3.0843-2.5022.2578-.0913.4384-.3345.3677-.6193-.0618-.2487-.355-.4622-.6142-.3703z"/><path fill="#3C3C3C" d="M33.1035 33.8621c.8002-.0366 1.3684-.8301 1.3423-1.6083-.0252-.7534-.5228-1.4243-1.0787-1.8906-1.0047-.8434-2.3362-1.1765-3.6269-1.137-.7178.0219-1.4361.1455-2.113.3897-.2573.0928-.4387.3334-.3676.6192.0614.2474.3555.4638.6141.3704 1.1684-.4214 2.4895-.5072 3.6765-.1111.5637.1881 1.0794.5011 1.4737.9523.207.2369.4267.544.4105.8751-.0079.1591-.1402.5124-.3078.5203-.273.0125-.511.2095-.5176.4985-.006.2616.2198.5342.4943.5215z"/><path fill="#3C3C3C" d="M30.1824 32.6482c.597.1352 1.2248.3228 1.7597.5731.2654.1242.5238.2634.7773.4106.2471.1434.4923.2863.6673.5187.1544.205.2185.428.1733.6256-.0485.2113-.1882.4233-.3394.4789a.56.56 0 0 1-.1124.0277c.0121-.0017.0558-.0064-.0033-.0029-.0101.0007-.1212-.0057-.0686.0006.0455.0053-.0405-.009-.0401-.009-.1434-.0345-.1838-.0595-.3175-.1403-.2324-.1405-.4419-.315-.6669-.4666-.6187-.4172-1.3802-.6365-2.1071-.7641-.2689-.0471-.5454.0561-.6304.342-.0713.2395.0682.588.339.6354.697.1222 1.3997.3183 1.9822.7357.5653.4049 1.1969.8711 1.9286.611.7917-.2816 1.2465-1.2614.9889-2.0629s-.9463-1.2419-1.6504-1.6149c-.7569-.401-1.5546-.6873-2.3883-.8762-.2665-.0603-.5482.0651-.6304.342-.0743.2498.071.5748.339.6354z"/><path fill="#3C3C3C" d="M32.6203 36.5442c.1133.1663.1577.2874.1541.4296-.0006.023-.0126.1241-.0005.0568a.94.94 0 0 1-.0449.158c.0249-.0666-.0949.1568-.0567.1078-.0889.1144-.1546.1402-.3333.1663q-.0533.0087.0013-.0006l-.0544.0019c-.0458-.0021-.0916-.0008-.1373-.0039-.084-.006-.104-.0086-.2194-.0416-.3988-.1137-.7434-.3739-1.1161-.5559-.4904-.2395-1.0028-.4109-1.5522-.4253-.6511-.0169-.6752 1.0031-.0233 1.02 1.1124.0292 1.9053 1.0497 3.025 1.0265.5594-.0115 1.0775-.2646 1.3394-.7808.2675-.5269.2383-1.1635-.0961-1.6542-.1545-.2268-.4328-.3416-.6881-.1988-.2216.1238-.3532.4655-.1975.6938zM34.801 26.4565c-.5471-.5651-1.4262-.7486-2.1779-.7653s-1.6386.1256-2.2111.6653c-.1996.1883-.2039.5238-.0165.7213.1912.2016.5153.205.7155.0163.0218-.0204.1224-.0942.0485-.0455-.0754.0498.0603-.0377.0875-.0537a2 2 0 0 1 .1484-.0787 2.5 2.5 0 0 1 .1031-.0459c-.0656.0281-.0387.0144.0121-.0025.3934-.1305.6859-.1655 1.0892-.1566.394.0088.6853.0505 1.0616.1981.0167.0066.1447.0658.0316.011.0284.0138.0567.0274.0845.0421.0548.0286.1087.0599.1607.0938.0118.0077.1181.0709.1157.083-.0016.0076-.0995-.092-.028-.0202.0143.0143.0291.0281.0431.0424.1908.1972.5165.208.7155.0163.1967-.1894.2079-.5234.0165-.7212"/></svg>