<svg xmlns="http://www.w3.org/2000/svg" width="64" height="60" fill="none" viewBox="0 0 64 60"><path fill="#FCFCFC" d="M8.2012 54.4666c.3851-4.2871.8803-8.8572 3.6138-12.1878.9441-1.1496 2.126-2.1018 3.4509-2.7776 1.0168-.52 2.1062-.8776 3.1934-1.2308.8429-.2754 1.6962-.5516 2.5624-.7416.4101.3282.4904.3717.7193.5062 2.2332 1.3131 5.6025 2.0476 8.4798 2.1128 2.8743-.0645 6.2253-.7969 8.4607-2.1038.221-.1293.3548-.1718.7895-.4974.8407.1891 1.6691.4572 2.4887.7238 1.0872.3532 2.1766.7108 3.1934 1.2308 1.3249.6758 2.5068 1.628 3.4509 2.7776 2.7335 3.3306 3.2287 7.9007 3.6138 12.1878"/><path fill="#FCFCFC" d="M42.3638 19.049c.3763-.3385.9342-.5024 1.4558-.4245s.9966.3914 1.2353.8188c.1686.2997.2232.6411.2545.9741.1142 1.3127-.1453 2.6504-.7422 3.8466-.2907.5827-.6695 1.1406-1.1963 1.5652-.4046.3216-.811.5044-1.3987.326l-.2099-.0634c-.129.5057-.2989.9463-.3751 1.162-.4362 1.1018-2.9861 5.1601-6.1196 6.3099.0246.187.0583.4055.1047.6699.1521.8931.4057 1.9044 1.5976 2.5615.0804.0252 1.6355.7626 1.7581.8131l.4183.1726-.1316.0782c-.125.0741-.2172.118-.3338.1862-2.2354 1.307-5.5864 2.0394-8.4607 2.1039-2.8776-.0654-6.2469-.8-8.4799-2.1129-.1294-.0761-.2113-.1231-.3323-.2086l-.1851-.1312.2188-.0873c.1267-.0505 1.6779-.7879 1.7624-.8131 1.1876-.6574 1.4411-1.6684 1.5976-2.5616.0528-.2983.0893-.5316.1094-.7332-1.3593-.6358-2.6153-1.6326-3.7217-2.8645-1.318-1.468-2.1185-3.0394-2.5937-4.3944l-.3103.0836c-.6644.1784-1.1719-.1749-1.5764-.4967-.5269-.4246-.9057-.9825-1.1964-1.5652-.5969-1.1962-.8564-2.5339-.7421-3.8466.031-.333.0856-.6744.2544-.9741.2388-.4274.7137-.7409 1.2353-.8188.5216-.0777 1.0795.086 1.4559.4245 0 0-.8075-11.6576 12.324-11.6576 13.1316 0 12.3241 11.6576 12.3241 11.6576z"/><path fill="#FFBDD5" d="M47.5175 12.229c-.1893-.3861-.4094-1.0312-.4798-1.3866-.3719-1.9286-.0506-3.9734-.5876-5.8646-.6427-2.2686-2.1216-3.642-4.1772-4.23-2.1899-.6276-5.0686.0504-5.8653 2.42l-.0429.1245a13.6 13.6 0 0 0-1.4316-.6002c-1.5492-.5448-3.1855-.7883-4.8221-.7883-3.2306 0-5.9737.9366-8.1691 2.5062-2.3753 1.6984-5.0436 4.6333-5.5831 9.2774a14.6 14.6 0 0 0-.0832 1.0465c-.0763 1.7381.4173 4.6873.3337 3.8764.3869.0171.7668.1586 1.0535.3962.8324-.1474 2.1806-.9109 2.7878-1.2541 3.6682-2.072 6.4313-3.8272 8.8921-5.935-.2177.5915-.5898 1.2501-.901 1.8864-.2437.4978.1818 1.0518.7293.9577 2.1817-.3747 3.9457-1.7769 5.5026-3.485.706 2.0387 2.0769 3.6298 3.8369 5.1948 1.5521 1.3802 3.0187 2.0953 3.9897 2.5679.3352-.2398.7721-.361 1.1964-.3283l.015-.089c.1877-1.1234.2991-2.3516.2359-3.7882a14.3 14.3 0 0 0-.3915-2.7638c.8561.3225 1.8025.5178 2.8983.6033.3235.0242 1.217-.0351 1.063-.3444z"/><path fill="#3C3C3C" d="M36.9196 3.3074c.4322-1.245 1.5887-1.947 2.8373-2.1777 1.2936-.2392 2.6725.0583 3.8057.7345 1.2443.7425 2.0386 1.9709 2.4079 3.3514.5174 1.934.1129 3.9836.596 5.9212.0513.2055.1171.4078.1882.6075q.063.1773.1342.3515c.0293.0713.0813.3012.1451.3359-.059-.0321.1886-.5703.0689-.2434q.186-.2915.0424-.1946l.0392-.0171c-.0623-.0033-.1499.0417-.2148.0529-.0805.0138-.2634.0246-.4045.0219-.9657-.0195-1.9645-.2545-2.8662-.5888-.2674-.0992-.5788.1105-.6497.3677-.0812.2946.1006.5483.3689.6477.9655.358 2.0103.5645 3.0389.6222.5965.0333 1.8498-.1141 1.5723-1.011-.0612-.1979-.1712-.3886-.2421-.5845-.0805-.2231-.1551-.45-.2108-.6808-.1175-.4877-.1547-.9968-.1844-1.4961-.0676-1.1343-.0482-2.2713-.2067-3.3987-.2555-1.8191-1.0965-3.5223-2.588-4.6369C43.3262.3424 41.6432-.132 40.0619.032 38.2123.224 36.53 1.2159 35.9008 3.028c-.223.6418.7974.9176 1.0188.28z"/><path fill="#3C3C3C" d="M44.2219 18.6618c.6037-3.6567.226-7.5406-1.7935-10.7285-1.9237-3.0367-5.0888-5.2533-8.5804-6.1145-3.5081-.8653-7.3966-.496-10.6109 1.1782-2.3963 1.2484-4.4772 3.24-5.7937 5.596-.7736 1.3843-1.2917 2.9089-1.5287 4.4752-.2426 1.6023-.1757 3.1818.0312 4.7834.035.2709.0715.5417.1158.8113.046.2809.3957.4373.6497.3677.2993-.082.415-.3659.3688-.6476-.2007-1.223-.3405-2.5949-.263-3.8883.0914-1.5257.4375-3.0549 1.0725-4.4496 1.0218-2.2445 2.7422-4.1614 4.7639-5.4846 2.77-1.8132 6.1926-2.4417 9.4586-2.0047 1.8212.2438 3.55.8675 5.1247 1.8063.6226.3713 1.2558.7629 1.797 1.2482.6076.545 1.1869 1.1297 1.7019 1.7627 2.255 2.771 2.9616 6.392 2.6179 9.8809a17.3 17.3 0 0 1-.1506 1.128c-.0462.2802.0735.5667.3689.6477.2524.0691.6032-.0856.6497-.3678zM21.5809 38.1163c.5734-.2354 1.1264-.5217 1.6901-.7791.0444-.0201.0893-.0394.1333-.0601.0795-.0373-.1296.0531-.0726.0303s.1131-.0456.1671-.0739c.2634-.138.5125-.3333.7265-.538.3825-.3664.649-.8221.8319-1.3149.1853-.4985.27-1.0382.3411-1.563.0383-.2815-.068-.5652-.3689-.6477-.246-.0673-.6111.0841-.6496.3678-.0597.439-.1312.8844-.2573 1.31a4.4 4.4 0 0 1-.0927.2758c-.0083.023-.0176.0458-.0266.0684.0037-.0092.0301-.0678.0048-.0122a2.8482 2.8482 0 0 1-.2454.4429c-.0763.1126-.0642.0972-.1663.208-.1726.1874-.3099.2986-.5164.4261-.0209.0129-.1245.095-.0534.0417.0132-.0099.0429-.016.0246-.0066-.0462.0239-.0977.0404-.1455.061a7 7 0 0 0-.1094.0485c-.2806.1268-.559.2587-.8378.3892a208 208 0 0 1-.482.2253 29 29 0 0 1-.1882.0871c-.0543.0248-.215.0911.0124-.0022-.2637.1082-.4512.3495-.3689.6477.0684.2486.3843.4768.6497.3677zM34.756 33.6987c.136.9998.3213 1.9963.9937 2.7895.1844.2176.4052.4006.638.5647.1382.0974.2822.188.4404.2492.0564.0218-.1076-.048-.0946-.0403.0191.0112.0418.0182.0618.0274.2833.1294.5652.2613.8474.3934.2715.127.5409.2628.8171.3798.2624.111.5659.0783.7228-.1889.1296-.221.0746-.6089-.1895-.7206-.5155-.2178-1.0157-.4752-1.5241-.7088-.1072-.0494-.2458-.0891-.344-.151.0051.0033.0762.038-.0101-.0224-.0544-.0381-.1131-.0704-.1679-.1083-.0978-.0676-.1585-.1194-.2534-.2098-.1877-.179-.2601-.2723-.3818-.4785a3.4 3.4 0 0 1-.1439-.2771c-.0403-.0856.0057.0261-.0253-.0625-.0194-.0556-.0405-.1104-.0588-.1661-.164-.4992-.2388-1.0308-.3094-1.5494-.0383-.2822-.401-.436-.6497-.3678-.3053.0836-.4074.3649-.3689.6477z"/><path fill="#3C3C3C" d="M42.7379 19.4217c.5302-.4515 1.4271-.3673 1.8219.2209.2201.3278.2326.7789.2445 1.1596.0137.4337-.0083.8717-.0823 1.2997-.1486.8609-.4474 1.7012-.9166 2.4415-.3572.5634-.9442 1.3105-1.6923 1.104-.6563-.181-.9362.8349-.2808 1.0156 1.88.5187 3.1188-1.6904 3.6206-3.1571.2951-.8629.4367-1.7923.4078-2.7037-.0293-.927-.2324-1.8118-1.0504-2.3538-.8782-.5816-2.0374-.4374-2.8193.2284-.217.1848-.1906.5547 0 .7447.215.2143.5293.1854.7469.0002M18.0901 18.6768c-.7193-.6126-1.7068-.771-2.5702-.3667-.8739.4092-1.206 1.2469-1.2809 2.1552-.1492 1.8147.3938 3.8198 1.5783 5.2253.6424.7624 1.5766 1.3842 2.6093 1.1431.6616-.1545.3816-1.1703-.2808-1.0157-.7142.1668-1.413-.6022-1.7713-1.1246-.5108-.7449-.8339-1.6124-.9985-2.4966-.0797-.4278-.1092-.8635-.1017-1.2984.0071-.4065.0112-.9046.2469-1.2558.3949-.5887 1.2917-.6725 1.8219-.221.2168.1845.5341.2122.747 0 .1897-.1891.2179-.5595 0-.7448"/><path fill="#3C3C3C" d="M41.3962 25.0251c-.018.5044-.1485.995-.3039 1.473-.0559.1721-.1171.3421-.1783.5123-.018.0503-.0387.0999-.0563.1503.0455-.1301.0116-.0291-.0178.0334-.2296.4888-.5175.9526-.8161 1.402-.8636 1.2986-1.9152 2.5492-3.1783 3.486-.7392.5483-1.5502.9922-2.4563 1.1861-.6644.1422-.3832 1.1578.2808 1.0156 1.7774-.3804 3.2918-1.6018 4.499-2.904.9846-1.0619 1.9101-2.2739 2.5475-3.5797.4135-.8474.7027-1.8338.7364-2.7748.0242-.6777-1.0322-.6769-1.0564 0zM17.622 24.7079c.7543 3.6899 3.1765 7.1791 6.5165 8.9933.9334.507 1.9475.8697 3.0022 1.0147.2821.0389.5671-.0682.6497-.3677.0678-.2459-.0845-.6086-.3689-.6477-1.7928-.2468-3.4025-1.127-4.7413-2.3186-1.4279-1.271-2.5785-2.8366-3.3175-4.6004-.3174-.7576-.5575-1.5494-.7219-2.3535-.057-.2789-.388-.4395-.6497-.3677-.2907.0796-.4263.3681-.3691.6476M30.0836 23.3217c.1032.3925.2023.7909.2615 1.1927l-.019-.14a.7.7 0 0 1 .0044.1645l.019-.14a.4.4 0 0 1-.0183.074l.0533-.1257a.3.3 0 0 1-.0262.0476l.0825-.1066a.25.25 0 0 1-.0392.0383l.107-.0822a.8.8 0 0 1-.0946.05l.1261-.0531a.7.7 0 0 1-.1598.0465l.1404-.0189a.64.64 0 0 1-.1499-.0002l.1404.0189c-.0565-.0079-.112-.0215-.1686-.0292-.1474-.0197-.2726-.0252-.4069.0531-.1096.0639-.2141.1891-.2427.3146-.0309.1347-.0243.2861.0532.4057.0687.1062.1838.2242.3156.242.1211.0162.2386.0472.3618.0527.1849.0081.3579-.0477.5234-.1227.2025-.0919.3601-.2688.414-.4864.0455-.1839.0255-.3495-.0057-.5336-.0652-.3842-.1543-.765-.2534-1.142-.07-.2663-.3805-.4546-.6497-.3677-.2751.0887-.4441.3622-.3688.6477zM23.7484 20.2096c-.1955.6328-.068 2.0883 1.1345 2.2122 1.5892-.0094 1.6737-1.7692 1.1389-2.5966-.4379-.6775-1.7261-.9592-2.2732.3846zM36.4229 20.2096c.1954.6327.068 2.0883-1.1343 2.2122-1.5893-.0094-1.674-1.7692-1.139-2.5968.438-.6775 1.7259-.9592 2.2733.3846"/><path fill="#3C3C3C" d="M42.5302 18.3701c-1.6077-.7925-3.042-1.7675-4.3376-3.0085-1.2833-1.229-2.4143-2.6332-3.0095-4.3254-.1241-.3531-.5975-.5439-.8827-.2324-1.0632 1.1615-2.259 2.2471-3.7175 2.8891-.3356.1479-.6875.2633-1.0432.3528-.1828.0461-.5469.1944-.6265.0112-.0251-.0577-.015-.079.0295-.1788.097-.2181.2172-.4281.3255-.6409.213-.4186.4177-.8408.5841-1.2802.0814-.2153-.0544-.4849-.2428-.5946-.2128-.1242-.4606-.0711-.64.0823-2.7676 2.3647-5.9148 4.2555-9.0882 6.023-.7251.4039-1.4868.8442-2.3067 1.0206-.6642.1431-.3831 1.1585.2809 1.0156.7923-.1706 1.5456-.5759 2.2527-.9585.8196-.4436 1.6258-.9136 2.4291-1.3858 1.6476-.9682 3.2703-1.9838 4.8155-3.1087.811-.5904 1.6011-1.21 2.3637-1.8616l-.8828-.5123c-.14.3699-.3213.7225-.5009 1.0744-.1842.3609-.4477.7451-.4829 1.1569-.0622.7331.5929 1.357 1.3214 1.2794 1.4818-.158 2.8818-.9801 4.026-1.8849.6682-.5283 1.2759-1.1271 1.8501-1.7543l-.8828-.2324c.4978 1.4151 1.306 2.6664 2.3032 3.7827 1.0661 1.1933 2.2935 2.2759 3.6446 3.1377.6061.3868 1.2399.7251 1.8848 1.0428.2555.1259.5718.0684.7227-.1889.1365-.2326.0674-.5939-.1895-.7205zM8.7297 54.4667c.2667-2.9652.5665-5.9949 1.6915-8.7809.543-1.3443 1.3163-2.6111 2.3232-3.6598 1.1062-1.1523 2.4544-2.0058 3.9415-2.5844.9195-.3576 1.8648-.6566 2.8065-.9502.9418-.2935 1.9091-.5595 2.8981-.6512.2841-.0263.5282-.2231.5282-.5265 0-.2644-.2425-.5531-.5282-.5266-1.8377.1703-3.6224.792-5.3524 1.4046-1.6606.5878-3.1981 1.3814-4.5078 2.571-2.3846 2.1661-3.5806 5.2325-4.1768 8.3282-.3418 1.775-.5183 3.5771-.68 5.3756-.0256.2836.261.5265.5282.5265.307 0 .5026-.2422.5282-.5265zM37.9091 37.8303c1.741.1404 3.4548.7706 5.0925 1.3434 1.5485.5417 2.9971 1.2778 4.208 2.3974 2.2268 2.0593 3.2889 4.9322 3.8449 7.8447.3187 1.669.482 3.3612.634 5.0517.0256.2833.2245.5266.5282.5266.2659 0 .5538-.2416.5283-.5266-.2835-3.1499-.5958-6.3821-1.8389-9.3252-.6177-1.4627-1.4633-2.8239-2.5824-3.96-1.2329-1.2516-2.7251-2.1437-4.3588-2.7741-.9541-.3681-1.9345-.6786-2.9124-.9781-1.0271-.3146-2.0699-.5665-3.1434-.6529-.2848-.023-.5282.2585-.5282.5266 0 .3041.2427.5035.5282.5265"/><path fill="#3C3C3C" d="M38.7466 37.4037c-2.0142 1.1564-4.2545 1.8041-6.5585 2.0773-1.199.1421-2.3765.1617-3.5779.0395a20.47 20.47 0 0 1-3.4875-.6655c-1.1913-.3368-2.4233-.7751-3.4496-1.4829-.2346-.1619-.5865-.0432-.7227.1889-.1534.2615-.0458.5581.1894.7205.9493.6549 2.0869 1.0887 3.1809 1.4333 1.2336.3888 2.5048.6411 3.7872.8015 1.229.1538 2.4379.1848 3.6708.0621 1.2688-.1261 2.531-.3488 3.7591-.6926 1.3159-.3682 2.5584-.8937 3.7421-1.5731.5889-.3381.0574-1.2487-.5333-.9095zM27.9019 28.4668c.5844.5703 1.5061.739 2.2909.7385s1.7068-.168 2.2913-.7385c.2038-.199.2003-.5452 0-.7446-.2042-.2036-.5425-.1994-.747 0-.0222.0215-.1254.1-.0495.048.0775-.0531-.062.0404-.09.0575a2 2 0 0 1-.153.0847 2.5 2.5 0 0 1-.1065.0498c.0678-.0305.0401-.0158-.0125.0029-.4074.1439-.7118.1869-1.1328.1871-.4113.0002-.7164-.036-1.1125-.1795-.0176-.0063-.1525-.0645-.0333-.0105-.0299-.0136-.0598-.027-.0891-.0415a2 2 0 0 1-.1699-.093c-.0125-.0077-.125-.0704-.1228-.0829.0015-.0079.1061.0926.0297.0202-.0152-.0145-.031-.0283-.046-.0428-.2038-.199-.5438-.2025-.747 0-.2007.2001-.2044.545 0 .7446"/><path fill="#FCFCFC" d="M4.5113 25.3344c-.047.2018-.3334.2053-.3856.0048-.218-.8381-.5565-1.8392-1.0707-2.436-.6272-.728-1.5335-1.0371-2.3736-1.217-.2086-.0448-.2077-.3427.001-.3868.8318-.1758 1.749-.4853 2.3588-1.1416.5806-.6246.9083-1.8816 1.0918-2.7344.0445-.2066.3385-.2099.3876-.0046.2042.8528.568 2.1133 1.1497 2.7388.604.6494 1.4765.9595 2.283 1.1361.2092.0458.2073.3451-.003.387-.8611.172-1.8053.4667-2.432 1.1944-.514.5966-.8093 1.6133-1.007 2.4586z"/><path fill="#3C3C3C" d="M4.0021 25.1946v-.0285l.1895-.1889q.1708-.047.33.0439l.1357.2323c-.1862-.4533-.2744-.9474-.4637-1.4039-.2022-.4882-.4413-.9538-.7947-1.3518-.3337-.3758-.766-.6731-1.2228-.8802a6.1 6.1 0 0 0-.717-.2749c-.1697-.0525-.5412-.1117-.611-.1637l.1895.1889a.504.504 0 0 1 .0007.2508l-.1895.1889c.0832-.0617.4866-.122.6695-.179a6.2 6.2 0 0 0 .7722-.3004c.5003-.2337.9622-.57 1.2985-1.0097.3137-.4103.5175-.8949.684-1.3805a10 10 0 0 0 .2133-.7135q.0494-.1886.0933-.3786.0166-.0718.0326-.1437c.0082-.0369.0555-.1464.0297-.1117l-.1895.1889q-.1687.044-.3266-.0428l-.1358-.2323c.1741.446.2474.9377.4112 1.3912.1723.477.3741.9603.6796 1.3693.3222.4315.7524.7738 1.2325 1.0182.2583.1316.5306.2416.8061.3322.1811.0596.5843.1248.6677.1878l-.1894-.1889a.51.51 0 0 1-.002-.2504l.1895-.1889c.0383-.0278-.0214.0099-.0535.015-.066.0103-.1327.0283-.1979.0434a7 7 0 0 0-.3189.0807 6 6 0 0 0-.7333.2587c-.476.2019-.927.4838-1.2789.8662-.6869.7471-.9734 1.793-1.2006 2.7559-.1556.6591.8628.9406 1.0188.28.188-.7969.393-1.7487.9884-2.354.2912-.296.661-.5097 1.0498-.6521.208-.0761.421-.1384.636-.1917.2116-.0524.4374-.0726.6231-.1926.4952-.3197.3722-1.0863-.168-1.2767-.422-.1488-.8585-.2131-1.265-.4147-.3629-.1801-.7168-.4149-.956-.7477s-.4025-.7234-.5379-1.1095c-.1408-.4022-.2298-.8156-.353-1.2221-.1499-.4948-.7439-.7701-1.1726-.4026-.3246.2782-.3414.8377-.4512 1.2297-.1133.4044-.2432.8083-.4397 1.1811-.4059.7703-1.1698 1.1424-1.9843 1.3629-.2036.0551-.4465.0733-.6312.181-.2309.1347-.3671.3892-.359.6529.0185.608.6.6727 1.058.8041.4543.1304.9065.3142 1.2767.6139.3902.316.643.7405.84 1.1958.101.2336.1843.4756.261.7183.0769.2426.117.5169.2292.7457.13.2651.3832.4208.68.4147.3379-.0068.5626-.2405.6757-.5364.1015-.266-.1127-.5775-.369-.6477-.2974-.0814-.5479.1009-.6498.3677"/><path fill="#FCFCFC" d="M53.2125 31.7646c-.0471.2018-.3334.2053-.3856.0048-.2181-.8381-.5566-1.8393-1.0707-2.436-.6272-.728-1.5335-1.0371-2.3736-1.217-.2086-.0448-.2078-.3427.0009-.3868.8319-.1758 1.749-.4854 2.3588-1.1416.5806-.6246.9083-1.8816 1.0919-2.7344.0444-.2067.3385-.21.3876-.0046.2042.8528.568 2.1133 1.1497 2.7388.6039.6494 1.4765.9594 2.2829 1.136.2093.0459.2073.3452-.0029.3871-.8611.172-1.8053.4666-2.4321 1.1944-.5139.5965-.8093 1.6132-1.0069 2.4586zM8.7676 54.0469l42.8653-.0025s.1311.49-2.8504 1.6389-8.9513 1.6795-18.4511 1.6409-14.5398-.0924-18.28-1.3189c-3.7401-1.2265-3.2838-1.9584-3.2838-1.9584"/><path fill="#3C3C3C" d="M52.7033 31.6248v-.0285l.1895-.1889q.1707-.047.3299.0438l.1358.2324c-.1862-.4533-.2744-.9474-.4637-1.404-.2023-.4881-.4413-.9537-.7947-1.3517-.3337-.3758-.7659-.6731-1.2228-.8802a6.1 6.1 0 0 0-.7171-.2749c-.1697-.0525-.5412-.1117-.6109-.1637l.1895.1889a.505.505 0 0 1 .0006.2508l-.1895.1889c.0832-.0617.4867-.122.6695-.1791a6.2 6.2 0 0 0 .7723-.3003c.5003-.2337.9622-.57 1.2985-1.0097.3136-.4103.5174-.895.684-1.3805a10 10 0 0 0 .2133-.7135 14 14 0 0 0 .1259-.5224c.0081-.0368.0554-.1463.0297-.1116l-.1895.1889q-.1688.044-.3266-.0428l-.1358-.2324c.1741.4461.2474.9377.4111 1.3912.1724.477.3742.9604.6796 1.3693.3222.4316.7525.7739 1.2325 1.0183.2584.1316.5306.2415.8062.3321.1811.0597.5843.1249.6677.1879l-.1895-.1889a.51.51 0 0 1-.0019-.2504l.1894-.1889c.0383-.0279-.0213.0099-.0534.0149-.0661.0103-.1327.0283-.1979.0435a7 7 0 0 0-.3189.0807 6 6 0 0 0-.7333.2587c-.4761.2018-.927.4838-1.2789.8662-.6869.747-.9735 1.7929-1.2006 2.7559-.1556.6591.8627.9406 1.0188.2799.1879-.7968.3931-1.7486.9884-2.3539.2912-.296.6609-.5097 1.0498-.6521.208-.0761.421-.1384.636-.1917.2115-.0525.4373-.0727.6231-.1927.4952-.3196.3722-1.0862-.1679-1.2767-.4222-.1487-.8586-.213-1.2651-.4146-.3629-.1802-.7168-.4149-.956-.7478-.2393-.3328-.4026-.7233-.5379-1.1095-.1409-.4021-.2298-.8155-.353-1.222-.1499-.4948-.7439-.7701-1.1726-.4026-.3247.2782-.3414.8376-.4512 1.2297-.1134.4044-.2432.8083-.4397 1.181-.4059.7704-1.1698 1.1425-1.9843 1.363-.2036.055-.4466.0732-.6312.181-.2309.1347-.3671.3892-.359.6529.0185.608.6.6727 1.058.8041.4542.1303.9065.3142 1.2767.6139.3902.3159.6431.7405.84 1.1957.1011.2337.1842.4757.2611.7184.0768.2426.1168.5169.2291.7457.13.265.3831.4208.68.4147.3379-.0068.5623-.2405.6755-.5365.1014-.2659-.1125-.5774-.3689-.6476-.2973-.0814-.5478.1009-.6497.3677"/><path fill="#FCFCFC" d="M60.8624 22.3406c-.0341.1463-.2419.149-.2797.0035-.1582-.608-.4039-1.3344-.7767-1.7673-.4551-.5281-1.1125-.7523-1.7221-.8829-.1512-.0324-.1508-.2485.0006-.2806.6035-.1274 1.269-.3521 1.7114-.8282.4212-.4531.6589-1.3651.7921-1.9838.0323-.1499.2456-.1523.2812-.0033.1484.6187.4123 1.5331.8342 1.9871.4379.4713 1.0711.6962 1.6563.8243.1519.0333.1503.2503-.0022.2808-.6248.1249-1.3097.3385-1.7646.8666-.3728.4327-.5872 1.1703-.7305 1.7838"/><path fill="#3C3C3C" d="m60.4068 22.0751.0187-.0165.2331-.1354.1309.002.2331.1354q.0848.1359.0266-.0171a7 7 0 0 0-.0352-.1233 8 8 0 0 0-.0913-.2921 7 7 0 0 0-.208-.5392c-.1488-.3452-.3334-.6725-.5927-.9485-.2577-.2745-.5832-.4904-.9267-.642-.3315-.1463-.6896-.1983-1.0201-.3319l.233.1353.0722.1119v.28l-.0717.1121-.2331.1354c.1673-.067.3565-.0891.5295-.1422a4.75 4.75 0 0 0 .6011-.2315c.3818-.1773.7346-.4329.9923-.7668.2404-.3111.3962-.6746.5247-1.0439.1197-.3442.1594-.7295.2945-1.0643l-.1358.2323-.1136.0709h-.2808q-.2714-.3515-.1935-.1204.0182.0722.0372.1441.0301.1137.0628.2266a7.2 7.2 0 0 0 .1809.5477c.1353.3567.2914.7036.5262 1.0068.245.3159.5733.5667.9316.7435.1935.0955.3973.1775.6026.244.1748.0564.3656.0808.5342.1499l-.2331-.1354-.0726-.1112v-.28l.0706-.1125.2331-.1354c-.339.1316-.7056.1759-1.0454.3219-.3497.15-.6825.3558-.9444.6351-.528.563-.7509 1.3482-.9244 2.0806-.156.6591.8623.9404 1.0188.28.1464-.6179.3046-1.381.8398-1.7904.2166-.1656.4728-.2749.7314-.3547.3501-.1084.7846-.1102.9783-.4731.2077-.3894-.0185-.8326-.4213-.9609-.3096-.0988-.62-.1519-.9111-.3063-.5694-.3021-.815-.8057-1.0054-1.3956-.0922-.2859-.1228-.6591-.2793-.9163-.2289-.376-.7731-.4243-1.07-.1037-.204.2205-.2208.5886-.2973.8662-.0876.3183-.1878.6375-.3511.9263-.3048.5388-.9087.7606-1.4834.8975-.3983.0951-.7432.3651-.6413.8235.0914.4107.4343.4857.7897.5823.719.1954 1.2219.5737 1.5164 1.2641.0741.174.134.3548.1899.5352.0592.1906.0885.4168.1948.5882.2643.4263.9547.4131 1.1662-.0568.1169-.2594.0751-.5663-.1895-.7206-.2258-.1316-.6052-.0717-.7227.1889z"/><path fill="#FCFCFC" d="M25.7521 45.6696c-1.0053.4254-1.5784 1.1062-2.0065 2.2212-.8506 2.393.5933 4.6412-.723 6.8457-.1666.2789-.3849.5523-.4041.8645-.016.263.1134.5151.2459.7534.5084.9151 1.1022 1.7962 1.7741 2.6324.2225.2771.6197.3411.9146.1422l3.101-2.0918 1.7548-1.0966c1.2265 1.5966 3.7117 2.1949 6.2092 2.0918.5293-1.2236.8806-2.1894 1.0692-3.2419-.9906-1.0722-1.5842-2.4-1.6922-3.7572-.0648-.8118.0411-1.6262.0431-2.4398a9.6 9.6 0 0 0-.1477-1.7008c-.1688-.9535-.5385-1.9605-1.4554-2.5323-.592-.3693-1.3454-.5092-2.0802-.5307s-1.4709.0353-2.2046.0754c-.5051.0277-1.023.0661-1.4849.2409-.4708.1782-.8676.5858-.7853 1.0198-.8759.1095-1.569.267-2.128.5038"/><path fill="#3C3C3C" d="M27.3718 44.7091c-1.5039.2315-2.9267.7677-3.7192 2.1429-.4752.8245-.6959 1.748-.7188 2.6949-.0234.9678.1529 1.927.1461 2.8944-.0033.4563-.0548.9015-.195 1.3377-.1585.4927-.4967.8808-.6867 1.3552-.2104.5255-.0488 1.0136.2113 1.4864.2617.4755.5491.9378.8537 1.3869.3112.4592.6332.9375 1.003 1.3519.3189.3574.8396.5055 1.2967.3469.3171-.1101.6013-.3539.8755-.5388l2.4834-1.6752c.5599-.3778.0319-1.2905-.5332-.9094l-1.9308 1.3024-1.0344.6977c-.0575.0386-.1424.1158-.2107.1305-.1082.0237-.1628-.0557-.231-.1382-.1521-.1839-.2936-.3774-.4343-.57a18.7 18.7 0 0 1-.8286-1.2366 18 18 0 0 1-.3733-.6369c-.0845-.1516-.222-.3458-.1976-.5305.0227-.1703.1734-.3442.2615-.4847a4.6 4.6 0 0 0 .3303-.6301c.193-.448.3026-.9072.3585-1.391.199-1.7236-.4877-3.5299.2087-5.1939.1344-.3212.3052-.6424.5211-.9171.1367-.174.41-.4245.6055-.5515.6547-.4259 1.4407-.5885 2.2191-.7083.2821-.0434.4382-.3962.3689-.6476-.0828-.3004-.3667-.4114-.6497-.3678z"/><path fill="#3C3C3C" d="M37.7247 54.0219c-.7351-.9829-1.1876-2.1271-1.2173-3.3597-.0165-.6905.0603-1.3787.0616-2.069s-.0667-1.391-.2104-2.0674c-.2267-1.068-.7566-2.1034-1.7323-2.6672-1.168-.6751-2.5998-.5878-3.8963-.5134-.7435.0428-1.5376.0333-2.2405.3084-.6068.2377-1.2039.78-1.1389 1.4882.0259.2833.224.5266.5282.5266.2656 0 .5544-.2418.5282-.5266-.0379-.4113.5563-.557.8794-.6222.5714-.1152 1.1777-.1086 1.7585-.1386 1.0674-.0551 2.3582-.1519 3.2665.5276.739.5529.9901 1.522 1.1152 2.388.18 1.2475-.0564 2.4889.0426 3.7364.1013 1.2765.5762 2.495 1.343 3.5205.1704.2277.4569.3438.7228.1889.2251-.1312.3611-.491.1897-.7205"/><path fill="#3C3C3C" d="M32.7273 45.2183a26.5 26.5 0 0 0-2.3631.0053c-.7274.0347-1.515.0436-2.2213.2347-.5403.1462-1.0311.4742-1.1843 1.0363-.1683.6174.1816 1.1659.7089 1.4673.5907.3379 1.1236-.5717.5333-.9094-.0456-.0261-.0925-.0509-.134-.0829.003.0024-.0762-.0729-.0419-.0323-.0235-.0278-.0389-.0634-.0572-.0948.0387.0661.0086-.0535.0033.0031.0018-.0189.0022-.045.0066-.0713.015-.0921-.0196.0235.0042-.0232.0134-.0266.029-.0516.044-.0775.0306-.0529-.0592.0553.0088-.0114.0073-.007.0757-.0667.0513-.0483.0343-.0259.151-.0814.2218-.1059.2358-.0819.4855-.1097.7323-.1343 1.2252-.1216 2.4576-.1534 3.6877-.1025.6798.0281.6785-1.025 0-1.0531z"/><path fill="#3C3C3C" d="m33.0004 47.2835-2.4553-.1362c-.7421-.0413-1.4822-.0797-2.2228.0066-.642.0746-1.2858.2729-1.5805.9035-.3056.6542-.0129 1.3126.4856 1.7764s1.2452-.281.7469-.7446c-.0922-.0858-.1851-.1687-.2463-.28-.0253-.046-.0622-.1628-.0611-.1533-.011-.0858.0063-.1547.0917-.244.1418-.1481.3698-.1801.5637-.2051.2949-.0378.5938-.0523.8911-.0549 1.26-.0112 2.5294.1148 3.7872.1845.6792.0378.6772-1.0156 0-1.0531z"/><path fill="#3C3C3C" d="M32.4401 49.5198c-.8658-.1034-1.7321-.2023-2.6003-.2842-.9565-.0899-2.0948-.3234-2.8941.3618-.7846.6727-.399 1.7914.4168 2.2256.3832.2039.835.2526 1.2569.3267.4783.0843.9576.1624 1.435.2508.2802.052.5696-.0772.6497-.3677.0706-.2563-.087-.5955-.3689-.6477-.7344-.1362-1.4796-.2319-2.2079-.3989-.2156-.0495-.535-.1792-.5607-.4258-.0066-.0632.0072-.0939.0449-.142.0913-.1169.2689-.174.4078-.2069.3715-.0877.7852-.0153 1.1603.0174.3906.0342.781.0702 1.1712.1094.6975.07 1.3938.1514 2.0897.2346.2837.0338.5283-.2664.5283-.5266 0-.3126-.2437-.4925-.5283-.5265z"/><path fill="#3C3C3C" d="M29.4967 52.2205c-.4956.6189-.4428 1.5599-.3009 2.2984.1369.7124.4767 1.3691.9411 1.9226.9002 1.0727 2.2909 1.6394 3.6343 1.9104.2793.0563.5704-.0803.6497-.3678.0715-.2597-.0881-.591-.3689-.6476-1.0907-.2201-2.196-.6192-2.9839-1.4351-.3482-.3605-.6107-.7971-.7575-1.2763-.1066-.348-.1444-.6915-.1411-1.0544.0015-.1635-.0103-.5001.0739-.6054.1779-.222.2177-.5278 0-.7446-.1844-.1839-.568-.2234-.7469 0zM37.275 53.9624c-.0975.9559-.356 1.8811-.6952 2.7785-.3303.8734-.6867 1.7089-1.2378 2.4669-.1674.2304-.0396.5869.1895.7205.2668.1556.5549.0422.7228-.1889.6026-.8286.9836-1.7642 1.3443-2.7183.375-.9915.6255-2.0038.7331-3.0585.0288-.2833-.2635-.5266-.5282-.5266-.3097 0-.4992.2425-.5282.5266z"/></svg>