<svg xmlns="http://www.w3.org/2000/svg" width="32" height="18" fill="none" viewBox="0 0 32 18"><path fill="#4C4C4C" d="M30.4718 13.672c.8441.7967.8441 2.0885 0 2.8852s-2.2128.7968-3.057 0L14.4676 4.3373c-.8442-.7967-.8442-2.0885 0-2.8852s2.2128-.7968 3.057 0z"/><path fill="#4C4C4C" d="M14.4757 1.4426c.8442-.7967 2.2128-.7967 3.057 0s.8441 2.0885 0 2.8853L4.5855 16.5478c-.8442.7967-2.2128.7967-3.057 0s-.8442-2.0885 0-2.8853z"/><path fill="white" d="M15.2857 2.2063c.3972-.3748 1.0411-.3747 1.4384 0a1 1 0 0 1 .1033.1163L29.662 14.4353c.3972.3749.3972.9836 0 1.3585-.3973.3745-1.0413.3748-1.4385 0L15.995 4.2512 3.7773 15.7835c-.3973.3749-1.0412.3749-1.4384 0s-.3972-.9827 0-1.3576z"/></svg>