<svg xmlns="http://www.w3.org/2000/svg" width="47" height="59" fill="none" viewBox="0 0 47 59"><path fill="#FFEC72" d="M39.3216 22.5049c-.43-2.3813-1.054-4.3157-1.6504-7.1423-.5013-2.3812-.7541-5.4326-1.7495-7.4936-.7457-1.5412-2.2914-3.9201-4.668-5.0138l-1.5094-.8663-.3299-.1895C27.5977 1.0532 25.7056.5579 23.0179.5579c-4.4065 0-8.0531 2.0445-9.7933 3.733-1.9489 2.102-2.7501 4.2002-3.6635 8.1594-.597 2.5877-1.1879 5.736-1.6552 8.3508-.4023 2.3631-.444 4.7381.6627 6.831 1.2676 2.3966 3.6364 3.5434 7.2087 3.9686l15.3388.2061c3.3825.1547 5.8235-1.2711 7.2226-3.7366 1.0334-1.8212 1.2636-3.842.9831-5.4802z"/><path fill="#FCFCFC" d="M29.996 11.8724a53 53 0 0 0-1.0987-1.7019c-2.438 2.0311-3.7621 2.8855-8.1673 4.9747-2.4008 1.1384-4.0837 1.636-6.2521 2.2985l-1.5916.9165c-.3502-.3358-.8217-.462-1.2252-.4478-.8782.0308-1.2519.5051-1.4129.7837-.48.8311-.4598 2.3627-.1374 3.3104.2281.6711.602 1.6977 1.5032 2.4339.3906.319.9749.5237 1.5211.3977.4139 1.3356 1.1376 2.9159 2.369 4.3875 1.0194 1.2182 2.182 2.1951 3.4412 2.7982-.013.5545.0064.7323-.043 1.4015-.0227.2925-.0454.6077-.1541.8925-.1439.3731-.341.6986-.6542.9532-.5789.463-1.1658.7154-1.8644.9833.1395.5699.2839 1.1429.4323 1.7181 2.0116 1.5235 4.6366 2.3892 7.2784 2.4092 2.2012.0166 4.4021-.5538 6.2552-1.608.2315-.8759.4534-1.747.6644-2.6088-.5953-.2396-1.1198-.483-1.6303-.8934-.3133-.2546-.5101-.58-.6542-.9531-.1087-.2851-.1314-.6001-.1542-.8926-.0502-.7289-.0289-.8749-.0381-1.5597 2.6253-1.2671 4.7216-4.8626 5.0932-5.8699.072-.2182.2853-.66.4559-1.157l.0993.0167c.5226.0881 1.0692-.1118 1.4404-.4152.9011-.7362 1.275-1.7628 1.5031-2.4339.3222-.9477.3425-2.4793-.1374-3.3104-.1608-.2784-.5345-.7527-1.4129-.7837-.4035-.0142-.8752.112-1.2252.4478l-1.4587-1.5317c-.7994-1.5951-1.6867-3.2453-2.7453-4.9563z"/><path fill="#3C3C3C" d="M28.8987 10.1702q.4348.6495.8384 1.2867c-1.2576.0687-2.4984.408-3.6308 1.016l-.0751-.1395c.9739-.6309 1.8165-1.2867 2.8675-2.1632M23.3743 22.3247c.0601.2305.1156.4626.1646.6956.0152.0729.016.2373.0544.2881-.0694-.092.1566-.2458.1623-.234l.035.0061a1.6 1.6 0 0 0-.0951-.0171c-.2886-.0467-.5835.0747-.6669.3781-.0711.2582.088.6188.3787.6658.2402.039.4611.0721.6978-.0091.3422-.1175.5672-.3896.5714-.7577.0048-.4276-.1495-.8928-.2565-1.304-.1754-.6737-1.2217-.3881-1.0457.2878zM17.7725 19.3298c-.1768.5738-.0615 1.894 1.0275 2.0065 1.4394-.0086 1.5159-1.6047 1.0315-2.3552-.3967-.6144-1.5635-.8701-2.059.3487M29.3015 19.3296c.1769.5738.0617 1.894-1.0273 2.0065-1.4393-.0088-1.5159-1.6049-1.0314-2.3552.3966-.6144 1.5632-.8699 2.0587.3487M7.383 20.657c-.5697 3.5197-.2786 7.4666 2.885 9.6942 2.226 1.5673 4.9537 1.7905 7.582 1.7905.6977 0 .6988-1.0827 0-1.0827-2.2064 0-4.4005-.1288-6.3827-1.2338-3.2245-1.7974-3.5746-5.5705-3.0387-8.8805.1104-.6817-.9344-.975-1.0456-.2877"/><path fill="#3C3C3C" d="M30.018 1.5217C27.4958.0741 24.0017-.2159 21.1793.135s-5.6557 1.4839-7.8494 3.333c-1.9467 1.6408-3.0098 4.098-3.6951 6.488-1.0031 3.4976-1.6108 7.1245-2.2519 10.7015-.122.6812.9228.9735 1.0457.2877.5645-3.1505 1.1355-6.3098 1.9102-9.4168.6142-2.4633 1.4354-5.0042 3.2691-6.8543 1.8928-1.9095 4.7448-3.0331 7.3608-3.4256 2.6874-.403 6.0879-.1772 8.5018 1.2082.6061.348 1.1529-.5876.5475-.935M38.7987 22.7342c.4552 3.0235-.9197 6.3619-3.7192 7.781-1.8496.9376-3.9333.7504-5.9405.7504-.6978 0-.6989 1.0826 0 1.0826 2.4845 0 5.001.1443 7.1707-1.2973 2.8018-1.8617 4.0236-5.3579 3.5346-8.6048-.1034-.6867-1.1485-.395-1.0456.2877z"/><path fill="#3C3C3C" d="M31.718 3.7188c2.9681 1.9086 4.2327 5.0914 4.8292 8.4169.634 3.5344 1.593 6.9875 2.2489 10.5132.1272.6842 1.1726.3944 1.0456-.2877-.3518-1.8913-.8665-3.7437-1.3081-5.6148-.4601-1.9488-.7258-3.9268-1.1291-5.886-.6659-3.2353-2.2986-6.2496-5.1391-8.0764-.5885-.3783-1.1328.5584-.5474.9348M28.518 9.7872c-4.1275 3.4262-9.0804 5.5768-14.1801 7.1339-.6654.2032-.3816 1.2486.2882 1.0439 5.2902-1.6152 10.3805-3.8611 14.6587-7.4124.5372-.446-.2335-1.208-.7668-.7654"/><path fill="#3C3C3C" d="M28.4342 10.4431c1.4268 2.1361 2.6891 4.365 3.8438 6.6581.3137.6225 1.2494.075.9364-.5465-1.1549-2.2932-2.417-4.522-3.8439-6.6582-.3854-.577-1.325-.0354-.9363.5466M33.6302 23.8051c-.2531 1.5013-1.0448 2.9411-1.9046 4.1801-1.0938 1.5763-2.563 3.2257-4.4922 3.7146-.6759.1713-.3896 1.2157.2882 1.0439 2.0589-.5218 3.6293-2.1535 4.8505-3.8076 1.0335-1.4002 2.0108-3.1073 2.3038-4.8433.1149-.6814-.9299-.9744-1.0457-.2877"/><path fill="#FCFCFC" d="M3.1181 45.026c-1.3326 3.1473-1.656 6.8046-1.916 10.289l45.5629-.5443c-.4573-4.6389-1.0339-9.5827-3.9304-13.1571-.9986-1.2326-2.245-2.2494-3.6363-2.9664-1.0677-.5502-2.215-1.0514-3.3529-1.4213-1.2542-.4076-2.5162-.6553-3.82-.8005-1.8435 1.4224-4.9693 2.5541-8.2335 2.6029-3.2759.0293-6.4383-1.0347-8.3141-2.4186-1.3085.1695-2.5461.5063-3.7807.9393-1.132.397-2.2374.8906-3.2949 1.4663-1.3778.75-2.6032 1.7964-3.575 3.0524-.7058.9124-1.2637 1.907-1.7089 2.9585z"/><path fill="#3C3C3C" d="M12.3648 24.0506c.9764 4.0671 4.0426 8.3761 8.4208 9.1063.6825.1138.9762-.9293.2882-1.044-4.0259-.6714-6.767-4.6161-7.6633-8.35-.1627-.6773-1.2086-.3906-1.0457.2877"/><path fill="#3C3C3C" d="M13.276 17.9767c-.8154-.6465-1.9461-.8482-2.8577-.2334-.788.5313-1.0191 1.5197-1.0675 2.4133-.1145 2.1095 1.1664 5.3996 3.71 5.2397.6932-.0436.698-1.1266 0-1.0827-1.563.0983-2.4031-1.8797-2.5857-3.1853-.151-1.0783.2932-3.7662 2.0343-2.3858.541.4289 1.3134-.3323.7668-.7656zM34.587 18.7425c.5612-.445 1.3859-.3679 1.7863.2263.3835.5692.3373 1.5207.2478 2.1597-.1829 1.3065-1.0235 3.2836-2.5857 3.1853-.697-.0437-.6943 1.0389 0 1.0826 2.544.1599 3.8244-3.1297 3.7099-5.2396-.0481-.8882-.2782-1.8878-1.0675-2.4133-.9169-.6105-2.0385-.4162-2.8576.2334-.5464.4331.2256 1.1947.7668.7656"/><path fill="#FCFCFC" d="M34.6152 24.4622c-.8592 0-1.4531.6033-1.4531 1.3094 0 .7899.6067 1.3339 1.4531 1.3339.879 0 1.4532-.549 1.4532-1.3339 0-.7109-.5971-1.3094-1.4532-1.3094M1.487 54.9847l44.4209-.476s.1424.5983-2.9323 2.0375-9.2541 2.1544-19.0993 2.212-15.0687.0472-18.9607-1.4127-3.4286-2.3608-3.4286-2.3608"/><path fill="#3C3C3C" d="M34.6145 23.9205c-1.0369.0488-1.9905.739-1.9953 1.8508-.0048 1.1326.9843 1.9159 2.076 1.8721 1.0181-.0408 1.8779-.7447 1.9115-1.7999.0363-1.1426-.9224-1.873-1.992-1.923-.6976-.0327-.6959 1.0502 0 1.0827 1.0986.0514 1.2137 1.4855.0807 1.5576-1.2062.0766-1.2969-1.5006-.0807-1.5576.6949-.0327.6988-1.1156 0-1.0827zM23.6297 25.2853c-1.0704.0493-1.841.8134-1.8445 1.899-.0032.9246.5755 1.7843 1.524 1.9255 2.5413.3781 2.826-3.6573.3205-3.8245-.6967-.0465-.6938 1.0364 0 1.0826 1.1068.0739.8063 2.09-.3122 1.6405-.7841-.3153-.5042-1.6028.3122-1.6405.6949-.032.6989-1.1149 0-1.0826M16.8891 36.5703c.8871-.3747 1.7943-.8625 2.2353-1.7614.3673-.748.3537-1.6294.3593-2.4453.0048-.6969-1.0796-.6975-1.0844 0-.0041.6056.0453 1.3387-.2112 1.899-.3339.7289-1.1487 1.0783-1.8465 1.3731-.6406.2707-.0884 1.2034.5475.9349zM27.8457 32.3637c.0008.8009-.0138 1.6737.3401 2.4099.3933.8185 1.1466 1.2919 1.9464 1.6659.6283.2937 1.1795-.6392.5474-.9349s-1.3172-.6412-1.5795-1.3306c-.2096-.5509-.1696-1.228-.17-1.8103-.0008-.6967-1.0852-.6979-1.0844 0M10.2891 58.0796c.1133-3.5825.2278-7.1652.3647-10.7465.0328-.857-.9599-.8796-.9927-.0226-.1368 3.5813-.2512 7.164-.3647 10.7465-.027.8571.9657.8803.9927.0226"/><path fill="#3C3C3C" d="M30.6017 35.6239c1.9902.1311 3.9494.473 5.8258 1.1677 1.7852.6609 3.5253 1.4856 4.98 2.7395 2.6527 2.2867 4.0109 5.6201 4.7237 8.9875.4086 1.9309.6397 3.8949.8548 5.8555.0295.269-.2334.5058-.4849.5116-.2879.0065-.4782-.2192-.5078-.489-.358-3.2661-.7501-6.6091-2.0545-9.6536-.6332-1.478-1.5216-2.8585-2.6683-3.9838-1.2797-1.256-2.8255-2.0801-4.4671-2.7562-1.9747-.8132-4.055-1.2389-6.1789-1.3786-.2675-.0177-.5011-.2018-.5077-.489-.0058-.2523.2157-.5293.4849-.5116M16.0172 36.9565c-1.8491.1393-3.6501.6521-5.3663 1.3452-1.651.6668-3.2772 1.5091-4.5853 2.7414-2.4353 2.2941-3.5415 5.5053-4.076 8.7462-.3068 1.8596-.439 3.7419-.5592 5.6215-.0172.2696-.1999.5051-.4849.5116-.2504.0057-.5251-.2177-.5077-.489.2217-3.4715.4754-7.0312 1.7598-10.2966.6418-1.6318 1.5545-3.1557 2.775-4.4152 1.3275-1.37 2.9486-2.3058 4.6743-3.0738 2.0079-.8936 4.1526-1.5268 6.3477-1.6919.6376-.0481.6584.9528.0226 1.0006"/><path fill="#3C3C3C" d="M32.0505 36.4348c-1.8162 1.4865-4.126 2.3439-6.4167 2.7287-2.5911.4353-5.2726.2285-7.7633-.6257-1.1883-.4076-2.3201-.951-3.3313-1.7042-.2158-.1609-.1849-.5295-.0162-.7075.2045-.2157.4855-.1773.7019-.016 1.7204 1.2816 3.9486 1.9239 6.0449 2.1807 2.4181.2962 4.8967-.0491 7.166-.9298 1.0241-.3975 2.0414-.9177 2.8969-1.6177.2078-.1701.4907-.2193.7019-.016.1749.1685.2251.5363.0159.7075"/><path fill="#FFBDD5" d="m32.3407 28.1124.2123 6.0336a1.558 1.558 0 0 1-.4194 1.1199c-.2723.2917-.6573.4785-1.0886.4947-.8629.03-1.587-.6442-1.6172-1.5055l-.2071-5.9216"/><path fill="#3C3C3C" d="m31.7984 28.1127.1132 3.2224c.0309.8792.5735 3.5694-.6974 3.8607-1.6591.3802-1.3067-2.717-1.3374-3.5919l-.1142-3.2703c-.0244-.6948-1.1089-.6979-1.0845 0l.1556 4.4473c.053 1.5119.121 3.5713 2.211 3.5213 2.1772-.052 2.047-2.2469 1.993-3.7814q-.0776-2.2039-.1549-4.4081c-.0244-.6948-1.1091-.6979-1.0844 0"/><path fill="#FCFCFC" d="M34.7049 24.3556c-2.3123 2.4847-6.1975 2.6201-8.6777.3025s-2.6163-6.2105-.304-8.6952 6.1974-2.62 8.6776-.3025 2.6164 6.2105.3041 8.6952"/><path fill="#FFBDD5" d="M36.1431 13.7858c-3.5138-3.2832-9.0176-3.0914-12.2934.4285s-3.0829 9.035.4308 12.3182 9.0178 3.0914 12.2936-.4287c3.2756-3.5199 3.0829-9.035-.4308-12.3182zm-1.4404 10.5697c-2.3124 2.4847-6.1975 2.62-8.6777.3025-2.4804-2.3175-2.6164-6.2105-.3043-8.6952 2.3124-2.4847 6.1975-2.62 8.6777-.3025s2.6164 6.2105.3041 8.6952z"/><path fill="#3C3C3C" d="M36.1927 25.7213c-2.3755 2.4679-6.0359 3.3282-9.2193 1.9449-3.0983-1.3465-5.0546-4.5443-4.9055-7.9008.1512-3.4006 2.5175-6.4589 5.7904-7.4341 3.3033-.9842 6.972.244 8.9804 3.0554 2.2579 3.1605 1.9305 7.4706-.646 10.3346-.4653.5172.2992 1.2853.7668.7656 2.5655-2.8518 3.233-6.9405 1.5447-10.4163-1.6999-3.499-5.5727-5.5713-9.4268-5.0941-3.8132.4722-7.0341 3.3706-7.8735 7.1225-.8496 3.7978.7947 7.7997 4.0853 9.892 3.7331 2.3735 8.6397 1.6441 11.6703-1.5041.4836-.5024-.2822-1.269-.7668-.7656"/><path fill="#3C3C3C" d="M34.3217 23.9728c-2.1324 2.1844-5.6271 2.4239-7.9109.3025-2.2389-2.0798-2.3796-5.6852-.304-7.9297 2.0681-2.2365 5.6788-2.3895 7.9108-.3025 2.2671 2.1197 2.338 5.6371.3041 7.9297-.4613.5198.303 1.2883.7668.7655 1.8304-2.0631 2.348-4.9742 1.1407-7.4924-1.2274-2.5605-4.0413-4.0771-6.855-3.7225-2.7615.3479-5.0945 2.4614-5.6823 5.1849-.5838 2.7054.5588 5.5226 2.8697 7.0533 2.71 1.7952 6.2957 1.2622 8.5267-1.0235.4874-.4993-.2786-1.2657-.7668-.7656z"/><path fill="#D9D9D9" d="M33.3992 20.8731c-.2165 1.331-1.148 2.2681-2.4815 2.4811-.6871.1097-.3956 1.1533.2882 1.044 1.6663-.2661 2.9686-1.5764 3.2389-3.2374.111-.6817-.9338-.9748-1.0456-.2877"/><path fill="#3C3C3C" d="M30.1059 19.2477c.2092.6783.073 2.2388-1.2143 2.3714-1.7013-.0102-1.7918-1.8967-1.2191-2.7839.4688-.7262 1.8477-1.0281 2.4334.4125"/><path fill="#FCFCFC" d="M27.9035 36.1015c-.0578-.2917-.023-.5911.1226-.867.1647-.3121.5249-.6227.8316-.7039 0 0 .7047-.1864 1.1923-.315l-.3721-.2074c-.2431-.1353-.3224-.4647-.2471-.7323s.1779-.5061.3792-.6981c.3949-.377.6068-.5511 1.0648-.8486.49-.3183.9889-.5771 1.5127-.5476.3934.0223 1.4388.2703 1.8106.4008.5003.1757.9599.3442 1.356.5228.7115.3211 1.2062.9846 1.3232 1.7554.246 1.6213.5392 4.2022.6043 5.1312.0932 1.331.0242 1.6935.196 3.0169.0895.6885.9087 1.7426 1.5155 2.7355l.1158.1895a799 799 0 0 0-5.4543 3.0877c-.2736-.477-1.06-1.7181-1.5011-2.0893-.3578-.3011-.4321-.4273-.7751-.7806-.3687-.3798-.5136-.857-.5798-1.3065a24 24 0 0 1-.1228-.9486c-.0444-.4205-.3362-.7747-.7445-.8871-.3541-.0977-.7276-.2265-.854-.3777-.2663-.319-.3478-.615-.3607-.8541-.0311-.5692.3305-1.0909 1.0477-1.2683l.2492-.0617-.3376.0073c-.483.0104-1.039-.0445-1.2997-.2473-.5806-.452-.551-1.0841-.3699-1.5628.1572-.416.4504-.544.923-.7046 0 0 .0198-.0066.0396-.0135l-.3314.0346c-.2052.0214-.6014-.0919-.781-.4329a1.58 1.58 0 0 1-.1528-.4264z"/><path fill="#3C3C3C" d="M33.608 33.2301c-1.47.1159-2.9373.31-4.3736.6493-.9987.2359-1.9206.8537-1.896 2.0011.0194.8951.6112 1.5694 1.5017 1.6211.7001.0406 1.5084-.1599 2.2053-.2361.8759-.0958 1.7516-.1935 2.6272-.2909.6859-.0764.6937-1.1599 0-1.0827-.8756.0975-1.7513.1953-2.6272.2909-.6738.0735-1.8833.4433-2.398.0591-1.2696-.9475 1.6527-1.4924 2.1332-1.5786.9361-.168 1.8794-.2756 2.8274-.3506.6911-.0545.6969-1.1376 0-1.0826"/><path fill="#3C3C3C" d="M28.9871 36.4173c-.8035.2908-1.3715.7539-1.4285 1.6666-.0586.939.5422 1.6598 1.4452 1.8451 1.4761.303 3.2233-.0374 4.7179-.1295.6932-.0426.6982-1.1257 0-1.0826a226 226 0 0 1-2.2514.128c-.477.0246-.9547.054-1.4323.0635-.264.0054-.6313.0506-.8849-.0462-.8827-.3364-.5134-1.1709.122-1.401.6511-.2357.3702-1.2823-.288-1.0439"/><path fill="#3C3C3C" d="M29.8202 38.9868c-.8135.2744-1.4809.8651-1.4458 1.7903.0162.4281.2068.9344.5197 1.237.5614.5427 1.207.2688 1.4754 1.1953.1543.5325.108 1.0683.3416 1.5913.1981.4434.5251.8009.8659 1.1432.7196.7231 1.2908 1.4664 1.8095 2.3506.3524.6009 1.29.0567.9363-.5465-.3399-.5796-.7057-1.1516-1.123-1.6794-.5157-.6527-1.3278-1.1374-1.5899-1.9594-.2154-.6756-.0588-1.4684-.5143-2.0575-.162-.2096-.3539-.3539-.5901-.4697-.3339-.1636-.5566-.1357-.8033-.4474-.3573-.4514-.1815-.9057.4062-1.1039.6577-.2217.3756-1.2677-.2882-1.0439M30.0638 33.625c-.6867-.6931 1.9974-1.9043 2.3261-1.9026.6646.0033 1.4154.2884 2.0335.5122 1.1076.4008 1.7743.8145 1.9724 2.0329.1301.8009.2175 1.6111.3114 2.417.1582 1.3598.2406 2.7075.314 4.0733.0361.6694.0653 1.3525.3241 1.9771.3378.8154.9157 1.538 1.3818 2.282.3693.5894 1.308.0466.9364-.5466-.7141-1.1397-1.4455-2.0622-1.542-3.446-.0655-.9386-.0726-1.8778-.1643-2.8151-.1056-1.076-.2344-2.1501-.3765-3.222-.1188-.8973-.1674-1.8217-.7566-2.5563-.6377-.7953-1.7037-1.1384-2.648-1.4249-.7942-.2409-1.7272-.5072-2.5482-.2588-1.2663.3831-3.7567 2.2042-2.3311 3.6431.4915.4962 1.2583-.2694.7668-.7655zM43.1175 20.8023h1.8083c.6977 0 .6988-1.0827 0-1.0827h-1.8083c-.6978 0-.6988 1.0827 0 1.0827M42.5443 23.6938c.5749.2823 1.1712.5216 1.7659.7585.2722.1083.5956-.1185.6669-.3781.0849-.3084-.1055-.5572-.3787-.6658-.5082-.2024-1.0156-.4081-1.5069-.6492-.624-.3065-1.1743.6271-.5474.9348zM43.0912 17.7635c.4913-.2413.9987-.4468 1.5069-.6492.2717-.1083.4626-.3616.3787-.6658-.0711-.258-.3935-.487-.6669-.3781-.5948.2369-1.191.4761-1.7659.7585-.6263.3075-.0774 1.2415.5474.9348z"/><path fill="#3C3C3C" d="M38.7827 44.7914c-.6953.6437-1.4901 1.16-2.3263 1.6031-.8142.4312-1.6228.8175-2.5253 1.0196-.2743.0615-.4119.4084-.3292.6564.0962.2887.3837.3922.6587.3306.9867-.2209 1.8788-.6651 2.7681-1.1363.9242-.4894 1.7697-1.0754 2.5369-1.7856.206-.1908.148-.561-.0482-.7333-.2295-.2016-.5279-.1455-.7347.0458z"/></svg>