<svg xmlns="http://www.w3.org/2000/svg" width="28" height="20" fill="none" viewBox="0 0 28 20"><path fill="#FCFCFC" d="M22.3461 17.61v.9679h-.2774V17.61zM22.0687 18.5779V17.61c-.7707 0-1.4001.503-1.5864 1.1635l-2.8688-1.6437-.0246-.0142-.0257-.0123-.2389-.1276a4.4 4.4 0 0 1-.2251-.138l-.0256-.017-.0267-.0151-.0059-.0038c-.0101-.0074-.0191-.0164-.0296-.0236-.599-.4113-1.0912-.9542-1.4305-1.5843l-.8661.503c.4118.7418.9985 1.3811 1.7072 1.8677l-.002.0047c-.0026.0002-.0023.0034 0 .0048l.1096.0633c.1808.1181.3696.2254.5647.3232l3.4068 1.9519.0878.0425c.4458.1758.9465-.1888.8579-.6673-.0683-.3702.2292-.7098.6219-.7098"/><path fill="#FCFCFC" d="M22.3461 17.61v.9679c3.1248-.0001 5.6576-2.4261 5.6576-5.4179-.0001-2.9917-2.5329-5.417-5.6576-5.417h-1.7204l-.101.968h1.8214l.2389.0056c2.4553.119 4.4077 2.0629 4.4078 4.4434 0 2.4574-2.0805 4.4499-4.6467 4.45M7.6084 14.2137v1h.7559v-1zM1.001 7.6073C1.001 3.9584 3.9595 1 7.6084 1h4.3711c3.6486.0002 6.6064 2.9585 6.6064 6.6073-.0001 2.7982-1.7412 5.1908-4.2031 6.1533a2.1 2.1 0 0 0-.2754.1318l-3.8886 2.2275c.0295-1.0243-.7926-1.906-1.8545-1.9062v1c.5353.0002.9391.4861.8418 1.0127-.1243.6725.5429 1.1931 1.1484.957l.1201-.0576 4.1299-2.3662.1426-.0674c2.832-1.1071 4.8387-3.8607 4.8388-7.0849 0-4.201-3.4054-7.607-7.6064-7.6073H7.6084C3.4072 0 .001 3.4061.001 7.6073c.0002 4.201 3.4063 7.6064 7.6074 7.6064v-1c-3.535 0-6.4215-2.7759-6.5986-6.2665z"/><path fill="#FCFCFC" d="M7.0237 7.6345c0 .5346-.4526.968-1.0109.968S5.002 8.169 5.002 7.6344s.4526-.9679 1.011-.9679c.5582 0 1.0108.4334 1.0108.968M11.0686 7.6345c0 .5346-.4525.968-1.0108.968s-1.011-.4334-1.011-.968.4527-.9679 1.011-.9679 1.0108.4334 1.0108.968M15.1116 7.6345c0 .5346-.4526.968-1.0109.968s-1.0109-.4334-1.0109-.968.4526-.9679 1.0109-.9679 1.0109.4334 1.0109.968"/></svg>