<svg xmlns="http://www.w3.org/2000/svg" width="28" height="20" fill="none" viewBox="0 0 28 20"><path fill="#FCFCFC" d="M22.3461 17.61v.9679h-.2774V17.61zM22.0687 18.5779V17.61c-.7707 0-1.4001.503-1.5864 1.1635l-2.8688-1.6437-.0246-.0142-.0257-.0123-.2389-.1276a4.4 4.4 0 0 1-.2251-.138l-.0256-.017-.0267-.0151-.0059-.0038c-.0101-.0074-.0191-.0164-.0296-.0236-.599-.4113-1.0912-.9542-1.4305-1.5843l-.8661.503c.4118.7418.9985 1.3811 1.7072 1.8677l-.002.0047c-.0026.0002-.0023.0034 0 .0048l.1096.0633c.1808.1181.3696.2254.5647.3232l3.4068 1.9519.0878.0425c.4458.1758.9465-.1888.8579-.6673-.0683-.3702.2292-.7098.6219-.7098"/><path fill="#FCFCFC" d="M22.3461 17.61v.9679c3.1248-.0001 5.6576-2.4261 5.6576-5.4179-.0001-2.9917-2.5329-5.417-5.6576-5.417h-1.7204l-.101.968h1.8214l.2389.0056c2.4553.119 4.4077 2.0629 4.4078 4.4434 0 2.4574-2.0805 4.4499-4.6467 4.45M7.6084 14.2137v1h.7559v-1zM1.001 7.6073C1.001 3.9584 3.9595 1 7.6084 1h4.3711c3.6486.0002 6.6064 2.9585 6.6064 6.6073-.0001 2.7982-1.7412 5.1908-4.2031 6.1533a2.1 2.1 0 0 0-.2754.1318l-3.8886 2.2275c.0295-1.0243-.7926-1.906-1.8545-1.9062v1c.5353.0002.9391.4861.8418 1.0127-.1243.6725.5429 1.1931 1.1484.957l.1201-.0576 4.1299-2.3662.1426-.0674c2.832-1.1071 4.8387-3.8607 4.8388-7.0849 0-4.201-3.4054-7.607-7.6064-7.6073H7.6084C3.4072 0 .001 3.4061.001 7.6073c.0002 4.201 3.4063 7.6064 7.6074 7.6064v-1c-3.535 0-6.4215-2.7759-6.5986-6.2665z"/><path fill="#FCFCFC" d="M9.0815 10.0502q-.11 0-.11-.12l-.03-2.15q0-.12.12-.12h.42q.85 0 1.27-.44.43-.45.43-1.14 0-.59-.39-.97-.39-.39-1.08-.39-1.19 0-1.64 1.21-.05.1-.14.07l-.63-.17q-.1-.03-.07-.14.29-.87.95-1.35.66-.49 1.59-.49.69 0 1.21.28.53.27.82.76.3.49.3 1.12 0 .64-.28 1.17-.27.53-.79.86-.51.32-1.24.37l-.02 1.52q0 .12-.11.12zm.28 1.82q-.25 0-.43-.17-.17-.17-.17-.43t.17-.42q.18-.16.43-.16.26 0 .44.16t.18.42-.18.43-.44.17"/><path fill="#FCFCFC" d="M5.1539 11.8762q.0107 0 .0107.0117l.002.1524q.073.005.124.0371a.22.22 0 0 1 .0791.0859.25.25 0 0 1 .0283.1172.21.21 0 0 1-.0302.1113.197.197 0 0 1-.082.0762.25.25 0 0 1-.1212.0283c-.0618 0-.1152-.0162-.1591-.0488-.044-.032-.0755-.0778-.0948-.1357q-.0025-.0106.0069-.0137l.0634-.0166q.0089-.003.0137.0068.0451.121.164.1211c.046 0 .0825-.013.1085-.039q.0389-.038.039-.0967c0-.0459-.0144-.0843-.043-.1143q-.042-.0438-.1269-.0439h-.042c-.008 0-.0127-.0047-.0127-.0127l.003-.2149c0-.0078.0044-.0117.0117-.0117zm4.7295-.6064c-.0001-.147-.05-.2588-.1465-.3448-.1002-.089-.223-.1347-.374-.1347-.1432 0-.2624.0451-.3633.1347-.0895.0852-.1366.1969-.1367.3448s.0471.2648.1387.3574c.1012.0956.2199.1426.3613.1426.1492 0 .2706-.0477.371-.1426.099-.0934.1495-.2101.1495-.3574m-4.7598.4248q.026-.0001.044.0166a.057.057 0 0 1 .0185.043.054.054 0 0 1-.0185.0419.064.064 0 0 1-.044.0157.063.063 0 0 1-.043-.0157.055.055 0 0 1-.0165-.0419.058.058 0 0 1 .0166-.043.06.06 0 0 1 .043-.0166M12.0025 6.01c0-.4033-.0957-.758-.2851-1.0674l-.001-.002c-.1832-.3093-.4423-.55-.7793-.7216l-.002-.001c-.3297-.1774-.716-.2675-1.162-.2676-.6014 0-1.1099.1577-1.5303.4698l-.001.001c-.4197.3052-.7244.7349-.9121 1.2949l-.004.0166.003.001.6299.1699.0058.002c.002.0006.0037.0006.005.0009a.09.09 0 0 0 .0136-.0215c.1548-.4117.3758-.7282.666-.9424.2932-.2162.6494-.3222 1.0635-.3222.4789 0 .8673.1354 1.1504.418l.0986.1064c.2149.2561.3213.57.3213.9355 0 .4827-.1516.8883-.458 1.209-.3054.3197-.7591.4707-1.3418.4707h-.42c-.0244 0-.0248.0062-.0195.001.0054-.0054-.001-.005-.001.0195l.0303 2.1485v.001c0 .0082.0013.0144.002.0185.002.0002.0045.002.0078.002h.58c.0032 0 .0059-.0018.0079-.002.0007-.004.002-.0102.002-.0186v-.001l.0205-1.5205.001-.0918.0917-.0058c.4736-.0324.8701-.1528 1.1934-.3555.332-.2107.5833-.4836.7549-.8203l.0009-.002c.1784-.3378.2676-.7117.2676-1.123m-1.9199 5.2598c0 .1992-.0699.3697-.211.5029-.1395.1318-.3113.1973-.5087.1973-.192 0-.3603-.0662-.499-.1973l-.002-.0019c-.1335-.1337-.1992-.3037-.1992-.501s.0664-.3645.2021-.4922l.002-.002c.139-.1235.306-.1855.496-.1855.1958 0 .367.0612.507.1855.1428.1272.2127.2952.2128.4942M12.2027 6.01c0 .4417-.0963.8482-.291 1.2168l-.001-.001c-.1884.3695-.4633.6694-.8242.8985v.001c-.3347.21-.7346.332-1.1953.375l-.0186 1.4316c-.0002.0529-.0124.1112-.0537.1562-.0432.047-.1019.0625-.1562.0625h-.5801c-.0543 0-.113-.0154-.1562-.0625-.0413-.045-.0535-.1033-.0538-.1562l-.0293-2.1504v-.001c0-.0554.0133-.1158.0586-.1611.0454-.0454.1058-.0596.1612-.0596h.4199c.5501 0 .9426-.1417 1.1973-.4082v-.001c.2668-.2792.4023-.633.4023-1.0703 0-.3688-.1205-.6656-.3594-.8984l-.0009-.001c-.2368-.2368-.5693-.3603-1.0098-.3603-.3788 0-.692.0954-.9453.2822-.2223.164-.4048.4025-.544.7207l-.0605.1513c-.0223.0447-.056.0877-.1055.1124-.05.0249-.1023.0227-.1504.0078v.002l-.6299-.17-.0029-.001c-.0505-.0152-.1002-.0461-.128-.1015-.0264-.0533-.0231-.1106-.0097-.1602l.002-.0058c.199-.5971.5266-1.0658.9853-1.3995.4594-.3408 1.0112-.5088 1.6494-.5088.4728 0 .8919.0962 1.2549.291l.1348.0743c.305.1815.5476.4223.7256.7226l.0742.1309c.161.3113.2402.659.2402 1.041"/></svg>