<svg xmlns="http://www.w3.org/2000/svg" width="56" height="57" fill="none" viewBox="0 0 56 57"><path fill="#FCFCFC" d="M55.4555 54.0503c-.3966-4.4213-.9065-9.1346-3.7212-12.5694-.9722-1.1857-2.1891-2.1677-3.5534-2.8647-1.047-.5362-2.1688-.9051-3.2883-1.2694-.868-.2839-1.7466-.5688-2.6386-.7648-.4222.3385-.5049.3833-.7406.522-2.2995 1.3543-5.7689 2.1119-8.7318 2.1791-2.9597-.0666-6.4103-.8219-8.7121-2.1698-.2275-.1333-.3653-.1771-.8129-.5129-.8657.195-1.7187.4715-2.5626.7464-1.1195.3643-2.2413.7332-3.2883 1.2694-1.3643.697-2.5813 1.679-3.5535 2.8647-2.8146 3.4348-3.3245 8.1481-3.7211 12.5694"/><path fill="#FCFCFC" d="M37.8712 32.8046h-9.7233l-1.0235 2.0503-3.5823 2.0502 9.2116 3.588 8.6998-3.588-2.5587-2.0502z"/><path fill="#3C3C3C" d="M41.6769 37.1878c-.5903-.2428-1.1598-.5381-1.7402-.8035-.0458-.0208-.092-.0407-.1373-.062-.0818-.0385.1334.0547.0748.0312-.0587-.0235-.1165-.0471-.1721-.0762-.2712-.1424-.5278-.3437-.748-.5549-.3939-.3778-.6684-.8478-.8567-1.356-.1908-.5141-.278-1.0707-.3512-1.612-.0395-.2903.07-.5829.3798-.6679.2533-.0695.6293.0866.669.3792.0614.4528.135.9121.2649 1.3511.0283.0959.0607.1905.0954.2844.0086.0237.0181.0473.0274.0706-.0038-.0095-.031-.0699-.005-.0127.025.0548.0503.1091.078.1625a3 3 0 0 0 .1747.2944c.0787.116.0662.1002.1714.2145.1776.1932.319.3079.5316.4394.0215.0133.1283.098.0551.043-.0136-.0102-.0442-.0165-.0254-.0068.0476.0247.1006.0416.1498.0629q.0564.0245.1126.05c.289.1308.5756.2668.8628.4014q.2482.1165.4963.2324.097.0453.1937.0898c.056.0256.2215.0939-.0126-.0022.2715.1115.4645.3604.3798.6679-.0705.2564-.3957.4917-.669.3793zM28.1094 32.632c-.1401 1.0311-.3309 2.0588-1.0232 2.8768-.1899.2245-.4172.4132-.657.5824-.1423.1005-.2905.1939-.4535.2571-.058.0224.1108-.0496.0975-.0417-.0197.0116-.0431.0188-.0637.0283-.2917.1335-.582.2695-.8725.4057-.2797.131-.557.2711-.8415.3917-.2701.1145-.5826.0808-.7442-.1948-.1335-.2279-.0768-.6279.1951-.7431.5308-.2247 1.0459-.4901 1.5694-.7311.1104-.0509.2531-.0919.3542-.1557-.0052.0034-.0784.0392.0104-.023.056-.0394.1165-.0727.1729-.1118.1007-.0697.1632-.1231.2609-.2163.1933-.1847.2679-.2808.3932-.4935a3.5 3.5 0 0 0 .1482-.2858c.0415-.0883-.0059.0269.0261-.0645.0199-.0573.0417-.1138.0605-.1713.1688-.5148.2459-1.063.3186-1.5979.0394-.291.4129-.4497.669-.3793.3143.0862.4195.3763.3798.668z"/><path fill="#3C3C3C" d="M54.9112 54.0503c-.2747-3.0581-.5833-6.1827-1.7418-9.0559-.5591-1.3864-1.3555-2.6929-2.3923-3.7745-1.139-1.1884-2.5273-2.0686-4.0585-2.6653-.9469-.3688-1.9202-.6772-2.8899-.98s-1.9658-.577-2.9842-.6715c-.2926-.0272-.5439-.2302-.5439-.5431 0-.2727.2497-.5704.5439-.5431 1.8923.1756 3.73.8169 5.5115 1.4486 1.7098.6062 3.293 1.4247 4.6417 2.6515 2.4554 2.234 3.6869 5.3964 4.3008 8.5891.352 1.8306.5337 3.6892.7003 5.5439.0263.2926-.2688.5431-.5439.5431-.3162 0-.5176-.2498-.5439-.5431zM24.8667 36.8931c-1.7928.1449-3.5576.7947-5.2439 1.3855-1.5945.5587-3.0861 1.3178-4.333 2.4725-2.293 2.1238-3.3867 5.0866-3.9591 8.0904-.3282 1.7213-.4963 3.4665-.6529 5.2099-.0263.2922-.2312.5431-.5439.5431-.2738 0-.5702-.2491-.5439-.5431.2919-3.2486.6135-6.582 1.8934-9.6172.6362-1.5086 1.5069-2.9124 2.6592-4.0841 1.2696-1.2908 2.8061-2.2109 4.4883-2.861.9824-.3796 1.992-.6998 2.9989-1.0087 1.0577-.3245 2.1314-.5842 3.2369-.6734.2932-.0237.5439.2666.5439.5431 0 .3136-.25.5193-.5439.543"/><path fill="#3C3C3C" d="M24.0023 36.4529c2.074 1.1927 4.3808 1.8606 6.7533 2.1424 1.2347.1466 2.4471.1667 3.6842.0407a21.04 21.04 0 0 0 3.5911-.6863c1.2267-.3473 2.4954-.7994 3.5521-1.5294.2416-.167.6039-.0446.7442.1948.158.2698.0472.5757-.1951.7431-.9774.6754-2.1488 1.1228-3.2754 1.4783-1.2702.4009-2.5792.6611-3.8997.8265-1.2655.1587-2.5103.1906-3.7799.0641-1.3064-.1301-2.6061-.3598-3.8707-.7144-1.355-.3797-2.6345-.9216-3.8533-1.6223-.6064-.3487-.0591-1.2878.5492-.938z"/><path fill="#FCFCFC" d="m54.871 53.6168-44.1389-.0026s-.135.5054 2.9351 1.6904 9.2172 1.732 18.9993 1.6922c9.782-.0397 14.9718-.0953 18.8231-1.3602 3.8512-1.2649 3.3814-2.0198 3.3814-2.0198M20.8175 9.6964c-.5077 1.285-.8441 2.7688-.9152 4.4736-.0574 1.3757.1063 2.7221.2645 4.0023l.0008.0058a1.4 1.4 0 0 0-.1657.0153c-.4765.0713-.9103.3591-1.1284.7513-.1542.2751-.2039.5884-.2322.894-.1044 1.2048.1326 2.4325.678 3.5303.2655.5349.6117 1.0468 1.0929 1.4366.4316.3449.8656.5157 1.5631.1877.4185 1.3981 1.1672 3.0759 2.4681 4.6352 1.5763 1.8896 3.3379 2.9559 5.3902 3.4056.9443.2069 1.8576.2517 2.7258.2769.868-.0252 1.6974-.1187 2.5121-.2695 2.0657-.3827 4.0272-1.5234 5.6035-3.413 1.2451-1.4927 1.9844-3.0939 2.4127-4.456.7266.3363 1.2634-.0337 1.6803-.3669.4812-.3896.8274-.9017 1.0929-1.4366.5451-1.0978.7823-2.3255.678-3.5303-.0285-.3056-.0783-.6191-.2323-.894-.2181-.3922-.6519-.68-1.1283-.7513a1.59 1.59 0 0 0-.4689.0004l.0623-.3954c.0974-.6176.3175-2.4257.2675-3.6284-.2097-5.0318-2.8317-8.1406-5.147-9.8858-1.9942-1.503-4.4857-2.4-7.4204-2.4-3.0348 0-5.3972.9377-7.4213 2.4-1.5972 1.154-3.2411 2.9041-4.232 5.4122z"/><path fill="#FFBDD5" d="M41.5442 3.732c1.3604 1.0834 2.3146 2.227 2.2919 2.3118 0 0-.2272.1855-.4929.3997.8525.9903 1.747 2.5945 2.1653 4.3058.5079 2.0782.4758 5.545-.3988 7.4339-.4416-.0357-.8977.1143-1.2138.4l-1.691-.6891c-.3233-1.3027-.6436-2.449-.9215-3.7621 0 0 .4229-.3926.8262-.7673-.32-.5015-.7025-1.0561-1.02-1.3915-.3328-.3517-.8863-.8311-1.2703-1.1257-.6416-.4924-1.4764-1.1657-2.1179-1.658 0 0 .0617-.2905.1382-.6492-1.7617-.461-4.2238.1743-5.1779 1.6293-.8584-.385-2.1217-.2993-3.0594-.2177-1.018.0886-1.7044.236-2.5967.5247-.7358.2378-1.7799.6496-2.5149 1.127-.422.3283-1.0134.8243-1.4444 1.5929-1.02 1.8193-1.6257 4.3008-1.5341 5.5265-.3334-.4041-.919-.6104-1.4616-.5292a1.53 1.53 0 0 0-.4163.1239c-.8027-2.7581-.576-6.226.2211-8.3006.5531-1.4395 1.6532-3.3755 3.3701-4.1716l1.323-1.4005c.7376-1.4733 2.4792-2.6785 4.5057-3.3903C30.4733.5562 33.6361.314 36.19.7337c0 0-.0319.3346-.0613.6458.9379.1151 1.7241.3707 2.6206.6974.9963.3633 1.9705.9983 2.7953 1.6553z"/><path fill="#3C3C3C" d="M32.5983 10.2964c-1.299-.2779-2.6369-.4506-3.9635-.2801-1.4295.1838-2.752.8982-3.8822 1.7688-.2219.171-.58.0341-.7085-.1861-.1561-.2676-.0366-.5383.1859-.7097 1.2622-.9721 2.7317-1.6947 4.3196-1.8994 1.4468-.1865 2.9066.003 4.3242.3063.2737.0586.4326.3792.3617.638-.0779.2834-.3629.4209-.6372.3622M22.0742 24.1014c.0186.5202.1529 1.0262.3129 1.5192.0576.1774.1206.3528.1836.5284.0186.0518.0399.1029.058.155-.0469-.1342-.012-.0301.0184.0343.2363.5042.5328.9825.8403 1.4459.8893 1.3393 1.9721 2.6291 3.2727 3.5953.7612.5654 1.5963 1.0232 2.5293 1.2232.6842.1467.3946 1.1941-.2892 1.0474-1.8302-.3923-3.3896-1.652-4.6326-2.9949-1.0139-1.0952-1.9669-2.3451-2.6232-3.6919-.4258-.8739-.7236-1.8912-.7582-2.8617-.025-.6989 1.0628-.698 1.0877 0zM42.9188 24.1012c-.0186.5202-.1529 1.0261-.3129 1.5192-.0576.1774-.1206.3527-.1836.5283-.0186.0518-.0399.103-.058.155.0469-.1342.012-.0301-.0184.0344-.2363.5041-.5328.9825-.8403 1.4459-.8893 1.3393-1.9721 2.6291-3.2727 3.5952-.7612.5655-1.5963 1.0233-2.5293 1.2233-.6842.1466-.3946 1.194.2892 1.0474 1.8302-.3924 3.3896-1.652 4.6326-2.995 1.0139-1.0951 1.9669-2.345 2.6232-3.6918.4258-.8739.7236-1.8912.7582-2.8617.025-.699-1.0628-.6981-1.0877 0z"/><path fill="#3C3C3C" d="M20.9644 18.9498c-.4677-.3999-1.2596-.3231-1.6088.1958-.1982.2944-.2078.7038-.2187 1.0463-.0124.3948.007.7938.0739 1.1834.1352.7875.4067 1.5553.8338 2.2324.318.5042.8419 1.1811 1.506.9971.6433-.1783.9178.8223.2752 1.0003-1.7394.482-2.8859-1.5563-3.351-2.9222-.2705-.7946-.4003-1.6515-.3738-2.4908.0272-.8642.2185-1.6859.9771-2.1907.8161-.543 1.8924-.4057 2.6183.2151.2127.1821.1868.5464 0 .7335-.211.2113-.5191.1826-.7324 0zM43.4802 18.2162c.6699-.5732 1.5869-.7206 2.3906-.3419.8099.3814 1.1182 1.163 1.1875 2.0085.1372 1.6752-.3641 3.5237-1.452 4.8207-.5956.71-1.4618 1.2823-2.4179 1.0581-.6487-.1522-.374-1.1527.2753-1.0003.634.1488 1.2612-.5516 1.5781-1.0158.4651-.6815.7587-1.4739.9087-2.2829.0723-.3896.0984-.7864.0916-1.1822-.0064-.3657-.0084-.8189-.2209-1.1347-.3492-.5191-1.1409-.5959-1.6088-.1958-.2125.1818-.5236.2091-.7324 0-.186-.1863-.2135-.5508 0-.7335zM32.3924 22.7066c-.0942.3601-.1848.726-.2388 1.0947l.0185-.1379a.68.68 0 0 0-.0041.1511l-.0186-.1379a.4.4 0 0 0 .0166.068l-.0522-.1239a.27.27 0 0 0 .0239.0437l-.0811-.1049a.23.23 0 0 0 .0357.0353l-.1048-.0812a.7.7 0 0 0 .0867.0459l-.1237-.0523a.63.63 0 0 0 .146.0427l-.1377-.0185a.6.6 0 0 0 .1371-.0002l-.1377.0185c.0516-.0072.1024-.0197.154-.0267.1446-.0196.2673-.025.399.0523.1073.063.2099.1863.238.31.0302.1328.0237.2819-.0522.3996-.0673.1047-.1801.2208-.3095.2384-.1138.0153-.2241.0445-.3398.0494-.1755.0078-.339-.0456-.496-.1175-.1928-.0881-.3432-.2595-.3944-.4676-.0434-.1759-.0245-.3323.0052-.5085.0596-.3527.1408-.7022.2315-1.048.0687-.2625.373-.4478.6369-.3623.2697.0874.4354.3567.3617.638zM38.1472 19.6479c.1785.5807.0621 1.9165-1.0363 2.0302-1.4519-.0087-1.5292-1.6237-1.0404-2.3832.4002-.6218 1.5767-.8803 2.0767.353M26.5694 19.6484c-.1785.5807-.0621 1.9166 1.0361 2.0303 1.4519-.0088 1.5291-1.6239 1.0404-2.3832-.4002-.6219-1.5766-.8802-2.0765.3529M38.1647 9.1937c-.8623-.345-1.8082-.358-2.7103-.1536-.8544.1935-1.7719.6118-2.2714 1.2841-.1667.2245-.4482.3386-.7085.1862-.2209-.1295-.3537-.4836-.1858-.7096.6836-.92 1.7229-1.483 2.8247-1.7457 1.0774-.2567 2.2852-.2782 3.3266.1383.2595.1037.4417.3465.3617.638-.0677.2472-.3759.4668-.637.3623M33.2927 6.7458a5.1 5.1 0 0 0-.5376.162c-.048.0176-.0954.0363-.143.0547-.0834.0323.0078-.0046-.0408.0171a5.1292 5.1292 0 0 0-.7178.389 5.4 5.4 0 0 0-.2317.1592c-.009.0066-.1103.0828-.0701.0517.0279-.0215-.0715.058-.0872.0712-.2817.2338-.54.497-.7663.785.0432-.055-.0115.0162-.0271.0376a5.115 5.115 0 0 0-.2414.3609 5.2 5.2 0 0 0-.2639.4963c-.1183.254-.483.3182-.7085.1861-.2599-.1522-.3045-.4548-.1858-.7096.7047-1.5128 2.1294-2.6659 3.746-3.0613.2627-.0642.5736.0836.6369.3623.0608.2675-.0802.569-.3617.6378M28.8986 7.3804a3.4 3.4 0 0 0-.1415.0942q-.0276.0197-.0549.0399c-.0928.067.0615-.052.0107-.0084-.0818.0702-.1637.139-.2404.215-.0804.08-.1551.165-.2278.2522-.0431.0517.0035-.0014.0179-.0247-.0148.0235-.0343.0457-.0504.0684a3.1885 3.1885 0 0 0-.3219.559c-.0452.101-.005-.0138.0056-.0144-.0072.0004-.0281.0725-.0307.0792a3.1 3.1 0 0 0-.1346.4738c-.0086.0427-.0357.223-.0144.0637-.0191.1432-.0452.2601-.1517.3667-.0899.09-.2373.1578-.3661.152-.2498-.0112-.5565-.2306-.5179-.5187.0737-.55.2406-1.074.542-1.5443a3.74 3.74 0 0 1 1.1536-1.1493c.2295-.145.581-.0559.7085.1861.1348.2558.059.5548-.186.7096"/><path fill="#3C3C3C" d="M24.8558 11.9697c-.4995.4039-.9929.8656-1.3249 1.4216-.3159.5288-.5637 1.1048-.7758 1.6823-.3847 1.0476-.7004 2.1732-.7338 3.2752-.0203.6659-1.0561.6689-1.0358 0 .0375-1.2341.3695-2.4776.7994-3.6281.2406-.6439.5122-1.2985.872-1.8864.3772-.6167.9076-1.1461 1.4665-1.5982.2173-.176.5199-.2129.7324 0 .1817.1819.2187.5566 0 .7336M37.9651 8.7414c.9869.7587 2.0061 1.5052 2.9365 2.3331.8481.7549 1.4653 1.6872 2.0452 2.6563.3433.5742-.5518 1.0963-.8944.5237-.5379-.8993-1.0964-1.7462-1.8832-2.4464-.8639-.7689-1.8086-1.4649-2.7268-2.171-.2215-.1703-.3396-.4462-.1858-.7096.1275-.2184.4852-.3577.7085-.1861"/><path fill="#3C3C3C" d="M42.075 13.9939c.2689 1.2634.6099 2.5091.9214 3.7621.0675.2717-.0875.5626-.3617.638-.2653.073-.5693-.0894-.637-.3623-.3115-1.253-.6527-2.4987-.9214-3.7621-.0582-.2737.0808-.5608.3617-.638.2577-.071.5784.087.637.3623M43.2287 5.5795c.6205.5667 1.1214 1.277 1.5419 2.001.5107.8791.9182 1.8335 1.1823 2.8162.4448 1.6551.5023 3.4623.3187 5.1599-.1036.9561-.2878 1.8914-.6653 2.7788-.1097.2577-.4887.3148-.7084.1861-.2663-.156-.296-.4509-.1859-.7096.254-.5969.4185-1.3809.5026-2.0702.1025-.8407.1288-1.6912.0942-2.537-.0692-1.6808-.4504-3.2892-1.2525-4.7788-.4151-.771-.91-1.5192-1.5598-2.1127-.4935-.4508.2406-1.1828.7324-.7335z"/><path fill="#3C3C3C" d="M34.7802.7946c1.7942-.026 3.6402.4351 5.2243 1.284 1.3477.7222 2.5708 1.7422 3.6108 2.8596.1725.1853.3388.3756.4935.576.114.1476.2645.3285.2454.5294-.0267.2789-.2189.5187-.5178.5187-.2594 0-.5446-.2382-.5179-.5187-.004.0425.0362.2103.057.2205-.0102-.005-.0226-.0397-.0299-.0493-.0138-.018-.0269-.0377-.0395-.0565-.0751-.1131.05.0543-.0045-.0068-.1361-.1524-.2636-.3122-.4026-.4624-.4215-.4545-.8734-.8812-1.3459-1.2822-.566-.4804-1.1689-.9183-1.8125-1.2887-.6806-.392-1.4072-.6626-2.1567-.8914-.919-.2805-1.8428-.4088-2.8035-.3948-.6666.0096-.667-1.0278 0-1.0374z"/><path fill="#3C3C3C" d="M24.1015 4.1832c.8141-1.5938 2.4458-2.6518 4.0466-3.3292 1.5496-.6558 3.2305-.829 4.9016-.852 1.0973-.015 2.1942.0568 3.2779.2315.2763.0445.4301.389.3617.638-.0808.2945-.3599.407-.6369.3623-1.6969-.2737-3.4787-.2703-5.1815-.0465-1.5301.2011-2.9744.775-4.2294 1.6798-.6728.4852-1.2662 1.0968-1.6456 1.8398-.3038.5945-1.1977.0702-.8944-.5237M23.486 6.2932c-1.4574.6912-2.4117 2.153-3.0206 3.5831-.6599 1.5501-.8503 3.3328-.8109 5.0184.0251 1.0713.161 2.1342.445 3.1684.1771.6446-.822.9197-.9987.2757-.5469-1.9926-.6063-4.115-.3143-6.1537.2422-1.6913.8408-3.3386 1.8482-4.7275.6143-.847 1.3742-1.6073 2.3286-2.06.2526-.1199.5589-.0702.7085.1861.1319.2259.0681.5893-.1858.7096zM34.4982 27.3123c-1.5371-.1347-3.0808-.0892-4.6208-.1576l.4993-.6566c.1008.5955.3012 1.1627.6193 1.677.2438.394.621.7609 1.0839.7416.4207-.0178.8509-.3498 1.1557-.6755.372-.3976.6172-.8792.7282-1.4117.0571-.2743.3796-.4331.6369-.3623.2841.0782.4191.3629.3618.638-.2739 1.3141-1.4377 2.8022-2.8826 2.8486-1.6116.0519-2.476-1.8461-2.7019-3.1801-.0531-.3139.1345-.6728.4994-.6566 1.54.0684 3.0837.0231 4.6208.1576.2786.0243.5178.2209.5178.5187 0 .2617-.2376.5432-.5178.5187z"/><path fill="#FCFCFC" d="M12.0994 29.0499a.628.628 0 0 0 .0777-.4856 13.83 13.83 0 0 0-.8707-2.6534s-.059-.0831-.1395-.1973a18.87 18.87 0 0 1-3.4064 1.308c.005.1371.0076.2387.0076.2387-.0862.1934.5849 1.7546.9311 2.3921a1.22 1.22 0 0 0 .2339.3046c.1936.1306.4256.2001.6633.1989a13.6 13.6 0 0 0 1.908-.6838 1.45 1.45 0 0 0 .5792-.3977 1 1 0 0 0 .0158-.0245"/><path fill="#FFEC72" d="M3.4941 18.4319a5 5 0 0 0-.306.3653c-.522.6488-.8488 1.4236-.9443 2.2394-.0955.8159.044 1.6414.403 2.3859.3113.6878.7633 1.308 1.329 1.8236a6.55 6.55 0 0 0 1.385 1.0344 6.38 6.38 0 0 0 1.3232.5433 20.7 20.7 0 0 0 4.4605-1.758c.738-.6636 1.0935-2.2422 1.0449-3.0968a6.09 6.09 0 0 0-.3402-1.8376c-.2496-.6507-.6283-1.2484-1.1149-1.7597-.6313-.705-1.4704-1.2081-2.4057-1.4425a5.67 5.67 0 0 0-3.0664.2648c-.677.2819-1.2807.7046-1.768 1.2379"/><path fill="#3C3C3C" d="M4.48 18.55c-.541.6394-.8977 1.4311-1.0276 2.2806-.1298.8495-.0273 1.7208.2953 2.5099.3471.8105.8521 1.5331 1.4815 2.1199s1.3688 1.0243 2.1691 1.2835h-.3085a17.6 17.6 0 0 0 3.5921-1.4589 2.18 2.18 0 0 0 .7314-.474 2.93 2.93 0 0 0 .3771-.7291 5.63 5.63 0 0 0 .3542-1.8118c.0398-1.3897-.4183-2.7434-1.2813-3.7865-.8254-.9567-1.871-1.5601-3.1188-1.5279a4.2 4.2 0 0 0-.807.0962 5.3 5.3 0 0 0-.4465.1097 4.3 4.3 0 0 0-.293.0989 4 4 0 0 0-.2142.087q.156-.0708.067-.0299c-.5906.3042-1.1234.722-1.5715 1.2322-.5039.5895-1.3225-.2863-.8208-.8738 1.569-1.8366 4.1931-2.523 6.3361-1.4417.8235.4408 1.5363 1.0844 2.0792 1.8775.7895 1.1479 1.2198 2.5313 1.2298 3.9541.0392 1.1698-.2564 2.3247-.8476 3.3115-.1601.2675-.376.492-.631.656-.2643.1614-.5355.3089-.8099.451-.5863.3012-1.1885.5697-1.7968.8153-.5029.2029-1.0118.3916-1.5284.5504-.2381.099-.5.1121-.7458.0374-1.364-.4673-2.5606-1.369-3.428-2.5835-.8514-1.117-1.31-2.5154-1.2968-3.954.066-1.3653.575-2.6638 1.44-3.674.4921-.6001 1.31.2767.8207.874M11.9228 27.8067a35.6 35.6 0 0 1-3.4524 1.2207.595.595 0 0 1-.4254-.0516c-.129-.0693-.2242-.1837-.265-.3185a.515.515 0 0 1 .0572-.4005c.073-.1215.193-.2116.3348-.2515.5458-.1619 1.0865-.3395 1.623-.527q.4286-.1497.8535-.3092.2053-.0773.4093-.1568l.0989-.0389q-.0789.0314.0114-.0049a15 15 0 0 0 .1871-.0766.607.607 0 0 1 .4242-.0498c.1429.0354.266.1213.3438.24a.51.51 0 0 1 .0559.4013c-.0376.1355-.13.2518-.2573.3238z"/><path fill="#3C3C3C" d="M12.1474 24.9023c.395.6994.6055 1.5547.8262 2.3198.1241.4041.2248.815.3016 1.2305a1.586 1.586 0 0 1-.1448 1.03 1.605 1.605 0 0 1-.7534.723 12.7 12.7 0 0 1-1.4225.6148 6.9 6.9 0 0 1-1.2687.4278 1.724 1.724 0 0 1-.8968-.107 1.71 1.71 0 0 1-.717-.5448 5.53 5.53 0 0 1-.5799-1.1275c-.2193-.5025-.4307-1.0099-.6107-1.5277-.1178-.3396-.3101-.7995-.1923-1.1615.2432-.7466 1.4353-.4272 1.1903.3255-.0072.0217.0126-.1974.0154-.051-.0018-.0931-.0172-.102.0118.022.034.1451.0797.2874.127.4288.122.365.2634.7239.4115 1.0795.1131.2732.2671.623.4227.9403.0693.149.154.2904.253.4219-.0257-.0293-.1213-.064-.0154-.0199.0383.0158.074.0416.1119.0592.164.0765.0712.0293.0545.0232.0054.0021.172.0686.1214.0431.0645.0327.0858-.0048.0071.0079a.8.8 0 0 0 .0926-.0219c.0826-.0235.1648-.0462.2466-.0722.2142-.0679.4253-.1462.6352-.2265a22 22 0 0 0 1.0936-.452 1.96 1.96 0 0 0 .5117-.2806c.1098-.0985.1144-.162.0882-.3245a9.6 9.6 0 0 0-.2741-1.0995 25 25 0 0 0-.4202-1.3265 13 13 0 0 0-.1849-.5033c-.0141-.0357-.029-.0711-.0429-.1071.0203.051.0452.0964.0074.0184-.0234-.048-.0447-.0962-.0712-.1429-.3885-.6887.6773-1.3063 1.0659-.6181zM.7948 14.6927q.5785.5056 1.1618 1.005c.1159.0839.2018.2125.2424.3626a.7.7 0 0 1-.0533.4677c-.0702.136-.1834.2356-.316.2781a.45.45 0 0 1-.2093.0181.47.47 0 0 1-.1982-.0792 131 131 0 0 1-1.162-1.0051c-.115-.0851-.2006-.2132-.2425-.3625-.0365-.1579-.0173-.326.0533-.4678.0702-.136.1835-.2356.3163-.2781a.45.45 0 0 1 .2093-.0185.47.47 0 0 1 .1982.0797M3.692 14.2185q-.0675-.2484-.1409-.4934l.0381.1269a19 19 0 0 0-.2142-.6661c-.0487-.125-.0623-.2711-.0381-.4095.0268-.133.0888-.2465.1732-.3174a.314.314 0 0 1 .1417-.0677.276.276 0 0 1 .1493.0141c.0952.0361.1764.1236.226.2435.144.4206.2748.8504.3935 1.2865a.75.75 0 0 1 .0102.21.7.7 0 0 1-.0483.1993c-.0506.1216-.1334.21-.2304.2458-.0969.0357-.2.0159-.2864-.0552l-.0765-.083c-.0464-.0649-.0798-.1458-.0972-.2344zM6.6668 13.7194c.0561-.6462.1222-1.2918.2133-1.9286.0325-.1788.1086-.3306.212-.4224s.2256-.1164.3404-.0684c.1135.0531.2094.1726.2678.3336.0585.161.0749.3511.0458.5306-.091.6369-.157 1.2825-.213 1.9287-.031.1766-.105.3272-.206.4199-.1049.0939-.2292.1194-.3461.0708-.1126-.0493-.2087-.1646-.2683-.3219l-.0453-.168a1.1 1.1 0 0 1 0-.3734zM5.5433 23.844c.0392-.6178.2737-1.2019.664-1.6539.3574-.4504.8444-.9507 1.401-1.0543 1.1787-.2194 2.317.9481 1.93 2.2513-.0833.2792-.2307.5308-.4284.731-.1977.2003-.4393.3426-.7018.4135a1.34 1.34 0 0 1-.8186.014c-.2876-.1154-.543-.3087-.7422-.5616-.1957-.2329-.3344-.5154-.4036-.8215a2.04 2.04 0 0 1 .0078-.9308c.1579-.5519.4712-1.0363.8959-1.3851.257-.2422.5556-.4268.8786-.5432a2.39 2.39 0 0 1 1.0037-.1352c.3349.0487.6574.1694.9487.355.2914.1857.5455.4326.7477.7263.1029.1187.1602.2755.1602.4385s-.0573.3198-.1602.4385c-.1077.1154-.253.1801-.4043.1801-.1514 0-.2967-.0647-.4044-.1801-.4112-.5685-.9511-.9334-1.6202-.6176-.3057.1437-.5703.3736-.7662.666.0152-.0228-.0777.1364-.0915.1633a1.4 1.4 0 0 0-.0577.1212c.0058-.014.0208-.0584 0 .0072-.0166.0517-.0507.2067-.0505.2052.0031-.0339.0215.2253.005.145a.58.58 0 0 0 .0577.179.8.8 0 0 0 .081.1336q.0691.0835.1477.1564c.0036.0028.202.1155.1225.0827-.1132-.0468.097-.0129.0353-.0034a1.35 1.35 0 0 0 .212-.0584c.0953-.031-.0715.044.0195-.0072a1 1 0 0 0 .1051-.0659c-.013.0096.0925-.1098.0558-.0535a.61.61 0 0 0 .0993-.2897.545.545 0 0 0-.0574-.2757c-.029-.0372-.0626-.0685-.093-.1034-.0078-.0093-.0645-.0555-.0106-.0116.0607.0493-.0255-.0163-.0408-.0259l-.0903-.0553c-.0777-.0485.0732.0259-.0143-.01a1.1527 1.1527 0 0 0-.1947-.0608c.092.0197-.0802-.0025-.0876-.0028-.1281.011-.2484.0714-.339.1703a4.4 4.4 0 0 0-.4597.4682 1.97 1.97 0 0 0-.2968.4538 1.07 1.07 0 0 0-.102.4078c-.003.1635-.0643.3193-.1709.4349s-.2502.182-.401.1853c-.1512-.0015-.2958-.0674-.4027-.1834-.107-.1159-.1677-.2728-.169-.4368z"/></svg>