<svg xmlns="http://www.w3.org/2000/svg" width="24" height="24" fill="none" viewBox="0 0 24 24"><path fill="#FCFCFC" d="M22 22.9953v1H2v-1zm1-1V10.3811c0-.5523-.4477-1-1-1H2c-.5523 0-1 .4477-1 1v11.6142c0 .5522.4478 1 1 1v1l-.2041-.0108c-.9415-.0954-1.6897-.8436-1.7852-1.7851L0 21.9953V10.3811c0-1.1046.8954-2 2-2h20c1.1046 0 2 .8954 2 2v11.6142l-.0107.2041c-.0955.9415-.8437 1.6897-1.7852 1.7851L22 23.9953v-1c.5523 0 1-.4478 1-1"/><path fill="#FCFCFC" d="M7.1177 12.3378c-1.1474-.005-2.1797.4878-2.891 1.2735l5.771.0251a3.866 3.866 0 0 0-2.88-1.2986"/><path fill="#FCFCFC" d="M7.331 12.3446c1.061.062 2.0058.5496 2.6662 1.2919l-5.7705-.0252a3.867 3.867 0 0 1 2.8914-1.2735zM3.6977 14.3564a3.8 3.8 0 0 0-.4424 1.4324l7.6941.0336a3.8 3.8 0 0 0-.4296-1.4362z"/><path fill="#FCFCFC" d="M10.5193 14.3862a3.8 3.8 0 0 1 .4301 1.4362l-7.694-.0336a3.8 3.8 0 0 1 .4419-1.4324zM3.6816 17.9724l6.822.0298c.2359-.434.3901-.918.4424-1.4325l-7.694-.0336a3.8 3.8 0 0 0 .4296 1.4363"/><path fill="#FCFCFC" d="M10.946 16.5697a3.8 3.8 0 0 1-.4428 1.4325l-6.822-.0298-.0823-.1664a3.8 3.8 0 0 1-.347-1.2699zM7.0847 20.0204a3.867 3.867 0 0 0 2.8914-1.2734l-5.771-.0252c.7043.7918 1.732 1.2936 2.8796 1.2986"/><path fill="#FCFCFC" d="M9.9765 18.747a3.868 3.868 0 0 1-2.8914 1.2735l-.2139-.0068c-1.061-.0621-2.0057-.5495-2.6661-1.2919zM15.3541 17.8738c-.5992-.0027-1.0867.4776-1.0894 1.0726-.0026.5953.4807 1.0799 1.0798 1.0825s1.0864-.4777 1.089-1.073c.0027-.595-.4803-1.0795-1.0794-1.0821"/><path fill="#FCFCFC" d="M15.4336 18.9512c0-.0368-.0314-.0771-.0836-.0775-.0529-.0002-.085.0402-.0853.0768-.0002.0371.0318.0782.0846.0784l-.0045 1-.1113-.0064c-.5466-.0576-.9712-.5183-.9688-1.0764.0028-.5948.4907-1.075 1.0897-1.0723l.1103.0063c.5467.0575.9712.5178.9688 1.0755l-.0063.1103c-.0579.5432-.5209.9652-1.0824.963l.0045-1c.0521.0001.0841-.0403.0843-.0777M19.5529 17.8921c-.5991-.0027-1.0863.4776-1.0889 1.0726-.0027.5953.4802 1.0799 1.0793 1.0825s1.0868-.4777 1.0894-1.073c.0027-.595-.4806-1.0795-1.0798-1.0821"/><path fill="#FCFCFC" d="M19.6328 18.9695c.0001-.0364-.0315-.0773-.0846-.0775-.0523-.0001-.084.0399-.0843.0768-.0002.0375.0314.0781.0836.0785l-.0044.9999-.1103-.0064c-.5469-.0574-.9713-.5182-.9688-1.0764.0027-.5948.4898-1.0749 1.0886-1.0723.5991.0026 1.0827.4869 1.0801 1.0818l-.0063.1103c-.0579.5433-.5216.9654-1.0833.963l.0044-.9999c.0529.0002.0852-.0407.0853-.0778M20.259 12.3506l-5.3098-.0232a.5.5 0 0 0-.5022.4978l-.0076 1.7175a.5.5 0 0 0 .4977.5022l5.3099.0232a.5.5 0 0 0 .5022-.4979l.0076-1.7175a.5.5 0 0 0-.4978-.5021"/><path fill="#FCFCFC" d="m15.4416 14.0473 4.3095.0188.0032-.7177-4.3095-.0188zm5.3073.5232-.0102.1005a.501.501 0 0 1-.492.3973l-5.3096-.0232-.1005-.0112a.5.5 0 0 1-.3879-.3903l-.0093-.1007.0076-1.7177a.5005.5005 0 0 1 .4016-.4885l.1006-.0093 5.3095.0232a.5.5 0 0 1 .4978.5021zM2.5977 7.8318 14.9104.8762a.1514.1514 0 0 1 .195.0404l.1728.2285a.1486.1486 0 0 1-.0399.2161L4.8477 7.8327z"/><path fill="#FCFCFC" d="M14.91.8764a.1515.1515 0 0 1 .1948.0402l.1738.2282a.1497.1497 0 0 1-.0405.217l-.0361.0215-10.3543 6.449-2.25-.0005z"/></svg>