<svg xmlns="http://www.w3.org/2000/svg" width="20" height="24" fill="none" viewBox="0 0 20 24"><path fill="#FCFCFC" d="M12.5165 15.726h-9.036v.871h9.036zM12.5165 12.1974h-9.036v.8682h9.036zM12.5165 8.6654h-9.036v.871h9.036zM12.5169 5.1364H8.2598v.871h4.2571z"/><path fill="#FCFCFC" d="M16.0011 18.5714V1.857c0-.1075-.0091-.2157-.0275-.3172C15.8239.6653 15.0665 0 14.1569 0H6.6844a2.011 2.011 0 0 0-1.429.5975L.5925 5.2963A2.058 2.058 0 0 0 0 6.741v11.8305c0 1.0219.8277 1.8565 1.8447 1.8565h12.3121c1.0167 0 1.8443-.8346 1.8443-1.8565m-9.97-17.2809V5.466c0 .4529-.174.628-.62.628H1.2705zM1.0354 18.5714V7.0208h4.9283a.96.96 0 0 0 .4488-.1107.964.964 0 0 0 .4336-.4373.96.96 0 0 0 .107-.4465V1.0441h7.2038c.3326 0 .6197.203.7418.4957a.78.78 0 0 1 .064.3172v16.7144c0 .4461-.3602.8129-.8058.8129H1.8447c-.446 0-.8093-.3668-.8093-.8129"/><path fill="#FCFCFC" d="M18.1585 3.5721h-1.2427l.064 1.044h1.1786c.446 0 .8065.3632.8065.813v16.7142c0 .4462-.3605.8129-.8065.8129H5.8434c-.333 0-.62-.2065-.7423-.4959-.0395-.0983-.0638-.203-.0638-.317v-.7266H4.0019v.7267c0 .1075.0093.2151.0276.3169.1497.8713.9072 1.5397 1.814 1.5397h12.315c1.017 0 1.8418-.8347 1.8418-1.8566V5.4291c0-1.0255-.8249-1.857-1.8418-1.857"/></svg>