<svg xmlns="http://www.w3.org/2000/svg" width="52" height="48" fill="none" viewBox="0 0 52 48"><path fill="#FCFCFC" d="M20.9905 0C9.5105.0002.1644 9.2415.116 20.641.0677 32.0405 9.3354 41.2818 20.8154 41.282h2.8583c.6226 0 1.0915.5591.9792 1.1677l-.8081 4.38c-.1543.8363.7509 1.462 1.489 1.0293l14.5741-8.5431c7.0617-3.3034 11.9695-10.4229 12.0046-18.6749C51.9608 9.2414 42.6933.0001 31.2131 0z"/><path fill="#3C3C3C" d="m20.8205 40.0905-.0051 1.1915h2.8578l.0051-1.1915zM1.316 20.641C1.3608 10.0674 9.8948 1.464 20.4796 1.1974l.5058-.0059H31.208c10.6485.0002 19.2771 8.4378 19.5008 18.9473l.0037.5022c-.032 7.5309-4.3707 14.0632-10.6943 17.2952l-.6183.3025-.0499.0233-.049.029-14.1975 8.3214.7295-3.9527c.247-1.339-.7848-2.5692-2.1547-2.5692l-.0051 1.1915.1152.0068c.5641.0636.9691.59.8641 1.1605l-.8075 4.3803c-.1446.7839.6416 1.383 1.3486 1.0984l.1399-.0688 14.5744-8.5434c7.0617-3.3033 11.9695-10.4228 12.0046-18.6748C51.9608 9.2414 42.6933.0001 31.2131 0H20.9905C9.5105.0002.1644 9.2415.116 20.641.0685 31.8625 9.0483 40.9927 20.2794 41.2752l.536.0068.0051-1.1915c-10.6484-.0003-19.277-8.4379-19.5008-18.9473z"/><path fill="#4EB7B9" d="M17.1345 21.396c0 1.8725-1.5179 3.3905-3.3905 3.3905s-3.3905-1.518-3.3905-3.3905 1.518-3.3905 3.3905-3.3905c1.8726 0 3.3905 1.518 3.3905 3.3905"/><path fill="#3C3C3C" d="M15.9387 21.3955c-.0002-1.2119-.9831-2.1942-2.1952-2.1942-1.2118.0003-2.1939.9824-2.1941 2.1942 0 1.212.9822 2.1949 2.1941 2.1952v1.1958l-.1741-.0048c-1.7914-.0909-3.2159-1.5722-3.2159-3.3862.0003-1.8721 1.5179-3.3898 3.39-3.39 1.8724 0 3.3908 1.5177 3.391 3.39l-.0048.1752c-.0909 1.7913-1.5722 3.2158-3.3862 3.2158v-1.1958c1.2122 0 2.1952-.983 2.1952-2.1952"/><path fill="#4EB7B9" d="M29.6248 21.396c0 1.8725-1.518 3.3905-3.3905 3.3905-1.8726 0-3.3905-1.518-3.3905-3.3905s1.5179-3.3905 3.3905-3.3905 3.3905 1.518 3.3905 3.3905"/><path fill="#3C3C3C" d="M28.4289 21.3955c-.0002-1.2119-.9831-2.1942-2.1951-2.1942-1.2118.0003-2.194.9824-2.1942 2.1942 0 1.212.9822 2.1949 2.1942 2.1952v1.1958l-.1742-.0048c-1.7913-.0909-3.2158-1.5722-3.2158-3.3862.0002-1.8721 1.5178-3.3898 3.39-3.39 1.8723 0 3.3907 1.5177 3.391 3.39l-.0049.1752c-.0909 1.7913-1.5722 3.2158-3.3861 3.2158v-1.1958c1.2121 0 2.1951-.983 2.1951-2.1952"/><path fill="#4EB7B9" d="M42.1013 21.396c0 1.8725-1.5179 3.3905-3.3905 3.3905s-3.3905-1.518-3.3905-3.3905 1.518-3.3905 3.3905-3.3905c1.8726 0 3.3905 1.518 3.3905 3.3905"/><path fill="#3C3C3C" d="M40.9055 21.3955c-.0003-1.2119-.9831-2.1942-2.1952-2.1942-1.2118.0003-2.1939.9824-2.1941 2.1942 0 1.212.9822 2.1949 2.1941 2.1952v1.1958l-.1741-.0048c-1.7914-.0909-3.2159-1.5722-3.2159-3.3862.0003-1.8721 1.5179-3.3898 3.39-3.39 1.8724 0 3.3908 1.5177 3.391 3.39l-.0048.1752c-.0909 1.7913-1.5722 3.2158-3.3862 3.2158v-1.1958c1.2122 0 2.1952-.983 2.1952-2.1952"/><path fill="#FF6464" d="M51.5473 6.3874c-.0146 3.4464-2.8705 6.2403-6.3788 6.2403s-6.3404-2.7939-6.3258-6.2403S41.7132.147 45.2214.147s6.3405 2.7939 6.3259 6.2403"/><path fill="#3C3C3C" d="M50.3473 6.3879c.0118-2.7764-2.273-5.0493-5.1309-5.0493s-5.162 2.2729-5.1738 5.0493c-.0115 2.7762 2.2733 5.0482 5.131 5.0482l-.0051 1.1916c-3.3985 0-6.1631-2.6219-6.3194-5.919l-.0064-.3208C38.8573 2.9415 41.7132.147 45.2214.147s6.3405 2.7944 6.3259 6.2408l-.0092.3209c-.1842 3.2971-2.971 5.9189-6.3696 5.9189l.0051-1.1916c2.8577 0 5.1617-2.272 5.1737-5.0482"/></svg>