<svg xmlns="http://www.w3.org/2000/svg" width="43" height="52" fill="none" viewBox="0 0 43 52"><path fill="#3C3C3C" d="M4.6805 25.9769c-2.537-1.9447-2.386-6.5025.565-7.9936.4944-.2499.4797-1.0225.0021-1.2768-.0581-.031-.1135-.1027-.0112.0015-.0357-.0362-.0785-.0695-.1068-.112-.0692-.1039.0986.1523-.036-.0532a3.3 3.3 0 0 1-.1083-.1775c-.1647-.2901-.2727-.6025-.3564-.9245-.2286-.8801-.2058-1.8086.0794-2.6744.588-1.7861 2.3078-3.1172 4.214-3.0784.3878.0078.7672-.3452.747-.7393-.069-1.3322.6104-2.7402 1.7011-3.5238 1.4294-1.027 3.3223-1.027 4.9583-.584.3966.1071.7993-.1332.9181-.5165.1552-.4997.4443-1.0231.8562-1.4416.5699-.5792 1.3099-.9396 2.1006-1.144 1.8404-.4762 4.4334-.4015 5.9166.9304.3139.282.5022.4982.7074.8365.2146.354.2573.462.3667.8191.1176.3826.5176.624.9163.5164 1.6376-.4425 3.5309-.4428 4.9564.584 1.0882.7837 1.763 2.1913 1.6895 3.5239-.0215.3933.3575.7474.7445.7393 1.8807-.0388 3.581 1.2509 4.1825 3.0067.2968.8665.3303 1.8006.1074 2.6888-.0822.3268-.1875.648-.3513.9441-.0325.0588-.1955.3079-.1436.2436-.0399.0492-.084.092-.1281.1371.0669-.068.0765-.048-.0101-.0014-.4772.2554-.4964 1.0261-.0021 1.2767 1.4045.7123 2.213 2.1902 2.3193 3.7268.1187 1.7166-.5491 3.3239-1.9314 4.3825-.3192.2444-.2609.7885-.0018 1.0454.3142.312.7345.2451 1.0544 0 3.3192-2.5417 3.2003-8.4612-.6856-10.4314l-.0021 1.2767c.7049-.377 1.0708-1.3218 1.2748-2.0375.3352-1.1758.3363-2.4844-.0611-3.644-.8108-2.3665-3.0557-4.1452-5.6188-4.0923l.7445.7393c.1-1.815-.8675-3.6562-2.3199-4.7234-1.767-1.2982-4.1583-1.3651-6.2117-.8103l.9163.5164c-.5707-1.859-2.1118-3.1335-3.9838-3.6184-2.4005-.6222-5.4493-.3852-7.3737 1.3107-.696.6133-1.1932 1.429-1.4661 2.3077l.9181-.5164c-2.0516-.5548-4.4432-.4883-6.2145.8103-1.4562 1.0676-2.4294 2.9084-2.3354 4.7234l.7469-.7393c-2.5811-.0525-4.8648 1.7647-5.654 4.164-.3758 1.1423-.3757 2.4194-.0503 3.5723.202.7157.5663 1.662 1.2718 2.0375l.0021-1.2767c-1.8706.9455-2.9074 2.9305-3.0714 4.9495-.1778 2.1858.7632 4.2647 2.5022 5.5976.3187.2443.8355.0481 1.0206-.2654.2258-.3818.0534-.7666-.266-1.0114zM8.5043 33.5924c1.098 4.8237 4.4629 9.4375 9.4108 10.9949 1.3223.4162 2.7419.5871 4.1249.6608 1.4727.0783 3.0286-.0736 4.4584-.4273 2.4442-.6046 4.5832-1.9837 6.255-3.8141 1.9163-2.0977 3.2526-4.674 3.8856-7.4145.196-.8485-1.1376-1.2108-1.3341-.3597-.9917 4.2942-3.9353 8.6151-8.3661 10.053-2.4726.8026-5.2701.8055-7.7927.2298-2.3027-.6986-4.2862-1.8046-5.8404-3.5109-1.738-1.9079-2.9-4.2851-3.466-6.7722-.1936-.8495-1.5289-.4895-1.3354.3602"/><path fill="#FCFCFC" d="M36.1264 23.7562c.4394-.439 1.3002-.4737 1.8058-.4551 1.1004.0403 1.0207 1.7684 1.2217 2.1321.5996 1.0862 1.2277 3.0139.8217 4.2525-.2873.8772-.7913 3.0634-1.9218 4.0257-.2928.2491-2.0839 1.1-1.8443.2247.2074-.7575-.6799-.8089-.8776-.3104-.514 1.8358-1.1404 3.972-2.8027 6.0394-2.5394 3.1589-6.4806 4.3919-9.5616 4.3849-4.4602-.0101-8.0423-1.3564-10.6804-4.6511-1.6432-2.0524-2.0527-4.2813-2.5633-6.1093-.272-.5665-1.3579-.5349-1.1948.5182-.6331-.0814-1.28-.266-1.5621-.5067-1.1274-.962-2.1723-2.3303-2.4565-3.2075-.4016-1.2384-.3243-3.2878.2787-4.374.2021-.364 1.0918-1.256 2.1923-1.2963.5056-.0186.4993.0542.9371.4932 0 0-.8033-12.3302 14.559-12.3302 14.5585 0 13.6488 11.1699 13.6488 11.1699"/><path fill="#3C3C3C" d="M7.858 25.1097c1.6087.2921 3.3945.0969 4.7901-.8069 1.331-.8624 2.1144-2.2563 1.9026-3.8373l-1.2476.7193c1.4276 1.1548 3.5255 1.1903 5.201.5634 1.7076-.6392 3.259-1.8035 4.2477-3.3272H21.464c.984 1.5233 2.5313 2.688 4.2368 3.3272 1.6734.6269 3.7711.5914 5.2028-.5634l-1.2452-.7193c-.2174 1.581.5618 2.9749 1.8899 3.8373 1.3926.9038 3.1775 1.099 4.7875.8069.9432-.1711.5459-1.5961-.394-1.4257-1.1319.2052-2.3892.0514-3.3976-.5127-.8012-.4484-1.5831-1.3285-1.448-2.3125.1015-.7382-.6356-1.211-1.2453-.7193-1.0095.8143-2.7298.6125-3.8409.1482-1.2936-.5404-2.4987-1.4383-3.2569-2.613-.308-.4769-.9784-.4769-1.2879 0-.7625 1.1743-1.9705 2.0726-3.2655 2.613-1.1123.4639-2.8336.6657-3.8405-.1482-.6065-.4906-1.3467-.0204-1.2476.7193.1322.9858-.6537 1.8619-1.4557 2.3125-1.0076.5659-2.2699.7175-3.3993.5127-.9382-.17-1.3428 1.2546-.3987 1.4257"/><path fill="#4EB7B9" d="M39.8063 12.3267a.001.001 0 0 1-.0007-.0005 4.9 4.9 0 0 0-.3266-.6611c-.9199-1.5497-2.3311-2.4103-3.8077-2.5416-.2951-.0263-.5349-.273-.5613-.568-.0991-1.1074-.6827-2.5564-1.9492-3.47-1.1833-.852-2.9536-1.2375-4.9632-.7953-.2663.0586-.5363-.091-.6442-.3411-.5659-1.3117-2.0073-2.8152-5.3737-2.8152s-4.8165 1.5036-5.3876 2.8152c-.1089.2501-.3794.3996-.6455.341-2.0081-.442-3.7797-.0567-4.9657.7954-1.2694.9134-1.858 2.3625-1.9608 3.4696-.0274.2952-.2682.542-.5634.5684-1.4731.1318-2.8864.9925-3.811 2.5416-1.0572 1.773-.7329 3.7345-.2153 4.8191.1804.3782.08 1.1064-.2405 1.3773-2.3074 1.9503-2.524 6.2421.2249 8.3971.117.0917.2284.2496.3747.2221.2928-.055.8627-.405 1.208-.6899.1247-.1028.1614-.269.1752-.4299.07-.8123 1.1852-1.5594 1.8769-1.4525 1.4183.2194 2.7394.156 3.844-.5585.8277-.5355 1.2194-1.2991 1.2909-2.1027.033-.3718.3888-.6775.7485-.5785 1.2162.3345 2.9858.6607 4.1665.0158 1.2176-.665 2.5554-1.5666 3.4235-2.5528.2421-.275.7037-.2726.9272.017.7928 1.0275 1.9233 2.0393 3.1961 2.577 1.2248.5173 2.8658.4312 4.1268-.0575.4334-.168 1.0115.2075.9839.6713-.0445.748.0819 1.4778.7637 1.9198 1.1022.7145 3.0546.9846 4.4703.7079 0 0 .9199-.0889 1.2175.3599.5681.8567 1.2137 1.0689 1.6299 1.3661.3116.2226.8148.425 1.0864.1542 2.2586-2.2513 1.9489-6.1558-.2135-7.9883-.319-.2703-.4173-.9947-.2361-1.3721.4563-.9506.7689-2.5773.1319-4.1598q-.0003-.0005-.0008-.0005"/><path fill="#3C3C3C" d="M7.64 25.8303c-.9101-.5467-2.0318-.5395-2.9108.0693-.8898.6162-1.1 1.6075-1.0125 2.6297.1752 2.0419 1.1515 4.167 2.7248 5.5076.8533.7273 2.003 1.2444 3.0998.7854.7026-.2941.2026-1.3698-.501-1.0753-.7585.3174-1.6754-.4067-2.1695-.9202-.7045-.7322-1.2244-1.6353-1.5722-2.5862-.1683-.4602-.2826-.9384-.3558-1.4224-.0685-.4526-.1572-1.0062.0376-1.4398.3263-.7266 1.3023-.9858 1.9733-.5829.2743.1647.6304.1366.826-.1384.1743-.2451.136-.6614-.1396-.8268M36.9233 26.0299c.841-.6492 1.956-.7729 2.8992-.2707.9549.5082 1.2781 1.4684 1.3091 2.4938.0616 2.0486-.6628 4.2732-2.0708 5.7883-.7637.8219-1.846 1.4695-2.9882 1.1416-.7319-.2101-.3594-1.3369.3734-1.1265.79.2268 1.6172-.5994 2.0487-1.167.6153-.8094 1.0275-1.767 1.2632-2.7521.114-.4767.1724-.965.1893-1.4544.0157-.4575.04-1.0177-.2036-1.4256-.4079-.6836-1.4072-.8273-2.0271-.3488-.2535.1956-.6105.2092-.8365-.0411-.2014-.2231-.2114-.6411.0433-.8375M19.5246 38.0116c.8707.4004 1.8085.5688 2.7936.5632 1.007-.0058 2.0188-.18 2.8258-.7264.3095-.2096.273-.7005.0016-.9176-.3277-.2618-.7245-.2235-1.0545 0 .2277-.1541.0557-.0392-.0026-.0065a2.3 2.3 0 0 1-.1723.0867c-.0306.0139-.0616.0263-.0922.0399-.0989.0441-.0346-.0237.0343-.0101-.0466-.0091-.1888.0617-.2376.075-.2167.0606-.4398.1025-.6646.132.1118-.0146-.0075 0-.0571.0042a6 6 0 0 1-.1958.014 7.7 7.7 0 0 1-.472.0114 7.8 7.8 0 0 1-.6163-.0273c-.0123-.001-.2456-.0324-.0876-.0081-.2095-.0321-.4163-.0669-.6202-.1197-.0868-.0227-.1714-.0497-.2575-.0753-.1886-.0561.1151.0513-.0552-.0185a9 9 0 0 1-.3152-.1369c-.3446-.1584-.8264-.086-1.0204.2329-.1825.2998-.1019.7187.2662.8877zM21.8774 31.4995c.1071.4078.2101.8218.2711 1.2395l-.0233-.1748c.0072.0572.0105.1137.0044.1712l.0238-.1748a.4.4 0 0 1-.019.0769l.0672-.1571a.3.3 0 0 1-.0276.0496l.104-.1331a.28.28 0 0 1-.0409.0398l.1345-.1029a.8.8 0 0 1-.0992.052l.1585-.0664a.72.72 0 0 1-.1671.0483l.1764-.0234a.67.67 0 0 1-.1568 0l.1763.0234c-.059-.0082-.117-.0224-.176-.0303a.51.51 0 0 0-.2645-.0118.5.5 0 0 0-.2467.0779c-.1377.0799-.2692.2359-.3053.3927-.039.1682-.0307.3572.0662.5064.0859.1324.2299.28.3956.302.1362.0181.2687.0526.4072.0585.2138.0092.4121-.0559.6032-.1426.2365-.1075.4214-.3191.4845-.5715.0537-.2136.0312-.3989-.0049-.6129-.0673-.3992-.1598-.7949-.2629-1.1866-.0873-.3325-.4767-.5675-.8146-.4591-.3456.1108-.558.4522-.4644.8084zM14.4998 27.4633c-.2361.7567-.0858 2.497 1.3595 2.6452 1.9109-.0114 2.0161-2.1155 1.3742-3.105-.5255-.8099-2.0733-1.147-2.7341.4598zM29.8609 27.4643c.2336.7567.0779 2.497-1.3683 2.6452-1.9108-.0115-2.0091-2.1155-1.3643-3.105.5278-.8099 2.0772-1.1471 2.7326.4598"/><path fill="#FCFCFC" d="m3.2877 46.2584 1.0908 1.4603c.37.4955.7464.9971 1.1841 1.432.0442.0511.0862.1001.1258.146.1864.3468.009 1.7452.7906 2.0199.5953.2092 4.4864-.1052 5.112-1.1739-.0261-.3967-.1603-1.1546-.2205-1.8068.3051-.5785.5242-1.2532.6624-1.7806.2578-1.6108.3938-3.6812.858-5.2463a4.23 4.23 0 0 0 .1665-1.0038c.0131-.3306-.084-.6972-.3124-.938-.2659-.2804-.5049-.3885-1.0263-.2825-.3382.0689-.6667.4268-.7333.5569-.4774.9314-.7333 1.6283-.9234 2.62-1.0874-1.4416-2.1419-2.9821-3.16-4.4757-.286-.4196-.5486-.8067-.9973-1.0904-.4306-.2722-1.118-.1124-1.3496.3399-.091.1776-.096.367-.0406.5485-.0926-.0646-.1529-.1055-.1529-.1055-.4208-.2876-.961-.2669-1.4185.0027-.2632.1551-.2992.3907-.3409.6056-.0549.2816.134.6915.271.831-.2986-.0959-.6321-.1064-.9156.0216-.2992.1346-.4793.4397-.4767.7651-.001.1665.1384.5148.2846.7484.5532.9211 1.8393 2.7225 2.6536 3.8594-.3455-.349-.6017-.6074-.6017-.6074-.4329-.437-1.0793-.9827-1.7409-1.53-.284-.1818-.4913-.2092-.779-.1722-.4884.085-.7022.4102-.6758.7946.0374.5397.2212.7814.6177 1.2295.7098.8018 1.3712 1.5789 2.0471 2.2314z"/><path fill="#3C3C3C" d="M8.0507 41.8714a298 298 0 0 1-1.8562-2.7556c-.242-.3633-.4835-.727-.7228-1.0918-.1028-.1569-.3635-.4307-.3816-.6281-.014-.1527.1269-.2158.2676-.2335.1992-.025.3484.1184.4821.2464.4454.4258.7567 1.0053 1.1016 1.5087.8429 1.2306 1.6965 2.4538 2.5937 3.6463.2779.3693.9978.4177 1.1084-.1437.1266-.6422.3014-1.2718.5689-1.8717.1447-.3242.3684-1.0025.8681-.9094.5219.0974.3661.9196.2871 1.2647-.1362.5938-.3035 1.1735-.4073 1.7755-.1108.6422-.1947 1.289-.2761 1.9354-.079.6242-.1161 1.2751-.2672 1.8867-.0688.2792-.1631.5551-.2622.8253-.1153.3137-.3823.6747-.3933 1.0076-.0201.5948.1742 1.2124.2205 1.8068l.0834-.3032c-.0578.092.0586-.0496-.0225.0331a1.4 1.4 0 0 1-.1173.1087c.076-.0613-.0695.0418-.0953.0574a3 3 0 0 1-.2.1085c-.2395.1199-.5601.2152-.8571.2922-.6692.1737-1.3573.2737-2.0471.3173-.268.0168-.538.0274-.8065.0162-.057-.0024-.114-.0075-.171-.0102-.1137-.0054.093.0373.0033.0021-.0772-.0303-.0896-.0222-.1217-.0499-.1544-.1331-.1896-.5274-.2164-.7372-.0403-.3158-.032-.6807-.1953-.9662-.1447-.2524-.3995-.455-.59-.6729-.1997-.2287-.3865-.4679-.5691-.7104-.419-.556-.8332-1.1153-1.2498-1.6728-.1944-.2602-.5242-.3921-.829-.2157-.2592.1499-.415.5602-.2195.8222.4562.611.9076 1.2256 1.3704 1.8317.2059.2699.414.5389.6374.7946.1143.1308.2295.2738.3615.3874.1558.1341.0169.0334.0013-.0423.0087.0417.0259.0832.0297.1262.01.1145.0393.3242.0644.5145.0316.2395.066.4799.1458.7089.1612.4628.4717.8788.9662 1.0206.6338.1821 1.4139.0686 2.0546-.006.927-.1076 1.867-.269 2.7225-.6548.3693-.1665.756-.4042.9711-.7571.1853-.3038.0737-.6912.0292-1.0215-.0507-.3756-.1042-.7507-.1413-1.1282l-.0834.3033c.2606-.5091.4688-1.0444.631-1.5919.1438-.4857.1919-.993.2567-1.4937.1396-1.0774.2526-2.1605.4786-3.2246.2104-.9903.7113-2.1257.1422-3.0877-.5438-.9187-1.7423-1.0215-2.5384-.3597-.4404.366-.642.9223-.8565 1.435-.2416.577-.409 1.173-.5298 1.7852l1.1084-.1437c-.8247-1.0963-1.613-2.2188-2.3897-3.3491-.3648-.531-.7108-1.0801-1.102-1.5922-.3229-.4228-.7388-.8661-1.2758-1.0056-1.195-.3104-2.3447.8253-1.7863 1.988.2698.5623.688 1.081 1.0325 1.5986a299 299 0 0 0 1.9397 2.8811c.4342.6366 1.487.0358 1.0484-.6067z"/><path fill="#3C3C3C" d="M4.6714 36.9585c-.6936-.4349-1.7694-.3853-2.3353.2554-.5811.6579-.3247 1.5306.119 2.1689.9823 1.4137 1.9546 2.834 2.9597 4.2318.1895.2635.5276.3901.829.2158.2632-.1524.4102-.5569.2194-.8223-.7883-1.096-1.5563-2.2062-2.3246-3.316q-.301-.4346-.6024-.8692c-.1281-.1845-.319-.3885-.3336-.6224-.0082-.1313.0162-.2013.1676-.2656.243-.1037.4692-.0749.6866.0616.6606.4144 1.2725-.6254.6146-1.038"/><path fill="#3C3C3C" d="M2.9462 38.3113c-.8594-.1947-1.8512.135-2.04 1.084-.138.6931.2925 1.3137.6536 1.8684.743 1.1417 1.5429 2.2474 2.3363 3.3551.1892.2642.5282.3901.829.2158.2635-.1526.4096-.5566.2195-.8222-.6671-.9311-1.334-1.863-1.9752-2.8118-.2614-.3868-.5423-.775-.7597-1.1889-.0555-.1061-.0984-.2118-.1254-.3287q-.0165-.074.0012.021l.0026-.0745c-.0268.0498.0456-.089.021-.0448.0864-.1545.3062-.1599.5123-.1133.7594.1722 1.0863-.9867.3247-1.1592z"/><path fill="#3C3C3C" d="M4.2451 43.2792c-.4677-.4682-.9773-.895-1.486-1.3184-.3202-.2669-.626-.4986-1.0527-.5554-.3558-.0472-.7434.0108-1.0549.1968-.6108.3649-.7357 1.069-.5603 1.711.1718.629.6859 1.102 1.1044 1.5777.5375.611 1.0746 1.2238 1.6594 1.7915.5576.5409 1.4177-.3084.8592-.8499-.5451-.5289-1.0487-1.0975-1.5502-1.667-.2398-.2723-.4924-.5377-.7177-.822.0593.0748-.0634-.0926-.0743-.1097-.0284-.0451-.0526-.091-.078-.1376q-.0294-.0626-.0005 0a1.3 1.3 0 0 1-.0322-.1022c-.0073-.0265-.0372-.1863-.0328-.1494.005.0421-.003-.1268-.0039-.1511q-.022.1143-.0012.0123.0316-.0978-.013.0072l.0225-.0424q.055-.0843-.0089.0045.074-.068-.0078-.0057a.8.8 0 0 1 .0929-.0553c-.095.0487.064-.0156.081-.0192q-.0728.0022.0415-.0042a1.2 1.2 0 0 1 .1288.0006c-.1045-.0102.0643.0198.087.0291-.05-.0207.1235.0842.1247.0851.5651.4324 1.111.9211 1.6132 1.4242.549.55 1.4086-.2999.8592-.8499z"/></svg>