<svg xmlns="http://www.w3.org/2000/svg" width="16" height="16" fill="none" viewBox="0 0 16 16"><path fill="#4EB7B9" d="M6.9158 1.3054c.5635-.6785 1.6049-.6785 2.1684 0l.0456.0549c.3662.441.963.6161 1.5095.4432l.0679-.0215c.841-.2662 1.717.2968 1.8243 1.1723l.0086.0708a1.4095 1.4095 0 0 0 1.0303 1.189l.0688.0186c.8513.2308 1.2839 1.178.9008 1.9725l-.031.0642a1.41 1.41 0 0 0 .2239 1.5572l.0478.053c.5915.6544.4433 1.685-.3086 2.1463l-.0607.0373a1.4095 1.4095 0 0 0-.6536 1.4311l.0116.0703c.1438.8703-.5381 1.6573-1.42 1.6388l-.0713-.0015a1.41 1.41 0 0 0-1.3235.8506l-.0282.0654c-.3496.8099-1.3487 1.1032-2.0806.611l-.0592-.0398a1.409 1.409 0 0 0-1.5732 0l-.0592.0398c-.7319.4922-1.731.1989-2.0806-.611l-.0282-.0654a1.4095 1.4095 0 0 0-1.3235-.8506l-.0713.0015c-.8819.0185-1.5638-.7685-1.42-1.6388l.0116-.0703a1.4095 1.4095 0 0 0-.6536-1.4311l-.0607-.0373c-.7519-.4612-.9-1.492-.3086-2.1464l.0478-.0529a1.409 1.409 0 0 0 .2239-1.5572l-.031-.0642c-.3831-.7945.0495-1.7417.9008-1.9725l.0688-.0186c.5532-.15.9606-.62 1.0303-1.189l.0086-.0708c.1073-.8755.9833-1.4384 1.8243-1.1723l.068.0215a1.4095 1.4095 0 0 0 1.5094-.4432z"/><path stroke="#FCFCFC" d="m4 7.7485 3.3068 3.0973L11.5 6"/></svg>