<svg xmlns="http://www.w3.org/2000/svg" width="33" height="37" fill="none" viewBox="0 0 33 37"><path fill="#FCFCFC" d="M24.2472 14.1732c.2501-.2375.5872-.3266.8754-.3167.6276.0219.8946.3571 1.0095.5541.343.5877.3285 1.6706.0982 2.3406-.1632.4744-.4302 1.2004-1.0743 1.7209-.2654.2145-.6559.3557-1.0294.2935l-.0988-.0165c-.1186.3868-.2648.7656-.3542.9497-.2524.6769-1.6073 2.9909-3.3456 4.0155v1.1172c0 .2099 0 .4385.0784.6425.1053.2684.2469.5008.4744.6823.4821.3837.9777.567 1.588.7937l.4352.1696c-1.7077 1.5501-3.792 2.5551-6.3261 2.5551-2.6019 0-4.7675-.9664-6.4786-2.5563.2134-.0833.4324-.1684.4324-.1684.6102-.2267 1.1058-.41 1.5879-.7937.2277-.1815.3693-.4139.4744-.6823.0784-.204.0784-.4328.0784-.6425 0 0 0-.4283-.0004-1.1283-.7039-.3968-1.3492-.967-1.9678-1.6984-.9278-1.0967-1.456-2.2782-1.7476-3.2573-.398.1014-.8282-.0446-1.1138-.2752-.644-.5205-.911-1.2465-1.0742-1.7209-.2302-.67-.2449-1.7529.0981-2.3406.115-.197.382-.5322 1.0095-.5541.2884-.0101.6253.079.8755.3167 0 0-2.6634-8.8824 7.7472-8.8824s7.7472 8.8824 7.7472 8.8824z"/><path fill="#FCFCFC" d="M.4082 34.6444c1.0488-3.9313 5.2802-6.8554 9.4719-7.7361 1.7441 1.7145 3.9837 2.7662 6.6982 2.7662 2.6459 0 4.8017-1.0958 6.55-2.7636 4.188.8819 8.4145 3.8048 9.4627 7.7335"/><path fill="#FCFCFC" d="m32.1452 34.5171-31.735.1274s-.0956.3522 2.1152 1.1682 6.632 1.1789 13.665 1.1226 10.7642-.1102 13.5295-1.0021 2.4253-1.4161 2.4253-1.4161"/><path fill="#4EB7B9" d="M26.3906 6.668a2.74 2.74 0 0 0-.1837-.3694c-.5813-.973-1.5099-1.4595-2.4465-1.4277.043-.6302-.2638-1.6456-1.1007-2.2464-.716-.5131-1.8141-.7232-3.0494-.3775-.2343-.7762-.9958-1.8292-3.1087-1.8292s-2.8771 1.053-3.1113 1.8292c-1.2354-.3457-2.3334-.1356-3.0494.3775-.837.6008-1.144 1.6164-1.1007 2.2464-.934-.032-1.8625.4547-2.4439 1.4277-.8235 1.3799-.1426 2.9644.237 3.1424-1.7644.862-2.0844 3.7803-.247 5.0857.0141.1921.1017-.6322 1.0975-.6668.3172-.0111.6934.098.9478.3927-.0013-.5148-.0013-1.0808-.0013-1.0808.7932.1545 1.6839.0002 2.3023-.3988s.9468-1.0312.8488-1.6342c.6742.5694 1.9672.4956 2.7909.0469s1.2918-.7851 1.7287-1.4698c.4369.6847.905 1.0211 1.7287 1.4698s2.1167.5225 2.7909-.0469c-.098.603.2304 1.2352.8488 1.6342s1.5091.5533 2.3022.3988v1.082c.2532-.2957.6292-.405.9466-.3939.9923.0346 1.0826.8533 1.096.6676 1.8383-1.3036 1.5189-4.2239-.2436-5.0865.3434-.1623.9392-1.4935.42-2.773"/><path fill="#4C4C4C" d="M6.9377 14.1396c-1.3878-1.0586-1.3093-3.5394.3014-4.351.2699-.136.2611-.5566 0-.695-.0318-.017-.0621-.056-.006.0008-.0197-.0197-.043-.0379-.0586-.061-.0378-.0565.054.083-.0197-.029a2 2 0 0 1-.0593-.0965c-.0902-.158-.1495-.328-.1955-.5032-.1257-.4791-.114-.9845.041-1.4558.3195-.9722 1.2579-1.6967 2.2993-1.6756.2119.0042.4188-.188.4074-.4024-.0389-.7251.331-1.4915.9262-1.918.7799-.559 1.814-.559 2.7082-.318.2167.0584.4365-.0724.5011-.281.0843-.272.2418-.557.4664-.7847.3108-.3153.7148-.5115 1.1466-.6228 1.005-.2591 2.4216-.2185 3.2331.5065.1717.1535.2748.2712.3872.4553.1175.1927.141.2515.201.4459.0646.2082.2834.3396.5011.281.8942-.2408 1.9285-.241 2.7082.318.5952.4265.9651 1.1927.9262 1.918-.0114.214.196.4068.4074.4024 1.0274-.0211 1.9574.6809 2.2876 1.6366.1629.4716.1821.98.0611 1.4636-.0446.1778-.1018.3527-.1911.5138-.0177.032-.1065.1676-.0782.1326-.0218.0268-.0458.0501-.0698.0747.0364-.037.0417-.0262-.0055-.0008-.2606.139-.2703.5585 0 .695.7679.3877 1.2109 1.1921 1.2704 2.0285.0664.9344-.297 1.8092-1.0513 2.3854-.1741.133-.1417.4292 0 .5691.1719.1698.4015.1334.5761 0 1.8109-1.3835 1.7407-4.6056-.384-5.678v.695c.3848-.2053.5838-.7196.6946-1.1091.1821-.64.1815-1.3523-.0367-1.9835-.445-1.288-1.6731-2.2563-3.0732-2.2275l.4074.4024c.0529-.9879-.4773-1.9901-1.2717-2.571-.9665-.7066-2.2729-.743-3.3942-.441l.5011.281C19.6895 1.1286 18.8464.4349 17.8233.1709c-1.3119-.3386-2.9773-.2097-4.0271.7134-.3797.3339-.6506.7779-.7988 1.2562l.501-.2811c-1.1213-.302-2.4277-.2658-3.3942.441-.7946.5811-1.3246 1.5831-1.2716 2.571l.4073-.4024c-1.41-.0286-2.656.9606-3.085 2.2666-.2043.6217-.203 1.3168-.0242 1.9444.111.3895.3108.9046.6966 1.109v-.695c-1.0211.5148-1.5857 1.5952-1.6735 2.6942-.0952 1.1897.4208 2.3213 1.372 3.0468.1744.133.4565.0262.5573-.1444.123-.2079.0285-.4173-.1463-.5505z"/><path fill="#4C4C4C" d="M8.722 13.5596c.8792.1589 1.8546.0527 2.6162-.4393.7264-.4694 1.1531-1.2281 1.036-2.0887l-.681.3916c.781.6285 1.9271.6478 2.8419.3066.9323-.3479 1.7788-.9817 2.3175-1.811h-.7035c.539.8291 1.3853 1.4631 2.3176 1.811.9147.3412 2.0607.3219 2.8418-.3066l-.6809-.3916c-.1174.8606.3096 1.6193 1.0359 2.0887.7616.492 1.7369.5982 2.6162.4393.5151-.0932.2968-.8688-.2165-.7761-.6182.1117-1.3053.028-1.8566-.2791-.4382-.244-.8661-.7231-.7932-1.2587.0548-.4018-.3483-.6591-.6809-.3915-.5508.4432-1.4908.3334-2.0982.0806-.7072-.2941-1.3663-.7828-1.7817-1.4223-.1686-.2595-.5348-.2595-.7035 0-.4155.6393-1.0746 1.1282-1.7816 1.4223-.6072.2526-1.5475.3624-2.0982-.0806-.3318-.267-.7357-.0111-.681.3915.0732.5366-.3554 1.0135-.7931 1.2587-.55.3081-1.2394.3906-1.8566.2791-.5127-.0925-.7325.6829-.2165.7761M15.0545 20.6467c.476.2481.9885.3524 1.5266.349.5502-.0036 1.1028-.1116 1.5431-.4501.1689-.1299.1485-.4341 0-.5686-.1792-.1623-.3959-.1385-.576 0 .1243-.0955.0304-.0243-.0014-.004a1.2 1.2 0 0 1-.0941.0536c-.0167.0087-.0336.0163-.0503.0248-.054.0273-.019-.0147.0187-.0063-.0255-.0056-.1031.0382-.1297.0465a2.34 2.34 0 0 1-.363.0818c.0611-.009-.0041 0-.0312.0026a3 3 0 0 1-.1069.0087 3.7 3.7 0 0 1-.2579.007 3.7 3.7 0 0 1-.3367-.0169c-.0067-.0006-.1342-.0201-.0478-.005-.1145-.0199-.2276-.0414-.339-.0742-.0474-.0141-.0937-.0308-.1407-.0466-.1031-.0348.0629.0317-.0302-.0115a5 5 0 0 1-.1723-.0848c-.1884-.0982-.4516-.0533-.5573.1443-.0994.1858-.055.4453.1463.5501zM16.3714 17.1018c.0662.2497.13.5032.1678.759l-.0144-.1071a.45.45 0 0 1 .0028.1049l.0145-.1071a.25.25 0 0 1-.0116.0471l.0411-.0962a.2.2 0 0 1-.0169.0304l.0638-.0815a.17.17 0 0 1-.0251.0244l.0825-.063a.5.5 0 0 1-.0609.0318l.0974-.0407a.44.44 0 0 1-.1027.0296l.1084-.0143a.42.42 0 0 1-.0964 0l.1084.0143c-.0363-.005-.0719-.0137-.1082-.0185a.314.314 0 0 0-.1625-.0072.307.307 0 0 0-.1515.0476c-.0846.0489-.1652.1445-.1872.2405-.0239.103-.0186.2187.0411.31.053.0811.1416.1715.2434.1849.0837.0111.1652.0322.2503.0359.1314.0056.2532-.0343.3706-.0874.1452-.0658.2586-.1953.2971-.3499.0328-.1307.0188-.2442-.0036-.3752-.0418-.2445-.099-.4867-.1628-.7266-.054-.2036-.2935-.3474-.5011-.281-.2122.0678-.3423.2768-.2845.4949zM12.3048 14.9495c-.1283.4118-.0446 1.3591.7451 1.4398 1.0439-.0063 1.0995-1.1515.7479-1.6901-.2878-.4409-1.1337-.6244-1.4932.2503zM20.6975 14.9495c.1283.4118.0448 1.3591-.7451 1.4398-1.0439-.0063-1.0995-1.1515-.7482-1.6901.2876-.4409 1.1338-.6244 1.4933.2503M9.042 13.8884c-.512-.4511-1.2387-.5583-1.8656-.2781-.4592.2055-.7355.6296-.8645 1.0978-.3072 1.1147-.0144 2.4145.6319 3.3643.4314.6342 1.1054 1.201 1.9303 1.0952.2181-.028.4074-.165.4074-.4024 0-.1958-.1876-.4306-.4074-.4024-1.131.145-1.77-1.4758-1.848-2.374-.0408-.47-.042-1.0616.2505-1.4626-.0398.0545.0407-.0448.043-.0469.0191-.0181.0494-.0505.0674-.0643.0857-.066.1872-.1061.2919-.1306.276-.0646.5721-.0167.787.1728.39.3439.9683-.2231.576-.5688M24.5363 14.4577c.2053-.1811.4856-.2328.7516-.1803.1171.0231.2322.0644.3273.138.024.0187.1336.1429.1104.1113.2925.4008.2913.9927.2505 1.4625-.078.8982-.7167 2.5189-1.848 2.374-.2186-.0279-.4074.2051-.4074.4024 0 .2407.1882.3743.4074.4025 1.3563.1738 2.1776-1.2882 2.5155-2.3682.2986-.9541.311-2.477-.6398-3.0941-.631-.4097-1.4942-.3012-2.0436.1831-.3921.3454.1858.9128.5761.5688"/><path fill="#4C4C4C" d="M23.7829 18.0802c-.1147.5466-.3123 1.0651-.5272 1.5794.043-.103-.035.0744-.0533.1123a7 7 0 0 1-.1119.2195 9.6 9.6 0 0 1-.3028.5259c-.5598.9093-1.2425 1.7682-2.0789 2.4449-.4528.3664-.9716.6619-1.5443.7937-.5105.1175-.2944.8938.2165.7761 1.1816-.2721 2.1631-1.1214 2.9345-2.0087.6357-.7311 1.2291-1.5533 1.6326-2.4349.0216-.0471.0419-.0946.0623-.1423.0053-.0123.0595-.1408.0422-.101-.022.0507.0101-.0205.0122-.0249a10 10 0 0 0 .0617-.1435 7 7 0 0 0 .0914-.227c.1441-.3758.2679-.7617.3506-1.1555.1061-.5054-.6791-.7217-.7856-.214M8.4123 18.2669c.3524 1.5319 1.0798 2.9641 2.1194 4.1536 1.0019 1.1463 2.2876 2.0527 3.8307 2.2801.2173.0319.4379-.0538.5011-.2811.0527-.1898-.0656-.4628-.2846-.495-1.4215-.2094-2.5481-1.0171-3.4712-2.0732-.9488-1.0853-1.589-2.4038-1.91-3.7985-.116-.5048-.902-.2912-.7856.2139z"/><path fill="#4C4C4C" d="M12.2662 24.0263v.6c0 .2078.0222.4336-.0302.6362-.0875.338-.3165.5698-.633.7678-.5007.3131-1.0588.4847-1.6102.7006-.2045.0801-.3473.2692-.2845.4949.0534.1922.2953.3616.501.2811.6539-.2559 1.3493-.4646 1.9308-.8643.4119-.2831.7351-.6542.874-1.1401.0731-.2557.0668-.5275.0668-.7907v-.6855c0-.5179-.8147-.5187-.8147 0M19.922 23.8492c0 .4489-.035.913.0153 1.3593.0621.5499.362 1.0167.8044 1.3467.6092.4543 1.3541.678 2.056.9535.2045.0803.4473-.0878.501-.2811.0638-.229-.0792-.4145-.2845-.495-.5876-.2305-1.2042-.4199-1.7289-.7774-.2957-.2016-.518-.4924-.543-.8555-.0285-.4139-.0055-.8358-.0055-1.2505 0-.5179-.8148-.5187-.8148 0"/><path fill="#4C4C4C" d="M.8014 34.7515c.8498-3.1261 3.6299-5.384 6.5353-6.6238.8522-.3636 1.745-.638 2.652-.8312l-.3964-.1034c1.4118 1.3778 3.1847 2.37 5.1478 2.7197 2.0275.3611 4.1182.113 5.9686-.7928 1.001-.4899 1.9039-1.1619 2.7081-1.9243l-.3964.1034c3.136.6692 6.2837 2.4036 8.0849 5.0899.4889.7291.8635 1.5175 1.0932 2.3627.1359.4996.9221.2877.7857-.2139-.6936-2.5508-2.5966-4.5959-4.8052-5.998-1.1545-.733-2.4202-1.3065-3.7316-1.7051a14.6 14.6 0 0 0-.9532-.2547c-.1842-.0424-.3946-.1181-.5712-.0161-.157.0908-.2906.2588-.4259.3785-.4927.4354-1.0235.8251-1.5926 1.1575-2.3917 1.3966-5.4376 1.5604-7.9735.426a9.37 9.37 0 0 1-1.7391-1.0185c-.2697-.1994-.5259-.4171-.7722-.6441-.1169-.1078-.2334-.2603-.3823-.3223-.1833-.0763-.4082.0092-.5944.0531-1.323.3115-2.6074.8105-3.7977 1.4599-2.3043 1.2572-4.3571 3.1573-5.3387 5.6102a8 8 0 0 0-.2908.8736c-.1361.5008.6495.7145.7856.2139z"/></svg>