<svg xmlns="http://www.w3.org/2000/svg" width="407" height="407" fill="none" viewBox="0 0 407 407"><path fill="#FFF0F6" d="M0 154.204c0-6.628 5.3726-12 12-12h383c6.627 0 12 5.372 12 12v240.795c0 6.628-5.373 12-12 12H12c-6.6274 0-12-5.372-12-12z"/><path fill="#D6D6D6" d="M395 401.999v5H12v-5zm7-7V154.204c0-3.866-3.134-7-7-7H12c-3.866 0-7 3.134-7 7v240.795c0 3.866 3.134 7 7 7v5c-6.6274 0-12-5.372-12-12V154.204c0-6.628 5.3726-12 12-12h383l.31.004c6.484.164 11.69 5.472 11.69 11.996v240.795c0 6.524-5.206 11.832-11.69 11.996l-.31.004v-5c3.866 0 7-3.134 7-7"/><path fill="#D6D6D6" d="M120.631 209.297c-19.459-.085-36.9641 8.272-49.0267 21.596l97.8657.427c-11.945-13.428-29.381-21.938-48.839-22.023M62.6404 243.533c-3.9992 7.359-6.6156 15.566-7.5024 24.292l130.479.569c-.81-8.732-3.353-16.962-7.286-24.356zM62.3714 304.851l115.6906.505c4-7.359 6.616-15.566 7.503-24.292l-130.4791-.569c.8085 8.733 3.3526 16.963 7.2855 24.356M120.072 339.586c19.459.085 36.97-8.272 49.032-21.595l-97.8657-.427c11.9446 13.428 29.3737 21.937 48.8337 22.022M260.346 303.194c-10.161-.044-18.429 8.099-18.474 18.186-.045 10.094 8.151 18.309 18.311 18.353 10.161.044 18.423-8.099 18.468-18.192.045-10.088-8.145-18.303-18.305-18.347M331.609 303.506c-10.16-.044-18.423 8.099-18.467 18.186-.045 10.094 8.144 18.309 18.304 18.353 10.161.045 18.43-8.099 18.475-18.192.046-10.088-8.151-18.303-18.312-18.347M351.518 209.568l-106.004-.466c-.276-.002-.501.221-.503.497l-.198 45.085c-.001.276.222.501.498.502l106.004.467c.276.001.501-.222.502-.498l.198-45.084c.002-.276-.221-.501-.497-.503M44.0586 132.893 254.7 13.8968a.1515.1515 0 0 1 .195.0404l5.774 7.6326a.149.149 0 0 1-.04.2162L82.2146 132.908z"/></svg>