<svg xmlns="http://www.w3.org/2000/svg" width="210" height="106" fill="none" viewBox="0 0 210 106"><path fill="#FFBDD5" d="M207 0c1.657 0 3 1.3433 3 3v82.8516c0 1.6568-1.343 3-3 3h-88.008L105 106 91.0078 88.8516H3c-1.6568 0-3-1.3432-3-3V3c.0001-1.6567 1.3432-3 3-3z"/><path fill="#4C4C4C" d="M91.6016 87.6016 105 104.022l13.398-16.4204H207v1.25h-88.008L105 106 91.0078 88.8516H3v-1.25zm117.1484-1.75V3c0-.9665-.784-1.75-1.75-1.75H3c-.9663 0-1.7499.7835-1.75 1.75v82.8516c0 .9665.7835 1.75 1.75 1.75v1.25c-1.6568 0-3-1.3432-3-3V3c.0001-1.6567 1.3432-3 3-3h204c1.657 0 3 1.3433 3 3v82.8516c0 1.6568-1.343 3-3 3v-1.25c.966 0 1.75-.7835 1.75-1.75"/></svg>