<svg xmlns="http://www.w3.org/2000/svg" width="110" height="110" fill="none" viewBox="0 0 110 110"><mask id="a" width="110" height="110" x="0" y="0" maskUnits="userSpaceOnUse" style="mask-type:luminance"><path fill="white" d="M110 0H0v110h110z"/></mask><g mask="url(#a)"><path fill="white" d="M110 0H0v110h110z"/></g><mask id="b" width="106" height="106" x="2" y="2" maskUnits="userSpaceOnUse" style="mask-type:luminance"><path fill="white" d="M27.9863 2.3913h-2.8437v2.84371h2.8437zM42.2011 2.3913h-2.8437v2.84371h2.8437zM50.7324 2.3913h-2.8437v2.84371h2.8437zM59.2656 2.3913h-2.8437v2.84371h2.8437zM64.9531 2.3913h-2.8437v2.84371h2.8437zM73.4843 2.3913h-2.8437v2.84371h2.8437zM79.1718 2.3913h-2.8437v2.84371h2.8437zM82.0156 2.3913h-2.8437v2.84371h2.8437z"/><path fill="white" d="M84.8574 2.3913h-2.8437v2.84371h2.8437zM30.83 5.23535h-2.8437v2.84371H30.83z"/><path fill="white" d="M33.6718 5.23535h-2.8437v2.84371h2.8437zM42.2011 5.23535h-2.8437v2.84371h2.8437zM45.0468 5.23535h-2.8437v2.84371h2.8437zM50.7324 5.23535h-2.8437v2.84371h2.8437zM62.1074 5.23535h-2.8437v2.84371h2.8437zM64.9531 5.23535h-2.8437v2.84371h2.8437zM70.6406 5.23535h-2.8437v2.84371h2.8437zM73.4843 5.23535h-2.8437v2.84371h2.8437z"/><path fill="white" d="M76.3261 5.23535h-2.8437v2.84371h2.8437zM82.0156 5.23535h-2.8437v2.84371h2.8437z"/><path fill="white" d="M84.8574 5.23535h-2.8437v2.84371h2.8437zM27.9863 8.07898h-2.8437v2.84372h2.8437zM33.6718 8.07898h-2.8437v2.84372h2.8437zM42.2011 8.07898h-2.8437v2.84372h2.8437zM45.0468 8.07898h-2.8437v2.84372h2.8437zM47.8906 8.07898h-2.8437v2.84372h2.8437z"/><path fill="white" d="M50.7324 8.07898h-2.8437v2.84372h2.8437zM59.2656 8.07898h-2.8437v2.84372h2.8437zM70.6406 8.07898h-2.8437v2.84372h2.8437zM73.4843 8.07898h-2.8437v2.84372h2.8437zM84.8574 8.07898h-2.8437v2.84372h2.8437zM27.9863 10.9225h-2.8437v2.8438h2.8437zM36.5156 10.9225h-2.8437v2.8438h2.8437zM42.2011 10.9225h-2.8437v2.8438h2.8437z"/><path fill="white" d="M50.7324 10.9225h-2.8437v2.8438h2.8437zM56.4218 10.9225h-2.8437v2.8438h2.8437zM62.1074 10.9225h-2.8437v2.8438h2.8437zM70.6406 10.9225h-2.8437v2.8438h2.8437zM79.1718 10.9225h-2.8437v2.8438h2.8437zM82.0156 10.9225h-2.8437v2.8438h2.8437zM33.6718 13.7661h-2.8437v2.8437h2.8437zM36.5156 13.7661h-2.8437v2.8437h2.8437zM39.3613 13.7661h-2.8437v2.8437h2.8437z"/><path fill="white" d="M47.8906 13.7661h-2.8437v2.8437h2.8437z"/><path fill="white" d="M50.7324 13.7661h-2.8437v2.8437h2.8437zM59.2656 13.7661h-2.8437v2.8437h2.8437z"/><path fill="white" d="M62.1074 13.7661h-2.8437v2.8437h2.8437zM70.6406 13.7661h-2.8437v2.8437h2.8437zM76.3261 13.7661h-2.8437v2.8437h2.8437zM79.1718 13.7661h-2.8437v2.8437h2.8437zM82.0156 13.7661h-2.8437v2.8437h2.8437zM27.9863 16.61h-2.8437v2.8437h2.8437zM30.83 16.61h-2.8437v2.8437H30.83zM39.3613 16.61h-2.8437v2.8437h2.8437z"/><path fill="white" d="M42.2011 16.61h-2.8437v2.8437h2.8437zM47.8906 16.61h-2.8437v2.8437h2.8437z"/><path fill="white" d="M50.7324 16.61h-2.8437v2.8437h2.8437zM56.4218 16.61h-2.8437v2.8437h2.8437zM62.1074 16.61h-2.8437v2.8437h2.8437zM64.9531 16.61h-2.8437v2.8437h2.8437zM67.7968 16.61h-2.8437v2.8437h2.8437zM73.4843 16.61h-2.8437v2.8437h2.8437z"/><path fill="white" d="M76.3261 16.61h-2.8437v2.8437h2.8437zM79.1718 16.61h-2.8437v2.8437h2.8437zM82.0156 16.61h-2.8437v2.8437h2.8437z"/><path fill="white" d="M84.8574 16.61h-2.8437v2.8437h2.8437zM27.9863 19.4538h-2.8437v2.8437h2.8437zM33.6718 19.4538h-2.8437v2.8437h2.8437zM39.3613 19.4538h-2.8437v2.8437h2.8437zM45.0468 19.4538h-2.8437v2.8437h2.8437zM50.7324 19.4538h-2.8437v2.8437h2.8437zM56.4218 19.4538h-2.8437v2.8437h2.8437zM62.1074 19.4538h-2.8437v2.8437h2.8437zM67.7968 19.4538h-2.8437v2.8437h2.8437zM73.4843 19.4538h-2.8437v2.8437h2.8437zM79.1718 19.4538h-2.8437v2.8437h2.8437zM84.8574 19.4538h-2.8437v2.8437h2.8437z"/><path fill="white" d="M27.9863 22.2974h-2.8437v2.8437h2.8437zM33.6718 22.2974h-2.8437v2.8437h2.8437zM36.5156 22.2974h-2.8437v2.8437h2.8437zM39.3613 22.2974h-2.8437v2.8437h2.8437z"/><path fill="white" d="M42.2011 22.2974h-2.8437v2.8437h2.8437zM47.8906 22.2974h-2.8437v2.8437h2.8437z"/><path fill="white" d="M50.7324 22.2974h-2.8437v2.8437h2.8437zM53.5781 22.2974h-2.8437v2.8437h2.8437zM56.4218 22.2974h-2.8437v2.8437h2.8437zM59.2656 22.2974h-2.8437v2.8437h2.8437zM64.9531 22.2974h-2.8437v2.8437h2.8437zM70.6406 22.2974h-2.8437v2.8437h2.8437zM73.4843 22.2974h-2.8437v2.8437h2.8437zM79.1718 22.2974h-2.8437v2.8437h2.8437zM8.07809 25.1412H5.23438v2.8437h2.84371zM13.7675 25.1412h-2.8437v2.8437h2.8437zM19.4531 25.1412h-2.8437v2.8437h2.8437zM22.2988 25.1412h-2.8437v2.8437h2.8437z"/><path fill="white" d="M25.1406 25.1412h-2.8437v2.8437h2.8437zM27.9863 25.1412h-2.8437v2.8437h2.8437zM30.83 25.1412h-2.8437v2.8437H30.83zM50.7324 25.1412h-2.8437v2.8437h2.8437zM53.5781 25.1412h-2.8437v2.8437h2.8437zM56.4218 25.1412h-2.8437v2.8437h2.8437zM62.1074 25.1412h-2.8437v2.8437h2.8437zM64.9531 25.1412h-2.8437v2.8437h2.8437zM70.6406 25.1412h-2.8437v2.8437h2.8437zM82.0156 25.1412h-2.8437v2.8437h2.8437z"/><path fill="white" d="M84.8574 25.1412h-2.8437v2.8437h2.8437zM87.7031 25.1412h-2.8437v2.8437h2.8437zM90.5468 25.1412h-2.8437v2.8437h2.8437z"/><path fill="white" d="M93.3886 25.1412h-2.8437v2.8437h2.8437zM99.0781 25.1412h-2.8437v2.8437h2.8437z"/><path fill="white" d="M101.92 25.1412h-2.8438v2.8437h2.8438zM107.609 25.1412h-2.843v2.8437h2.843zM10.9218 27.9848H8.07812v2.8437h2.84368zM16.6093 27.9848h-2.8437v2.8437h2.8437zM19.4531 27.9848h-2.8437v2.8437h2.8437zM33.6718 27.9848h-2.8437v2.8437h2.8437zM36.5156 27.9848h-2.8437v2.8437h2.8437zM45.0468 27.9848h-2.8437v2.8437h2.8437zM47.8906 27.9848h-2.8437v2.8437h2.8437zM67.7968 27.9848h-2.8437v2.8437h2.8437zM73.4843 27.9848h-2.8437v2.8437h2.8437zM79.1718 27.9848h-2.8437v2.8437h2.8437zM82.0156 27.9848h-2.8437v2.8437h2.8437z"/><path fill="white" d="M84.8574 27.9848h-2.8437v2.8437h2.8437zM87.7031 27.9848h-2.8437v2.8437h2.8437zM93.3886 27.9848h-2.8437v2.8437h2.8437zM99.0781 27.9848h-2.8437v2.8437h2.8437zM104.766 27.9848h-2.844v2.8437h2.844z"/><path fill="white" d="M107.609 27.9848h-2.843v2.8437h2.843zM8.07809 30.8286H5.23438v2.8437h2.84371zM19.4531 30.8286h-2.8437v2.8437h2.8437zM22.2988 30.8286h-2.8437v2.8437h2.8437zM27.9863 30.8286h-2.8437v2.8437h2.8437zM33.6718 30.8286h-2.8437v2.8437h2.8437zM56.4218 30.8286h-2.8437v2.8437h2.8437zM59.2656 30.8286h-2.8437v2.8437h2.8437zM64.9531 30.8286h-2.8437v2.8437h2.8437zM67.7968 30.8286h-2.8437v2.8437h2.8437zM82.0156 30.8286h-2.8437v2.8437h2.8437zM90.5468 30.8286h-2.8437v2.8437h2.8437zM99.0781 30.8286h-2.8437v2.8437h2.8437z"/><path fill="white" d="M101.92 30.8286h-2.8438v2.8437h2.8438zM104.766 30.8286h-2.844v2.8437h2.844z"/><path fill="white" d="M107.609 30.8286h-2.843v2.8437h2.843zM8.07809 33.6725H5.23438v2.8437h2.84371zM10.9218 33.6725H8.07812v2.8437h2.84368zM19.4531 33.6725h-2.8437v2.8437h2.8437zM27.9863 33.6725h-2.8437v2.8437h2.8437zM30.83 33.6725h-2.8437v2.8437H30.83z"/><path fill="white" d="M33.6718 33.6725h-2.8437v2.8437h2.8437zM50.7324 33.6725h-2.8437v2.8437h2.8437zM59.2656 33.6725h-2.8437v2.8437h2.8437zM64.9531 33.6725h-2.8437v2.8437h2.8437zM76.3261 33.6725h-2.8437v2.8437h2.8437zM84.8574 33.6725h-2.8437v2.8437h2.8437zM104.766 33.6725h-2.844v2.8437h2.844z"/><path fill="white" d="M107.609 33.6725h-2.843v2.8437h2.843zM8.07809 36.5158H5.23438v2.8437h2.84371zM10.9218 36.5158H8.07812v2.8437h2.84368zM13.7675 36.5158h-2.8437v2.8437h2.8437zM19.4531 36.5158h-2.8437v2.8437h2.8437zM22.2988 36.5158h-2.8437v2.8437h2.8437z"/><path fill="white" d="M25.1406 36.5158h-2.8437v2.8437h2.8437zM36.5156 36.5158h-2.8437v2.8437h2.8437zM42.2011 36.5158h-2.8437v2.8437h2.8437zM45.0468 36.5158h-2.8437v2.8437h2.8437zM50.7324 36.5158h-2.8437v2.8437h2.8437zM53.5781 36.5158h-2.8437v2.8437h2.8437zM62.1074 36.5158h-2.8437v2.8437h2.8437zM64.9531 36.5158h-2.8437v2.8437h2.8437zM73.4843 36.5158h-2.8437v2.8437h2.8437z"/><path fill="white" d="M76.3261 36.5158h-2.8437v2.8437h2.8437zM82.0156 36.5158h-2.8437v2.8437h2.8437zM87.7031 36.5158h-2.8437v2.8437h2.8437zM90.5468 36.5158h-2.8437v2.8437h2.8437zM104.766 36.5158h-2.844v2.8437h2.844zM5.23629 39.3599H2.39258v2.8437h2.84371zM10.9218 39.3599H8.07812v2.8437h2.84368zM19.4531 39.3599h-2.8437v2.8437h2.8437zM27.9863 39.3599h-2.8437v2.8437h2.8437zM33.6718 39.3599h-2.8437v2.8437h2.8437zM45.0468 39.3599h-2.8437v2.8437h2.8437zM59.2656 39.3599h-2.8437v2.8437h2.8437zM67.7968 39.3599h-2.8437v2.8437h2.8437zM73.4843 39.3599h-2.8437v2.8437h2.8437z"/><path fill="white" d="M76.3261 39.3599h-2.8437v2.8437h2.8437zM90.5468 39.3599h-2.8437v2.8437h2.8437z"/><path fill="white" d="M93.3886 39.3599h-2.8437v2.8437h2.8437zM99.0781 39.3599h-2.8437v2.8437h2.8437zM104.766 39.3599h-2.844v2.8437h2.844z"/><path fill="white" d="M107.609 39.3599h-2.843v2.8437h2.843zM5.23629 42.2035H2.39258v2.8437h2.84371zM10.9218 42.2035H8.07812v2.8437h2.84368zM13.7675 42.2035h-2.8437v2.8437h2.8437z"/><path fill="white" d="M16.6093 42.2035h-2.8437v2.8437h2.8437zM19.4531 42.2035h-2.8437v2.8437h2.8437zM22.2988 42.2035h-2.8437v2.8437h2.8437zM39.3613 42.2035h-2.8437v2.8437h2.8437zM50.7324 42.2035h-2.8437v2.8437h2.8437zM62.1074 42.2035h-2.8437v2.8437h2.8437zM64.9531 42.2035h-2.8437v2.8437h2.8437zM70.6406 42.2035h-2.8437v2.8437h2.8437zM73.4843 42.2035h-2.8437v2.8437h2.8437z"/><path fill="white" d="M76.3261 42.2035h-2.8437v2.8437h2.8437zM79.1718 42.2035h-2.8437v2.8437h2.8437zM87.7031 42.2035h-2.8437v2.8437h2.8437zM90.5468 42.2035h-2.8437v2.8437h2.8437z"/><path fill="white" d="M93.3886 42.2035h-2.8437v2.8437h2.8437zM96.2343 42.2035h-2.8437v2.8437h2.8437zM101.92 42.2035h-2.8438v2.8437h2.8438zM107.609 42.2035h-2.843v2.8437h2.843zM10.9218 45.0471H8.07812v2.8437h2.84368zM13.7675 45.0471h-2.8437v2.8437h2.8437zM19.4531 45.0471h-2.8437v2.8437h2.8437zM27.9863 45.0471h-2.8437v2.8437h2.8437zM36.5156 45.0471h-2.8437v2.8437h2.8437zM39.3613 45.0471h-2.8437v2.8437h2.8437z"/><path fill="white" d="M42.2011 45.0471h-2.8437v2.8437h2.8437zM47.8906 45.0471h-2.8437v2.8437h2.8437z"/><path fill="white" d="M50.7324 45.0471h-2.8437v2.8437h2.8437zM56.4218 45.0471h-2.8437v2.8437h2.8437zM76.3261 45.0471h-2.8437v2.8437h2.8437zM79.1718 45.0471h-2.8437v2.8437h2.8437zM82.0156 45.0471h-2.8437v2.8437h2.8437zM87.7031 45.0471h-2.8437v2.8437h2.8437zM90.5468 45.0471h-2.8437v2.8437h2.8437zM96.2343 45.0471h-2.8437v2.8437h2.8437zM107.609 45.0471h-2.843v2.8437h2.843zM5.23629 47.8909H2.39258v2.8437h2.84371z"/><path fill="white" d="M8.07809 47.8909H5.23438v2.8437h2.84371zM10.9218 47.8909H8.07812v2.8437h2.84368zM19.4531 47.8909h-2.8437v2.8437h2.8437zM22.2988 47.8909h-2.8437v2.8437h2.8437z"/><path fill="white" d="M25.1406 47.8909h-2.8437v2.8437h2.8437zM27.9863 47.8909h-2.8437v2.8437h2.8437zM30.83 47.8909h-2.8437v2.8437H30.83zM39.3613 47.8909h-2.8437v2.8437h2.8437zM45.0468 47.8909h-2.8437v2.8437h2.8437zM50.7324 47.8909h-2.8437v2.8437h2.8437zM53.5781 47.8909h-2.8437v2.8437h2.8437zM67.7968 47.8909h-2.8437v2.8437h2.8437zM73.4843 47.8909h-2.8437v2.8437h2.8437z"/><path fill="white" d="M76.3261 47.8909h-2.8437v2.8437h2.8437zM82.0156 47.8909h-2.8437v2.8437h2.8437z"/><path fill="white" d="M84.8574 47.8909h-2.8437v2.8437h2.8437zM90.5468 47.8909h-2.8437v2.8437h2.8437zM99.0781 47.8909h-2.8437v2.8437h2.8437z"/><path fill="white" d="M101.92 47.8909h-2.8438v2.8437h2.8438zM104.766 47.8909h-2.844v2.8437h2.844zM5.23629 50.7345H2.39258v2.8437h2.84371zM16.6093 50.7345h-2.8437v2.8437h2.8437zM25.1406 50.7345h-2.8437v2.8437h2.8437zM33.6718 50.7345h-2.8437v2.8437h2.8437zM42.2011 50.7345h-2.8437v2.8437h2.8437zM50.7324 50.7345h-2.8437v2.8437h2.8437zM53.5781 50.7345h-2.8437v2.8437h2.8437zM73.4843 50.7345h-2.8437v2.8437h2.8437zM84.8574 50.7345h-2.8437v2.8437h2.8437zM90.5468 50.7345h-2.8437v2.8437h2.8437zM96.2343 50.7345h-2.8437v2.8437h2.8437z"/><path fill="white" d="M101.92 50.7345h-2.8438v2.8437h2.8438zM107.609 50.7345h-2.843v2.8437h2.843zM5.23629 53.5783H2.39258v2.8437h2.84371z"/><path fill="white" d="M8.07809 53.5783H5.23438v2.8437h2.84371zM13.7675 53.5783h-2.8437v2.8437h2.8437z"/><path fill="white" d="M16.6093 53.5783h-2.8437v2.8437h2.8437zM19.4531 53.5783h-2.8437v2.8437h2.8437zM22.2988 53.5783h-2.8437v2.8437h2.8437zM27.9863 53.5783h-2.8437v2.8437h2.8437zM33.6718 53.5783h-2.8437v2.8437h2.8437zM45.0468 53.5783h-2.8437v2.8437h2.8437zM47.8906 53.5783h-2.8437v2.8437h2.8437z"/><path fill="white" d="M50.7324 53.5783h-2.8437v2.8437h2.8437zM53.5781 53.5783h-2.8437v2.8437h2.8437zM56.4218 53.5783h-2.8437v2.8437h2.8437zM59.2656 53.5783h-2.8437v2.8437h2.8437z"/><path fill="white" d="M62.1074 53.5783h-2.8437v2.8437h2.8437zM64.9531 53.5783h-2.8437v2.8437h2.8437zM70.6406 53.5783h-2.8437v2.8437h2.8437zM73.4843 53.5783h-2.8437v2.8437h2.8437z"/><path fill="white" d="M76.3261 53.5783h-2.8437v2.8437h2.8437zM84.8574 53.5783h-2.8437v2.8437h2.8437zM87.7031 53.5783h-2.8437v2.8437h2.8437zM93.3886 53.5783h-2.8437v2.8437h2.8437zM96.2343 53.5783h-2.8437v2.8437h2.8437zM99.0781 53.5783h-2.8437v2.8437h2.8437zM104.766 53.5783h-2.844v2.8437h2.844z"/><path fill="white" d="M107.609 53.5783h-2.843v2.8437h2.843zM13.7675 56.4219h-2.8437v2.8437h2.8437zM25.1406 56.4219h-2.8437v2.8437h2.8437zM27.9863 56.4219h-2.8437v2.8437h2.8437zM30.83 56.4219h-2.8437v2.8437H30.83z"/><path fill="white" d="M33.6718 56.4219h-2.8437v2.8437h2.8437zM42.2011 56.4219h-2.8437v2.8437h2.8437zM47.8906 56.4219h-2.8437v2.8437h2.8437zM56.4218 56.4219h-2.8437v2.8437h2.8437zM64.9531 56.4219h-2.8437v2.8437h2.8437zM67.7968 56.4219h-2.8437v2.8437h2.8437zM73.4843 56.4219h-2.8437v2.8437h2.8437zM79.1718 56.4219h-2.8437v2.8437h2.8437zM84.8574 56.4219h-2.8437v2.8437h2.8437zM93.3886 56.4219h-2.8437v2.8437h2.8437zM101.92 56.4219h-2.8438v2.8437h2.8438zM8.07809 59.2657H5.23438v2.8438h2.84371zM10.9218 59.2657H8.07812v2.8438h2.84368zM13.7675 59.2657h-2.8437v2.8438h2.8437z"/><path fill="white" d="M16.6093 59.2657h-2.8437v2.8438h2.8437zM22.2988 59.2657h-2.8437v2.8438h2.8437zM39.3613 59.2657h-2.8437v2.8438h2.8437zM50.7324 59.2657h-2.8437v2.8438h2.8437zM62.1074 59.2657h-2.8437v2.8438h2.8437zM64.9531 59.2657h-2.8437v2.8438h2.8437zM76.3261 59.2657h-2.8437v2.8438h2.8437zM82.0156 59.2657h-2.8437v2.8438h2.8437z"/><path fill="white" d="M84.8574 59.2657h-2.8437v2.8438h2.8437zM90.5468 59.2657h-2.8437v2.8438h2.8437z"/><path fill="white" d="M93.3886 59.2657h-2.8437v2.8438h2.8437zM96.2343 59.2657h-2.8437v2.8438h2.8437zM104.766 59.2657h-2.844v2.8438h2.844z"/><path fill="white" d="M107.609 59.2657h-2.843v2.8438h2.843zM8.07809 62.1093H5.23438v2.8437h2.84371zM10.9218 62.1093H8.07812v2.8437h2.84368zM36.5156 62.1093h-2.8437v2.8437h2.8437zM45.0468 62.1093h-2.8437v2.8437h2.8437zM47.8906 62.1093h-2.8437v2.8437h2.8437zM62.1074 62.1093h-2.8437v2.8437h2.8437zM64.9531 62.1093h-2.8437v2.8437h2.8437zM67.7968 62.1093h-2.8437v2.8437h2.8437zM73.4843 62.1093h-2.8437v2.8437h2.8437zM87.7031 62.1093h-2.8437v2.8437h2.8437zM90.5468 62.1093h-2.8437v2.8437h2.8437zM99.0781 62.1093h-2.8437v2.8437h2.8437z"/><path fill="white" d="M101.92 62.1093h-2.8438v2.8437h2.8438zM107.609 62.1093h-2.843v2.8437h2.843zM8.07809 64.9531H5.23438v2.8437h2.84371zM13.7675 64.9531h-2.8437v2.8437h2.8437zM22.2988 64.9531h-2.8437v2.8437h2.8437zM27.9863 64.9531h-2.8437v2.8437h2.8437zM30.83 64.9531h-2.8437v2.8437H30.83zM36.5156 64.9531h-2.8437v2.8437h2.8437zM42.2011 64.9531h-2.8437v2.8437h2.8437zM45.0468 64.9531h-2.8437v2.8437h2.8437zM47.8906 64.9531h-2.8437v2.8437h2.8437zM56.4218 64.9531h-2.8437v2.8437h2.8437zM67.7968 64.9531h-2.8437v2.8437h2.8437zM73.4843 64.9531h-2.8437v2.8437h2.8437zM87.7031 64.9531h-2.8437v2.8437h2.8437zM93.3886 64.9531h-2.8437v2.8437h2.8437zM96.2343 64.9531h-2.8437v2.8437h2.8437zM101.92 64.9531h-2.8438v2.8437h2.8438zM104.766 64.9531h-2.844v2.8437h2.844z"/><path fill="white" d="M107.609 64.9531h-2.843v2.8437h2.843zM5.23629 67.797H2.39258v2.8437h2.84371zM10.9218 67.797H8.07812v2.8437h2.84368zM25.1406 67.797h-2.8437v2.8437h2.8437zM27.9863 67.797h-2.8437v2.8437h2.8437zM36.5156 67.797h-2.8437v2.8437h2.8437zM39.3613 67.797h-2.8437v2.8437h2.8437z"/><path fill="white" d="M42.2011 67.797h-2.8437v2.8437h2.8437zM45.0468 67.797h-2.8437v2.8437h2.8437zM47.8906 67.797h-2.8437v2.8437h2.8437z"/><path fill="white" d="M50.7324 67.797h-2.8437v2.8437h2.8437zM56.4218 67.797h-2.8437v2.8437h2.8437zM64.9531 67.797h-2.8437v2.8437h2.8437zM70.6406 67.797h-2.8437v2.8437h2.8437zM73.4843 67.797h-2.8437v2.8437h2.8437zM79.1718 67.797h-2.8437v2.8437h2.8437zM90.5468 67.797h-2.8437v2.8437h2.8437zM96.2343 67.797h-2.8437v2.8437h2.8437zM104.766 67.797h-2.844v2.8437h2.844zM5.23629 70.6403H2.39258v2.8437h2.84371zM16.6093 70.6403h-2.8437v2.8437h2.8437zM22.2988 70.6403h-2.8437v2.8437h2.8437z"/><path fill="white" d="M25.1406 70.6403h-2.8437v2.8437h2.8437zM27.9863 70.6403h-2.8437v2.8437h2.8437zM30.83 70.6403h-2.8437v2.8437H30.83z"/><path fill="white" d="M33.6718 70.6403h-2.8437v2.8437h2.8437zM39.3613 70.6403h-2.8437v2.8437h2.8437z"/><path fill="white" d="M42.2011 70.6403h-2.8437v2.8437h2.8437zM45.0468 70.6403h-2.8437v2.8437h2.8437zM47.8906 70.6403h-2.8437v2.8437h2.8437zM53.5781 70.6403h-2.8437v2.8437h2.8437zM56.4218 70.6403h-2.8437v2.8437h2.8437zM64.9531 70.6403h-2.8437v2.8437h2.8437zM73.4843 70.6403h-2.8437v2.8437h2.8437zM82.0156 70.6403h-2.8437v2.8437h2.8437zM87.7031 70.6403h-2.8437v2.8437h2.8437zM107.609 70.6403h-2.843v2.8437h2.843zM10.9218 73.4844H8.07812v2.8437h2.84368zM16.6093 73.4844h-2.8437v2.8437h2.8437zM25.1406 73.4844h-2.8437v2.8437h2.8437zM30.83 73.4844h-2.8437v2.8437H30.83zM36.5156 73.4844h-2.8437v2.8437h2.8437zM39.3613 73.4844h-2.8437v2.8437h2.8437z"/><path fill="white" d="M42.2011 73.4844h-2.8437v2.8437h2.8437zM45.0468 73.4844h-2.8437v2.8437h2.8437zM47.8906 73.4844h-2.8437v2.8437h2.8437zM56.4218 73.4844h-2.8437v2.8437h2.8437zM62.1074 73.4844h-2.8437v2.8437h2.8437zM64.9531 73.4844h-2.8437v2.8437h2.8437zM67.7968 73.4844h-2.8437v2.8437h2.8437zM73.4843 73.4844h-2.8437v2.8437h2.8437zM82.0156 73.4844h-2.8437v2.8437h2.8437z"/><path fill="white" d="M84.8574 73.4844h-2.8437v2.8437h2.8437zM87.7031 73.4844h-2.8437v2.8437h2.8437zM99.0781 73.4844h-2.8437v2.8437h2.8437zM104.766 73.4844h-2.844v2.8437h2.844z"/><path fill="white" d="M107.609 73.4844h-2.843v2.8437h2.843zM5.23629 76.3278H2.39258v2.8437h2.84371zM13.7675 76.3278h-2.8437v2.8437h2.8437z"/><path fill="white" d="M16.6093 76.3278h-2.8437v2.8437h2.8437zM19.4531 76.3278h-2.8437v2.8437h2.8437zM22.2988 76.3278h-2.8437v2.8437h2.8437zM30.83 76.3278h-2.8437v2.8437H30.83zM42.2011 76.3278h-2.8437v2.8437h2.8437zM45.0468 76.3278h-2.8437v2.8437h2.8437zM50.7324 76.3278h-2.8437v2.8437h2.8437zM56.4218 76.3278h-2.8437v2.8437h2.8437zM67.7968 76.3278h-2.8437v2.8437h2.8437zM70.6406 76.3278h-2.8437v2.8437h2.8437zM76.3261 76.3278h-2.8437v2.8437h2.8437zM79.1718 76.3278h-2.8437v2.8437h2.8437zM87.7031 76.3278h-2.8437v2.8437h2.8437zM90.5468 76.3278h-2.8437v2.8437h2.8437z"/><path fill="white" d="M93.3886 76.3278h-2.8437v2.8437h2.8437zM101.92 76.3278h-2.8438v2.8437h2.8438zM104.766 76.3278h-2.844v2.8437h2.844z"/><path fill="white" d="M107.609 76.3278h-2.843v2.8437h2.843zM8.07809 79.1716H5.23438v2.8437h2.84371zM10.9218 79.1716H8.07812v2.8437h2.84368zM13.7675 79.1716h-2.8437v2.8437h2.8437zM25.1406 79.1716h-2.8437v2.8437h2.8437zM39.3613 79.1716h-2.8437v2.8437h2.8437zM45.0468 79.1716h-2.8437v2.8437h2.8437zM50.7324 79.1716h-2.8437v2.8437h2.8437zM56.4218 79.1716h-2.8437v2.8437h2.8437zM62.1074 79.1716h-2.8437v2.8437h2.8437zM64.9531 79.1716h-2.8437v2.8437h2.8437zM67.7968 79.1716h-2.8437v2.8437h2.8437zM73.4843 79.1716h-2.8437v2.8437h2.8437z"/><path fill="white" d="M76.3261 79.1716h-2.8437v2.8437h2.8437zM82.0156 79.1716h-2.8437v2.8437h2.8437zM90.5468 79.1716h-2.8437v2.8437h2.8437z"/><path fill="white" d="M93.3886 79.1716h-2.8437v2.8437h2.8437zM96.2343 79.1716h-2.8437v2.8437h2.8437zM107.609 79.1716h-2.843v2.8437h2.843zM5.23629 82.0154H2.39258v2.8438h2.84371z"/><path fill="white" d="M8.07809 82.0154H5.23438v2.8438h2.84371zM10.9218 82.0154H8.07812v2.8438h2.84368zM19.4531 82.0154h-2.8437v2.8438h2.8437zM22.2988 82.0154h-2.8437v2.8438h2.8437z"/><path fill="white" d="M25.1406 82.0154h-2.8437v2.8438h2.8437zM27.9863 82.0154h-2.8437v2.8438h2.8437zM30.83 82.0154h-2.8437v2.8438H30.83z"/><path fill="white" d="M33.6718 82.0154h-2.8437v2.8438h2.8437zM36.5156 82.0154h-2.8437v2.8438h2.8437zM39.3613 82.0154h-2.8437v2.8438h2.8437z"/><path fill="white" d="M42.2011 82.0154h-2.8437v2.8438h2.8437zM45.0468 82.0154h-2.8437v2.8438h2.8437zM53.5781 82.0154h-2.8437v2.8438h2.8437zM56.4218 82.0154h-2.8437v2.8438h2.8437zM62.1074 82.0154h-2.8437v2.8438h2.8437zM64.9531 82.0154h-2.8437v2.8438h2.8437zM67.7968 82.0154h-2.8437v2.8438h2.8437zM70.6406 82.0154h-2.8437v2.8438h2.8437zM84.8574 82.0154h-2.8437v2.8438h2.8437zM87.7031 82.0154h-2.8437v2.8438h2.8437zM90.5468 82.0154h-2.8437v2.8438h2.8437z"/><path fill="white" d="M93.3886 82.0154h-2.8437v2.8438h2.8437zM96.2343 82.0154h-2.8437v2.8438h2.8437zM101.92 82.0154h-2.8438v2.8438h2.8438zM104.766 82.0154h-2.844v2.8438h2.844zM27.9863 84.859h-2.8437v2.8437h2.8437zM33.6718 84.859h-2.8437v2.8437h2.8437zM39.3613 84.859h-2.8437v2.8437h2.8437zM50.7324 84.859h-2.8437v2.8437h2.8437zM56.4218 84.859h-2.8437v2.8437h2.8437zM64.9531 84.859h-2.8437v2.8437h2.8437zM70.6406 84.859h-2.8437v2.8437h2.8437zM73.4843 84.859h-2.8437v2.8437h2.8437z"/><path fill="white" d="M76.3261 84.859h-2.8437v2.8437h2.8437zM79.1718 84.859h-2.8437v2.8437h2.8437zM82.0156 84.859h-2.8437v2.8437h2.8437z"/><path fill="white" d="M84.8574 84.859h-2.8437v2.8437h2.8437zM96.2343 84.859h-2.8437v2.8437h2.8437zM107.609 84.859h-2.843v2.8437h2.843zM27.9863 87.7028h-2.8437v2.8437h2.8437zM30.83 87.7028h-2.8437v2.8437H30.83zM39.3613 87.7028h-2.8437v2.8437h2.8437zM47.8906 87.7028h-2.8437v2.8437h2.8437zM53.5781 87.7028h-2.8437v2.8437h2.8437zM56.4218 87.7028h-2.8437v2.8437h2.8437zM59.2656 87.7028h-2.8437v2.8437h2.8437z"/><path fill="white" d="M62.1074 87.7028h-2.8437v2.8437h2.8437zM67.7968 87.7028h-2.8437v2.8437h2.8437zM79.1718 87.7028h-2.8437v2.8437h2.8437zM82.0156 87.7028h-2.8437v2.8437h2.8437z"/><path fill="white" d="M84.8574 87.7028h-2.8437v2.8437h2.8437zM90.5468 87.7028h-2.8437v2.8437h2.8437zM96.2343 87.7028h-2.8437v2.8437h2.8437zM101.92 87.7028h-2.8438v2.8437h2.8438zM104.766 87.7028h-2.844v2.8437h2.844z"/><path fill="white" d="M107.609 87.7028h-2.843v2.8437h2.843zM27.9863 90.5464h-2.8437v2.8438h2.8437zM33.6718 90.5464h-2.8437v2.8438h2.8437zM36.5156 90.5464h-2.8437v2.8438h2.8437zM45.0468 90.5464h-2.8437v2.8438h2.8437zM47.8906 90.5464h-2.8437v2.8438h2.8437z"/><path fill="white" d="M50.7324 90.5464h-2.8437v2.8438h2.8437zM62.1074 90.5464h-2.8437v2.8438h2.8437zM64.9531 90.5464h-2.8437v2.8438h2.8437zM73.4843 90.5464h-2.8437v2.8438h2.8437zM79.1718 90.5464h-2.8437v2.8438h2.8437zM84.8574 90.5464h-2.8437v2.8438h2.8437zM96.2343 90.5464h-2.8437v2.8438h2.8437zM101.92 90.5464h-2.8438v2.8438h2.8438zM30.83 93.3903h-2.8437v2.8437H30.83z"/><path fill="white" d="M33.6718 93.3903h-2.8437v2.8437h2.8437zM42.2011 93.3903h-2.8437v2.8437h2.8437zM45.0468 93.3903h-2.8437v2.8437h2.8437zM47.8906 93.3903h-2.8437v2.8437h2.8437zM59.2656 93.3903h-2.8437v2.8437h2.8437zM67.7968 93.3903h-2.8437v2.8437h2.8437zM76.3261 93.3903h-2.8437v2.8437h2.8437zM84.8574 93.3903h-2.8437v2.8437h2.8437zM87.7031 93.3903h-2.8437v2.8437h2.8437zM90.5468 93.3903h-2.8437v2.8437h2.8437z"/><path fill="white" d="M93.3886 93.3903h-2.8437v2.8437h2.8437zM96.2343 93.3903h-2.8437v2.8437h2.8437zM99.0781 93.3903h-2.8437v2.8437h2.8437zM104.766 93.3903h-2.844v2.8437h2.844z"/><path fill="white" d="M107.609 93.3903h-2.843v2.8437h2.843zM27.9863 96.2338h-2.8437v2.8437h2.8437zM33.6718 96.2338h-2.8437v2.8437h2.8437zM39.3613 96.2338h-2.8437v2.8437h2.8437z"/><path fill="white" d="M42.2011 96.2338h-2.8437v2.8437h2.8437zM45.0468 96.2338h-2.8437v2.8437h2.8437zM47.8906 96.2338h-2.8437v2.8437h2.8437zM53.5781 96.2338h-2.8437v2.8437h2.8437zM59.2656 96.2338h-2.8437v2.8437h2.8437z"/><path fill="white" d="M62.1074 96.2338h-2.8437v2.8437h2.8437zM64.9531 96.2338h-2.8437v2.8437h2.8437zM67.7968 96.2338h-2.8437v2.8437h2.8437zM70.6406 96.2338h-2.8437v2.8437h2.8437zM87.7031 96.2338h-2.8437v2.8437h2.8437zM93.3886 96.2338h-2.8437v2.8437h2.8437zM96.2343 96.2338h-2.8437v2.8437h2.8437zM99.0781 96.2338h-2.8437v2.8437h2.8437z"/><path fill="white" d="M101.92 96.2338h-2.8438v2.8437h2.8438zM107.609 96.2338h-2.843v2.8437h2.843zM30.83 99.0777h-2.8437v2.8433H30.83z"/><path fill="white" d="M33.6718 99.0777h-2.8437v2.8433h2.8437zM36.5156 99.0777h-2.8437v2.8433h2.8437zM39.3613 99.0777h-2.8437v2.8433h2.8437zM47.8906 99.0777h-2.8437v2.8433h2.8437zM56.4218 99.0777h-2.8437v2.8433h2.8437zM62.1074 99.0777h-2.8437v2.8433h2.8437zM64.9531 99.0777h-2.8437v2.8433h2.8437zM82.0156 99.0777h-2.8437v2.8433h2.8437zM87.7031 99.0777h-2.8437v2.8433h2.8437zM93.3886 99.0777h-2.8437v2.8433h2.8437zM96.2343 99.0777h-2.8437v2.8433h2.8437zM99.0781 99.0777h-2.8437v2.8433h2.8437z"/><path fill="white" d="M101.92 99.0777h-2.8438v2.8433h2.8438zM107.609 99.0777h-2.843v2.8433h2.843zM27.9863 101.922h-2.8437v2.843h2.8437zM30.83 101.922h-2.8437v2.843H30.83z"/><path fill="white" d="M33.6718 101.922h-2.8437v2.843h2.8437zM36.5156 101.922h-2.8437v2.843h2.8437zM42.2011 101.922h-2.8437v2.843h2.8437zM53.5781 101.922h-2.8437v2.843h2.8437zM56.4218 101.922h-2.8437v2.843h2.8437zM64.9531 101.922h-2.8437v2.843h2.8437zM76.3261 101.922h-2.8437v2.843h2.8437zM82.0156 101.922h-2.8437v2.843h2.8437z"/><path fill="white" d="M84.8574 101.922h-2.8437v2.843h2.8437zM87.7031 101.922h-2.8437v2.843h2.8437zM90.5468 101.922h-2.8437v2.843h2.8437zM96.2343 101.922h-2.8437v2.843h2.8437zM30.83 104.765h-2.8437v2.844H30.83zM36.5156 104.765h-2.8437v2.844h2.8437zM42.2011 104.765h-2.8437v2.844h2.8437zM47.8906 104.765h-2.8437v2.844h2.8437zM59.2656 104.765h-2.8437v2.844h2.8437z"/><path fill="white" d="M62.1074 104.765h-2.8437v2.844h2.8437zM64.9531 104.765h-2.8437v2.844h2.8437zM73.4843 104.765h-2.8437v2.844h2.8437z"/><path fill="white" d="M76.3261 104.765h-2.8437v2.844h2.8437zM82.0156 104.765h-2.8437v2.844h2.8437z"/><path fill="white" d="M84.8574 104.765h-2.8437v2.844h2.8437zM96.2343 104.765h-2.8437v2.844h2.8437zM104.766 104.765h-2.844v2.844h2.844z"/><path fill="white" d="M107.609 104.765h-2.843v2.844h2.843z"/></mask><g mask="url(#b)"><path fill="black" d="M110 .00006104H0V110h110z"/></g><mask id="c" width="21" height="21" x="2" y="2" maskUnits="userSpaceOnUse" style="mask-type:luminance"><path fill="white" fill-rule="evenodd" d="M2.39258 2.3913v19.906H22.2986V2.3913zm2.84371 2.84371H19.4549V19.4536H5.23629z" clip-rule="evenodd"/></mask><g mask="url(#c)"><path fill="black" d="M22.2986 2.39124H2.39258V22.2972H22.2986z"/></g><mask id="d" width="9" height="9" x="8" y="8" maskUnits="userSpaceOnUse" style="mask-type:luminance"><path fill="white" d="M16.6093 8.07886H8.07812V16.61h8.53118z"/></mask><g mask="url(#d)"><path fill="black" d="M16.6093 8.07886H8.07812V16.61h8.53118z"/></g><mask id="e" width="21" height="21" x="87" y="2" maskUnits="userSpaceOnUse" style="mask-type:luminance"><path fill="white" fill-rule="evenodd" d="M107.607 2.3913H87.7014v19.906h19.9056zm-2.843 2.84371V19.4536H90.5451V5.23501z" clip-rule="evenodd"/></mask><g mask="url(#e)"><path fill="black" d="M107.609 2.39124H87.7031V22.2972h19.9059z"/></g><mask id="f" width="9" height="9" x="93" y="8" maskUnits="userSpaceOnUse" style="mask-type:luminance"><path fill="white" d="M101.922 16.61V8.07886h-8.5313V16.61z"/></mask><g mask="url(#f)"><path fill="black" d="M101.922 8.07886h-8.5314V16.61h8.5314z"/></g><mask id="g" width="21" height="21" x="2" y="87" maskUnits="userSpaceOnUse" style="mask-type:luminance"><path fill="white" fill-rule="evenodd" d="M2.39258 107.609H22.2986V87.703H2.39258zm2.84371-2.844V90.5467H19.4549v14.2183z" clip-rule="evenodd"/></mask><g mask="url(#g)"><path fill="black" d="M22.2986 87.7028H2.39258v19.9062H22.2986z"/></g><mask id="h" width="9" height="9" x="8" y="93" maskUnits="userSpaceOnUse" style="mask-type:luminance"><path fill="white" d="M8.07812 93.3902v8.5308h8.53118v-8.5308z"/></mask><g mask="url(#h)"><path fill="black" d="M16.6093 93.3901H8.07812v8.5309h8.53118z"/></g></svg>