<svg xmlns="http://www.w3.org/2000/svg" width="110" height="110" fill="none" viewBox="0 0 110 110"><mask id="a" width="110" height="110" x="0" y="0" maskUnits="userSpaceOnUse" style="mask-type:luminance"><path fill="white" d="M110 0H0v110h110z"/></mask><g mask="url(#a)"><path fill="white" d="M110 0H0v110h110z"/></g><mask id="b" width="106" height="106" x="2" y="2" maskUnits="userSpaceOnUse" style="mask-type:luminance"><path fill="white" d="M33.6718 2.3913h-2.8437v2.84371h2.8437zM36.5156 2.3913h-2.8437v2.84371h2.8437zM47.8906 2.3913h-2.8437v2.84371h2.8437zM62.1074 2.3913h-2.8437v2.84371h2.8437zM67.7949 2.3913h-2.8437v2.84371h2.8437zM70.6386 2.3913h-2.8437v2.84371h2.8437zM76.3261 2.3913h-2.8437v2.84371h2.8437zM79.1699 2.3913h-2.8437v2.84371h2.8437zM27.9843 5.23535h-2.8437v2.84371h2.8437zM30.83 5.23535h-2.8437v2.84371H30.83zM42.2011 5.23535h-2.8437v2.84371h2.8437zM45.0449 5.23535h-2.8437v2.84371h2.8437zM59.2636 5.23535h-2.8437v2.84371h2.8437zM62.1074 5.23535h-2.8437v2.84371h2.8437zM64.9531 5.23535h-2.8437v2.84371h2.8437z"/><path fill="white" d="M67.7949 5.23535h-2.8437v2.84371h2.8437zM70.6386 5.23535h-2.8437v2.84371h2.8437zM73.4843 5.23535h-2.8437v2.84371h2.8437z"/><path fill="white" d="M76.3261 5.23535h-2.8437v2.84371h2.8437zM30.83 8.07898h-2.8437v2.84372H30.83z"/><path fill="white" d="M33.6718 8.07898h-2.8437v2.84372h2.8437zM36.5156 8.07898h-2.8437v2.84372h2.8437zM42.2011 8.07898h-2.8437v2.84372h2.8437zM50.7324 8.07898h-2.8437v2.84372h2.8437zM53.5781 8.07898h-2.8437v2.84372h2.8437zM59.2636 8.07898h-2.8437v2.84372h2.8437zM62.1074 8.07898h-2.8437v2.84372h2.8437zM64.9531 8.07898h-2.8437v2.84372h2.8437z"/><path fill="white" d="M67.7949 8.07898h-2.8437v2.84372h2.8437zM70.6386 8.07898h-2.8437v2.84372h2.8437zM76.3261 8.07898h-2.8437v2.84372h2.8437zM27.9843 10.9225h-2.8437v2.8438h2.8437zM36.5156 10.9225h-2.8437v2.8438h2.8437zM42.2011 10.9225h-2.8437v2.8438h2.8437zM45.0449 10.9225h-2.8437v2.8438h2.8437zM50.7324 10.9225h-2.8437v2.8438h2.8437zM56.4218 10.9225h-2.8437v2.8438h2.8437z"/><path fill="white" d="M59.2636 10.9225h-2.8437v2.8438h2.8437zM64.9531 10.9225h-2.8437v2.8438h2.8437zM70.6386 10.9225h-2.8437v2.8438h2.8437zM76.3261 10.9225h-2.8437v2.8438h2.8437zM82.0156 10.9225h-2.8437v2.8438h2.8437z"/><path fill="white" d="M84.8574 10.9225h-2.8437v2.8438h2.8437zM27.9843 13.7661h-2.8437v2.8437h2.8437zM33.6718 13.7661h-2.8437v2.8437h2.8437zM36.5156 13.7661h-2.8437v2.8437h2.8437zM45.0449 13.7661h-2.8437v2.8437h2.8437zM47.8906 13.7661h-2.8437v2.8437h2.8437zM59.2636 13.7661h-2.8437v2.8437h2.8437zM64.9531 13.7661h-2.8437v2.8437h2.8437zM73.4843 13.7661h-2.8437v2.8437h2.8437z"/><path fill="white" d="M76.3261 13.7661h-2.8437v2.8437h2.8437zM79.1699 13.7661h-2.8437v2.8437h2.8437zM36.5156 16.61h-2.8437v2.8437h2.8437zM39.3593 16.61h-2.8437v2.8437h2.8437z"/><path fill="white" d="M42.2011 16.61h-2.8437v2.8437h2.8437zM45.0449 16.61h-2.8437v2.8437h2.8437zM59.2636 16.61h-2.8437v2.8437h2.8437zM62.1074 16.61h-2.8437v2.8437h2.8437zM64.9531 16.61h-2.8437v2.8437h2.8437zM70.6386 16.61h-2.8437v2.8437h2.8437zM76.3261 16.61h-2.8437v2.8437h2.8437zM79.1699 16.61h-2.8437v2.8437h2.8437zM27.9843 19.4538h-2.8437v2.8437h2.8437zM33.6718 19.4538h-2.8437v2.8437h2.8437zM39.3593 19.4538h-2.8437v2.8437h2.8437zM45.0449 19.4538h-2.8437v2.8437h2.8437zM50.7324 19.4538h-2.8437v2.8437h2.8437zM56.4218 19.4538h-2.8437v2.8437h2.8437zM62.1074 19.4538h-2.8437v2.8437h2.8437zM67.7949 19.4538h-2.8437v2.8437h2.8437zM73.4843 19.4538h-2.8437v2.8437h2.8437zM79.1699 19.4538h-2.8437v2.8437h2.8437zM84.8574 19.4538h-2.8437v2.8437h2.8437z"/><path fill="white" d="M27.9843 22.2974h-2.8437v2.8437h2.8437zM36.5156 22.2974h-2.8437v2.8437h2.8437zM39.3593 22.2974h-2.8437v2.8437h2.8437zM45.0449 22.2974h-2.8437v2.8437h2.8437zM47.8906 22.2974h-2.8437v2.8437h2.8437z"/><path fill="white" d="M50.7324 22.2974h-2.8437v2.8437h2.8437zM53.5781 22.2974h-2.8437v2.8437h2.8437zM59.2636 22.2974h-2.8437v2.8437h2.8437zM62.1074 22.2974h-2.8437v2.8437h2.8437zM79.1699 22.2974h-2.8437v2.8437h2.8437zM82.0156 22.2974h-2.8437v2.8437h2.8437z"/><path fill="white" d="M84.8574 22.2974h-2.8437v2.8437h2.8437zM8.07809 25.1412H5.23438v2.8437h2.84371zM13.7675 25.1412h-2.8437v2.8437h2.8437z"/><path fill="white" d="M16.6093 25.1412h-2.8437v2.8437h2.8437zM19.4531 25.1412h-2.8437v2.8437h2.8437zM22.2988 25.1412h-2.8437v2.8437h2.8437zM27.9843 25.1412h-2.8437v2.8437h2.8437zM33.6718 25.1412h-2.8437v2.8437h2.8437zM39.3593 25.1412h-2.8437v2.8437h2.8437z"/><path fill="white" d="M42.2011 25.1412h-2.8437v2.8437h2.8437zM45.0449 25.1412h-2.8437v2.8437h2.8437zM56.4218 25.1412h-2.8437v2.8437h2.8437z"/><path fill="white" d="M59.2636 25.1412h-2.8437v2.8437h2.8437zM62.1074 25.1412h-2.8437v2.8437h2.8437zM67.7949 25.1412h-2.8437v2.8437h2.8437zM76.3261 25.1412h-2.8437v2.8437h2.8437zM79.1699 25.1412h-2.8437v2.8437h2.8437zM87.7011 25.1412h-2.8437v2.8437h2.8437zM90.5468 25.1412h-2.8437v2.8437h2.8437zM96.2343 25.1412h-2.8437v2.8437h2.8437zM99.0781 25.1412h-2.8437v2.8437h2.8437zM104.766 25.1412h-2.844v2.8437h2.844zM8.07809 27.9848H5.23438v2.8437h2.84371zM16.6093 27.9848h-2.8437v2.8437h2.8437zM33.6718 27.9848h-2.8437v2.8437h2.8437zM36.5156 27.9848h-2.8437v2.8437h2.8437zM45.0449 27.9848h-2.8437v2.8437h2.8437zM50.7324 27.9848h-2.8437v2.8437h2.8437z"/><path fill="white" d="M59.2636 27.9848h-2.8437v2.8437h2.8437zM70.6386 27.9848h-2.8437v2.8437h2.8437zM73.4843 27.9848h-2.8437v2.8437h2.8437z"/><path fill="white" d="M76.3261 27.9848h-2.8437v2.8437h2.8437zM79.1699 27.9848h-2.8437v2.8437h2.8437zM84.8574 27.9848h-2.8437v2.8437h2.8437zM87.7011 27.9848h-2.8437v2.8437h2.8437zM96.2343 27.9848h-2.8437v2.8437h2.8437zM104.766 27.9848h-2.844v2.8437h2.844zM5.23629 30.8286H2.39258v2.8437h2.84371zM13.7675 30.8286h-2.8437v2.8437h2.8437zM22.2988 30.8286h-2.8437v2.8437h2.8437zM27.9843 30.8286h-2.8437v2.8437h2.8437zM30.83 30.8286h-2.8437v2.8437H30.83z"/><path fill="white" d="M33.6718 30.8286h-2.8437v2.8437h2.8437zM42.2011 30.8286h-2.8437v2.8437h2.8437zM45.0449 30.8286h-2.8437v2.8437h2.8437zM64.9531 30.8286h-2.8437v2.8437h2.8437zM70.6386 30.8286h-2.8437v2.8437h2.8437zM76.3261 30.8286h-2.8437v2.8437h2.8437zM82.0156 30.8286h-2.8437v2.8437h2.8437z"/><path fill="white" d="M84.8574 30.8286h-2.8437v2.8437h2.8437zM87.7011 30.8286h-2.8437v2.8437h2.8437zM90.5468 30.8286h-2.8437v2.8437h2.8437z"/><path fill="white" d="M93.3886 30.8286h-2.8437v2.8437h2.8437zM96.2343 30.8286h-2.8437v2.8437h2.8437zM99.0781 30.8286h-2.8437v2.8437h2.8437zM104.766 30.8286h-2.844v2.8437h2.844z"/><path fill="white" d="M107.609 30.8286h-2.843v2.8437h2.843zM5.23629 33.6725H2.39258v2.8437h2.84371zM10.9218 33.6725H8.07812v2.8437h2.84368zM13.7675 33.6725h-2.8437v2.8437h2.8437zM19.4531 33.6725h-2.8437v2.8437h2.8437zM30.83 33.6725h-2.8437v2.8437H30.83z"/><path fill="white" d="M33.6718 33.6725h-2.8437v2.8437h2.8437zM36.5156 33.6725h-2.8437v2.8437h2.8437zM39.3593 33.6725h-2.8437v2.8437h2.8437z"/><path fill="white" d="M42.2011 33.6725h-2.8437v2.8437h2.8437zM45.0449 33.6725h-2.8437v2.8437h2.8437zM50.7324 33.6725h-2.8437v2.8437h2.8437zM59.2636 33.6725h-2.8437v2.8437h2.8437zM62.1074 33.6725h-2.8437v2.8437h2.8437zM79.1699 33.6725h-2.8437v2.8437h2.8437zM84.8574 33.6725h-2.8437v2.8437h2.8437zM87.7011 33.6725h-2.8437v2.8437h2.8437zM90.5468 33.6725h-2.8437v2.8437h2.8437z"/><path fill="white" d="M93.3886 33.6725h-2.8437v2.8437h2.8437zM101.92 33.6725h-2.8438v2.8437h2.8438zM8.07809 36.5158H5.23438v2.8437h2.84371zM13.7675 36.5158h-2.8437v2.8437h2.8437zM22.2988 36.5158h-2.8437v2.8437h2.8437z"/><path fill="white" d="M25.1406 36.5158h-2.8437v2.8437h2.8437zM30.83 36.5158h-2.8437v2.8437H30.83zM36.5156 36.5158h-2.8437v2.8437h2.8437zM42.2011 36.5158h-2.8437v2.8437h2.8437zM53.5781 36.5158h-2.8437v2.8437h2.8437zM56.4218 36.5158h-2.8437v2.8437h2.8437zM62.1074 36.5158h-2.8437v2.8437h2.8437zM67.7949 36.5158h-2.8437v2.8437h2.8437zM73.4843 36.5158h-2.8437v2.8437h2.8437zM82.0156 36.5158h-2.8437v2.8437h2.8437zM90.5468 36.5158h-2.8437v2.8437h2.8437z"/><path fill="white" d="M93.3886 36.5158h-2.8437v2.8437h2.8437zM104.766 36.5158h-2.844v2.8437h2.844z"/><path fill="white" d="M107.609 36.5158h-2.843v2.8437h2.843zM5.23629 39.3599H2.39258v2.8437h2.84371zM30.83 39.3599h-2.8437v2.8437H30.83zM42.2011 39.3599h-2.8437v2.8437h2.8437zM53.5781 39.3599h-2.8437v2.8437h2.8437zM67.7949 39.3599h-2.8437v2.8437h2.8437zM70.6386 39.3599h-2.8437v2.8437h2.8437zM76.3261 39.3599h-2.8437v2.8437h2.8437zM82.0156 39.3599h-2.8437v2.8437h2.8437zM87.7011 39.3599h-2.8437v2.8437h2.8437zM96.2343 39.3599h-2.8437v2.8437h2.8437zM101.92 39.3599h-2.8438v2.8437h2.8438z"/><path fill="white" d="M5.23629 42.2035H2.39258v2.8437h2.84371z"/><path fill="white" d="M8.07809 42.2035H5.23438v2.8437h2.84371zM10.9218 42.2035H8.07812v2.8437h2.84368zM13.7675 42.2035h-2.8437v2.8437h2.8437zM22.2988 42.2035h-2.8437v2.8437h2.8437zM30.83 42.2035h-2.8437v2.8437H30.83zM36.5156 42.2035h-2.8437v2.8437h2.8437zM39.3593 42.2035h-2.8437v2.8437h2.8437zM45.0449 42.2035h-2.8437v2.8437h2.8437zM50.7324 42.2035h-2.8437v2.8437h2.8437zM53.5781 42.2035h-2.8437v2.8437h2.8437zM59.2636 42.2035h-2.8437v2.8437h2.8437zM64.9531 42.2035h-2.8437v2.8437h2.8437z"/><path fill="white" d="M67.7949 42.2035h-2.8437v2.8437h2.8437zM76.3261 42.2035h-2.8437v2.8437h2.8437zM79.1699 42.2035h-2.8437v2.8437h2.8437zM82.0156 42.2035h-2.8437v2.8437h2.8437z"/><path fill="white" d="M84.8574 42.2035h-2.8437v2.8437h2.8437zM93.3886 42.2035h-2.8437v2.8437h2.8437zM96.2343 42.2035h-2.8437v2.8437h2.8437zM99.0781 42.2035h-2.8437v2.8437h2.8437z"/><path fill="white" d="M101.92 42.2035h-2.8438v2.8437h2.8438zM104.766 42.2035h-2.844v2.8437h2.844z"/><path fill="white" d="M107.609 42.2035h-2.843v2.8437h2.843zM10.9218 45.0471H8.07812v2.8437h2.84368zM13.7675 45.0471h-2.8437v2.8437h2.8437z"/><path fill="white" d="M16.6093 45.0471h-2.8437v2.8437h2.8437zM27.9843 45.0471h-2.8437v2.8437h2.8437zM33.6718 45.0471h-2.8437v2.8437h2.8437zM39.3593 45.0471h-2.8437v2.8437h2.8437zM47.8906 45.0471h-2.8437v2.8437h2.8437z"/><path fill="white" d="M50.7324 45.0471h-2.8437v2.8437h2.8437zM53.5781 45.0471h-2.8437v2.8437h2.8437zM56.4218 45.0471h-2.8437v2.8437h2.8437z"/><path fill="white" d="M59.2636 45.0471h-2.8437v2.8437h2.8437zM62.1074 45.0471h-2.8437v2.8437h2.8437zM73.4843 45.0471h-2.8437v2.8437h2.8437zM90.5468 45.0471h-2.8437v2.8437h2.8437zM96.2343 45.0471h-2.8437v2.8437h2.8437zM99.0781 45.0471h-2.8437v2.8437h2.8437z"/><path fill="white" d="M101.92 45.0471h-2.8438v2.8437h2.8438zM16.6093 47.8909h-2.8437v2.8437h2.8437zM22.2988 47.8909h-2.8437v2.8437h2.8437z"/><path fill="white" d="M25.1406 47.8909h-2.8437v2.8437h2.8437zM30.83 47.8909h-2.8437v2.8437H30.83zM36.5156 47.8909h-2.8437v2.8437h2.8437zM39.3593 47.8909h-2.8437v2.8437h2.8437z"/><path fill="white" d="M42.2011 47.8909h-2.8437v2.8437h2.8437zM45.0449 47.8909h-2.8437v2.8437h2.8437zM50.7324 47.8909h-2.8437v2.8437h2.8437zM56.4218 47.8909h-2.8437v2.8437h2.8437z"/><path fill="white" d="M59.2636 47.8909h-2.8437v2.8437h2.8437zM64.9531 47.8909h-2.8437v2.8437h2.8437zM70.6386 47.8909h-2.8437v2.8437h2.8437zM76.3261 47.8909h-2.8437v2.8437h2.8437zM82.0156 47.8909h-2.8437v2.8437h2.8437zM90.5468 47.8909h-2.8437v2.8437h2.8437zM101.92 47.8909h-2.8438v2.8437h2.8438zM107.609 47.8909h-2.843v2.8437h2.843zM10.9218 50.7345H8.07812v2.8437h2.84368zM16.6093 50.7345h-2.8437v2.8437h2.8437zM25.1406 50.7345h-2.8437v2.8437h2.8437zM27.9843 50.7345h-2.8437v2.8437h2.8437zM39.3593 50.7345h-2.8437v2.8437h2.8437zM50.7324 50.7345h-2.8437v2.8437h2.8437z"/><path fill="white" d="M56.4218 50.7345h-2.8437v2.8437h2.8437zM62.1074 50.7345h-2.8437v2.8437h2.8437zM70.6386 50.7345h-2.8437v2.8437h2.8437zM73.4843 50.7345h-2.8437v2.8437h2.8437zM82.0156 50.7345h-2.8437v2.8437h2.8437zM87.7011 50.7345h-2.8437v2.8437h2.8437zM93.3886 50.7345h-2.8437v2.8437h2.8437zM99.0781 50.7345h-2.8437v2.8437h2.8437zM104.766 50.7345h-2.844v2.8437h2.844zM5.23629 53.5783H2.39258v2.8437h2.84371z"/><path fill="white" d="M8.07809 53.5783H5.23438v2.8437h2.84371zM10.9218 53.5783H8.07812v2.8437h2.84368zM13.7675 53.5783h-2.8437v2.8437h2.8437zM19.4531 53.5783h-2.8437v2.8437h2.8437zM22.2988 53.5783h-2.8437v2.8437h2.8437zM36.5156 53.5783h-2.8437v2.8437h2.8437zM42.2011 53.5783h-2.8437v2.8437h2.8437zM45.0449 53.5783h-2.8437v2.8437h2.8437zM47.8906 53.5783h-2.8437v2.8437h2.8437z"/><path fill="white" d="M50.7324 53.5783h-2.8437v2.8437h2.8437zM53.5781 53.5783h-2.8437v2.8437h2.8437zM59.2636 53.5783h-2.8437v2.8437h2.8437zM64.9531 53.5783h-2.8437v2.8437h2.8437zM70.6386 53.5783h-2.8437v2.8437h2.8437zM76.3261 53.5783h-2.8437v2.8437h2.8437zM79.1699 53.5783h-2.8437v2.8437h2.8437zM82.0156 53.5783h-2.8437v2.8437h2.8437z"/><path fill="white" d="M84.8574 53.5783h-2.8437v2.8437h2.8437zM87.7011 53.5783h-2.8437v2.8437h2.8437zM90.5468 53.5783h-2.8437v2.8437h2.8437zM101.92 53.5783h-2.8438v2.8437h2.8438zM107.609 53.5783h-2.843v2.8437h2.843zM10.9218 56.4219H8.07812v2.8437h2.84368zM16.6093 56.4219h-2.8437v2.8437h2.8437zM19.4531 56.4219h-2.8437v2.8437h2.8437zM25.1406 56.4219h-2.8437v2.8437h2.8437zM36.5156 56.4219h-2.8437v2.8437h2.8437zM39.3593 56.4219h-2.8437v2.8437h2.8437z"/><path fill="white" d="M42.2011 56.4219h-2.8437v2.8437h2.8437zM47.8906 56.4219h-2.8437v2.8437h2.8437zM62.1074 56.4219h-2.8437v2.8437h2.8437zM73.4843 56.4219h-2.8437v2.8437h2.8437z"/><path fill="white" d="M76.3261 56.4219h-2.8437v2.8437h2.8437zM82.0156 56.4219h-2.8437v2.8437h2.8437z"/><path fill="white" d="M84.8574 56.4219h-2.8437v2.8437h2.8437zM93.3886 56.4219h-2.8437v2.8437h2.8437zM96.2343 56.4219h-2.8437v2.8437h2.8437zM10.9218 59.2657H8.07812v2.8438h2.84368zM16.6093 59.2657h-2.8437v2.8438h2.8437zM22.2988 59.2657h-2.8437v2.8438h2.8437zM30.83 59.2657h-2.8437v2.8438H30.83zM47.8906 59.2657h-2.8437v2.8438h2.8437zM59.2636 59.2657h-2.8437v2.8438h2.8437zM67.7949 59.2657h-2.8437v2.8438h2.8437zM73.4843 59.2657h-2.8437v2.8438h2.8437zM84.8574 59.2657h-2.8437v2.8438h2.8437zM90.5468 59.2657h-2.8437v2.8438h2.8437zM96.2343 59.2657h-2.8437v2.8438h2.8437zM99.0781 59.2657h-2.8437v2.8438h2.8437zM107.609 59.2657h-2.843v2.8438h2.843z"/><path fill="white" d="M13.7675 62.1093h-2.8437v2.8437h2.8437z"/><path fill="white" d="M16.6093 62.1093h-2.8437v2.8437h2.8437zM27.9843 62.1093h-2.8437v2.8437h2.8437zM30.83 62.1093h-2.8437v2.8437H30.83zM45.0449 62.1093h-2.8437v2.8437h2.8437zM50.7324 62.1093h-2.8437v2.8437h2.8437zM59.2636 62.1093h-2.8437v2.8437h2.8437zM62.1074 62.1093h-2.8437v2.8437h2.8437zM64.9531 62.1093h-2.8437v2.8437h2.8437z"/><path fill="white" d="M67.7949 62.1093h-2.8437v2.8437h2.8437zM70.6386 62.1093h-2.8437v2.8437h2.8437zM82.0156 62.1093h-2.8437v2.8437h2.8437z"/><path fill="white" d="M84.8574 62.1093h-2.8437v2.8437h2.8437zM87.7011 62.1093h-2.8437v2.8437h2.8437zM93.3886 62.1093h-2.8437v2.8437h2.8437zM96.2343 62.1093h-2.8437v2.8437h2.8437zM99.0781 62.1093h-2.8437v2.8437h2.8437z"/><path fill="white" d="M101.92 62.1093h-2.8438v2.8437h2.8438zM104.766 62.1093h-2.844v2.8437h2.844zM5.23629 64.9531H2.39258v2.8437h2.84371zM10.9218 64.9531H8.07812v2.8437h2.84368zM16.6093 64.9531h-2.8437v2.8437h2.8437zM19.4531 64.9531h-2.8437v2.8437h2.8437zM22.2988 64.9531h-2.8437v2.8437h2.8437zM33.6718 64.9531h-2.8437v2.8437h2.8437zM36.5156 64.9531h-2.8437v2.8437h2.8437zM42.2011 64.9531h-2.8437v2.8437h2.8437zM47.8906 64.9531h-2.8437v2.8437h2.8437zM56.4218 64.9531h-2.8437v2.8437h2.8437zM64.9531 64.9531h-2.8437v2.8437h2.8437zM70.6386 64.9531h-2.8437v2.8437h2.8437zM73.4843 64.9531h-2.8437v2.8437h2.8437zM79.1699 64.9531h-2.8437v2.8437h2.8437zM82.0156 64.9531h-2.8437v2.8437h2.8437zM87.7011 64.9531h-2.8437v2.8437h2.8437zM90.5468 64.9531h-2.8437v2.8437h2.8437zM96.2343 64.9531h-2.8437v2.8437h2.8437zM104.766 64.9531h-2.844v2.8437h2.844z"/><path fill="white" d="M107.609 64.9531h-2.843v2.8437h2.843zM5.23629 67.797H2.39258v2.8437h2.84371zM10.9218 67.797H8.07812v2.8437h2.84368zM16.6093 67.797h-2.8437v2.8437h2.8437zM25.1406 67.797h-2.8437v2.8437h2.8437zM27.9843 67.797h-2.8437v2.8437h2.8437zM30.83 67.797h-2.8437v2.8437H30.83z"/><path fill="white" d="M33.6718 67.797h-2.8437v2.8437h2.8437zM36.5156 67.797h-2.8437v2.8437h2.8437zM42.2011 67.797h-2.8437v2.8437h2.8437zM45.0449 67.797h-2.8437v2.8437h2.8437zM50.7324 67.797h-2.8437v2.8437h2.8437zM56.4218 67.797h-2.8437v2.8437h2.8437zM62.1074 67.797h-2.8437v2.8437h2.8437zM67.7949 67.797h-2.8437v2.8437h2.8437zM70.6386 67.797h-2.8437v2.8437h2.8437zM79.1699 67.797h-2.8437v2.8437h2.8437zM82.0156 67.797h-2.8437v2.8437h2.8437z"/><path fill="white" d="M84.8574 67.797h-2.8437v2.8437h2.8437zM93.3886 67.797h-2.8437v2.8437h2.8437zM101.92 67.797h-2.8438v2.8437h2.8438zM107.609 67.797h-2.843v2.8437h2.843zM13.7675 70.6403h-2.8437v2.8437h2.8437z"/><path fill="white" d="M16.6093 70.6403h-2.8437v2.8437h2.8437zM22.2988 70.6403h-2.8437v2.8437h2.8437z"/><path fill="white" d="M25.1406 70.6403h-2.8437v2.8437h2.8437zM30.83 70.6403h-2.8437v2.8437H30.83z"/><path fill="white" d="M33.6718 70.6403h-2.8437v2.8437h2.8437zM36.5156 70.6403h-2.8437v2.8437h2.8437zM50.7324 70.6403h-2.8437v2.8437h2.8437zM53.5781 70.6403h-2.8437v2.8437h2.8437zM56.4218 70.6403h-2.8437v2.8437h2.8437zM70.6386 70.6403h-2.8437v2.8437h2.8437zM73.4843 70.6403h-2.8437v2.8437h2.8437z"/><path fill="white" d="M76.3261 70.6403h-2.8437v2.8437h2.8437zM79.1699 70.6403h-2.8437v2.8437h2.8437zM84.8574 70.6403h-2.8437v2.8437h2.8437zM87.7011 70.6403h-2.8437v2.8437h2.8437zM90.5468 70.6403h-2.8437v2.8437h2.8437zM104.766 70.6403h-2.844v2.8437h2.844z"/><path fill="white" d="M107.609 70.6403h-2.843v2.8437h2.843zM5.23629 73.4844H2.39258v2.8437h2.84371z"/><path fill="white" d="M8.07809 73.4844H5.23438v2.8437h2.84371zM10.9218 73.4844H8.07812v2.8437h2.84368zM13.7675 73.4844h-2.8437v2.8437h2.8437zM19.4531 73.4844h-2.8437v2.8437h2.8437zM25.1406 73.4844h-2.8437v2.8437h2.8437zM36.5156 73.4844h-2.8437v2.8437h2.8437zM50.7324 73.4844h-2.8437v2.8437h2.8437zM59.2636 73.4844h-2.8437v2.8437h2.8437zM70.6386 73.4844h-2.8437v2.8437h2.8437zM73.4843 73.4844h-2.8437v2.8437h2.8437z"/><path fill="white" d="M76.3261 73.4844h-2.8437v2.8437h2.8437zM84.8574 73.4844h-2.8437v2.8437h2.8437zM90.5468 73.4844h-2.8437v2.8437h2.8437z"/><path fill="white" d="M93.3886 73.4844h-2.8437v2.8437h2.8437zM96.2343 73.4844h-2.8437v2.8437h2.8437zM99.0781 73.4844h-2.8437v2.8437h2.8437zM104.766 73.4844h-2.844v2.8437h2.844zM5.23629 76.3278H2.39258v2.8437h2.84371z"/><path fill="white" d="M8.07809 76.3278H5.23438v2.8437h2.84371zM10.9218 76.3278H8.07812v2.8437h2.84368zM19.4531 76.3278h-2.8437v2.8437h2.8437zM22.2988 76.3278h-2.8437v2.8437h2.8437z"/><path fill="white" d="M25.1406 76.3278h-2.8437v2.8437h2.8437zM27.9843 76.3278h-2.8437v2.8437h2.8437zM30.83 76.3278h-2.8437v2.8437H30.83z"/><path fill="white" d="M33.6718 76.3278h-2.8437v2.8437h2.8437zM45.0449 76.3278h-2.8437v2.8437h2.8437zM62.1074 76.3278h-2.8437v2.8437h2.8437zM64.9531 76.3278h-2.8437v2.8437h2.8437z"/><path fill="white" d="M67.7949 76.3278h-2.8437v2.8437h2.8437zM84.8574 76.3278h-2.8437v2.8437h2.8437zM90.5468 76.3278h-2.8437v2.8437h2.8437z"/><path fill="white" d="M93.3886 76.3278h-2.8437v2.8437h2.8437zM99.0781 76.3278h-2.8437v2.8437h2.8437zM107.609 76.3278h-2.843v2.8437h2.843zM5.23629 79.1716H2.39258v2.8437h2.84371zM10.9218 79.1716H8.07812v2.8437h2.84368zM16.6093 79.1716h-2.8437v2.8437h2.8437zM25.1406 79.1716h-2.8437v2.8437h2.8437zM27.9843 79.1716h-2.8437v2.8437h2.8437zM30.83 79.1716h-2.8437v2.8437H30.83zM36.5156 79.1716h-2.8437v2.8437h2.8437zM39.3593 79.1716h-2.8437v2.8437h2.8437z"/><path fill="white" d="M42.2011 79.1716h-2.8437v2.8437h2.8437zM45.0449 79.1716h-2.8437v2.8437h2.8437zM50.7324 79.1716h-2.8437v2.8437h2.8437zM56.4218 79.1716h-2.8437v2.8437h2.8437zM70.6386 79.1716h-2.8437v2.8437h2.8437zM73.4843 79.1716h-2.8437v2.8437h2.8437zM82.0156 79.1716h-2.8437v2.8437h2.8437zM87.7011 79.1716h-2.8437v2.8437h2.8437zM93.3886 79.1716h-2.8437v2.8437h2.8437zM96.2343 79.1716h-2.8437v2.8437h2.8437zM99.0781 79.1716h-2.8437v2.8437h2.8437z"/><path fill="white" d="M101.92 79.1716h-2.8438v2.8437h2.8438zM107.609 79.1716h-2.843v2.8437h2.843zM5.23629 82.0154H2.39258v2.8438h2.84371zM13.7675 82.0154h-2.8437v2.8438h2.8437z"/><path fill="white" d="M16.6093 82.0154h-2.8437v2.8438h2.8437zM22.2988 82.0154h-2.8437v2.8438h2.8437zM27.9843 82.0154h-2.8437v2.8438h2.8437zM30.83 82.0154h-2.8437v2.8438H30.83zM39.3593 82.0154h-2.8437v2.8438h2.8437zM56.4218 82.0154h-2.8437v2.8438h2.8437zM62.1074 82.0154h-2.8437v2.8438h2.8437zM70.6386 82.0154h-2.8437v2.8438h2.8437zM73.4843 82.0154h-2.8437v2.8438h2.8437z"/><path fill="white" d="M76.3261 82.0154h-2.8437v2.8438h2.8437zM84.8574 82.0154h-2.8437v2.8438h2.8437zM87.7011 82.0154h-2.8437v2.8438h2.8437zM90.5468 82.0154h-2.8437v2.8438h2.8437z"/><path fill="white" d="M93.3886 82.0154h-2.8437v2.8438h2.8437zM96.2343 82.0154h-2.8437v2.8438h2.8437zM99.0781 82.0154h-2.8437v2.8438h2.8437z"/><path fill="white" d="M101.92 82.0154h-2.8438v2.8438h2.8438zM107.609 82.0154h-2.843v2.8438h2.843zM27.9843 84.859h-2.8437v2.8437h2.8437zM33.6718 84.859h-2.8437v2.8437h2.8437zM42.2011 84.859h-2.8437v2.8437h2.8437zM53.5781 84.859h-2.8437v2.8437h2.8437zM64.9531 84.859h-2.8437v2.8437h2.8437zM76.3261 84.859h-2.8437v2.8437h2.8437zM79.1699 84.859h-2.8437v2.8437h2.8437zM84.8574 84.859h-2.8437v2.8437h2.8437zM96.2343 84.859h-2.8437v2.8437h2.8437z"/><path fill="white" d="M99.0781 84.859h-2.8437v2.8437h2.8437z"/><path fill="white" d="M101.92 84.859h-2.8438v2.8437h2.8438zM104.766 84.859h-2.844v2.8437h2.844zM30.83 87.7028h-2.8437v2.8437H30.83zM39.3593 87.7028h-2.8437v2.8437h2.8437z"/><path fill="white" d="M42.2011 87.7028h-2.8437v2.8437h2.8437zM45.0449 87.7028h-2.8437v2.8437h2.8437zM53.5781 87.7028h-2.8437v2.8437h2.8437zM56.4218 87.7028h-2.8437v2.8437h2.8437z"/><path fill="white" d="M59.2636 87.7028h-2.8437v2.8437h2.8437zM62.1074 87.7028h-2.8437v2.8437h2.8437zM70.6386 87.7028h-2.8437v2.8437h2.8437zM73.4843 87.7028h-2.8437v2.8437h2.8437z"/><path fill="white" d="M76.3261 87.7028h-2.8437v2.8437h2.8437zM84.8574 87.7028h-2.8437v2.8437h2.8437zM90.5468 87.7028h-2.8437v2.8437h2.8437zM96.2343 87.7028h-2.8437v2.8437h2.8437zM99.0781 87.7028h-2.8437v2.8437h2.8437z"/><path fill="white" d="M101.92 87.7028h-2.8438v2.8437h2.8438zM107.609 87.7028h-2.843v2.8437h2.843zM27.9843 90.5464h-2.8437v2.8438h2.8437zM30.83 90.5464h-2.8437v2.8438H30.83z"/><path fill="white" d="M33.6718 90.5464h-2.8437v2.8438h2.8437zM42.2011 90.5464h-2.8437v2.8438h2.8437zM45.0449 90.5464h-2.8437v2.8438h2.8437zM50.7324 90.5464h-2.8437v2.8438h2.8437zM59.2636 90.5464h-2.8437v2.8438h2.8437zM62.1074 90.5464h-2.8437v2.8438h2.8437zM64.9531 90.5464h-2.8437v2.8438h2.8437zM76.3261 90.5464h-2.8437v2.8438h2.8437zM79.1699 90.5464h-2.8437v2.8438h2.8437zM82.0156 90.5464h-2.8437v2.8438h2.8437z"/><path fill="white" d="M84.8574 90.5464h-2.8437v2.8438h2.8437zM96.2343 90.5464h-2.8437v2.8438h2.8437zM99.0781 90.5464h-2.8437v2.8438h2.8437zM27.9843 93.3903h-2.8437v2.8437h2.8437zM30.83 93.3903h-2.8437v2.8437H30.83z"/><path fill="white" d="M33.6718 93.3903h-2.8437v2.8437h2.8437zM50.7324 93.3903h-2.8437v2.8437h2.8437zM53.5781 93.3903h-2.8437v2.8437h2.8437zM56.4218 93.3903h-2.8437v2.8437h2.8437z"/><path fill="white" d="M59.2636 93.3903h-2.8437v2.8437h2.8437zM62.1074 93.3903h-2.8437v2.8437h2.8437zM64.9531 93.3903h-2.8437v2.8437h2.8437zM73.4843 93.3903h-2.8437v2.8437h2.8437zM79.1699 93.3903h-2.8437v2.8437h2.8437zM82.0156 93.3903h-2.8437v2.8437h2.8437z"/><path fill="white" d="M84.8574 93.3903h-2.8437v2.8437h2.8437zM87.7011 93.3903h-2.8437v2.8437h2.8437zM90.5468 93.3903h-2.8437v2.8437h2.8437z"/><path fill="white" d="M93.3886 93.3903h-2.8437v2.8437h2.8437zM96.2343 93.3903h-2.8437v2.8437h2.8437zM104.766 93.3903h-2.844v2.8437h2.844zM27.9843 96.2338h-2.8437v2.8437h2.8437zM42.2011 96.2338h-2.8437v2.8437h2.8437zM47.8906 96.2338h-2.8437v2.8437h2.8437zM53.5781 96.2338h-2.8437v2.8437h2.8437zM62.1074 96.2338h-2.8437v2.8437h2.8437zM64.9531 96.2338h-2.8437v2.8437h2.8437z"/><path fill="white" d="M67.7949 96.2338h-2.8437v2.8437h2.8437zM82.0156 96.2338h-2.8437v2.8437h2.8437z"/><path fill="white" d="M84.8574 96.2338h-2.8437v2.8437h2.8437zM90.5468 96.2338h-2.8437v2.8437h2.8437z"/><path fill="white" d="M93.3886 96.2338h-2.8437v2.8437h2.8437zM99.0781 96.2338h-2.8437v2.8437h2.8437zM104.766 96.2338h-2.844v2.8437h2.844zM30.83 99.0777h-2.8437v2.8433H30.83z"/><path fill="white" d="M33.6718 99.0777h-2.8437v2.8433h2.8437zM36.5156 99.0777h-2.8437v2.8433h2.8437zM42.2011 99.0777h-2.8437v2.8433h2.8437zM47.8906 99.0777h-2.8437v2.8433h2.8437z"/><path fill="white" d="M50.7324 99.0777h-2.8437v2.8433h2.8437zM64.9531 99.0777h-2.8437v2.8433h2.8437zM73.4843 99.0777h-2.8437v2.8433h2.8437z"/><path fill="white" d="M76.3261 99.0777h-2.8437v2.8433h2.8437zM96.2343 99.0777h-2.8437v2.8433h2.8437zM101.92 99.0777h-2.8438v2.8433h2.8438zM104.766 99.0777h-2.844v2.8433h2.844z"/><path fill="white" d="M107.609 99.0777h-2.843v2.8433h2.843zM27.9843 101.922h-2.8437v2.843h2.8437zM33.6718 101.922h-2.8437v2.843h2.8437zM42.2011 101.922h-2.8437v2.843h2.8437zM47.8906 101.922h-2.8437v2.843h2.8437z"/><path fill="white" d="M50.7324 101.922h-2.8437v2.843h2.8437zM79.1699 101.922h-2.8437v2.843h2.8437zM87.7011 101.922h-2.8437v2.843h2.8437zM90.5468 101.922h-2.8437v2.843h2.8437zM99.0781 101.922h-2.8437v2.843h2.8437z"/><path fill="white" d="M101.92 101.922h-2.8438v2.843h2.8438zM104.766 101.922h-2.844v2.843h2.844z"/><path fill="white" d="M107.609 101.922h-2.843v2.843h2.843zM36.5156 104.765h-2.8437v2.844h2.8437zM47.8906 104.765h-2.8437v2.844h2.8437z"/><path fill="white" d="M50.7324 104.765h-2.8437v2.844h2.8437zM59.2636 104.765h-2.8437v2.844h2.8437zM62.1074 104.765h-2.8437v2.844h2.8437zM79.1699 104.765h-2.8437v2.844h2.8437zM84.8574 104.765h-2.8437v2.844h2.8437zM90.5468 104.765h-2.8437v2.844h2.8437zM96.2343 104.765h-2.8437v2.844h2.8437zM99.0781 104.765h-2.8437v2.844h2.8437zM107.609 104.765h-2.843v2.844h2.843z"/></mask><g mask="url(#b)"><path fill="black" d="M110 .00006104H0V110h110z"/></g><mask id="c" width="21" height="21" x="2" y="2" maskUnits="userSpaceOnUse" style="mask-type:luminance"><path fill="white" fill-rule="evenodd" d="M2.39258 2.3913v19.906H22.2986V2.3913zm2.84371 2.84371H19.4549V19.4536H5.23629z" clip-rule="evenodd"/></mask><g mask="url(#c)"><path fill="black" d="M22.2986 2.39124H2.39258V22.2972H22.2986z"/></g><mask id="d" width="9" height="9" x="8" y="8" maskUnits="userSpaceOnUse" style="mask-type:luminance"><path fill="white" d="M16.6093 8.07886H8.07812V16.61h8.53118z"/></mask><g mask="url(#d)"><path fill="black" d="M16.6093 8.07886H8.07812V16.61h8.53118z"/></g><mask id="e" width="21" height="21" x="87" y="2" maskUnits="userSpaceOnUse" style="mask-type:luminance"><path fill="white" fill-rule="evenodd" d="M107.607 2.3913H87.7014v19.906h19.9056zm-2.843 2.84371V19.4536H90.5451V5.23501z" clip-rule="evenodd"/></mask><g mask="url(#e)"><path fill="black" d="M107.609 2.39124H87.7031V22.2972h19.9059z"/></g><mask id="f" width="9" height="9" x="93" y="8" maskUnits="userSpaceOnUse" style="mask-type:luminance"><path fill="white" d="M101.922 16.61V8.07886h-8.5313V16.61z"/></mask><g mask="url(#f)"><path fill="black" d="M101.922 8.07886h-8.5314V16.61h8.5314z"/></g><mask id="g" width="21" height="21" x="2" y="87" maskUnits="userSpaceOnUse" style="mask-type:luminance"><path fill="white" fill-rule="evenodd" d="M2.39258 107.609H22.2986V87.703H2.39258zm2.84371-2.844V90.5467H19.4549v14.2183z" clip-rule="evenodd"/></mask><g mask="url(#g)"><path fill="black" d="M22.2986 87.7028H2.39258v19.9062H22.2986z"/></g><mask id="h" width="9" height="9" x="8" y="93" maskUnits="userSpaceOnUse" style="mask-type:luminance"><path fill="white" d="M8.07812 93.3902v8.5308h8.53118v-8.5308z"/></mask><g mask="url(#h)"><path fill="black" d="M16.6093 93.3901H8.07812v8.5309h8.53118z"/></g></svg>