<svg xmlns="http://www.w3.org/2000/svg" width="10" height="16" fill="none" viewBox="0 0 10 16"><path fill="#FCFCFC" d="M.5 1.5c0-.5523.4477-1 1-1h7c.5523 0 1 .4477 1 1v13c0 .5523-.4477 1-1 1h-7c-.5523 0-1-.4477-1-1z"/><path fill="#4C4C4C" d="M9 1.5a.5.5 0 0 0-.5-.5h-7a.5.5 0 0 0-.5.5v13a.5.5 0 0 0 .5.5h7a.5.5 0 0 0 .5-.5zm1 13c0 .8284-.6716 1.5-1.5 1.5h-7C.6716 16 0 15.3284 0 14.5v-13C0 .6716.6716 0 1.5 0h7c.8284 0 1.5.6716 1.5 1.5z"/><path fill="#4C4C4C" d="m7.417 9.4773-.7598-.76a.283.283 0 0 0-.4 0l-.3446.345a.283.283 0 0 1-.3732.0235s-.3296-.2173-.8688-.7564c-.539-.5391-.7564-.869-.7564-.869a.283.283 0 0 1 .0237-.373l.3447-.3447a.2826.2826 0 0 0 0-.4l-.7599-.7599a.2827.2827 0 0 0-.3999 0l-.4582.4584c-.486.4859.1568 1.9745 1.2381 3.056 1.0814 1.0814 2.5703 1.7241 3.0562 1.2383.4172-.4173.4556-.456.4582-.4584a.2823.2823 0 0 0 0-.3998M6 1.5a.5.5 0 0 1 0 1H4a.5.5 0 0 1 0-1z"/></svg>