<svg xmlns="http://www.w3.org/2000/svg" width="13" height="10" fill="none" viewBox="0 0 13 10"><path fill="#FCFCFC" d="M1 2c0-.5523.4477-1 1-1h9c.5523 0 1 .4477 1 1v5.7647c0 .5523-.4477 1-1 1H2c-.5523 0-1-.4477-1-1z"/><path fill="#4C4C4C" d="M0 7.7647V2C0 .8954.8954 0 2 0v1c-.5523 0-1 .4477-1 1v5.7646c0 .5177.3933.9438.8975.9952L2 8.7646h9l.1025-.0048c.5042-.0514.8975-.4775.8975-.9952V2c0-.5523-.4477-1-1-1V0c1.1046 0 2 .8954 2 2v5.7646c0 1.1046-.8954 2-2 2H2c-1.1046 0-2-.8954-2-2M11 0v1H2V0z"/><path fill="#4C4C4C" d="M10.7227 1.8782a.5.5 0 0 1 .5547.832L6.5 5.8948 1.7227 2.7102a.5.5 0 1 1 .5547-.832L6.5 4.6926z"/></svg>